<svg id="Capa_1" enable-background="new 0 0 512 512" height="512" viewBox="0 0 512 512" width="512" xmlns="http://www.w3.org/2000/svg"><g><path d="m341.585 230.107v219.729c0 27.671-22.434 50.095-50.105 50.095h-58.632c28.126 0 50.943-22.817 50.943-50.943v-52.537c0-65.151-52.816-117.967-117.967-117.967h-40.357c-24.1 0-46.514 7.233-65.192 19.641v-68.017c0-77.672 62.968-140.65 140.65-140.65s140.66 62.977 140.66 140.649z" fill="#b98eff"/><g><path d="m393.77 180.876c5.728 15.324 8.868 31.91 8.868 49.231v6.137c29.25 11.003 50.122 39.259 50.122 72.307s-20.872 61.305-50.122 72.308v53.788c58.141-12.488 101.862-64.278 101.862-126.096 0-64.923-48.223-118.785-110.73-127.675z" fill="#ff9bff"/></g><path d="m402.638 230.107v219.729c0 27.671-22.434 50.095-50.105 50.095h-61.053c27.671 0 50.105-22.424 50.105-50.095v-219.729c0-77.672-62.978-140.65-140.66-140.65h61.053c77.682 0 140.66 62.978 140.66 140.65z" fill="#9448f5"/><path d="m198.262 89.491v-2.841c0-18.3 14.888-33.189 33.189-33.189s33.189 14.888 33.189 33.189v2.841c14.434.268 28.335 2.71 41.392 7.013v-9.855c0-41.19-33.391-74.581-74.581-74.581-41.19 0-74.581 33.391-74.581 74.581v9.855c13.057-4.303 26.958-6.745 41.392-7.013z" fill="#ff9bff"/><g><g><circle cx="258.083" cy="200.673" fill="#6d00ca" r="12.128"/></g><g><path d="m226.604 240.859h-51.359c-4.143 0-7.5-3.358-7.5-7.5s3.357-7.5 7.5-7.5h51.359c4.143 0 7.5 3.358 7.5 7.5s-3.357 7.5-7.5 7.5z" fill="#6d00ca"/></g><g><circle cx="143.766" cy="200.673" fill="#6d00ca" r="12.128"/></g></g><g><g><path d="m402.631 442.149c-3.46 0-4.178-2.462-4.934-5.981-.869-4.05-.684-7.984 3.366-8.854 26.727-5.74 51.055-20.644 68.506-41.967 17.689-21.614 27.431-48.888 27.431-76.796 0-29.386-10.678-57.765-30.067-79.909-19.21-21.939-45.567-36.266-74.218-40.341-4.102-.583-4.957-4.38-4.373-8.481.583-4.101 2.392-6.953 6.485-6.369 32.203 4.58 61.818 20.671 83.392 45.31 21.784 24.88 33.781 56.768 33.781 89.79 0 31.361-10.947 62.009-30.824 86.297-19.595 23.942-46.927 40.681-76.963 47.132-.531.114-1.061.169-1.582.169z" fill="#e207b9"/></g><g><path d="m402.639 388.361c-3.033 0-4.194-1.854-5.325-4.861-1.459-3.877-1.193-8.202 2.684-9.66 27.073-10.184 45.263-36.421 45.263-65.288 0-28.866-18.189-55.103-45.263-65.288-3.877-1.458-2.891-5.784-1.432-9.66 1.458-3.877 2.839-5.837 6.713-4.379 32.886 12.371 54.981 44.25 54.981 79.327s-22.096 66.956-54.981 79.327c-.87.327-1.762.482-2.64.482z" fill="#e207b9"/></g></g><g><path d="m156.87 100.565c-4.143 0-7.5.082-7.5-4.061v-9.855c0-45.26 36.821-82.081 82.081-82.081s82.081 36.821 82.081 82.081v9.855c0 4.142-3.357 1.713-7.5 1.713s-7.5 2.429-7.5-1.713v-9.855c0-36.989-30.093-67.081-67.081-67.081s-67.081 30.093-67.081 67.081v9.855c0 4.143-3.357 4.061-7.5 4.061z" fill="#e207b9"/></g><g><path d="m264.641 93c-4.143 0-7.5.633-7.5-3.509v-2.841c0-14.165-11.524-25.689-25.689-25.689s-25.688 11.524-25.688 25.689v2.841c0 4.142-3.357 1.422-7.5 1.422s-7.5 2.72-7.5-1.422v-2.841c0-22.436 18.253-40.689 40.688-40.689 22.437 0 40.689 18.253 40.689 40.689v2.841c0 4.142-3.358 3.509-7.5 3.509z" fill="#e207b9"/></g><path d="m261.978 81.957h-61.053c-81.69 0-148.15 66.46-148.15 148.15v68.018c0 4.142 3.358 4.099 7.5 4.099s7.5-3.358 7.5-7.5v-64.617c0-73.419 59.731-133.15 133.15-133.15 73.425 0 133.16 59.731 133.16 133.15v219.729c0 23.487-19.112 42.595-42.605 42.595h-48.045c-4.143 0-15.22 3.357-15.22 7.5 0 4.142.491 7.5 4.634 7.5h119.685c31.764 0 57.604-25.837 57.604-57.595v-219.729c0-81.69-66.465-148.15-148.16-148.15zm133.16 367.88c0 23.487-19.112 42.595-42.604 42.595h-22.319c12.462-11.423 18.871-26.931 18.871-42.595v-219.73c0-56.1-31.848-107.868-83.104-133.091 71.579 2.125 129.157 61.012 129.157 133.091v219.73z" fill="#6d00ca"/><path d="m243.434 396.451v52.537c0 28.126-22.817 50.943-50.943 50.943h-134.048c-28.136 0-50.943-22.817-50.943-50.943v-52.537c0-65.151 52.816-117.967 117.967-117.967s117.967 52.816 117.967 117.967z" fill="#ff9bff"/><path d="m124.711 319.88c-42.156.409-75.82 35.39-75.82 77.548v40.15c0 11.577 9.385 20.961 20.961 20.961h111.228c11.577 0 20.962-9.385 20.962-20.962v-41.126c0-42.474-34.762-76.984-77.331-76.571z" fill="#ffd600"/><path d="m283.791 396.451v52.537c0 28.126-22.817 50.943-50.943 50.943h-40.357c28.126 0 50.943-22.817 50.943-50.943v-52.537c0-65.151-52.816-117.967-117.967-117.967h40.357c65.151 0 117.967 52.816 117.967 117.967z" fill="#ff63ed"/><g><path d="m124.639 312.381c.278-.003.559-.004.837-.004 22.275 0 43.242 8.631 59.125 24.36 16.084 15.929 24.941 37.136 24.941 59.715v41.126c0 15.694-12.768 28.462-28.461 28.462h-111.228c-15.693 0-28.461-12.768-28.461-28.461v-40.15c0-46.451 37.344-84.603 83.247-85.048m.144 14.999c-37.711.366-68.392 31.789-68.392 70.048v40.15c0 7.422 6.038 13.461 13.461 13.461h111.229c7.423 0 13.461-6.039 13.461-13.462v-41.126c0-18.545-7.279-35.967-20.497-49.057-13.214-13.086-30.67-20.193-49.262-20.014z" fill="#f95116"/></g><path d="m165.824 270.984h-40.357c-69.183 0-125.467 56.284-125.467 125.468v52.537c0 32.226 26.218 58.443 58.443 58.443h174.405c32.226 0 58.442-26.218 58.442-58.443v-52.537c.001-69.184-56.283-125.468-125.466-125.468zm-150.824 178.004v-52.537c0-60.912 49.556-110.467 110.467-110.467 61.015 0 110.468 49.624 110.468 110.467v52.537c0 23.955-19.488 43.443-43.443 43.443h-134.049c-23.955 0-43.443-19.488-43.443-43.443zm261.291 0c0 23.955-19.488 43.443-43.442 43.443h-1.304c12.213-11.042 19.39-26.665 19.39-43.443v-52.537c0-45.629-24.751-86.16-61.562-107.941 49.638 10.819 86.918 55.107 86.918 107.941z" fill="#e207b9"/></g></svg>