<svg xmlns="http://www.w3.org/2000/svg" viewBox="0 0 609.08 101"><defs><style>.cls-1{fill:#f7f4ee;}.cls-2{isolation:isolate;}.cls-3{fill:#ccc;}.cls-4{fill:#f8f8f8;}</style></defs><g id="圖層_2" data-name="圖層 2"><g id="圖層_1-2" data-name="圖層 1"><rect id="Rectangle_1032" data-name="Rectangle 1032" class="cls-1" width="342" height="101" rx="27"/><g id="A_n_y_t_h_i_n_g_F_o_r_p_e_t" data-name="A n y t h i n g F o r p e t" class="cls-2"><g class="cls-2"><path class="cls-3" d="M57.78,56.52h-12L43.38,63H41.62L50.9,38.31h1.8L62,63H60.19Zm-6-16.09L46.3,55.15h11Z"/><path class="cls-3" d="M101.45,51.66c0-4.75-2.63-7.2-6.56-7.2S88,47,88,52.45V63H86.33V43.45H88v4.14c1.15-3,4-4.53,7.2-4.53,4.35,0,7.88,2.63,7.88,8.49V63h-1.58Z"/><path class="cls-3" d="M142.66,43.45h1.66L133,72.18h-1.66L134.93,63l-8.21-19.55h1.76l7.35,17.75Z"/><path class="cls-3" d="M169,44.86h-3V43.45h3v-5h1.62v5h5.79v1.41h-5.79V57.78c0,2.95,1,3.78,3.6,3.78h2.19V63H174c-3.35,0-5-1.37-5-5.22Z"/><path class="cls-3" d="M201,36.36h1.62V47.59c1.15-3,4-4.53,7.24-4.53,4.32,0,7.84,2.63,7.84,8.49V63h-1.58V51.66c0-4.75-2.63-7.2-6.55-7.2-4.07,0-7,2.56-7,8V63H201Z"/><path class="cls-3" d="M243.21,37.7a1.37,1.37,0,1,1,2.74,0,1.37,1.37,0,1,1-2.74,0Zm.54,5.75h1.62V63h-1.62Z"/><path class="cls-3" d="M286.73,51.66c0-4.75-2.62-7.2-6.55-7.2s-6.94,2.56-6.94,8V63h-1.62V43.45h1.62v4.14c1.15-3,4-4.53,7.2-4.53,4.35,0,7.88,2.63,7.88,8.49V63h-1.59Z"/><path class="cls-3" d="M322.77,43.2c4.28,0,7.2,2.38,8.28,5.33V43.45h1.62V63.61a8.56,8.56,0,0,1-8.89,9c-5,0-8.28-2.6-9.25-6.52h1.62c.93,3,3.56,5.11,7.63,5.11s7.27-2.84,7.27-7.56V57.89a8.47,8.47,0,0,1-8.28,5.4c-5.47,0-9.43-3.93-9.43-10.08S317.3,43.2,322.77,43.2Zm.22,1.41c-4.72,0-8,3.2-8,8.6s3.27,8.64,8,8.64c4.57,0,8.06-3.35,8.06-8.64S327.56,44.61,323,44.61Z"/><path class="cls-3" d="M379.18,37.73h13V39.1H380.8V49.65h10V51h-10V63h-1.62Z"/></g><g class="cls-2"><path class="cls-4" d="M425.41,63.29c-5.48,0-9.62-3.82-9.62-10.08s4.22-10,9.69-10,9.61,3.78,9.61,10S430.88,63.29,425.41,63.29Zm0-1.44c4.1,0,8.06-2.7,8.06-8.64s-3.93-8.6-8-8.6-8,2.7-8,8.6S421.3,61.85,425.41,61.85Z"/><path class="cls-4" d="M461.94,63h-1.61V43.45h1.61v4c1-2.85,3.39-4.43,7.24-4.43v1.69h-.54c-3.35,0-6.7,1.66-6.7,7Z"/><path class="cls-4" d="M523.43,43.2c5.47,0,9.43,3.82,9.43,10s-4,10.08-9.43,10.08a8.47,8.47,0,0,1-8.28-5.4V72.22h-1.62V43.45h1.62V48.6C516.2,45.61,519.15,43.2,523.43,43.2Zm-.25,1.41c-4.54,0-8,3.38-8,8.6s3.49,8.64,8,8.64c4.75,0,8-3.24,8-8.64S527.93,44.61,523.18,44.61Z"/><path class="cls-4" d="M566.56,63.29c-5.47,0-9.5-3.82-9.5-10.08s4-10,9.5-10c5.87,0,9.11,4.18,9.11,8.71a14.19,14.19,0,0,1-.08,2H558.71c.15,5.43,3.82,8,7.85,8,3.85,0,6.62-2.05,7.27-5.29h1.69C574.77,60.44,571.56,63.29,566.56,63.29Zm-7.85-10.76h15.34c.25-5.44-3.57-8-7.53-8S558.89,47.13,558.71,52.53Z"/><path class="cls-4" d="M601.66,44.86h-2.95V43.45h2.95v-5h1.62v5h5.8v1.41h-5.8V57.78c0,2.95,1,3.78,3.6,3.78h2.2V63h-2.45c-3.35,0-5-1.37-5-5.22Z"/></g></g></g></g></svg>