<svg xmlns="http://www.w3.org/2000/svg" viewBox="0 0 98 514.82"><defs><style>.cls-1{fill:#f7f4ee;}.cls-2{isolation:isolate;}.cls-3{fill:#ccc;}.cls-4{fill:#fff;}</style></defs><g id="圖層_2" data-name="圖層 2"><g id="圖層_1-2" data-name="圖層 1"><rect id="Rectangle_1031" data-name="Rectangle 1031" class="cls-1" width="98" height="210" rx="27"/><g id="L_o_v_e_y_o_u" data-name="L o v e y o u" class="cls-2"><g class="cls-2"><path class="cls-3" d="M47.57,104.23v23.9H57v1.37H46V104.23Z"/></g><g class="cls-2"><path class="cls-3" d="M54.55,184.79c-5.47,0-9.61-3.82-9.61-10.08s4.22-10,9.69-10,9.61,3.78,9.61,10S60,184.79,54.55,184.79Zm0-1.44c4.11,0,8.07-2.7,8.07-8.64s-3.93-8.6-8-8.6-8,2.7-8,8.6S50.45,183.35,54.55,183.35Z"/></g><g class="cls-2"><path class="cls-4" d="M45.38,220l7.19,17.79L59.77,220H61.5L53.4,239.5H51.71L43.61,220Z"/></g><g class="cls-2"><path class="cls-4" d="M54.45,294.79c-5.48,0-9.51-3.82-9.51-10.08s4-10,9.51-10c5.86,0,9.1,4.18,9.1,8.71a16.2,16.2,0,0,1-.07,1.95H46.6c.14,5.43,3.82,8,7.85,8,3.85,0,6.62-2.05,7.27-5.29h1.69C62.65,291.94,59.45,294.79,54.45,294.79ZM46.6,284H61.93c.26-5.44-3.56-8-7.52-8S46.78,278.63,46.6,284Z"/></g><g class="cls-2"><path class="cls-4" d="M59.56,385h1.65L49.84,413.68H48.18l3.64-9.18L43.61,385h1.77l7.34,17.75Z"/></g><g class="cls-2"><path class="cls-4" d="M54.55,459.79c-5.47,0-9.61-3.82-9.61-10.08s4.22-10,9.69-10,9.61,3.78,9.61,10S60,459.79,54.55,459.79Zm0-1.44c4.11,0,8.07-2.7,8.07-8.64s-3.93-8.6-8-8.6-8,2.7-8,8.6S50.45,458.35,54.55,458.35Z"/></g><g class="cls-2"><path class="cls-4" d="M62.47,514.5H60.85v-4.25c-1.11,3.06-4,4.57-7.16,4.57-4.36,0-7.92-2.59-7.92-8.49V495h1.59v11.27c0,4.79,2.62,7.2,6.55,7.2s6.94-2.56,6.94-8V495h1.62Z"/></g></g></g></g></svg>