<svg xmlns="http://www.w3.org/2000/svg" width="101.872" height="70.408" viewBox="0 0 101.872 70.408">
  <g id="Group_2540" data-name="Group 2540" transform="translate(-5.297 -1.982)" opacity="0.5">
    <g id="Group_502" data-name="Group 502" transform="translate(5.297 13.104)">
      <path id="Path_12658" data-name="Path 12658" d="M28.474,14.344c-.306-5.1-4.286-11.428-9.49-12.245l-.306.306a45.742,45.742,0,0,0-2.959,5.918c-1.02,2.245-1.531,5-3.265,6.939a14.967,14.967,0,0,1-4.082,2.959L5.923,19.344a1.144,1.144,0,0,0,.306,2.143,9.451,9.451,0,0,0,3.367.306,32.663,32.663,0,0,0,9.388-2.449l1.224-.408a10.028,10.028,0,0,1,3.469-.714,4.6,4.6,0,0,1,3.776,2.041l.714-1.939Z" transform="translate(-4.698 -1.283)" fill="#d8a799"/>
      <g id="Group_501" data-name="Group 501">
        <path id="Path_12659" data-name="Path 12659" d="M5.623,2.32l-.1-.1Z" transform="translate(17.336 10.741)" fill="#deb4a8"/>
        <path id="Path_12660" data-name="Path 12660" d="M5.585,2.276l-.061-.041.122.265Z" transform="translate(17.566 12.509)" fill="#deb4a8"/>
        <path id="Path_12661" data-name="Path 12661" d="M5.522,3.3l.133-.867.061-.041-.184-.153Z" transform="translate(17.465 13.085)" fill="#deb4a8"/>
        <path id="Path_12662" data-name="Path 12662" d="M5.516,2.419l.074-.163-.023.01Z" transform="translate(16.859 14.591)" fill="#deb4a8"/>
        <path id="Path_12663" data-name="Path 12663" d="M5.517,2.256Z" transform="translate(16.932 14.581)" fill="#deb4a8"/>
        <path id="Path_12664" data-name="Path 12664" d="M5.687,2.475l-.02-.214-.153.112Z" transform="translate(16.586 15.076)" fill="#deb4a8"/>
        <path id="Path_12665" data-name="Path 12665" d="M5.515,2.366v0Z" transform="translate(16.73 15.389)" fill="#deb4a8"/>
        <path id="Path_12666" data-name="Path 12666" d="M5.516,2.262V2.5l.01-.112Z" transform="translate(16.869 15.187)" fill="#deb4a8"/>
        <path id="Path_12667" data-name="Path 12667" d="M5.517,2.261h0Z" transform="translate(16.932 15.086)" fill="#deb4a8"/>
        <path id="Path_12668" data-name="Path 12668" d="M5.525,2.566,5.617,2.4,5.547,2.25Z" transform="translate(17.718 13.924)" fill="#deb4a8"/>
        <path id="Path_12669" data-name="Path 12669" d="M7.205,2.269l-.112.214.133.112-1.694.1V2.656l-.02.031,1.735-.1Z" transform="translate(16.384 15.844)" fill="#deb4a8"/>
        <path id="Path_12670" data-name="Path 12670" d="M5.78,2.463l-.122-.1-.133-.092Z" transform="translate(17.698 15.864)" fill="#deb4a8"/>
        <path id="Path_12671" data-name="Path 12671" d="M5.569,2.681l-.02-.2-.031-.214.02.245.01.245Z" transform="translate(17.061 15.237)" fill="#deb4a8"/>
        <path id="Path_12672" data-name="Path 12672" d="M5.664,2.3l.11.01.112.02L5.7,2.29l-.184-.031Z" transform="translate(17.091 14.914)" fill="#deb4a8"/>
        <path id="Path_12673" data-name="Path 12673" d="M6,2.589l.092-.224-.582-.112Z" transform="translate(16.101 14.187)" fill="#deb4a8"/>
        <path id="Path_12674" data-name="Path 12674" d="M5.506,2.252h0Z" transform="translate(15.82 14.176)" fill="#deb4a8"/>
        <path id="Path_12675" data-name="Path 12675" d="M5.6,2.527l-.071-.265-.01.184Z" transform="translate(17.303 15.197)" fill="#deb4a8"/>
        <path id="Path_12676" data-name="Path 12676" d="M5.672,2.426v-.01l-.153-.153Z" transform="translate(17.152 15.227)" fill="#deb4a8"/>
        <path id="Path_12677" data-name="Path 12677" d="M5.623,2.265h0Z" transform="translate(17.336 15.49)" fill="#deb4a8"/>
        <path id="Path_12678" data-name="Path 12678" d="M5.515,2.272l.051.306.888-.051-.031.01L5.607,2.6l.123-.071Z" transform="translate(16.768 16.157)" fill="#deb4a8"/>
        <path id="Path_12679" data-name="Path 12679" d="M5.521,2.267l.092.133.084.133.039-.112-.061-.061Z" transform="translate(17.364 15.712)" fill="#deb4a8"/>
        <path id="Path_12680" data-name="Path 12680" d="M5.52,2.277l.13.071-.071-.082Z" transform="translate(17.235 15.631)" fill="#deb4a8"/>
        <path id="Path_12681" data-name="Path 12681" d="M5.934,2.377l-.429-.122.449.276Z" transform="translate(15.808 14.419)" fill="#deb4a8"/>
        <path id="Path_12682" data-name="Path 12682" d="M5.515,2.259Z" transform="translate(16.73 14.884)" fill="#deb4a8"/>
        <path id="Path_12683" data-name="Path 12683" d="M5.491,2.25l.018.031.01-.031Z" transform="translate(14.305 13.974)" fill="#deb4a8"/>
        <path id="Path_12684" data-name="Path 12684" d="M5.52,2.3l.276.1L5.51,2.257Z" transform="translate(16.253 14.692)" fill="#deb4a8"/>
        <path id="Path_12685" data-name="Path 12685" d="M5.5,2.251l.2.2Z" transform="translate(15.315 14.075)" fill="#deb4a8"/>
        <path id="Path_12686" data-name="Path 12686" d="M5.515,2.259Z" transform="translate(16.73 14.884)" fill="#deb4a8"/>
        <path id="Path_12687" data-name="Path 12687" d="M5.709,2.279l-.2-.02.143.061Z" transform="translate(16.536 14.833)" fill="#deb4a8"/>
        <path id="Path_12688" data-name="Path 12688" d="M5.758,3.107l.571-.041V2.25L6.005,2.4l.335.347-.459-.184-.4.48.3-.071Z" transform="translate(13.484 14.005)" fill="#deb4a8"/>
        <path id="Path_12689" data-name="Path 12689" d="M6.032,2.524l.122.01-.378-.286-.286.112.3.071.288.082Z" transform="translate(14.333 13.863)" fill="#deb4a8"/>
        <path id="Path_12690" data-name="Path 12690" d="M6.008,2.354,5.7,2.66H6.11c-.51-.2.2,0-.1-.2h.306l-.306-.1h0l-.2-.1H5.5Z" transform="translate(15.012 14.176)" fill="#deb4a8"/>
        <path id="Path_12691" data-name="Path 12691" d="M5.52,2.275Z" transform="translate(17.235 16.5)" fill="#deb4a8"/>
        <path id="Path_12692" data-name="Path 12692" d="M5.519,2.707l.174.112-.1.082.174-.082L5.723,2.8l-.092-.531Z" transform="translate(17.172 15.864)" fill="#deb4a8"/>
        <path id="Path_12693" data-name="Path 12693" d="M5.937,2.444l-.214-.1-.214-.082.133.225.031-.071Z" transform="translate(16.04 15.055)" fill="#deb4a8"/>
        <path id="Path_12694" data-name="Path 12694" d="M5.723,2.4l.092-.153-.327.184.123-.02Z" transform="translate(14.03 13.742)" fill="#deb4a8"/>
        <path id="Path_12695" data-name="Path 12695" d="M5.634,2.38l.02-.133-.069.031-.033.02h-.01l-.01.01h0l-.02-.01h0v.01l-.028.01.018.01h.031l.02.01.02.01Z" transform="translate(13.496 13.712)" fill="#deb4a8"/>
        <path id="Path_12696" data-name="Path 12696" d="M5.377,2.308v0Z" transform="translate(2.786 9.529)" fill="#deb4a8"/>
        <path id="Path_12697" data-name="Path 12697" d="M5.373,2.214v0Z" transform="translate(2.382 10.337)" fill="#deb4a8"/>
        <path id="Path_12698" data-name="Path 12698" d="M5.7,2.414l-.347-.133.061.143Z" transform="translate(0.389 17.127)" fill="#deb4a8"/>
        <path id="Path_12699" data-name="Path 12699" d="M5.434,2.281l-.061-.02-.051.184Z" transform="translate(-2.753 15.066)" fill="#deb4a8"/>
        <path id="Path_12700" data-name="Path 12700" d="M5.322,2.255h0Z" transform="translate(-2.771 14.48)" fill="#deb4a8"/>
        <path id="Path_12701" data-name="Path 12701" d="M5.494,2.365l-.1-.2Z" transform="translate(4.302 4.982)" fill="#deb4a8"/>
        <path id="Path_12702" data-name="Path 12702" d="M5.832,2.263h0Z" transform="translate(7.535 15.288)" fill="#deb4a8"/>
        <path id="Path_12703" data-name="Path 12703" d="M5.389,2.42v0Z" transform="translate(3.999 10.539)" fill="#deb4a8"/>
        <path id="Path_12704" data-name="Path 12704" d="M5.42,2.426h.063l.345-.163Z" transform="translate(7.169 15.308)" fill="#deb4a8"/>
        <path id="Path_12705" data-name="Path 12705" d="M5.518,2.153Z" transform="translate(17.033 4.173)" fill="#deb4a8"/>
        <path id="Path_12706" data-name="Path 12706" d="M5.522,2.407v0Z" transform="translate(17.437 9.225)" fill="#deb4a8"/>
        <path id="Path_12707" data-name="Path 12707" d="M5.46,2.25h0Z" transform="translate(11.173 13.974)" fill="#deb4a8"/>
        <path id="Path_12708" data-name="Path 12708" d="M5.467,2.255v0Z" transform="translate(11.88 14.48)" fill="#deb4a8"/>
        <path id="Path_12709" data-name="Path 12709" d="M5.413,2.277Z" transform="translate(6.424 16.702)" fill="#deb4a8"/>
        <path id="Path_12710" data-name="Path 12710" d="M5.563,2.251h0Z" transform="translate(11.274 14.075)" fill="#deb4a8"/>
        <path id="Path_12711" data-name="Path 12711" d="M5.462,2.25h0Z" transform="translate(11.375 13.974)" fill="#deb4a8"/>
        <path id="Path_12712" data-name="Path 12712" d="M5.459,2.3l.2-.031-.031-.02Z" transform="translate(11.049 14.015)" fill="#deb4a8"/>
        <path id="Path_12713" data-name="Path 12713" d="M5.442,2.1Z" transform="translate(9.354 -1.586)" fill="#deb4a8"/>
        <path id="Path_12714" data-name="Path 12714" d="M5.338,2.309h.01l-.02-.01Z" transform="translate(-2.197 18.885)" fill="#deb4a8"/>
        <path id="Path_12715" data-name="Path 12715" d="M5.323,2.825l.439-.082-.1-.449L5.5,2.559Z" transform="translate(-2.632 18.44)" fill="#deb4a8"/>
        <path id="Path_12716" data-name="Path 12716" d="M14.277,12.091l-.2.2-.2-.408c.408.2-.408,1.02,0,1.224l-.1.1v-.1l-.1.816h-.2v.408l-.1-.1-.1.2-.1.306h-.1l.1.408-.1-.1-.1.306v-.408l-.306.1-.306.408v-.1h.1v-.1h-.306l-.408.2.612.2-.2.306-.306.1-.2-.1v.408l-.51-.1v.408L10.4,17.4l-.2-.2V17.5h-.1l-.1.306c0,.306-.714,0-.918.408l-.1-.2-.306.408-.2.306-.408.1-.1.612.2.1-.306.306v-.2h0l-.1-.306.2.1v-.51l-.2.1h.1l-.1.1-.306-.2.1.1-.612.1-.408.714-.1.1h0l-.1.1-.1.2-.2.408L5.6,20.356l.408-.408.1-.1.1-.1h0v-.1h.1l.1-.1-.1-.1-.1.1h0l-.2.1h0l.1-.1h0v.1h0l-.1.1-.2.306-.1.1-.408.306.1.408.1.714H5.4l-.1-.51.1.612.408.408-.2-.1.306.408.1.2-.1-.1.612.408h.612l.714-.1-.2.408.612-.51.408-.408c-.1.2.2.816-.2,1.02h.51v-.408l.612.408.2-.408-.1.408.306-.2.2-.2.1.408.612-.1h-.2l.51-.306.51-.408.2.612c.1-.306.408-1.122.816-1.327l.1.1.408-.2-1.02,1.429h.408l-.306.2h.816l.408-.612-.408.2-.306.2c-.1-.2.306-.714.816-.816v.51l.51-.2-.2.2.816-.306.408.1-.408-1.224.816.1.1.714v-.2l.306.1c0-.306.612-.2.1-.2l.612-.2.306-.714.1.1,1.327-.306.2.1.306-.2-.1.306.51-.51-.612.306c-.1-.2.1-.612.51-1.02l.306.1c.816-.2.408-.714,1.224-.816l.2.51-.816.1H20.5l-.408.2.816-.1,1.122-.306.1-.2h-.1v-.2a1.293,1.293,0,0,1,.918-.408l.1.2h-.408l.816-.1-.2-.1h-.1l.918-.306-.306-.2-.306.1-.2.2-.816-.2-.2.1v.1h.1l-.612.408-.1-.1-.2.2-.1-.306-.408.1H20.4l-.1.1-.306.2-.408.2h0l-.2.1-.2.1-.408.2-.816.2-.612.2-.1-.1-.714.306-1.429.306.1.2-.816.306v.1l-1.122.2h.2c-.612-.2-1.02.51-1.633.306h-.306l-.306.1-.1-.1h0l-.1.2-.1.1-.612-.2-.714.51v-.1H9.175l-.1-.2-.1.1-.2.2-.1-.408-.816.2v-.1H7.44l-.408-.2h-.2l-.1-.1h-.1l-.1-.408v-.2l.1-.1.1-.1-.1-.1.2.2h0l.1-.1v.306h0l-.1-.2h0l.2.1h-.1v-.1l.2-.1.408-.306-.1.1.306-.1-.1.2c.408-.2.306-.51.2-.816l.51-.306v.306l.816-.612.2-.1.714-.408h-.1c0-.408.306-.2.51-.306h0l.918-.408-.2-.1.918-.51h-.2l1.02-.1-.1.1c.612-.2-.1-.2.2-.51l.306.1.2-.2.1-.306.51-.612-.2-.2.612-.816.1-.1.2-.918.408-.612.306-.51.2-.714h.1v-.714h.1a1.71,1.71,0,0,0,.306-1.224h.1c0-.1.612-.714.714-1.327v.1c.1-.714,1.122-1.327.714-1.837V6.683c-.306.51-.2-.2-.408-.1l.408-.2-.1.1.714-.51a11.907,11.907,0,0,1,1.735-2.653l-.816.306.2.1V3.418l.306.1-.2.1h.51c.408.2-.306.2-.1.2l.2.1-.1-.1h.51l.1.2.1.1h.2l.2.1v-.2l.2-.1c.2.408,1.531.918,1.531,1.224l.408.1.408.306h.306c-.408.2.306.51.2.918,0-.306.612.612.612.1l-.1.408L25.6,7.7l.51.918.2-.1v.51l.306.306.1-.1.408,1.02.51,1.02.408,1.122v1.122h.408l-.1.612.306.714-.1-.2.918-.408-.1-.612-.2-.714h.2l-.2-.612v.1l-.2-1.02-.306-1.122-.1.1V10.05l-.2.408-.306-1.531-.306-.1.1-.2h-.2l.1-.306.1.1L27.44,7.7v.1l.1.2-.816-1.122-1.02-.918v.1L25.3,5.662l-.408-.51h.1l-.51-.306.1-.2c-.612-.306-.306-.1-.816-.2v-.2l-.51-.1.2-.2-.714-.51-.408-.306c-.51.1.51.408.306.408l-.2.1-.408-.1-.2-.408-.2-.2-.306-.2h.1l-.612-.2-.51.1H20.6l.306.1H20.6l-.2.1-.612-.1.306-.1-.408-.2h1.02l-.408-.2h-.612l-.408-.1L18.97,2.5l-.2.408-.1-.1-.1.306V2.805l-.51.714c.306-.51.2,0,.408-.1-.2.714-.612.1-.918.918l.306-.1-.408.306c-.306.51.2,0,.1.2l-.1.612-.1-.1c-.408.51.2.306-.2.714l-.1-.306-.1.306-.1-.1-.306.714.2.408-.306.2.1-.408-.1-.1-.306.51.1-.1V7.7l-.2-.1v.408l-.2-.408-.1.612-.306.1-.1.2v.306l-.2.612v.2a2.875,2.875,0,0,0-.408,1.122l-.306.2c-.1.306.408-.306.306.306-.1.408-.306.1-.408.2l-.1.918Zm-1.939,3.571.1-.2.1-.1v.2Zm-5.1,3.775.306-.1Zm13.469-.612Zm.408,0v-.1l-.2.1Zm-.2-14.8v0Z" transform="translate(-5.297 -2.091)" fill="#deb4a8"/>
        <path id="Path_12717" data-name="Path 12717" d="M5.322,2.256h0Z" transform="translate(-2.771 14.581)" fill="#deb4a8"/>
        <path id="Path_12718" data-name="Path 12718" d="M5.405,2.194l.008-.01-.02-.02Z" transform="translate(4.391 5.194)" fill="#deb4a8"/>
        <path id="Path_12719" data-name="Path 12719" d="M5.5,2.288h0Z" transform="translate(5.009 17.814)" fill="#deb4a8"/>
        <path id="Path_12720" data-name="Path 12720" d="M5.746,2.248l-.275.082.257.02Z" transform="translate(12.231 13.722)" fill="#deb4a8"/>
        <path id="Path_12721" data-name="Path 12721" d="M5.5,2.33h.112l.01-.071Z" transform="translate(14.737 14.853)" fill="#deb4a8"/>
        <path id="Path_12722" data-name="Path 12722" d="M5.476,2.253l.378.051-.031.01Z" transform="translate(12.797 14.257)" fill="#deb4a8"/>
        <path id="Path_12723" data-name="Path 12723" d="M5.48,2.253h0Z" transform="translate(13.193 14.277)" fill="#deb4a8"/>
        <path id="Path_12724" data-name="Path 12724" d="M5.658,2.4l.1-.1C5.76,2.089,5.148,2.7,5.658,2.4Z" transform="translate(10.668 14.033)" fill="#deb4a8"/>
        <path id="Path_12725" data-name="Path 12725" d="M5.639,2.429l-.071-.173-.092.153Z" transform="translate(12.807 14.54)" fill="#deb4a8"/>
        <path id="Path_12726" data-name="Path 12726" d="M5.464,2.329H5.75l.061-.071Z" transform="translate(11.585 14.692)" fill="#deb4a8"/>
        <path id="Path_12727" data-name="Path 12727" d="M5.467,2.358l.306-.1Z" transform="translate(11.88 14.581)" fill="#deb4a8"/>
        <path id="Path_12728" data-name="Path 12728" d="M5.757,2.288l-.082-.031-.2.01Z" transform="translate(12.312 14.762)" fill="#deb4a8"/>
        <path id="Path_12729" data-name="Path 12729" d="M5.7,2.267l-.265.163h.184Z" transform="translate(8.452 15.672)" fill="#deb4a8"/>
        <path id="Path_12730" data-name="Path 12730" d="M5.618,2.339l-.173-.071.061.2Z" transform="translate(9.574 15.712)" fill="#deb4a8"/>
        <path id="Path_12731" data-name="Path 12731" d="M5.438,2.272l.012.163.1-.122Z" transform="translate(8.937 16.147)" fill="#deb4a8"/>
        <path id="Path_12732" data-name="Path 12732" d="M5.425,2.648l.084-.02L5.394,2.28Z" transform="translate(4.492 17.056)" fill="#deb4a8"/>
        <path id="Path_12733" data-name="Path 12733" d="M5.356,2.593l.429-.163L5.58,2.3Z" transform="translate(0.652 18.784)" fill="#deb4a8"/>
        <path id="Path_12734" data-name="Path 12734" d="M5.358,2.4l.1-.1Z" transform="translate(0.866 18.723)" fill="#deb4a8"/>
        <path id="Path_12735" data-name="Path 12735" d="M5.57,2.214l-.049.235.1-.163Z" transform="translate(17.336 10.286)" fill="#deb4a8"/>
        <path id="Path_12736" data-name="Path 12736" d="M5.737,2.218,5.522,2.3l.214.122Z" transform="translate(17.475 10.691)" fill="#deb4a8"/>
        <path id="Path_12737" data-name="Path 12737" d="M5.359,2.245,5.39,2.3l.184-.071Z" transform="translate(0.986 11.388)" fill="#deb4a8"/>
        <path id="Path_12738" data-name="Path 12738" d="M5.4,2.2l-.02.041.224.01Z" transform="translate(2.713 9.316)" fill="#deb4a8"/>
        <path id="Path_12739" data-name="Path 12739" d="M5.484,2.18l-.1.306Z" transform="translate(3.291 6.902)" fill="#deb4a8"/>
      </g>
    </g>
    <g id="Group_504" data-name="Group 504" transform="translate(18.052 1.982)">
      <path id="Path_12740" data-name="Path 12740" d="M92.273,25.55c-2.347,1.327-3.061,4.9-6.02,4.9a4.351,4.351,0,0,1-1.837-.612c-2.143-1.429-3.469-3.775-5.612-5.306a18.69,18.69,0,0,0-6.429-3.061A21.4,21.4,0,0,0,58.8,22.591c-7.347,3.163-12.653,9.694-20.1,12.551a6.643,6.643,0,0,1-5.2.408,4.874,4.874,0,0,1-2.449-2.857,9.884,9.884,0,0,1,.51-6.837c1.531-3.775,3.878-7.245,4.082-11.224.306-5.2-3.571-10.1-8.367-11.837-4.9-1.735-10.51-.51-14.8,2.347a23.375,23.375,0,0,0-7.041,7.449c5.2.816,9.184,7.143,9.49,12.245l-.306,3.98-.714,1.939.2.2a6.86,6.86,0,0,1,.408,2.449c.1,4.184-1.02,8.163-1.122,12.347a20.017,20.017,0,0,0,2.653,9.694c3.163,6.02,8.163,11.531,14.694,13.877,4.592,1.633,10,.918,14.694.51,10.816-1.02,20.918-3.775,29.592-10.612,8.265-6.327,12.755-15.306,16.633-24.9C92.681,31.672,93.8,28.305,92.273,25.55Z" transform="translate(-3.906 -0.652)" fill="#ffea92"/>
      <g id="Group_503" data-name="Group 503">
        <path id="Path_12741" data-name="Path 12741" d="M6.585,2.435l-.306-.2C6.585,2.741,6.585,2.333,6.585,2.435Z" transform="translate(81.169 23.177)" fill="#ffeda2"/>
        <path id="Path_12742" data-name="Path 12742" d="M6.5,2.425l-.01-.133-.1.5-.1.5.112-.429Z" transform="translate(81.379 29.411)" fill="#ffeda2"/>
        <path id="Path_12743" data-name="Path 12743" d="M6.259,6.294c.51-.51.918-2.143,1.429-3.265l.1-.1V2.314A25.022,25.022,0,0,1,6.259,6.294Z" transform="translate(79.148 31.563)" fill="#ffeda2"/>
        <path id="Path_12744" data-name="Path 12744" d="M6.24,3.088c.2-.1-.2.714.408-.714l-.1.2Z" transform="translate(77.229 37.626)" fill="#ffeda2"/>
        <path id="Path_12745" data-name="Path 12745" d="M6.292,2.589c.306-.612-.2.306,0,0Z" transform="translate(77.483 37.614)" fill="#ffeda2"/>
        <path id="Path_12746" data-name="Path 12746" d="M6.557,3.211,6.863,2.4l-.408.612C6.047,3.824,6.251,3.619,6.557,3.211Z" transform="translate(75.891 39.748)" fill="#ffeda2"/>
        <path id="Path_12747" data-name="Path 12747" d="M6.227,2.917l.2-.51Z" transform="translate(75.915 40.96)" fill="#ffeda2"/>
        <path id="Path_12748" data-name="Path 12748" d="M6.617,2.4l-.388.908.184-.418Z" transform="translate(76.156 40.101)" fill="#ffeda2"/>
        <path id="Path_12749" data-name="Path 12749" d="M6.236,3.637c.306-.408.612-1.02.306-.2C7.256,1.9,6.95,2.106,6.236,3.637Z" transform="translate(76.825 38.404)" fill="#ffeda2"/>
        <path id="Path_12750" data-name="Path 12750" d="M6.26,3.509,6.6,2.917l.163-.571Z" transform="translate(79.278 34.746)" fill="#ffeda2"/>
        <path id="Path_12751" data-name="Path 12751" d="M6.2,3.218l.367-.194.306-.582Z" transform="translate(73.316 44.496)" fill="#ffeda2"/>
        <path id="Path_12752" data-name="Path 12752" d="M6.71,2.448l-.51.816C6.71,2.55,6.812,2.448,6.71,2.448Z" transform="translate(73.187 45.103)" fill="#ffeda2"/>
        <path id="Path_12753" data-name="Path 12753" d="M6.33,3.93l.306-.714L6.942,2.4l-.408.918-.2.612-.1.306Z" transform="translate(76.016 40.152)" fill="#ffeda2"/>
        <path id="Path_12754" data-name="Path 12754" d="M6.394,2.985l.233-.51-.449.9Z" transform="translate(70.952 47.77)" fill="#ffeda2"/>
        <path id="Path_12755" data-name="Path 12755" d="M7.479,2.5H7.172L6.152,3.927Z" transform="translate(68.337 50.155)" fill="#ffeda2"/>
        <path id="Path_12756" data-name="Path 12756" d="M6.147,3.124l.51-.612Z" transform="translate(67.832 51.569)" fill="#ffeda2"/>
        <path id="Path_12757" data-name="Path 12757" d="M6.8,2.47l-.612.51.306-.2Z" transform="translate(71.672 47.326)" fill="#ffeda2"/>
        <path id="Path_12758" data-name="Path 12758" d="M6.7,2.473l-.01.01-.51.663Z" transform="translate(71.518 47.588)" fill="#ffeda2"/>
        <path id="Path_12759" data-name="Path 12759" d="M6.191,2.469v0Z" transform="translate(72.278 47.225)" fill="#ffeda2"/>
        <path id="Path_12760" data-name="Path 12760" d="M6.624,2.436c-.2.51-.816,1.531,0,.612C6.726,2.64,6.317,3.252,6.624,2.436Z" transform="translate(74.294 43.89)" fill="#ffeda2"/>
        <path id="Path_12761" data-name="Path 12761" d="M6.2,3.446,6.828,2.6l-.069-.143-.278.5Z" transform="translate(72.73 45.951)" fill="#ffeda2"/>
        <path id="Path_12762" data-name="Path 12762" d="M6.193,2.915l.253-.449-.235.306Z" transform="translate(72.48 46.931)" fill="#ffeda2"/>
        <path id="Path_12763" data-name="Path 12763" d="M7.17,2.8l-.408.51-.612.612L7.477,2.6S7.579,2.289,7.17,2.8Z" transform="translate(68.135 50.772)" fill="#ffeda2"/>
        <path id="Path_12764" data-name="Path 12764" d="M6.174,2.491Z" transform="translate(70.56 49.447)" fill="#ffeda2"/>
        <path id="Path_12765" data-name="Path 12765" d="M6.11,2.614l.079-.031V2.553Z" transform="translate(64.094 55.682)" fill="#ffeda2"/>
        <path id="Path_12766" data-name="Path 12766" d="M6.255,3.263l.6-.765-.694.816Z" transform="translate(69.416 50.094)" fill="#ffeda2"/>
        <path id="Path_12767" data-name="Path 12767" d="M6.136,2.933l.714-.408Z" transform="translate(66.721 52.883)" fill="#ffeda2"/>
        <path id="Path_12768" data-name="Path 12768" d="M6.172,2.492h0Z" transform="translate(70.358 49.548)" fill="#ffeda2"/>
        <path id="Path_12769" data-name="Path 12769" d="M6.476,2.583l-.306.52.439-.612Z" transform="translate(70.103 49.488)" fill="#ffeda2"/>
        <path id="Path_12770" data-name="Path 12770" d="M7.07,4.592A5.047,5.047,0,0,1,8.907,3.061l.1-.51H8.6l-.2.1h-.1l-.306.1c0,.1,0,.1-.714.816l1.02-.612.1-.1.2-.1h.1l-.1.2a7.75,7.75,0,0,1-1.531.918c.51-.1-1.327,1.224-.918,1.224l.918-.714Z" transform="translate(62.317 55.51)" fill="#ffeda2"/>
        <path id="Path_12771" data-name="Path 12771" d="M7.642,2.844l.306-.306-1.224.816-.306.306h.1v.2h-.1v-.1h-.1l-.1.1-.1.2.2-.2.1-.1h0l.2-.1.306-.306.816-.612Z" transform="translate(64.195 54.196)" fill="#ffeda2"/>
        <path id="Path_12772" data-name="Path 12772" d="M7.558,3.334c-.2.306-.918,1.02-.306.714l.714-.714.306-.51c-1.429,1.429.408-.51-.714.51l.714-.816-.714.714v-.1h0v.2c-.51.306-.1,0,0-.1v-.1h0l-.2.306-.51.408-.714.714Z" transform="translate(66.013 52.175)" fill="#ffeda2"/>
        <path id="Path_12773" data-name="Path 12773" d="M6.313,2.453h0Z" transform="translate(74.299 45.608)" fill="#ffeda2"/>
        <path id="Path_12774" data-name="Path 12774" d="M7.014,3.647l.408-.714h0c.2-.2.51-.918,0-.1l-.1.1L6.2,4.259Z" transform="translate(72.985 45.128)" fill="#ffeda2"/>
        <path id="Path_12775" data-name="Path 12775" d="M7.186,2.495l-.51.714-.51.612.306-.306.306-.2h-.1C7.39,2.495,7.186,2.6,7.186,2.495Z" transform="translate(69.752 49.852)" fill="#ffeda2"/>
        <path id="Path_12776" data-name="Path 12776" d="M6.666,2.806l.079-.255L6.1,3.306Z" transform="translate(63.334 55.54)" fill="#ffeda2"/>
        <path id="Path_12777" data-name="Path 12777" d="M6.525,2.728l-.01-.163-.429.4Z" transform="translate(61.717 56.904)" fill="#ffeda2"/>
        <path id="Path_12778" data-name="Path 12778" d="M5.525,2.258l.227-.133L5.984,2Z" transform="translate(4.963 0.15)" fill="#ffeda2"/>
        <path id="Path_12779" data-name="Path 12779" d="M5.493,2.025v0Z" transform="translate(1.752 2.363)" fill="#ffeda2"/>
        <path id="Path_12780" data-name="Path 12780" d="M6.411,3.8,5.6,2.579l.1.306Z" transform="translate(12.058 58.339)" fill="#ffeda2"/>
        <path id="Path_12781" data-name="Path 12781" d="M5.605,2.256l-.041.122v-.01l-.039.082.008.52.071-.592V2.256Z" transform="translate(5.086 25.743)" fill="#ffeda2"/>
        <path id="Path_12782" data-name="Path 12782" d="M5.521,3.261l.2-1.02Z" transform="translate(4.581 24.187)" fill="#ffeda2"/>
        <path id="Path_12783" data-name="Path 12783" d="M5.714,2.137l.51.408C5.612,1.729,5.816,2.137,5.714,2.137Z" transform="translate(24.082 3.373)" fill="#ffeda2"/>
        <path id="Path_12784" data-name="Path 12784" d="M7.4,2.644l-1.531.2Z" transform="translate(40.046 64.907)" fill="#ffeda2"/>
        <path id="Path_12785" data-name="Path 12785" d="M5.52,2.329l.306-.306Z" transform="translate(4.48 2.161)" fill="#ffeda2"/>
        <path id="Path_12786" data-name="Path 12786" d="M5.855,2.85h.306l1.429-.2Z" transform="translate(38.328 65.109)" fill="#ffeda2"/>
        <path id="Path_12787" data-name="Path 12787" d="M6.072,2.174h0Z" transform="translate(60.254 17.418)" fill="#ffeda2"/>
        <path id="Path_12788" data-name="Path 12788" d="M7.182,2.274l-.408.235-.533.214.367-.133Z" transform="translate(77.307 27.562)" fill="#ffeda2"/>
        <path id="Path_12789" data-name="Path 12789" d="M6.015,2.724c.408-.2.1-.1,0,0Z" transform="translate(54.495 61.051)" fill="#ffeda2"/>
        <path id="Path_12790" data-name="Path 12790" d="M6.24,2.6l-.2.1Z" transform="translate(56.617 60.764)" fill="#ffeda2"/>
        <path id="Path_12791" data-name="Path 12791" d="M5.81,2.662Z" transform="translate(33.782 66.725)" fill="#ffeda2"/>
        <path id="Path_12792" data-name="Path 12792" d="M6.628,2.6l-.612.2Z" transform="translate(54.596 60.966)" fill="#ffeda2"/>
        <path id="Path_12793" data-name="Path 12793" d="M6.021,2.705l.306-.1Z" transform="translate(55.101 60.764)" fill="#ffeda2"/>
        <path id="Path_12794" data-name="Path 12794" d="M6.009,2.882,6.7,2.607l-.12.041Z" transform="translate(53.927 61.128)" fill="#ffeda2"/>
        <path id="Path_12795" data-name="Path 12795" d="M5.732,2.4h.1C6.242,2.3,6.038,2.3,5.732,2.4Z" transform="translate(25.9 32.397)" fill="#ffeda2"/>
        <path id="Path_12796" data-name="Path 12796" d="M5.525,2.5l.033.051L5.535,2.5Z" transform="translate(4.953 50.367)" fill="#ffeda2"/>
        <path id="Path_12797" data-name="Path 12797" d="M5.517,2.485l.816,1.531.1-.408V3.3l-.408-.408Z" transform="translate(4.177 48.841)" fill="#ffeda2"/>
        <path id="Path_12798" data-name="Path 12798" d="M24.708,2.492l-.612-.1-.612-.1c1.531-.2,2.653,0,1.429-.306l-.816.2-1.735.1c-1.224.1-2.449.408-2.449.714l-.816.1.51-.2a2.781,2.781,0,0,0-1.429.51l-.51.408-1.02.408-.816.306.1-.1-.714.408-.612.408v-.1l-.306.2-.714.408-.612.51-.306.2h0l-1.02,1.122c-.51.306.2-.306,0-.2l-.51.51-.408.408c-.51.306.2-.51.918-1.122A1.917,1.917,0,0,0,10.524,8,9.775,9.775,0,0,1,8.891,9.737l.408-.51.408-.408c-.816.408-1.327,1.224-2.347,2.245l1.02-.918c.408-.306.714-.51.2.1l-1.02,1.429L6.544,13l-.2-.2-.306.612-.612,1.429,1.327.1.816-.1.918.51.2.306.51.306-.1-.2-.2-.2h.2l.2.1.306.1.714.612.714.612.816.612.816.816c.51.816-.2-.1-.1.2l.408.306.306.306v.2c.408.51.2-.1.816.816l.612,1.429.408,1.122.2.51.2.51h-.2l.2.816.1.612.2.918v-.1l.1.918-.306,1.429c.306-1.02.408.408.51,1.531l.1-.816v1.02h0l-.1.918-.1-.408-.1.408c-.306.612-.2.2-.2-.306l.306-.612v0l-.306-.816v.612l-.1-.1v.51l-.2.1-.2.2.1.1-.51,1.02-.1.2.2.408.1.2v.2l.1.1.1.51a8.668,8.668,0,0,1,.51,2.449,19.54,19.54,0,0,1,0,3.469c-.1-.714-.306-.2-.51-.2a17.214,17.214,0,0,0,.306-3.571c-.1.714-.2.51-.2.306V38.41l-.408,1.224c.51-.408,0,1.939,0,3.061-.1,0-.2-.306,0-1.531-.51,1.327.1,1.837-.306,3.265l.1-.612-.1,1.429-.2.714v-.408c0,.612-.1,1.224-.1,1.939l.2,2.245a6.934,6.934,0,0,0,.918,2.551l-.51-.2.306.51.714,1.122,1.224,1.531c-.306-.2-.408,1.224-1.224-.306.2.408.408,1.02.918,1.939-.1-.306,0-.918.2-.51l.2.714.1.408.51,1.224c-.2-.51.51-.2.918.51l-.51.1.2.2.51.51.51.51.2.2c-.408-.408-.306.1-.2.51L20.932,63.1l-.2-.306-.2-.408a6,6,0,0,0,1.633,1.633,8.192,8.192,0,0,1,1.735,1.429c-.2-.2-.816-.1,0,.714l1.633.612,1.122.51,1.327.612.2.306.714.408.408.2.306.1-2.347-.714-1.327-.612-.714-.306-.51-.306A5.94,5.94,0,0,0,25.83,68l-.918-.51.306.306.816.612.918.714.408.2,1.02.408,1.122.306-.51-.2-1.02-.408-1.02-.612-.408-.2c0-.306,1.837.51,3.775,1.429.408.306-.612.2-.612.306l1.122.408,1.02.408-.918-.2.816.306h.2l.1.1h.1l.306.1.816.1,1.02.306,1.531.408c-.816-.306-.816-1.224-.306-1.327l1.327.306,1.735.306c.816.2-1.224.51-.612.714l.714-.2c.51.1-.2.2.918.2.2-.2,2.245-.1.51-.2,1.122-.1,1.122,0,2.449-.1-.408-.1,1.122-.612,2.143-.816l.306.2,2.755-.2,1.327-.1,1.327-.2c.2.1,1.225,0,.816.2l1.224-.306c1.224,0-1.429.2-.51.306l1.02-.306,1.531-.408-1.327.2-1.633.306c-.1-.2,1.429-.714,3.571-1.327,1.633-.408.714.1,1.02,0l1.735-.51,1.02-.408.918-.408,1.429-.408c1.02-.1.1.408.408.408l-1.633.51-1.327.306,1.122-.2-1.837.51a20.773,20.773,0,0,0,3.265-.816L62.36,68.1l1.224-.306,2.041-.714.612-.408v-.1l-.306.1-.408.2c-.714.1,1.327-.714.408-.408.918-.51,1.939-1.122,3.265-1.735H69.5l-1.224.612,1.326-.612,1.224-.714-.918.306,1.326-1.02,1.633-1.02-1.122.408c.408,0-.306.408-1.02.816-.612.306-1.224.714-.612.51l-1.224.408-1.429.51c0,.1.408,0-.612.408l-.2.1v0h0l.612-.1-1.224.714-1.327.612c-.612.2.2-.1-.1-.1l-.408.2-.408.2c-.1-.1-1.735.408-.306-.2l-1.327.408-2.449.714c-.612.1-1.531.612-1.02.306l-.306.1-.714.2-1.02.306h0a34.369,34.369,0,0,1-6.735,1.122l-1.122.2-1.531.1-.2-.1-3.163.306a25.741,25.741,0,0,0-2.857,0,17.145,17.145,0,0,1-3.163.1l-.1.2a23.042,23.042,0,0,1-3.367-.408v.2l-.918-.2-.51-.2-.306-.1h-.2l-.1-.1-1.122-.51-1.224-.612.816.408c-.918-.612-1.939-1.122-2.959-1.735l-.714-.408-.714-.51-1.122-1.02-.918-.816.1.1-.1-.2-.51-.51.408.408-1.122-1.02v-.306l-.1-.1c-.408-.408-.408-.306-.306,0l-.51-.51-.612-.816-.612-.918-1.02-1.327-.612-.714-.51-.408h.2l-.51-.816-.51-.816v-.1l.1-.2h0l-.51-.612-.408-.51c-.2-.816-.306-1.224.2-.51l-.918-1.531-.612-1.531.2.1-.612-1.939V48.206a22.846,22.846,0,0,1,0-2.653c.2-1.939.612-4.286.918-6.02-.2.306-.1-.1,0-.612a3.314,3.314,0,0,0,.1-1.327c.1-.2.2-.714.2-.1l.1-1.224v-1.02a3.528,3.528,0,0,0-.2-2.041l.2.2-.2-.816.306.612-.306-1.02-.1-.2h-.1v-.1h0l-.2-.306v.816c.2-.612,0-.816-.1-.918l.51-1.224v-.1h0l-.1-.918c.1-.306.306-.816.2.306,0-.408.306-2.245.306-3.367h0v-.1l-.2-.714-.2-1.122L16.238,22.7l-.2-.612-.408-.918.2.408-.612-.816-.2-.612-.408-.714h0a5.271,5.271,0,0,0-1.02-1.633l-.408-.408-.306-.408-.51-.714v.306l-.51-.306-.306-.306-.408-.408-.408-.408-.51-.408-.306-.2-.306-.1-.51-.306.408.408a17.669,17.669,0,0,0-2.449-1.327l.51,1.122.306-.408-.2.51c.714-.918.714-.918.612-1.02,0,0-.2-.1.2-.714.306-.2.1.51.714-.408l1.122-1.531a11.288,11.288,0,0,1,1.837-1.939c-.306.2-.612.306-.1-.2L13.789,7.39l.51-.306.408-.306.816-.51.2-.1.714-.408.816-.408.816-.408.612-.306a11.538,11.538,0,0,0,2.959-.612c1.224-.2,2.449-.306,2.347,0H25.32l.51.1h.408l.408.1h0l1.02.306.714.2,1.02.2.1.1.714.408.51.306.918.612L33.483,7.7V8l.51.612.408.51.408.714a12.4,12.4,0,0,1,1.429,3.367l-.1-.306.2,1.02.1,1.122v.816l.1.1h0v-.1h-.1v.1h0v.2l-.2,1.02a13.558,13.558,0,0,0-.714,3.061l-.2.918-.306.918c1.02-2.245.1.408.612-.51-.408.918-1.224,2.245-.816,1.122l.1-.1c-.1-.612-1.327,2.653-1.531,2.449l-.714,1.735-.612,1.735a9.165,9.165,0,0,0-.51,3.673l.1.918.2.918a5.671,5.671,0,0,0,.918,1.735A4.446,4.446,0,0,0,34.1,37.186l.51.2.1.1h.1l.2.1.918.306-.2-.2-.2-.1-.1-.1.306.1.612.1h.816l.306.1c0,.1-.306.1-.918.1a2.06,2.06,0,0,0,1.326-.1l.714-.306.816-.1-.306.2-.612.306.408-.1.51-.2-.2.1.816-.51,1.224-.51c.816-.306.51,0,.816-.2l.408-.2.306-.1.612-.306.918-.51-.816.2,1.02-.612c.2-.1.2-.2-.306,0l1.633-.816L47.973,32.7l3.163-2.245A18.939,18.939,0,0,1,54.2,28c-.306.2-.612.1.408-.612,0,.306.51,0,1.122-.408l1.122-.612.918-.306.1-.2.918-.612.918-.51-.2-.1c1.02-.408.1.2.918-.1A14.4,14.4,0,0,1,64.3,23.308a21.625,21.625,0,0,1,4.49-.408c0-.1-.51-.2.2-.2h.2l.51.1.612.2h.2c.612.1.612-.306,1.735.1-.2,0-.408-.2,0-.1a22.058,22.058,0,0,1,4.388,1.429,15.141,15.141,0,0,1,3.878,2.347,34.96,34.96,0,0,1,3.367,3.367l.918.918.51.408.2.1v.1h.1l.2.1,1.224.612.408.1h1.122c-.612,0-.612,0-.51-.1h.306l.612-.1c-.51.1-.1-.2-.2-.2h.2l.306-.2.408-.1.51-.306.408-.306.408-.306.306-.306.918-1.429L93.074,28l-.306.306-.1.2-.1.1c.2-.51-.1-.306-.51,0l-1.122.51A3.344,3.344,0,0,1,89.4,30.757l-1.122.306-.306.1-.1-.1-.1-.1h0l.1.2h-.816l.2-.1-.816-.2-.51-.306-.51-.51.1.1a23.488,23.488,0,0,1-2.755-2.857l-1.327-1.429L79.4,24.329l.2.306-1.122-.816c-.51-.1,0,.2.51.51s1.02.612.51.51A8.147,8.147,0,0,0,76.646,23.1l-2.857-1.122c-1.224-.306.306.2-.918,0l-.306-.2-.2.1h-.1l-1.224-.408.714.1-1.939-.306a6.383,6.383,0,0,1-1.429,0l.2.1h1.02a23.055,23.055,0,0,0-2.653.1L64.1,21.88a18.232,18.232,0,0,0-5,1.939l.2-.1-1.224.714-.714.408a8.387,8.387,0,0,0-2.143,1.224l.1-.1-1.633,1.224c.51-.51-1.122.612-.408,0a11.438,11.438,0,0,0-2.245,2.143l-.408.2A7.849,7.849,0,0,1,49.1,30.859c.816-.714-.714.306.1-.51-2.347,1.429-3.163,2.653-4.49,2.959-.408.51.1.2.714-.1l.918-.612L46.034,33l-1.224.918-1.327.51-.918.306-1.224.51.408-.2-1.122.51-.612.306-.306.1-.408.1c-.408.408-1.224.306-1.327.612l1.02-.306.612-.2.306-.1-1.633.714a4.036,4.036,0,0,1-2.245.1l1.02-.1a6.023,6.023,0,0,1-1.429-.2c.1-.1.612,0,1.224,0a6.037,6.037,0,0,0,2.041-.408l-1.122.2h-.408a1.739,1.739,0,0,1-1.429,0l-.714-.306-.816-.408.1-.1-.714-.612.306.2.306.2a2.268,2.268,0,0,1-.816-1.327l-.1-.1v-.2h.1l-.2-.408v-.1l.1.408v.1h0v.2h.1v-.2h-.2c0,.1-.2-.1-.1.306l-.1-.2-.1-.2-.1-.408-.1-.51.1-.816.1-.816.306-1.633-.2.816-.1.1.612-1.735c.612-2.041-.306.2-.1-.612l.306-.918.306-1.02h.2c1.122-2.245-.1-.714,1.02-2.755l-.2.918.51-1.122v.306c.51-1.224.714-1.633,1.224-2.857-.2.306-.2-.2.1-1.327l.2-.306.1-.1.2-.816v.714l-.306.816v.51l.51-1.429.2-1.327-.2.612.1-.408V16.166l-.1-.2h0v-.1h.1v-.51l.1.306v-.714l-.2-.918.306.306.1.306v.2l-.1-.816-.2-.816-.1-.306V11.88l-.408-1.122-.714-1.122-.306-.51-.408-.51-.816-1.122-.51-.408-.408-.51-.408-.408-.918-.816-1.02-.714-.612-.408-.306-.1-.306-.1-.51-.408-.306-.2-.1-.1c-.816-.306-.408-.1-.2.1v.1H29.2l-.306-.1-.306-.1-.51-.1-.306-.1-.2-.2-.2-.2c-.918-.1-2.449-.1-4.082-.2h1.429ZM8.687,10.247,9.5,9.227C9.4,9.635,9.1,9.839,8.687,10.247ZM15.32,32.594l-.1-.2-.1-.1-.1-.2.1-.2.306-.612-.306.612v.2l.1.1v.2l.1.1Zm45.918,35h0C60.422,67.8,60.728,67.7,61.238,67.594Zm1.531-.408v-.1l-.816.306ZM42.156,36.369l-.306.1C42.463,36.165,42.258,36.267,42.156,36.369Z" transform="translate(-5.422 -1.982)" fill="#ffeda2"/>
        <path id="Path_12799" data-name="Path 12799" d="M5.522,2.454l.1-.2Z" transform="translate(4.682 25.097)" fill="#ffeda2"/>
        <path id="Path_12800" data-name="Path 12800" d="M5.713,2.036l.033.051.059.02Z" transform="translate(23.948 3.424)" fill="#ffeda2"/>
        <path id="Path_12801" data-name="Path 12801" d="M6.455,2.773l-.714-.1Z" transform="translate(26.81 67.635)" fill="#ffeda2"/>
        <path id="Path_12802" data-name="Path 12802" d="M6.966,2.586l-.918.51.816-.408Z" transform="translate(57.829 59.046)" fill="#ffeda2"/>
        <path id="Path_12803" data-name="Path 12803" d="M6.393,2.848,6.7,2.542h0C6.189,2.95,5.882,3.256,6.393,2.848Z" transform="translate(66.158 54.6)" fill="#ffeda2"/>
        <path id="Path_12804" data-name="Path 12804" d="M6.067,3.293l1.327-.714-.1.1Z" transform="translate(59.749 58.339)" fill="#ffeda2"/>
        <path id="Path_12805" data-name="Path 12805" d="M6.081,2.881l.51-.306Z" transform="translate(61.163 57.935)" fill="#ffeda2"/>
        <path id="Path_12806" data-name="Path 12806" d="M6.709,2.815l.306-.2L6.3,2.917l-.306.2Z" transform="translate(52.474 61.572)" fill="#ffeda2"/>
        <path id="Path_12807" data-name="Path 12807" d="M6.648,2.607l-.306-.02L6.2,2.75l-.13.163.284-.153Z" transform="translate(59.951 59.127)" fill="#ffeda2"/>
        <path id="Path_12808" data-name="Path 12808" d="M6.025,3.217l1.02-.408.306-.2Z" transform="translate(55.505 60.966)" fill="#ffeda2"/>
        <path id="Path_12809" data-name="Path 12809" d="M6.038,3.009,6.854,2.6Z" transform="translate(56.819 60.562)" fill="#ffeda2"/>
        <path id="Path_12810" data-name="Path 12810" d="M7.082,2.6l-.316.133-.357.194-.357.184.163-.082.347-.173Z" transform="translate(58.191 59.956)" fill="#ffeda2"/>
        <path id="Path_12811" data-name="Path 12811" d="M7.075,2.647l-.51.1-.612.1c-.2.1.2.1.612,0Z" transform="translate(42.72 65.21)" fill="#ffeda2"/>
        <path id="Path_12812" data-name="Path 12812" d="M6.513,2.643H5.942l.01.224.288-.112Z" transform="translate(47.127 64.795)" fill="#ffeda2"/>
        <path id="Path_12813" data-name="Path 12813" d="M6.76,2.672c-.1.1-1.735.51-.2.2C6.658,2.876,7.883,2.57,6.76,2.672Z" transform="translate(43.341 65.593)" fill="#ffeda2"/>
        <path id="Path_12814" data-name="Path 12814" d="M5.729,3l.314.02-.02-.357Z" transform="translate(25.597 66.705)" fill="#ffeda2"/>
        <path id="Path_12815" data-name="Path 12815" d="M5.583,2.7c.918,1.122.408.1,1.224,1.122L6.4,3.206l-.714-.612Z" transform="translate(10.845 59.855)" fill="#ffeda2"/>
        <path id="Path_12816" data-name="Path 12816" d="M5.591,2.6,6,2.906Z" transform="translate(11.654 60.461)" fill="#ffeda2"/>
        <path id="Path_12817" data-name="Path 12817" d="M6.276,2.875l.092-.1.214-.224L6.735,2.4l.153-.153-.225.173L6.439,2.6Z" transform="translate(80.854 24.349)" fill="#ffeda2"/>
        <path id="Path_12818" data-name="Path 12818" d="M6.285,2.639l.133.031.133.041.031-.071.133-.163L6.9,2.231l-.347.235Z" transform="translate(81.763 23.187)" fill="#ffeda2"/>
        <path id="Path_12819" data-name="Path 12819" d="M5.434,2.627v.092l.551-.643-.276.275Z" transform="translate(-4.222 7.526)" fill="#ffeda2"/>
        <path id="Path_12820" data-name="Path 12820" d="M5.755,2l-.222.092.243.01.235.01Z" transform="translate(5.793 -0.305)" fill="#ffeda2"/>
        <path id="Path_12821" data-name="Path 12821" d="M7.162,2.312,6.805,2.22l-.4-.082-.775-.153.7.163.5.173L7.05,2.4Z" transform="translate(15.764 -1.649)" fill="#ffeda2"/>
      </g>
    </g>
    <g id="Group_505" data-name="Group 505" transform="translate(60.019 29.737)">
      <path id="Path_12822" data-name="Path 12822" d="M6.209,2.272l-.1.1Z" transform="translate(21.824 -0.435)" fill="#f8e47c"/>
      <path id="Path_12823" data-name="Path 12823" d="M6.126,2.456v.071L6.218,2.4,6.3,2.263l-.082.1Z" transform="translate(23.782 -1.395)" fill="#f8e47c"/>
      <path id="Path_12824" data-name="Path 12824" d="M6.123,2.989l.275-.7.8.5-.028.01H7.072l.01.122V3.05l.186-.194-.961-.6Z" transform="translate(23.418 -2.254)" fill="#f8e47c"/>
      <path id="Path_12825" data-name="Path 12825" d="M6.115,2.408l.094-.143-.023.01Z" transform="translate(22.64 -1.163)" fill="#f8e47c"/>
      <path id="Path_12826" data-name="Path 12826" d="M6.116,2.265Z" transform="translate(22.733 -1.143)" fill="#f8e47c"/>
      <path id="Path_12827" data-name="Path 12827" d="M6.265,2.483l.01-.214-.163.082Z" transform="translate(22.306 -0.718)" fill="#f8e47c"/>
      <path id="Path_12828" data-name="Path 12828" d="M6.114,2.375v0Z" transform="translate(22.531 -0.334)" fill="#f8e47c"/>
      <path id="Path_12829" data-name="Path 12829" d="M6.145,2.271,6.114,2.5l.02-.1Z" transform="translate(22.549 -0.587)" fill="#f8e47c"/>
      <path id="Path_12830" data-name="Path 12830" d="M6.115,2.269l.2.1Z" transform="translate(22.632 -0.738)" fill="#f8e47c"/>
      <path id="Path_12831" data-name="Path 12831" d="M6.125,2.536l.122-.122L6.217,2.26Z" transform="translate(23.63 -1.638)" fill="#f8e47c"/>
      <path id="Path_12832" data-name="Path 12832" d="M6.106,2.392l.153.02.092-.133Z" transform="translate(21.741 0.363)" fill="#f8e47c"/>
      <path id="Path_12833" data-name="Path 12833" d="M6.108,2.281v0Z" transform="translate(21.925 0.474)" fill="#f8e47c"/>
      <path id="Path_12834" data-name="Path 12834" d="M6.157,2.69V2.475l-.01-.2-.01.235-.02.245Z" transform="translate(22.721 -0.506)" fill="#f8e47c"/>
      <path id="Path_12835" data-name="Path 12835" d="M6.132,2.459,6.1,2.286l.02.286Z" transform="translate(21.235 0.959)" fill="#f8e47c"/>
      <path id="Path_12836" data-name="Path 12836" d="M6.6,2.494l-.2-.2L6.3,2.6l-.2,1.327a.824.824,0,0,0,.714.918l.714-.2.1-.1-.1.1a1.1,1.1,0,0,1-1.429-.714L6.2,2.9l.2-.2Z" transform="translate(20.409 1.383)" fill="#f8e47c"/>
      <path id="Path_12837" data-name="Path 12837" d="M6.312,2.311l-.2.1Z" transform="translate(21.925 3.505)" fill="#f8e47c"/>
      <path id="Path_12838" data-name="Path 12838" d="M6.328,2.287,6.1,2.338l.173.02Z" transform="translate(21.458 1.04)" fill="#f8e47c"/>
      <path id="Path_12839" data-name="Path 12839" d="M6.226,2.287h0L6.1,2.43Z" transform="translate(21.508 1.111)" fill="#f8e47c"/>
      <path id="Path_12840" data-name="Path 12840" d="M6.106,2.286v0Z" transform="translate(21.723 0.979)" fill="#f8e47c"/>
      <path id="Path_12841" data-name="Path 12841" d="M6.112,2.28l.2.2Z" transform="translate(22.329 0.373)" fill="#f8e47c"/>
      <path id="Path_12842" data-name="Path 12842" d="M6.108,2.549l.163-.173-.1-.092Z" transform="translate(21.902 0.777)" fill="#f8e47c"/>
      <path id="Path_12843" data-name="Path 12843" d="M6.138,2.409l.031-.122-.061.071Z" transform="translate(21.842 1.04)" fill="#f8e47c"/>
      <path id="Path_12844" data-name="Path 12844" d="M6.3,2.3v.1l-.2.408L6.4,3.826h.714l.2-.1H7.014A.794.794,0,0,1,6.1,3.111L6.3,2.4l.2-.1Z" transform="translate(20.712 1.889)" fill="#f8e47c"/>
      <path id="Path_12845" data-name="Path 12845" d="M6.1,2.291Z" transform="translate(21.318 1.484)" fill="#f8e47c"/>
      <path id="Path_12846" data-name="Path 12846" d="M6.151,2.326l-.031-.02v.031Z" transform="translate(23.216 2.96)" fill="#f8e47c"/>
      <path id="Path_12847" data-name="Path 12847" d="M6.141,2.5l.1-.2L6.1,2.5Z" transform="translate(21.084 1.687)" fill="#f8e47c"/>
      <path id="Path_12848" data-name="Path 12848" d="M6.315,2.309h0Z" transform="translate(22.228 3.303)" fill="#f8e47c"/>
      <path id="Path_12849" data-name="Path 12849" d="M6.1,2.291Z" transform="translate(21.217 1.484)" fill="#f8e47c"/>
      <path id="Path_12850" data-name="Path 12850" d="M6.111,2.292l-.01.1.071-.1Z" transform="translate(21.225 1.535)" fill="#f8e47c"/>
      <path id="Path_12851" data-name="Path 12851" d="M6.628,2.316l-.51.235.316.765.2-.255L6.23,2.847l.449.02L6.9,2.3l-.265.153Z" transform="translate(22.902 1.949)" fill="#f8e47c"/>
      <path id="Path_12852" data-name="Path 12852" d="M6.207,2.337l-.092.031.388.1.173-.163-.488.051Z" transform="translate(22.66 3.03)" fill="#f8e47c"/>
      <path id="Path_12853" data-name="Path 12853" d="M6.414,2.712l.1-.408-.408.306c.51-.2-.1.1.306.1l-.2.1h.2v0h0l.408-.2Z" transform="translate(21.925 2.798)" fill="#f8e47c"/>
      <path id="Path_12854" data-name="Path 12854" d="M6.115,2.286Z" transform="translate(22.632 0.979)" fill="#f8e47c"/>
      <path id="Path_12855" data-name="Path 12855" d="M6.538,2.53l.053-.184.049.041-.092-.1v.041l-.439.184Z" transform="translate(22.054 0.878)" fill="#f8e47c"/>
      <path id="Path_12856" data-name="Path 12856" d="M6.307,2.294l-.1.184-.1.163.235-.061-.071-.041Z" transform="translate(21.397 1.818)" fill="#f8e47c"/>
      <path id="Path_12857" data-name="Path 12857" d="M6.142,2.407l-.02.163.173-.265Z" transform="translate(23.286 2.939)" fill="#f8e47c"/>
      <path id="Path_12858" data-name="Path 12858" d="M6.127,2.305l.02.143.112-.112Z" transform="translate(23.802 2.899)" fill="#f8e47c"/>
      <path id="Path_12859" data-name="Path 12859" d="M6.041,2.519l.2-.1Z" transform="translate(15.155 14.216)" fill="#f8e47c"/>
      <path id="Path_12860" data-name="Path 12860" d="M6.135,2.415l-.1.1Z" transform="translate(14.347 14.013)" fill="#f8e47c"/>
      <path id="Path_12861" data-name="Path 12861" d="M6.07,2.373l.337.214-.041-.153Z" transform="translate(18.073 9.78)" fill="#f8e47c"/>
      <path id="Path_12862" data-name="Path 12862" d="M6.06,2.555l.061.02L6.172,2.4Z" transform="translate(17.042 12.73)" fill="#f8e47c"/>
      <path id="Path_12863" data-name="Path 12863" d="M6.263,2.41h0Z" transform="translate(16.974 13.508)" fill="#f8e47c"/>
      <path id="Path_12864" data-name="Path 12864" d="M6.053,2.456v0Z" transform="translate(16.367 18.156)" fill="#f8e47c"/>
      <path id="Path_12865" data-name="Path 12865" d="M6.406,2.329l-.306.1Z" transform="translate(21.116 5.324)" fill="#f8e47c"/>
      <path id="Path_12866" data-name="Path 12866" d="M6.034,2.533l.1-.1Z" transform="translate(14.448 15.63)" fill="#f8e47c"/>
      <path id="Path_12867" data-name="Path 12867" d="M6.1,2.575l.082-.02.112-.122.1-.1-.1.02Z" transform="translate(20.862 5.476)" fill="#f8e47c"/>
      <path id="Path_12868" data-name="Path 12868" d="M5.987,2.586l-.1-.1Z" transform="translate(-0.607 20.985)" fill="#f8e47c"/>
      <path id="Path_12869" data-name="Path 12869" d="M5.846,2.453l.1.1Z" transform="translate(-4.548 17.853)" fill="#f8e47c"/>
      <path id="Path_12870" data-name="Path 12870" d="M6.117,2.3Z" transform="translate(22.834 2.798)" fill="#f8e47c"/>
      <path id="Path_12871" data-name="Path 12871" d="M6.125,2.3Z" transform="translate(23.642 2.596)" fill="#f8e47c"/>
      <path id="Path_12872" data-name="Path 12872" d="M6.094,2.346Z" transform="translate(20.51 7.042)" fill="#f8e47c"/>
      <path id="Path_12873" data-name="Path 12873" d="M6.22,2.3l-.1.1Z" transform="translate(22.935 2.697)" fill="#f8e47c"/>
      <path id="Path_12874" data-name="Path 12874" d="M6.118,2.4v0Z" transform="translate(22.935 2.596)" fill="#f8e47c"/>
      <path id="Path_12875" data-name="Path 12875" d="M6.117,2.457,6.2,2.3l-.031.02Z" transform="translate(22.834 2.798)" fill="#f8e47c"/>
      <path id="Path_12876" data-name="Path 12876" d="M5.977,2.483Z" transform="translate(8.688 20.884)" fill="#f8e47c"/>
      <path id="Path_12877" data-name="Path 12877" d="M6.109,2.36H6.1l.01.01Z" transform="translate(21.043 8.426)" fill="#f8e47c"/>
      <path id="Path_12878" data-name="Path 12878" d="M6.967,3.513l-.1-.469-.439-.612L6.181,2.38,6.1,2.36l.082.265.439.418L6.5,3.084l.214.2Z" transform="translate(21.053 8.436)" fill="#f8e47c"/>
      <path id="Path_12879" data-name="Path 12879" d="M28.794,15.353l-.2-.1.306-.306c-.1.51-1.02-.1-1.122.306l-.1-.1h.1c-.306-.306-.306.306-.714.1l-.2-.1h-.306l-.1-.1h-.1l-.306-.1h0l-.306.1v-.1h-.306l.408-.1c-.1-.51-.306.1-.714-.408h.2l-.408-.51v.612l-.306-.1-.306-.306L24,15.761h0v.2l.408-.306.408.306c.51,0-.306-.2.2-.306l1.02-.408.1.2.2-.2v.1l.2-.408,1.02-.2v.2l.714-.612h.408l.1-.612-.306-.1.306-.306.1.2v-.1l.1.408-.2-.1v.408l.1-.1v.1l.1-.1.2.2v-.1l.306-.1.306-.1c.306-.408.408-.918.918-1.327l.2.408-.714.51.2.1.2-.2.2-.306h.408l.408-.714-.2.408c.408,0,.1-.612.51-.612l-.1.1.51-.306-.1.1.714-.816.1-.816.408.306-.612-.918h0l-.306.408.2-1.02h-.51l.1.408-.51-.408-.2.408V9.231l-.2.1-.2.2-.1-.408h-.51l.2.1c-.51-.1-.612.408-1.122.306v-.51a2.97,2.97,0,0,1-1.224.918l-.1-.1h0l-.408-.306.1-.306.2-.2.2-.2-.1.408-.1.306v.1h.1l1.02-.714-.306-.2.306-.1-.306-.1-.306-.1-.1.1.2,1.633.2-.408-.2.306L28.59,8.721l.408-.1-.408.408.1.714.408-.408.1.51.408-.306-.1.2.612-.408h.408l-.51-1.122.816.1.1.714v-.2h.306c0-.2.51-.2.1-.2l.51-.2.2-.714.2.1,1.122-.612.306.1.2-.306v.1l.1.1.2-.612-.51.612c-.2-.306-.1-.714.1-1.224H34l.2-.714.306-.51.408.2-.408.51.1-.1.1-.1-.2.408,1.02-1.531-.1-.2v.1l-.2-.2.1-.816h.306l-.2.306.2-.714-.2.2V2.394l.816.918-.408.1.306.2.1-.2-.918-1.122V2.7l-.612.408v.2l.1.1h0l.1-.1v.714l-.2-.1.1.306-.408-.1-.1.2L34,4.843l-.1.2-.1.2-.1.2h0c-.306.306-.408.918-1.02,1.02l-.1.1h0l-.306.2-.1-.1-.612.306-.612.1-.612.306v.2l-.816.408.1.1-1.122.408.2-.1-.714.306-.2.1-.1,1.122.612.306,1.02.1.306.1h0l.2.1-.1-.1.306.1.1.2h0l.1-.2.2-.2.51.306.816-.408v.1h.408l.1.2.306-.306.1.408.2-.2-.612-.51.1.1.1.306-.1-.1-.1.408-.714.612-1.224.714-.306.306-.1-.2L29.2,12.7l-.1-.2-.1.1v-.2l-.1.816-.408.2-.1-.2-.816.408-.2.1-.714.2h.1l-.51.306v-.1c-.612,0-.2.2-.918.1l.1.2h-.918l.2.1-.816-.408.1-.1-.1-.1a.927.927,0,0,0-1.02.816l.306.816.306.306.51-.2v.408l1.122.2.2-.2.918.408h.918l.714.2.612.2H28.9l-.612-.816v.306l-.1-.1-.1.612h-.1l-.612.918-.1-.1c0,.2-.816.306-1.122.714v-.1l-1.02.408-.51.612-.306.306c.51-.2,0,.306.2.306l-.306-.1h0l-.714-.1a18.036,18.036,0,0,1-3.163.816l.2.2h-.408l.1-.2-.408.306c-.51,0,.2-.306,0-.306h-.2l.1.1-.51.2-.1-.1h-.612l.2.2-.2.306-1.939-.2-.918.2-.1.2c.1-.51-.612-.2-.816-.612l-.306.1-.2.2-.2-.306-.918-.1-1.02-.2-.1.2-.2-.2-.1-.2-.408.1-.1.1L9.1,19.843l-1.02-.408-.816-.714-.2.1-.1.2-.2-.2-.2-.306-.714-.1h.2l-.2,1.02.51.306.612.306-.1.1.51.2h0l.918.408.918.51v-.2l.2.2-.2-.306.714.408.612.408.306-.2v.2l.1-.1.306.306h-.2l.408.1h.306l-.2-.1,1.224.2a5.749,5.749,0,0,0,1.327,0v-.1c.51,0,.408.2,1.122.1l-.1.1.51-.1.1.306.714-.51.1.2.51-.2-.1.306c.714.2,1.02-.306,1.327,0l-.408-.2.408-.306c.2,0,.408.408,1.02.408h-.1l.612-.1.306-.306-.2.1-.306.1c.306-.1.51-.51,1.02-.51l-.306.306.408-.1-.816.51h.408c.2-.408.612-.1.918-.408v.1l.2-.2-.1.306.816-.2c-.51.2-.1-.1-.408-.2H23.08l-.306-.1h.51c.51-.2-.1-.1.1-.306l.408-.306v.2c.714-.1.1-.408.612-.51l-.1.306.2-.2.1.2.612-.306.2-.408h.306l-.306.2v.2l.612-.306-.2.1.408-.51v.2l.306-.306.1.2h0l-.1.1-.1.1.2-.2.2-.2.306.1.918-.918.1-.1c.306-.306.714-.408.918-1.02h.2l.2-.1-.1-.1-.1-.306c.1-.51.306-.1.408-.2v-1.02l-.51-.612H29l-.51-.1Zm-3.878-.816.306.1Zm4.592-.816-.306.1Zm4.8-9.082Zm.2-.306h-.1v.1ZM19,20.863h0Z" transform="translate(-5.659 1.586)" fill="#f8e47c"/>
      <path id="Path_12880" data-name="Path 12880" d="M6.162,2.51l-.1-.1Z" transform="translate(17.075 13.306)" fill="#f8e47c"/>
      <path id="Path_12881" data-name="Path 12881" d="M6.064,2.455h-.01v.031Z" transform="translate(16.416 18.095)" fill="#f8e47c"/>
      <path id="Path_12882" data-name="Path 12882" d="M6.285,2.358h0Z" transform="translate(19.197 8.254)" fill="#f8e47c"/>
      <path id="Path_12883" data-name="Path 12883" d="M6.161,2.294l-.041.235.122-.173Z" transform="translate(23.185 1.767)" fill="#f8e47c"/>
      <path id="Path_12884" data-name="Path 12884" d="M6.2,2.3l-.092.051.023.082Z" transform="translate(22.407 2.293)" fill="#f8e47c"/>
      <path id="Path_12885" data-name="Path 12885" d="M6.127,2.344l.092-.02.449.52-.286.082.02-.01.286.02-.561-.643Z" transform="translate(23.822 1.717)" fill="#f8e47c"/>
      <path id="Path_12886" data-name="Path 12886" d="M6.331,2.3h0Z" transform="translate(23.844 2.394)" fill="#f8e47c"/>
      <path id="Path_12887" data-name="Path 12887" d="M6.26,2.52l-.1-.2C6.056,2.214,6.158,2.928,6.26,2.52Z" transform="translate(22.691 2.99)" fill="#f8e47c"/>
      <path id="Path_12888" data-name="Path 12888" d="M6.151,2.356l.1.163.02-.061L6.13,2.295l.061.082.033-.051.028.031Z" transform="translate(24.155 1.848)" fill="#f8e47c"/>
      <path id="Path_12889" data-name="Path 12889" d="M6.125,2.579l.155-.235L6.248,2.3Z" transform="translate(23.691 2.707)" fill="#f8e47c"/>
      <path id="Path_12890" data-name="Path 12890" d="M6.127,2.505v0Z" transform="translate(23.844 2.495)" fill="#f8e47c"/>
      <path id="Path_12891" data-name="Path 12891" d="M6.272,2.3l-.061.061-.082.173Z" transform="translate(24.075 2.161)" fill="#f8e47c"/>
      <path id="Path_12892" data-name="Path 12892" d="M6.263,2.33l-.082.122-.071.122L6.263,2.5Z" transform="translate(22.104 5.415)" fill="#f8e47c"/>
      <path id="Path_12893" data-name="Path 12893" d="M6.231,2.326l-.112.031.1.133Z" transform="translate(23.044 4.97)" fill="#f8e47c"/>
      <path id="Path_12894" data-name="Path 12894" d="M6.115,2.333l.1.1Z" transform="translate(22.632 5.728)" fill="#f8e47c"/>
      <path id="Path_12895" data-name="Path 12895" d="M6.137,2.708l.071-.031-.133-.326Z" transform="translate(18.669 7.496)" fill="#f8e47c"/>
      <path id="Path_12896" data-name="Path 12896" d="M6.471,2.356l-.4.061.143.184Z" transform="translate(18.194 8.032)" fill="#f8e47c"/>
      <path id="Path_12897" data-name="Path 12897" d="M6.173,2.358l-.1.1Z" transform="translate(18.186 8.254)" fill="#f8e47c"/>
      <path id="Path_12898" data-name="Path 12898" d="M5.991,2.63l-.153-.184L5.9,2.63Z" transform="translate(-5.338 17.146)" fill="#f8e47c"/>
      <path id="Path_12899" data-name="Path 12899" d="M5.976,2.67l.071-.225-.214.1Z" transform="translate(-5.833 17.115)" fill="#f8e47c"/>
      <path id="Path_12900" data-name="Path 12900" d="M6.059,2.406l-.041.041.133.143Z" transform="translate(12.869 13.074)" fill="#f8e47c"/>
      <path id="Path_12901" data-name="Path 12901" d="M6.093,2.436l-.049-.02.049.224Z" transform="translate(15.458 14.104)" fill="#f8e47c"/>
      <path id="Path_12902" data-name="Path 12902" d="M6.07,2.844l.2-.408Z" transform="translate(18.085 16.135)" fill="#f8e47c"/>
    </g>
    <g id="Group_510" data-name="Group 510" transform="translate(30.297 9.635)">
      <g id="Group_507" data-name="Group 507">
        <path id="Path_12903" data-name="Path 12903" d="M5.617,7.027a4.2,4.2,0,0,1,3.367-4.9,4.255,4.255,0,0,1,4.9,3.367A4.2,4.2,0,1,1,5.617,7.027Z" transform="translate(-4.597 -1.415)" fill="#fff"/>
        <g id="Group_506" data-name="Group 506">
          <path id="Path_12904" data-name="Path 12904" d="M5.746,2.114h0Z" transform="translate(-5.542 3.702)" fill="#f8e47c"/>
          <path id="Path_12905" data-name="Path 12905" d="M5.609,2.12l-.061.01.176.051Z" transform="translate(-4.908 4.298)" fill="#f8e47c"/>
          <path id="Path_12906" data-name="Path 12906" d="M5.814,2.51l-.1-.357.041-.031-.2.02Z" transform="translate(-4.857 4.531)" fill="#f8e47c"/>
          <path id="Path_12907" data-name="Path 12907" d="M5.579,2.223l-.02-.092-.01.02Z" transform="translate(-4.898 5.41)" fill="#f8e47c"/>
          <path id="Path_12908" data-name="Path 12908" d="M5.548,2.131Z" transform="translate(-4.936 5.42)" fill="#f8e47c"/>
          <path id="Path_12909" data-name="Path 12909" d="M5.723,2.164,5.59,2.133l-.041.133Z" transform="translate(-4.827 5.673)" fill="#f8e47c"/>
          <path id="Path_12910" data-name="Path 12910" d="M5.654,2.133h0Z" transform="translate(-4.532 5.622)" fill="#f8e47c"/>
          <path id="Path_12911" data-name="Path 12911" d="M5.551,2.133l.12.051L5.62,2.153Z" transform="translate(-4.633 5.612)" fill="#f8e47c"/>
          <path id="Path_12912" data-name="Path 12912" d="M5.551,2.233l.1-.1Z" transform="translate(-4.633 5.42)" fill="#f8e47c"/>
          <path id="Path_12913" data-name="Path 12913" d="M5.614,2.236l.041-.092-.1-.02Z" transform="translate(-4.413 4.713)" fill="#f8e47c"/>
          <path id="Path_12914" data-name="Path 12914" d="M5.554,2.332l.082-.122-.051-.071Z" transform="translate(-4.352 6.097)" fill="#f8e47c"/>
          <path id="Path_12915" data-name="Path 12915" d="M5.555,2.138h0Z" transform="translate(-4.228 6.127)" fill="#f8e47c"/>
          <path id="Path_12916" data-name="Path 12916" d="M5.808,2.162l-.255-.031.275.051Z" transform="translate(-4.473 5.501)" fill="#f8e47c"/>
          <path id="Path_12917" data-name="Path 12917" d="M5.688,2.153,5.555,2.2l.214-.061Z" transform="translate(-4.18 6.592)" fill="#f8e47c"/>
          <path id="Path_12918" data-name="Path 12918" d="M5.7,2.145l-.143.194.286-.01Z" transform="translate(-3.958 6.784)" fill="#f8e47c"/>
          <path id="Path_12919" data-name="Path 12919" d="M5.764,2.146h0Z" transform="translate(-3.723 6.936)" fill="#f8e47c"/>
          <path id="Path_12920" data-name="Path 12920" d="M5.618,2.14l-.061.1.092-.071Z" transform="translate(-4.039 6.289)" fill="#f8e47c"/>
          <path id="Path_12921" data-name="Path 12921" d="M5.558,2.14h0l.051.061Z" transform="translate(-3.948 6.319)" fill="#f8e47c"/>
          <path id="Path_12922" data-name="Path 12922" d="M5.557,2.14Z" transform="translate(-4.026 6.329)" fill="#f8e47c"/>
          <path id="Path_12923" data-name="Path 12923" d="M5.556,2.236l.2-.1Z" transform="translate(-4.127 5.723)" fill="#f8e47c"/>
          <path id="Path_12924" data-name="Path 12924" d="M5.72,2.239l-.051-.1-.112.082Z" transform="translate(-4.049 6.016)" fill="#f8e47c"/>
          <path id="Path_12925" data-name="Path 12925" d="M5.63,2.148l-.071-.01.02.041Z" transform="translate(-3.887 6.117)" fill="#f8e47c"/>
          <path id="Path_12926" data-name="Path 12926" d="M5.561,2.225l.133.01-.031-.092Z" transform="translate(-3.604 6.622)" fill="#f8e47c"/>
          <path id="Path_12927" data-name="Path 12927" d="M5.56,2.142Z" transform="translate(-3.723 6.531)" fill="#f8e47c"/>
          <path id="Path_12928" data-name="Path 12928" d="M5.568,2.178l.008-.031-.008.02Z" transform="translate(-2.915 7.047)" fill="#f8e47c"/>
          <path id="Path_12929" data-name="Path 12929" d="M5.673,2.162l-.112-.02.1.051Z" transform="translate(-3.655 6.531)" fill="#f8e47c"/>
          <path id="Path_12930" data-name="Path 12930" d="M5.564,2.247v0Z" transform="translate(-3.319 6.835)" fill="#f8e47c"/>
          <path id="Path_12931" data-name="Path 12931" d="M5.661,2.142h0Z" transform="translate(-3.824 6.531)" fill="#f8e47c"/>
          <path id="Path_12932" data-name="Path 12932" d="M5.56,2.183l.112-.02-.061-.02Z" transform="translate(-3.766 6.511)" fill="#f8e47c"/>
          <path id="Path_12933" data-name="Path 12933" d="M6.172,2.14H5.925l-.357.735.2-.112.018-.337.1.194.357-.388L6.1,2.262Z" transform="translate(-2.907 6.319)" fill="#f8e47c"/>
          <path id="Path_12934" data-name="Path 12934" d="M5.607,2.166l-.041-.02.041.255.176-.092-.2-.143Z" transform="translate(-3.129 6.905)" fill="#f8e47c"/>
          <path id="Path_12935" data-name="Path 12935" d="M5.673,2.407l.286-.265L5.7,2.193l-.02.2-.12-.051.059.133v-.01h0V2.438l.01.01.041-.041-.008.041-.043.02h0l.235.051Z" transform="translate(-3.42 6.531)" fill="#f8e47c"/>
          <path id="Path_12936" data-name="Path 12936" d="M5.561,2.132Z" transform="translate(-3.622 5.521)" fill="#f8e47c"/>
          <path id="Path_12937" data-name="Path 12937" d="M5.763,2.194l-.1-.01.061-.051-.112.082h.031l-.082.306Z" transform="translate(-3.796 5.612)" fill="#f8e47c"/>
          <path id="Path_12938" data-name="Path 12938" d="M5.563,2.24l.174.051.02-.153L5.708,2.2Z" transform="translate(-3.463 6.107)" fill="#f8e47c"/>
          <path id="Path_12939" data-name="Path 12939" d="M5.669,2.158l-.1.133.2-.143Z" transform="translate(-3.028 7.138)" fill="#f8e47c"/>
          <path id="Path_12940" data-name="Path 12940" d="M5.641,2.149l-.071.112.1-.041Z" transform="translate(-2.776 7.249)" fill="#f8e47c"/>
          <path id="Path_12941" data-name="Path 12941" d="M5.617,2.083Z" transform="translate(2.036 0.57)" fill="#f8e47c"/>
          <path id="Path_12942" data-name="Path 12942" d="M5.619,2.085Z" transform="translate(2.238 0.772)" fill="#f8e47c"/>
          <path id="Path_12943" data-name="Path 12943" d="M5.625,2.212l.235.02-.122-.092Z" transform="translate(2.893 6.41)" fill="#f8e47c"/>
          <path id="Path_12944" data-name="Path 12944" d="M5.684,2.105l-.051.02.145.051Z" transform="translate(3.61 2.843)" fill="#f8e47c"/>
          <path id="Path_12945" data-name="Path 12945" d="M5.627,2.206l.1-.1Z" transform="translate(3.046 2.692)" fill="#f8e47c"/>
          <path id="Path_12946" data-name="Path 12946" d="M5.706,2.076l-.1.1Z" transform="translate(0.723 -0.137)" fill="#f8e47c"/>
          <path id="Path_12947" data-name="Path 12947" d="M5.594,2.154h0Z" transform="translate(-0.288 7.744)" fill="#f8e47c"/>
          <path id="Path_12948" data-name="Path 12948" d="M5.731,2.074h0Z" transform="translate(3.249 -0.339)" fill="#f8e47c"/>
          <path id="Path_12949" data-name="Path 12949" d="M5.77,2.185l-.031-.031L5.6,2.205Z" transform="translate(-0.068 7.754)" fill="#f8e47c"/>
          <path id="Path_12950" data-name="Path 12950" d="M5.664,2.091h0Z" transform="translate(-3.521 1.378)" fill="#f8e47c"/>
          <path id="Path_12951" data-name="Path 12951" d="M5.545,2.208v0Z" transform="translate(-5.239 2.894)" fill="#f8e47c"/>
          <path id="Path_12952" data-name="Path 12952" d="M5.579,2.153Z" transform="translate(-1.803 7.643)" fill="#f8e47c"/>
          <path id="Path_12953" data-name="Path 12953" d="M5.578,2.248l.1-.1Z" transform="translate(-1.905 6.936)" fill="#f8e47c"/>
          <path id="Path_12954" data-name="Path 12954" d="M5.6,2.144Z" transform="translate(0.419 6.733)" fill="#f8e47c"/>
          <path id="Path_12955" data-name="Path 12955" d="M5.578,2.152l.1.1Z" transform="translate(-1.905 7.542)" fill="#f8e47c"/>
          <path id="Path_12956" data-name="Path 12956" d="M5.578,2.153Z" transform="translate(-1.905 7.643)" fill="#f8e47c"/>
          <path id="Path_12957" data-name="Path 12957" d="M5.648,2.194l-.069-.041v.031Z" transform="translate(-1.803 7.633)" fill="#f8e47c"/>
          <path id="Path_12958" data-name="Path 12958" d="M5.581,2.07Z" transform="translate(-1.601 -0.743)" fill="#f8e47c"/>
          <path id="Path_12959" data-name="Path 12959" d="M5.621,2.123v.01h.01Z" transform="translate(2.448 4.622)" fill="#f8e47c"/>
          <path id="Path_12960" data-name="Path 12960" d="M5.621,2.121l.041.173.4.194-.212-.194Z" transform="translate(2.418 4.46)" fill="#f8e47c"/>
          <path id="Path_12961" data-name="Path 12961" d="M12.584,4.3v.2l-.2.2.2-.1.306-.1v.1H13.2l-.1.1h.2l-.1.1.2.1h-.1l.306-.1-.1.1h.2l-.306.1v.306l-.1-.1-.2.306.51-.306.1.1-.1.2-.2.1.306-.1-.306.306.306-.1.306.306h-.2l.2.1h.2v.1h-.1v.306h-.2l.408.2v.1h-.1l.51.1h.2v.1h-.2l-.408-.1h-.1l.1.1h-.1l-.2.2.612.612-.51-.1V7.465h-.1v.1l.1.1-.2.1.306.306-.2-.2.1.306v-.1l-.1.2-.1-.1.1.714L13.6,8.588,14.012,9l.306.408L13.5,8.792l-.1.2.408.2-.51-.1L13.6,9.4,13.3,9.1l.1.2.1.2L13.2,9.2l-.1.2h.1l.1.612-.408-.408L13.2,10.73h0l-.1.1v.1l-.306-1.327h-.2V9.4l-.2.1.1.408V9.608l.1.714-.2-.408-.1.1v-.1l-.2.2-.1-.1.51,1.122-.408-.2-.2-.714v.2l-.1-.1v.2h-.2v.612l-.1-.2h-.51l-.1-.2-.1.1v-.306l-.2.306h.306l-.306.714-.1-.2-.612.306.1-.51.2.1-.1-.1h.2l-.612-.306-.2.2h.1l-.1.2-.408.1v-.2l.1.1-.2-.1v.1l-.408.1v.306l.306-.2.2.408h.1v-.1h0v-.1l.408-.2-.1.2h.1v.2l.1.1.2.1.2-.1h1.122l.2-.1v.2l.1-.1h.306l.714-.1v-.2l.306-.2-.1-.1.51-.2h-.1l.306-.1.306-.306.1-.1v0h.1v-.1l.2.1h0l-.2-.2v-.1l.306-.1v-.2l-.1-.306.1.1.1-.2.2.1-.1-.1-.1-.2.306.2-.1-.51.1.1.1-.2.612-.918c-.408,0,.2-.2-.1-.2h.2V7.465h.1l.1-.1.1.1-.612-.306v-.2h.2l-.1-.408v-.1l-.1-.306h-.1v-.2h0V5.526l-.1.1-.1-.408-.1.1.408-.51h.1l-.306-.1.2-.2L14.727,4.1l-.2.2-.2-.408v-.1l-.408-.1-.1-.306-.2-.2-.2-.2h-.408l.1-.1-.51-.1v-.2l-.612-.306h.1l-.51-.2-.306.1-.2.2v.306l-.1-.2v.1l-.306-.408H9.216l.1.2-.2.1v-.2l-.1.2-.1-.306-.1.1h.1l-.2.306-.1-.2-.1.1H8.3l.2.2v.2h-.51l-.306.2-.2.408.1.2-.612-.1.1.408-.306-.1-.51.714.2.2H6.053l.1.2.1.1-.306.918-.1.408-.306.612h.408l-.2.306.306.2h-.1l.918-.306V6.853h.2l-.1-.2h0l.306-.612H6.87l.306-.2.306-.1-.2-.2h.306l.1-.2-.1.1.306-.816h-.1l.2-.306V4.2l.306.2-.1-.51.1.1V3.69L8.5,4l.2-.1h.2l-.2-.2V3.384l.51.306h.1l.1-.306-.2.1.306-.306-.1.2h.2l-.2.306.1.1.2-.306.1.1v.1h.1l.1.1v-.1h0v-.1l-.1-.2h.1l.1.1.306.2-.1-.1.1.1v-.2l.2-.2v.2l.2-.2-.1.2h.1v.1h.2l.1-.306.1.2h-.1l-.1.2h.2l.1-.1.1-.1-.1.2.2-.1-.2.306.2-.1V4h.306l.1-.1.306.2-.1.2.306-.2-.1.2.306.1Zm1.02.918h0Zm.816,2.041v0ZM9.829,11.853Zm-.2-.1v.1h.1ZM8.6,2.465Z" transform="translate(-5.441 -2.057)" fill="#f8e47c"/>
          <path id="Path_12962" data-name="Path 12962" d="M5.628,2.105h0Z" transform="translate(3.147 2.793)" fill="#f8e47c"/>
          <path id="Path_12963" data-name="Path 12963" d="M5.626,2.086v-.01l-.02.031Z" transform="translate(0.852 -0.157)" fill="#f8e47c"/>
          <path id="Path_12964" data-name="Path 12964" d="M5.6,2.137h0Z" transform="translate(0.723 6.026)" fill="#f8e47c"/>
          <path id="Path_12965" data-name="Path 12965" d="M5.574,2.243H5.7l-.071-.092Z" transform="translate(-2.351 7.471)" fill="#f8e47c"/>
          <path id="Path_12966" data-name="Path 12966" d="M5.651,2.149l-.041-.01-.041.071Z" transform="translate(-2.766 6.228)" fill="#f8e47c"/>
          <path id="Path_12967" data-name="Path 12967" d="M5.686,2.258l-.112-.112h.01Z" transform="translate(-2.341 6.895)" fill="#f8e47c"/>
          <path id="Path_12968" data-name="Path 12968" d="M5.675,2.145h0Z" transform="translate(-2.41 6.835)" fill="#f8e47c"/>
          <path id="Path_12969" data-name="Path 12969" d="M5.682,2.152l-.1.2Z" transform="translate(-1.702 7.542)" fill="#f8e47c"/>
          <path id="Path_12970" data-name="Path 12970" d="M5.627,2.142l-.051.173.092-.122Z" transform="translate(-2.149 6.562)" fill="#f8e47c"/>
          <path id="Path_12971" data-name="Path 12971" d="M5.7,2.216,5.61,2.145l-.031.041Z" transform="translate(-1.775 6.784)" fill="#f8e47c"/>
          <path id="Path_12972" data-name="Path 12972" d="M5.68,2.145h0Z" transform="translate(-1.905 6.835)" fill="#f8e47c"/>
          <path id="Path_12973" data-name="Path 12973" d="M5.578,2.142l.01.041.061.041Z" transform="translate(-1.947 6.572)" fill="#f8e47c"/>
          <path id="Path_12974" data-name="Path 12974" d="M5.592,2.269l.122-.051-.071-.071Z" transform="translate(-0.522 6.946)" fill="#f8e47c"/>
          <path id="Path_12975" data-name="Path 12975" d="M5.589,2.223l.043.133.018-.214Z" transform="translate(-0.836 6.491)" fill="#f8e47c"/>
          <path id="Path_12976" data-name="Path 12976" d="M5.592,2.344v0Z" transform="translate(-0.49 6.329)" fill="#f8e47c"/>
          <path id="Path_12977" data-name="Path 12977" d="M5.628,2.142l-.02.02.133.327Z" transform="translate(1.074 6.501)" fill="#f8e47c"/>
          <path id="Path_12978" data-name="Path 12978" d="M5.632,2.128l-.018.163.151.082Z" transform="translate(1.733 5.097)" fill="#f8e47c"/>
          <path id="Path_12979" data-name="Path 12979" d="M5.615,2.13l.1.1Z" transform="translate(1.834 5.319)" fill="#f8e47c"/>
          <path id="Path_12980" data-name="Path 12980" d="M5.6,2.111,5.543,2.2l.1-.071Z" transform="translate(-5.463 3.359)" fill="#f8e47c"/>
          <path id="Path_12981" data-name="Path 12981" d="M5.756,2.112l-.212.051.2.02Z" transform="translate(-5.34 3.49)" fill="#f8e47c"/>
          <path id="Path_12982" data-name="Path 12982" d="M5.618,2.163l.053-.02.049-.051Z" transform="translate(2.185 1.399)" fill="#f8e47c"/>
          <path id="Path_12983" data-name="Path 12983" d="M5.615,2.225l.01.01.133-.153Z" transform="translate(1.842 0.53)" fill="#f8e47c"/>
          <path id="Path_12984" data-name="Path 12984" d="M5.608,2.081l.1.1Z" transform="translate(1.127 0.368)" fill="#f8e47c"/>
        </g>
      </g>
      <g id="Group_508" data-name="Group 508" transform="translate(2.245 3.051)">
        <path id="Path_12985" data-name="Path 12985" d="M5.62,2.215l.1-.1Z" transform="translate(0.094 0.55)" fill="#707070"/>
        <path id="Path_12986" data-name="Path 12986" d="M5.666,2.168l.02-.051-.069.122Z" transform="translate(-0.209 0.904)" fill="#707070"/>
        <path id="Path_12987" data-name="Path 12987" d="M5.616,2.167l.051.082-.02.051.092-.184Z" transform="translate(-0.282 0.843)" fill="#707070"/>
        <path id="Path_12988" data-name="Path 12988" d="M5.618,2.111v0Z" transform="translate(-0.13 0.378)" fill="#707070"/>
        <path id="Path_12989" data-name="Path 12989" d="M5.618,2.111Z" transform="translate(-0.108 0.348)" fill="#707070"/>
        <path id="Path_12990" data-name="Path 12990" d="M5.617,2.253l.051-.071.01-.071Z" transform="translate(-0.201 0.277)" fill="#707070"/>
        <path id="Path_12991" data-name="Path 12991" d="M5.616,2.113Z" transform="translate(-0.31 0.55)" fill="#707070"/>
        <path id="Path_12992" data-name="Path 12992" d="M5.667,2.112l-.051.071.02-.031Z" transform="translate(-0.272 0.48)" fill="#707070"/>
        <path id="Path_12993" data-name="Path 12993" d="M5.718,2.113l-.1.1Z" transform="translate(-0.31 0.55)" fill="#707070"/>
        <path id="Path_12994" data-name="Path 12994" d="M5.625,2.119l-.01.071.041-.071Z" transform="translate(-0.403 1.126)" fill="#707070"/>
        <path id="Path_12995" data-name="Path 12995" d="M5.7,2.11,5.616,2.3l.041-.051Z" transform="translate(-0.332 0.257)" fill="#707070"/>
        <path id="Path_12996" data-name="Path 12996" d="M5.717,2.112l-.1.1Z" transform="translate(-0.411 0.449)" fill="#707070"/>
        <path id="Path_12997" data-name="Path 12997" d="M5.623,2.277l.1-.163-.11.163Z" transform="translate(-0.411 0.661)" fill="#707070"/>
        <path id="Path_12998" data-name="Path 12998" d="M5.646,2.221l.061-.112-.092.163Z" transform="translate(-0.353 0.106)" fill="#707070"/>
        <path id="Path_12999" data-name="Path 12999" d="M5.636,2.271,5.7,2.108l-.084.1Z" transform="translate(-0.393 0.055)" fill="#707070"/>
        <path id="Path_13000" data-name="Path 13000" d="M5.615,2.211v0Z" transform="translate(-0.411 0.146)" fill="#707070"/>
        <path id="Path_13001" data-name="Path 13001" d="M5.623,2.254l.041-.143-.049.143Z" transform="translate(-0.411 0.338)" fill="#707070"/>
        <path id="Path_13002" data-name="Path 13002" d="M5.627,2.122h0l-.012-.01Z" transform="translate(-0.423 0.469)" fill="#707070"/>
        <path id="Path_13003" data-name="Path 13003" d="M5.615,2.112Z" transform="translate(-0.411 0.449)" fill="#707070"/>
        <path id="Path_13004" data-name="Path 13004" d="M5.716,2.114l-.1.306Z" transform="translate(-0.512 0.651)" fill="#707070"/>
        <path id="Path_13005" data-name="Path 13005" d="M5.614,2.205l.01.041.061-.133Z" transform="translate(-0.474 0.57)" fill="#707070"/>
        <path id="Path_13006" data-name="Path 13006" d="M5.614,2.165l.02-.031v-.02Z" transform="translate(-0.494 0.641)" fill="#707070"/>
        <path id="Path_13007" data-name="Path 13007" d="M5.675,2.111l-.051.061-.01.051Z" transform="translate(-0.534 0.389)" fill="#707070"/>
        <path id="Path_13008" data-name="Path 13008" d="M5.615,2.112Z" transform="translate(-0.411 0.449)" fill="#707070"/>
        <path id="Path_13009" data-name="Path 13009" d="M5.623,2.112l-.01.02.01-.02Z" transform="translate(-0.646 0.409)" fill="#707070"/>
        <path id="Path_13010" data-name="Path 13010" d="M5.614,2.153l.041-.041-.018.02Z" transform="translate(-0.534 0.49)" fill="#707070"/>
        <path id="Path_13011" data-name="Path 13011" d="M5.614,2.11v0Z" transform="translate(-0.512 0.247)" fill="#707070"/>
        <path id="Path_13012" data-name="Path 13012" d="M5.615,2.112Z" transform="translate(-0.411 0.449)" fill="#707070"/>
        <path id="Path_13013" data-name="Path 13013" d="M5.665,2.112l-.051.071.041-.031Z" transform="translate(-0.494 0.419)" fill="#707070"/>
        <path id="Path_13014" data-name="Path 13014" d="M5.609,2.949,5.7,2.857l.327-.745-.1.173-.1.286.02-.122-.235.439.061-.071Z" transform="translate(-1.06 0.429)" fill="#707070"/>
        <path id="Path_13015" data-name="Path 13015" d="M5.635,2.3l.008-.01.051-.184-.082.143.031.031Z" transform="translate(-0.635 0.267)" fill="#707070"/>
        <path id="Path_13016" data-name="Path 13016" d="M5.785,2.193l-.173.347.112-.163.051-.163.041-.031.01-.071-.01.01h0l-.01.031v-.01l-.02.051.02-.051.01-.02h0l-.071.061Z" transform="translate(-0.736 0.378)" fill="#707070"/>
        <path id="Path_13017" data-name="Path 13017" d="M5.612,2.221v0Z" transform="translate(-0.714 1.156)" fill="#707070"/>
        <path id="Path_13018" data-name="Path 13018" d="M5.613,2.432l.043-.051-.033.071.051-.122-.01.02.061-.235Z" transform="translate(-0.656 0.823)" fill="#707070"/>
        <path id="Path_13019" data-name="Path 13019" d="M5.714,2.116l-.071.051L5.612,2.3l.031-.071Z" transform="translate(-0.726 0.833)" fill="#707070"/>
        <path id="Path_13020" data-name="Path 13020" d="M5.656,2.252l.069-.143L5.613,2.3Z" transform="translate(-0.656 0.197)" fill="#707070"/>
        <path id="Path_13021" data-name="Path 13021" d="M5.613,2.242l.061-.133-.051.071Z" transform="translate(-0.656 0.207)" fill="#707070"/>
        <path id="Path_13022" data-name="Path 13022" d="M5.582,2.114Z" transform="translate(-3.745 0.651)" fill="#707070"/>
        <path id="Path_13023" data-name="Path 13023" d="M5.583,2.216v0Z" transform="translate(-3.644 0.651)" fill="#707070"/>
        <path id="Path_13024" data-name="Path 13024" d="M5.613,2.268,5.664,2.1,5.6,2.237Z" transform="translate(-1.656 -0.288)" fill="#707070"/>
        <path id="Path_13025" data-name="Path 13025" d="M5.612,2.192l-.02.041.082-.122Z" transform="translate(-2.747 0.237)" fill="#707070"/>
        <path id="Path_13026" data-name="Path 13026" d="M5.589,2.217v0Z" transform="translate(-3.038 0.752)" fill="#707070"/>
        <path id="Path_13027" data-name="Path 13027" d="M5.679,2.113l-.1.2Z" transform="translate(-4.25 0.55)" fill="#707070"/>
        <path id="Path_13028" data-name="Path 13028" d="M5.608,2.312v0Z" transform="translate(-1.118 0.045)" fill="#707070"/>
        <path id="Path_13029" data-name="Path 13029" d="M5.59,2.1Z" transform="translate(-2.937 -0.662)" fill="#707070"/>
        <path id="Path_13030" data-name="Path 13030" d="M5.616,2.108l-.008.02.039-.01Z" transform="translate(-1.118 0.085)" fill="#707070"/>
        <path id="Path_13031" data-name="Path 13031" d="M5.566,2.1Z" transform="translate(-5.362 -0.359)" fill="#707070"/>
        <path id="Path_13032" data-name="Path 13032" d="M5.57,2.09h0Z" transform="translate(-4.958 -1.774)" fill="#707070"/>
        <path id="Path_13033" data-name="Path 13033" d="M5.611,2.11Z" transform="translate(-0.815 0.247)" fill="#707070"/>
        <path id="Path_13034" data-name="Path 13034" d="M5.609,2.115v0Z" transform="translate(-1.017 0.752)" fill="#707070"/>
        <path id="Path_13035" data-name="Path 13035" d="M5.605,2.116Z" transform="translate(-1.421 0.853)" fill="#707070"/>
        <path id="Path_13036" data-name="Path 13036" d="M5.611,2.11Z" transform="translate(-0.815 0.247)" fill="#707070"/>
        <path id="Path_13037" data-name="Path 13037" d="M5.611,2.11Z" transform="translate(-0.815 0.247)" fill="#707070"/>
        <path id="Path_13038" data-name="Path 13038" d="M5.611,2.12l.01.02V2.11Z" transform="translate(-0.807 0.197)" fill="#707070"/>
        <path id="Path_13039" data-name="Path 13039" d="M5.575,2.105Z" transform="translate(-4.453 -0.258)" fill="#707070"/>
        <path id="Path_13040" data-name="Path 13040" d="M5.594,2.129h0v0Z" transform="translate(-2.575 1.136)" fill="#707070"/>
        <path id="Path_13041" data-name="Path 13041" d="M5.593,2.6l.082-.1.194-.388Z" transform="translate(-2.656 0.752)" fill="#707070"/>
        <path id="Path_13042" data-name="Path 13042" d="M7.2,4.741v.1l-.2.306L7.3,4.741v.1h0l.2-.2-.1.1.1-.1v.1h0l.2-.2-.1.1.1-.1-.1.2-.1.2h0l-.1.306.2-.408.1-.1-.1.2-.1.1.2-.2-.1.306.1-.2.2-.1-.1.2.1-.2-.1.1.2-.2v.1l-.1.2.306-.306-.1.1.306-.408.1-.2.1-.1-.1.2h0l-.2.2.1-.1-.2.408v-.1l-.1.2h.1l-.1.1.51-.51-.306.408h-.1v.2l.1-.2v.2l.2-.306-.2.2.2-.1h0v.1h-.1l.306-.2-.2.306.51-.816-.408.918h0l.2-.408-.2.408.306-.408-.2.408.2-.306-.2.408h0l.1-.1.306-.408-.306.51.612-1.02v.1l.1-.1-.714,1.02v.1l-.1.2v.1l.306-.408-.2.2.408-.51-.306.408.1-.1-.1.1h.1v.2l.612-1.224-.2.408-.306.612.1-.2-.1.2.2-.2v.1l.2-.51v.1l.1.2-.1.2.1-.1-.2.2.2-.2h-.1l.408-.612v.1l.2-.2-.2.51v-.1h-.1v.1l.1.2.1-.2-.1.1.2-.306.1-.1-.1.2v-.1h.1v-.1l.2-.2.1-.2-.2.2.1-.306-.1.1h0v.1l-.2.2.1-.1-.1.1.2-.306h-.1v-.1h0l-.1.1h0l-.1-.1h-.1l.1-.1-.1-.1v-.1l-.1.1-.1.1-.1.1v-.1h0l-.1-.1h0v0h-.1l.1-.1h0l-.1.2-.1.1.1-.2-.306.306h0v-.1l.1-.2-.2.306.2-.306-.2.2v0l-.1-.408-.1.1.1-.2-.1.1.1-.2h0v-.1l-.306.51h0l.1-.1H8.421v-.1l-.1.1v-.1l-.1.1.2-.51h.1l-.2.2.2-.306-.2.1-.1.2-.1-.1.1-.1-.2.2c.2-.51-.306.2,0-.2h-.1l.1-.1-.2.2.1-.1-.2.1.1-.2-.1-.1v-.1c-.1.2.2-.408-.2.1l-.1.1-.2.306.1-.2v.1l.1-.408L7.3,2.8l-.1.306v-.1l.1-.1-.1.1.1-.2h0l-.2.1.1-.1h0V2.7l-.1.2-.2.2V2.8l-.1.1-.1.2.2-.51-.2.306.1-.306-.1-.1-.2.2.2-.306-.1.1-.1.1c.1-.306-.408.1-.1-.51l-.1.2-.2.1.1-.2-.2.2h.1l-.51.714.1.1-.1.1h0l.1.306.1-.2-.1.1.2-.2-.1.408.1-.2-.1.1.1-.1-.1.2h0v0h.306v0h.1l.1-.1-.1.306.2-.306v.1l.1-.2-.2.306.1.2.1-.306.1-.2-.1.51h0l.1-.2v.1l.2-.2-.1.1v.1l-.2.2-.1.1.2-.2-.1.1h.1l-.1.1v.1l.2-.306-.1.408v0l.1-.2.1-.1v.1l.1-.1-.1.2v-.1l-.1.2h.1l.2-.306v.2h-.1l-.1.1v.1h0l.2-.2-.1.1.1-.1-.2.306.1-.1-.1.2.2-.1h.1l-.1.2.2-.306-.1.306.2-.1Zm.408.1Zm.714-.1v0Zm1.939-.408Zm0,.1v0ZM7.2,2.8l-.1.1Z" transform="translate(-5.564 -1.976)" fill="#707070"/>
        <path id="Path_13043" data-name="Path 13043" d="M5.589,2.115h0Z" transform="translate(-3.038 0.752)" fill="#707070"/>
        <path id="Path_13044" data-name="Path 13044" d="M5.59,2.113h0l-.012.031Z" transform="translate(-4.162 0.57)" fill="#707070"/>
        <path id="Path_13045" data-name="Path 13045" d="M5.6,2.223v0Z" transform="translate(-2.028 1.359)" fill="#707070"/>
        <path id="Path_13046" data-name="Path 13046" d="M5.651,2.109,5.62,2.14l-.008.051Z" transform="translate(-0.714 0.176)" fill="#707070"/>
        <path id="Path_13047" data-name="Path 13047" d="M5.61,2.21l.023-.02.028-.071Z" transform="translate(-0.939 1.096)" fill="#707070"/>
        <path id="Path_13048" data-name="Path 13048" d="M5.631,2.114l-.02.092.02-.02Z" transform="translate(-0.908 0.682)" fill="#707070"/>
        <path id="Path_13049" data-name="Path 13049" d="M5.61,2.115Z" transform="translate(-0.916 0.752)" fill="#707070"/>
        <path id="Path_13050" data-name="Path 13050" d="M5.61,2.211l.1-.1Z" transform="translate(-0.916 0.146)" fill="#707070"/>
        <path id="Path_13051" data-name="Path 13051" d="M5.608,2.27l.071-.153-.071.122Z" transform="translate(-1.07 0.954)" fill="#707070"/>
        <path id="Path_13052" data-name="Path 13052" d="M5.608,2.117v.051l.028-.051Z" transform="translate(-1.118 0.944)" fill="#707070"/>
        <path id="Path_13053" data-name="Path 13053" d="M5.608,2.117h0Z" transform="translate(-1.118 0.954)" fill="#707070"/>
        <path id="Path_13054" data-name="Path 13054" d="M5.608,2.18l.008-.041-.008-.02Z" transform="translate(-1.118 1.086)" fill="#707070"/>
        <path id="Path_13055" data-name="Path 13055" d="M5.687,2.116l-.051.031-.031.092Z" transform="translate(-1.413 0.813)" fill="#707070"/>
        <path id="Path_13056" data-name="Path 13056" d="M5.655,2.241,5.7,2.119,5.6,2.313Z" transform="translate(-1.515 1.146)" fill="#707070"/>
        <path id="Path_13057" data-name="Path 13057" d="M5.705,2.12l-.1.2Z" transform="translate(-1.623 1.258)" fill="#707070"/>
        <path id="Path_13058" data-name="Path 13058" d="M5.6,2.44h0l.165-.327Z" transform="translate(-1.787 0.55)" fill="#707070"/>
        <path id="Path_13059" data-name="Path 13059" d="M5.595,2.354l.082-.082L5.74,2.12Z" transform="translate(-2.474 1.237)" fill="#707070"/>
        <path id="Path_13060" data-name="Path 13060" d="M5.6,2.221v0Z" transform="translate(-2.331 1.156)" fill="#707070"/>
        <path id="Path_13061" data-name="Path 13061" d="M5.6,2.158l.028-.071-.061.1Z" transform="translate(-4.889 -2.087)" fill="#707070"/>
        <path id="Path_13062" data-name="Path 13062" d="M5.569,2.271,5.7,2.088l-.133.163Z" transform="translate(-5.041 -2.006)" fill="#707070"/>
        <path id="Path_13063" data-name="Path 13063" d="M5.582,2.22l.031-.041.023-.061Z" transform="translate(-3.697 1.025)" fill="#707070"/>
        <path id="Path_13064" data-name="Path 13064" d="M5.581,2.288V2.3l.09-.184Z" transform="translate(-3.846 0.672)" fill="#707070"/>
        <path id="Path_13065" data-name="Path 13065" d="M5.578,2.117Z" transform="translate(-4.149 0.954)" fill="#707070"/>
      </g>
      <g id="Group_509" data-name="Group 509" transform="translate(3.878 2.653)">
        <path id="Path_13066" data-name="Path 13066" d="M5.585,2.133l.2.1Z" transform="translate(-5.075 2.969)" fill="#707070"/>
        <path id="Path_13067" data-name="Path 13067" d="M5.644,2.191l.053.031L5.583,2.13Z" transform="translate(-5.289 2.676)" fill="#707070"/>
        <path id="Path_13068" data-name="Path 13068" d="M5.716,2.13l.01.061L5.583,2.13l.163.122Z" transform="translate(-5.289 2.636)" fill="#707070"/>
        <path id="Path_13069" data-name="Path 13069" d="M5.619,2.132H5.589l.02.01Z" transform="translate(-4.713 2.868)" fill="#707070"/>
        <path id="Path_13070" data-name="Path 13070" d="M5.589,2.132Z" transform="translate(-4.671 2.868)" fill="#707070"/>
        <path id="Path_13071" data-name="Path 13071" d="M5.589,2.131l.061.061.074.031Z" transform="translate(-4.703 2.797)" fill="#707070"/>
        <path id="Path_13072" data-name="Path 13072" d="M5.587,2.13Z" transform="translate(-4.873 2.666)" fill="#707070"/>
        <path id="Path_13073" data-name="Path 13073" d="M5.649,2.192l-.061-.061.02.02Z" transform="translate(-4.824 2.716)" fill="#707070"/>
        <path id="Path_13074" data-name="Path 13074" d="M5.79,2.232l-.2-.1Z" transform="translate(-4.974 2.666)" fill="#707070"/>
        <path id="Path_13075" data-name="Path 13075" d="M5.653,2.159l-.071-.031.063.051Z" transform="translate(-5.441 2.464)" fill="#707070"/>
        <path id="Path_13076" data-name="Path 13076" d="M5.772,2.242,5.588,2.13l.053.041Z" transform="translate(-4.723 2.676)" fill="#707070"/>
        <path id="Path_13077" data-name="Path 13077" d="M5.588,2.231v0Z" transform="translate(-4.772 2.565)" fill="#707070"/>
        <path id="Path_13078" data-name="Path 13078" d="M5.585,2.139l.141.133-.141-.143Z" transform="translate(-5.075 2.524)" fill="#707070"/>
        <path id="Path_13079" data-name="Path 13079" d="M5.631,2.171l.1.082L5.59,2.13Z" transform="translate(-4.541 2.686)" fill="#707070"/>
        <path id="Path_13080" data-name="Path 13080" d="M5.591,2.13l.194.133L5.652,2.13Z" transform="translate(-4.491 2.676)" fill="#707070"/>
        <path id="Path_13081" data-name="Path 13081" d="M5.591,2.129v0Z" transform="translate(-4.469 2.565)" fill="#707070"/>
        <path id="Path_13082" data-name="Path 13082" d="M5.588,2.129l.133.071L5.6,2.129Z" transform="translate(-4.744 2.595)" fill="#707070"/>
        <path id="Path_13083" data-name="Path 13083" d="M5.588,2.139H5.6l.01-.01Z" transform="translate(-4.744 2.585)" fill="#707070"/>
        <path id="Path_13084" data-name="Path 13084" d="M5.588,2.129Z" transform="translate(-4.772 2.565)" fill="#707070"/>
        <path id="Path_13085" data-name="Path 13085" d="M5.788,2.331l-.2-.2Z" transform="translate(-5.176 2.363)" fill="#707070"/>
        <path id="Path_13086" data-name="Path 13086" d="M5.627,2.128H5.586L5.7,2.21Z" transform="translate(-4.946 2.504)" fill="#707070"/>
        <path id="Path_13087" data-name="Path 13087" d="M5.586,2.128l.031.031h.02Z" transform="translate(-4.936 2.474)" fill="#707070"/>
        <path id="Path_13088" data-name="Path 13088" d="M5.69,2.2l-.041-.051-.061-.02Z" transform="translate(-4.754 2.484)" fill="#707070"/>
        <path id="Path_13089" data-name="Path 13089" d="M5.589,2.129Z" transform="translate(-4.671 2.565)" fill="#707070"/>
        <path id="Path_13090" data-name="Path 13090" d="M5.6,2.137l-.01-.01.01.01Z" transform="translate(-4.653 2.393)" fill="#707070"/>
        <path id="Path_13091" data-name="Path 13091" d="M5.588,2.128l.028.051-.01-.031Z" transform="translate(-4.772 2.474)" fill="#707070"/>
        <path id="Path_13092" data-name="Path 13092" d="M5.691,2.23l-.1-.1Z" transform="translate(-4.671 2.464)" fill="#707070"/>
        <path id="Path_13093" data-name="Path 13093" d="M5.589,2.129Z" transform="translate(-4.671 2.565)" fill="#707070"/>
        <path id="Path_13094" data-name="Path 13094" d="M5.662,2.18l-.074-.051.031.031Z" transform="translate(-4.744 2.524)" fill="#707070"/>
        <path id="Path_13095" data-name="Path 13095" d="M5.582,2.122l.071.1.684.439L6.184,2.54,5.921,2.4l.049.01-.337-.276.061.061Z" transform="translate(-5.41 1.847)" fill="#707070"/>
        <path id="Path_13096" data-name="Path 13096" d="M5.589,2.138l.01.01.173.082-.133-.1-.041.02Z" transform="translate(-4.693 2.403)" fill="#707070"/>
        <path id="Path_13097" data-name="Path 13097" d="M5.892,2.35l-.306-.224.143.133.143.082.031.041.061.02h-.01l-.01-.01-.01-.01L5.892,2.35l.041.031.02.02h0L5.912,2.32Z" transform="translate(-5.006 2.231)" fill="#707070"/>
        <path id="Path_13098" data-name="Path 13098" d="M5.581,2.125l.1.1Z" transform="translate(-5.479 2.161)" fill="#707070"/>
        <path id="Path_13099" data-name="Path 13099" d="M5.592,2.126l.061.051-.071-.051.1.082-.01-.01.235.112Z" transform="translate(-5.36 2.242)" fill="#707070"/>
        <path id="Path_13100" data-name="Path 13100" d="M5.747,2.248l-.041-.061-.122-.061.061.041Z" transform="translate(-5.218 2.201)" fill="#707070"/>
        <path id="Path_13101" data-name="Path 13101" d="M5.643,2.178l.12.082-.173-.133Z" transform="translate(-4.622 2.393)" fill="#707070"/>
        <path id="Path_13102" data-name="Path 13102" d="M5.59,2.127l.11.082-.061-.061Z" transform="translate(-4.57 2.393)" fill="#707070"/>
        <path id="Path_13103" data-name="Path 13103" d="M5.59,2.1Z" transform="translate(-4.57 -0.567)" fill="#707070"/>
        <path id="Path_13104" data-name="Path 13104" d="M5.589,2.1h0Z" transform="translate(-4.671 -0.466)" fill="#707070"/>
        <path id="Path_13105" data-name="Path 13105" d="M5.6,2.119l.153.082-.122-.082Z" transform="translate(-4.006 1.554)" fill="#707070"/>
        <path id="Path_13106" data-name="Path 13106" d="M5.631,2.139l-.039-.031.079.071Z" transform="translate(-4.368 0.443)" fill="#707070"/>
        <path id="Path_13107" data-name="Path 13107" d="M5.588,2.1v0Z" transform="translate(-4.772 0.039)" fill="#707070"/>
        <path id="Path_13108" data-name="Path 13108" d="M5.692,2.2l-.1-.1Z" transform="translate(-4.57 -0.972)" fill="#707070"/>
        <path id="Path_13109" data-name="Path 13109" d="M5.592,2.124h0Z" transform="translate(-4.368 2.06)" fill="#707070"/>
        <path id="Path_13110" data-name="Path 13110" d="M5.6,2.108Z" transform="translate(-3.357 0.443)" fill="#707070"/>
        <path id="Path_13111" data-name="Path 13111" d="M5.625,2.144l-.033-.02.02.041Z" transform="translate(-4.299 1.999)" fill="#707070"/>
        <path id="Path_13112" data-name="Path 13112" d="M5.6,2.085Z" transform="translate(-3.458 -1.881)" fill="#707070"/>
        <path id="Path_13113" data-name="Path 13113" d="M5.615,2.091Z" transform="translate(-2.044 -1.275)" fill="#707070"/>
        <path id="Path_13114" data-name="Path 13114" d="M5.591,2.126Z" transform="translate(-4.469 2.262)" fill="#707070"/>
        <path id="Path_13115" data-name="Path 13115" d="M5.586,2.123Z" transform="translate(-4.974 1.959)" fill="#707070"/>
        <path id="Path_13116" data-name="Path 13116" d="M5.586,2.119Z" transform="translate(-4.974 1.554)" fill="#707070"/>
        <path id="Path_13117" data-name="Path 13117" d="M5.591,2.126Z" transform="translate(-4.469 2.262)" fill="#707070"/>
        <path id="Path_13118" data-name="Path 13118" d="M5.591,2.126Z" transform="translate(-4.469 2.262)" fill="#707070"/>
        <path id="Path_13119" data-name="Path 13119" d="M5.612,2.126h-.02l.02.01Z" transform="translate(-4.44 2.282)" fill="#707070"/>
        <path id="Path_13120" data-name="Path 13120" d="M5.6,2.093Z" transform="translate(-3.66 -1.073)" fill="#707070"/>
        <path id="Path_13121" data-name="Path 13121" d="M5.584,2.108l.01.01H5.6Z" transform="translate(-5.148 0.463)" fill="#707070"/>
        <path id="Path_13122" data-name="Path 13122" d="M5.584,2.107l.122.112.329.235Z" transform="translate(-5.218 0.372)" fill="#707070"/>
        <path id="Path_13123" data-name="Path 13123" d="M6.7,3.512l-.2-.1-.2-.2.306.408v-.1h0l.1.2-.1-.1.1.1H6.6l.2.2-.1-.1.1.1-.2-.1-.2-.1h0l-.306-.2.408.306.1.1-.2-.1-.1-.1.2.2-.306-.2.2.2.1.2-.2-.2.2.2-.1-.1.2.2H6.5l-.2-.1L6.6,4.43l-.2-.1.408.306.2.1.1.1-.2-.1h0l-.2-.2.1.1L6.5,4.328v.1l-.1-.1h-.2l.51.51-.408-.306v-.1l-.1-.1.1.2-.1-.1.2.2-.2-.1.2.1h-.2l.2.2-.306-.2.714.612-.816-.612v.1l.306.2-.306-.2.408.306-.408-.306.306.306-.408-.306v.1h.1l.408.408L5.988,4.94l.816.714-.1-.1.1.1L5.886,4.94l-.1-.1-.1-.1h-.1l.306.306-.2-.2.51.408L5.784,4.94l.1.1-.2-.1.1.1h-.2L6.7,5.756l-.408-.2-.51-.408.1.1-.1-.1.1.2h0l.408.306H5.988l-.2-.2.1.1-.2-.1.2.2v-.1l.51.51-.1-.1.2.2-.408-.2h0v-.1h-.2l.1.1h0l.2.2.1.1-.1-.1h0v.1h.1l.2.2.2.1-.2-.2.306.2-.1-.1h0l-.1-.1-.2-.1.1.1-.1-.1.306.2.1-.1h0l-.1-.1h.1l.1-.1h.306l-.2-.1v-.1l-.1-.1h.1l.1-.1h0l-.1-.1.2.1h0l-.2-.1-.1-.1.2.1L6.8,5.348h.1l.2.1-.2-.2.306.2-.306-.2.1.1v-.1h.306l-.1-.1.2.1v-.1l.1.1h0l.1.1L7.213,4.94l-.1-.1.2.2v-.2h0v-.1h.1l-.1-.1h0l.51.2v.1l-.2-.2.2.2v-.2l-.2-.1.1-.1.1.1-.2-.306c.408.408-.2-.2.2.1h.1l-.1-.2v-.1l.1.1h.2c-.1-.2.408.2,0-.2l-.1-.1-.306-.2.1.1h0l.306.1.306-.1-.2-.1h0l.2.1-.1-.1.306.1h-.1l-.1-.2.1.1h0l-.1-.1-.2-.1h.306l-.1-.1-.1-.2.408.306-.2-.306.2.2.1-.1-.2-.2.306.2-.1-.1-.1-.1c.306.1,0-.306.51-.1h-.1l-.2-.2.2.1-.2-.2.1.1-.714-.612-.1.1-.1-.2v.1H7.825l.2.1h-.1l.2.1-.408-.1.2.1-.1-.1.1.1-.2-.1h0v.306h.1l-.1.1h0v.1l-.2-.2.306.306-.1-.1.1.2-.2-.2h-.2l.2.1.2.2-.408-.2h-.1l.2.2V3l.1.2-.1-.1h0l-.2-.2-.1-.1.1.2-.1-.1.1.1-.2-.1h-.1l.306.2-.306-.2.1.1-.1-.1.2.2v.1l-.1-.1.1.2-.1-.2v.1l-.1-.1v.1l.2.2-.1-.1-.1-.1-.1-.1h0v.1l.2.1-.2-.1.1.1L6.7,3.1l.1.1-.1-.1v.2h.1l-.1.1-.2-.1.306.2-.2-.1.1.1Zm-.2.306Zm.1.714-.1-.1Zm.1,1.837Zm-.1,0h0ZM8.437,3.716Z" transform="translate(-5.58 -2.083)" fill="#707070"/>
        <path id="Path_13124" data-name="Path 13124" d="M5.588,2.105h0Z" transform="translate(-4.772 0.14)" fill="#707070"/>
        <path id="Path_13125" data-name="Path 13125" d="M5.612,2.115h0l-.02-.02Z" transform="translate(-4.461 -0.911)" fill="#707070"/>
        <path id="Path_13126" data-name="Path 13126" d="M5.581,2.113h0Z" transform="translate(-5.479 0.948)" fill="#707070"/>
        <path id="Path_13127" data-name="Path 13127" d="M5.672,2.188l-.031-.041-.051-.02Z" transform="translate(-4.491 2.353)" fill="#707070"/>
        <path id="Path_13128" data-name="Path 13128" d="M5.582,2.123l.02.02.063.041Z" transform="translate(-5.36 1.969)" fill="#707070"/>
        <path id="Path_13129" data-name="Path 13129" d="M5.68,2.165l-.094-.041.02.02Z" transform="translate(-4.966 2.08)" fill="#707070"/>
        <path id="Path_13130" data-name="Path 13130" d="M5.586,2.124v0Z" transform="translate(-4.974 2.06)" fill="#707070"/>
        <path id="Path_13131" data-name="Path 13131" d="M5.591,2.125l.1.1Z" transform="translate(-4.469 2.161)" fill="#707070"/>
        <path id="Path_13132" data-name="Path 13132" d="M5.583,2.122l.143.092-.112-.082Z" transform="translate(-5.269 1.868)" fill="#707070"/>
        <path id="Path_13133" data-name="Path 13133" d="M5.635,2.132l-.051-.01.041.031Z" transform="translate(-5.158 1.837)" fill="#707070"/>
        <path id="Path_13134" data-name="Path 13134" d="M5.585,2.122Z" transform="translate(-5.075 1.858)" fill="#707070"/>
        <path id="Path_13135" data-name="Path 13135" d="M5.583,2.121l.041.02.02-.01Z" transform="translate(-5.299 1.807)" fill="#707070"/>
        <path id="Path_13136" data-name="Path 13136" d="M5.7,2.211,5.669,2.16l-.084-.041Z" transform="translate(-5.057 1.585)" fill="#707070"/>
        <path id="Path_13137" data-name="Path 13137" d="M5.645,2.169l.12.071-.184-.122Z" transform="translate(-5.441 1.413)" fill="#707070"/>
        <path id="Path_13138" data-name="Path 13138" d="M5.683,2.218l-.1-.1Z" transform="translate(-5.479 1.251)" fill="#707070"/>
        <path id="Path_13139" data-name="Path 13139" d="M5.586,2.116v.01l.3.2Z" transform="translate(-4.956 1.241)" fill="#707070"/>
        <path id="Path_13140" data-name="Path 13140" d="M5.581,2.109l.071.092.082.031Z" transform="translate(-5.461 0.504)" fill="#707070"/>
        <path id="Path_13141" data-name="Path 13141" d="M5.583,2.11l.1.1Z" transform="translate(-5.277 0.645)" fill="#707070"/>
        <path id="Path_13142" data-name="Path 13142" d="M5.647,2.133l.071.031-.1-.071Z" transform="translate(-1.925 -1.204)" fill="#707070"/>
        <path id="Path_13143" data-name="Path 13143" d="M5.615,2.09l.184.143L5.647,2.1Z" transform="translate(-2.076 -1.366)" fill="#707070"/>
        <path id="Path_13144" data-name="Path 13144" d="M5.586,2.1l.043.031.059.041Z" transform="translate(-5.016 -0.567)" fill="#707070"/>
        <path id="Path_13145" data-name="Path 13145" d="M5.588,2.1h0l.165.122Z" transform="translate(-4.733 -0.668)" fill="#707070"/>
        <path id="Path_13146" data-name="Path 13146" d="M5.588,2.094Z" transform="translate(-4.772 -0.972)" fill="#707070"/>
      </g>
    </g>
  </g>
</svg>
