<svg xmlns="http://www.w3.org/2000/svg" width="108.93" height="109.985" viewBox="0 0 108.93 109.985">
  <g id="Group_2541" data-name="Group 2541" transform="translate(1418.589 -835.919) rotate(70)" opacity="0.5">
    <path id="Path_12638" data-name="Path 12638" d="M187.642,97.861a1.379,1.379,0,0,1,.232.7l.077-.093c0,.341-.31.093-.279.449l-.2-.155-.186-.155v.356h.108s-.17,0,0,.2a1.55,1.55,0,0,0-1.209-.341,2.837,2.837,0,0,1-.511,0,1.209,1.209,0,0,1-.589-.232v.217c-.093-.341-.17.139-.263.17a2.391,2.391,0,0,1,0-.248v-.263c-.108.124-.077.263-.108.372a.837.837,0,0,1-.759-.2.48.48,0,0,0-.5-.17c0-.2.17-.325.093-.434,0,.511-.434,0-.5.387.124-.5-.356-.325,0-.9-.108-.124-.263.186-.263.263a.4.4,0,0,0-.5-.093c0-.108-.17-.186-.341-.31a.425.425,0,0,1-.17-.573c-.17.325-.139.124-.31.17l-.139.263-.17-.186h0s.155-.139.139-.263-.232,0-.4,0h-.093s.434,0,.372-.279c-.077,0-.48.2-.356,0,0,.108.217,0,.263-.139l-.093-.155-.263.294a11.361,11.361,0,0,1-.666-1.55c.31-.124-.139-.387.356-.511h0c.093.108.356-.17.263-.248-.108.17-.542,0-.511.263l-.294-.139c-.48.108-.511,0-.449-.263s.17-.449,0-.6h.124c-.356-.263.139-.728,0-.775h.263c-.418-.232-.465-.248-.294-.6h.17c-.186-.077-.387-.155-.325-.325h.077v-.341c.4,0,.294-.108.2-.294s-.155-.372.279-.325c-.217-.108-.232-.372-.31-.511a.155.155,0,0,1-.124,0,.294.294,0,0,1,.124,0,.232.232,0,0,0,.108,0c-.372-.248.232-.31.248-.449s-.217-.139-.356-.155c.372,0-.139-.635,0-.651a1.641,1.641,0,0,1,.48.139c0-.232-.666-.31-.248-.4v.093s1.023.232.9,0h-.155c-.093-.263.775,0,.325-.31l-.217-.124c.434,0,0-.17.418-.248h0c0-.139.325,0,0-.294h-.077c.093-.155.124-.139.263-.248s0-.155,0-.108c-.248-.248.186-.4.248-.449s0,.186.2.279c-.124-.263-.093-.325.124-.248-.263-.325-.542-.7-.356-.868a.232.232,0,0,1,0,.139c.139.093.124,0,.124,0a.3.3,0,0,0,.17.248c-.124-.418.2-.17.31-.434,0,.155.108.186.2.294-.232-.418.48.186.093-.294a1.239,1.239,0,0,0,.418,0l-.4-.775-.542-1.007-.589-.93-.589-.945c-.217-.31-.418-.62-.635-.914-.449-.589-.883-1.193-1.317-1.782L177.384,78.1c-.434-.589-.93-1.147-1.379-1.7-.294-.263-.232,0-.17.155-.511-1.007-.821-.651-1.271-1.023l-.821-1.395c-.558-.341-.294.108-.387.139l-.821-.728-.837-.7c-.558-.465-1.054-.976-1.55-1.395s-1.1-.837-1.55-1.209a9.67,9.67,0,0,0-1.643-.93c-.573-.527.356-.217-.48-.79.449.573-.186.217-.914-.124s-1.55-.713-1.178-.372c-.62-.945-3.239-1.55-2.557-2.077-1.1-.542-1.038-.139-.744,0a7.749,7.749,0,0,0-.93-.372l-.883-.294a8.584,8.584,0,0,0-1.72-.387,8.288,8.288,0,0,0-1.271-.4l-1.054-.279c-.372-.108-.79-.155-1.193-.248-.821-.155-1.643-.372-2.34-.511a5.842,5.842,0,0,1-1.55-.449c.806.434-.077.17-.914.2l.713.4-.914-.139h-1.395c-.31,0,.093-.17-.713-.294h-.449a11.2,11.2,0,0,1,.821,4.2c0,.2,0,.387,0,.573.263-.108.511-.217.713-.077v-.17c.325.077,0,.573.325.682l-.2.31-.217.294c.124,0,.294.108.356,0s0-.17,0-.217v.186c0,.2,0,.325.17.139a6.2,6.2,0,0,0-.573,1.085c-.155.356-.217.728-.341,1.085a4.013,4.013,0,0,1-.992,1.984c0,.108.108.108.2.108-.418,0,0,.31,0,.48h-.6c0,.217.232.2.294.248a2.975,2.975,0,0,1-.744.837,1.7,1.7,0,0,0-.635.775c-.248,0-.248-.31-.449-.155.279,0,.2.217,0,.387s-.263.325,0,.372c-.511-.2-.744.558-1.116,0-.263.155,0,.387.093.387a1.147,1.147,0,0,0-.62.7,3.5,3.5,0,0,0-.806.449,1.038,1.038,0,0,1-1.023.186c.341.217,0,.17,0,.387l.294.186-.217.093-.232.093h-.108s0-.17-.279-.17-.263.248-.372.465h0l-.2.093c-.155,0,.434-.48-.093-.449,0,0-.155.558-.356.387.263,0,.155-.248,0-.31h-.372l.232.341a4.875,4.875,0,0,0-.806.139,7.545,7.545,0,0,1-.837,0h-1.937c-.17,0-.325,0-.279-.325h0c.248,0,0-.4-.279-.341.217.17-.418.48.124.573l-.434.217c-.139.449-.48.387-.837.232s-.713-.434-1.085-.372a.248.248,0,0,0,.093,0c-.7.155-1.209-.666-1.379-.573v-.263c-.62.2-.7.17-1.193-.232,0,0,.139-.077,0-.155a.62.62,0,0,1-.79,0h0l-.589-.31c.217-.325,0-.387-.372-.48s-.651-.2-.449-.6c-.248.093-.651-.17-.883-.232s0,0-.17,0a.217.217,0,0,1,.17,0v-.108c-.511.139-.418-.651-.635-.806s-.248.093-.31.232c0-.465-.914-.558-.9-.759s.186-.263.294-.434c-.294-.279-.573.48-.6-.155,0,0,.155.124.155,0s.558-.992.31-1.054v.17c-.387-.2.186-1.038-.325-.837l-.217.139c0-.7-.217-.186-.186-.9h0c-.139-.232.108-.48-.325-.465v.093a1.658,1.658,0,0,1-.2-.682s-.155-.155-.093-.232c-.31,0-.372-.744-.341-.914.093.279.2.108.325,0-.294-.108-.325-.2-.17-.465h-.232c-.434.294-.961.558-1.55.883a15.294,15.294,0,0,0-3.58,2.371c.139-.155.139-.217.139-.263a29.087,29.087,0,0,1-2.758,2.34,10,10,0,0,0-1.689,1.55h-.341c-.558.868-.852,1.364-1.224,1.844s-.837.976-1.643,1.875c0,0,.093-.31-.186,0a7.748,7.748,0,0,1-1.333,2.417h0v-.093s-.124.17-.279.434a.4.4,0,0,0,.372,0,.557.557,0,0,0,0-.17h.093c.077.155.093,0,.17,0-.139.387.108.279-.108.666.217-.465.279.279.527-.108-.186.356,0,0-.139.356,0-.2-.418-.108-.62,0v.248c-.372.232-.093-.325-.248-.279.108,0,.108.124,0,.2l.2-.263c0-.217-.31-.155-.511-.108h0l-.17.248v.124l.263.248h0l.356.387c.232-.17.48-.077.62-.263,0,.124-.2.217,0,.279s.2-.31.263-.418a.387.387,0,0,0,.325,0h0a.263.263,0,0,1,.263,0c0,.17-.108.248-.093.325l.248.155h0a.7.7,0,0,1,0-.17v.341a.279.279,0,0,0,.217.124l-.155.124a.115.115,0,0,0,.108.108h.17c-.124,0-.186,0-.17-.108a.589.589,0,0,1,0-.248l-.139-.093c0,.232-.341,0-.155.248-.139,0-.248.108-.356,0,.155-.217.325-.155.527-.248-.093-.093-.139-.155-.139-.217h0l-.341-.945h0c-.232.325-.728.79-.93.806l.108.139a.093.093,0,0,1,.155,0h-.093a6.927,6.927,0,0,1,1.3,4.06,1.878,1.878,0,0,1,0,.294,1.457,1.457,0,0,1,.728,0v-.093c.325,0,0,.31.325.372l-.372.31h.356a.279.279,0,0,0,0-.093v.093s0,.186.2,0a1.55,1.55,0,0,0-.465.62,1.967,1.967,0,0,0-.17.589,2.789,2.789,0,0,1-.155.62.976.976,0,0,1-.356.511h.108c-.263,0,.17.217.17.31h-.5c0,.155.232.155.31.2-.139.434-.728.527-.713.945-.186,0-.279-.232-.4-.17.5.139,0,.465.248.589-.465-.232-.418.294-.9-.217-.139,0,.124.31.217.31-.155.139-.263.217-.232.5-.093,0-.232.155-.4.294a.517.517,0,0,1-.635.093c.294.2.093.139.093.341l.248.17-.232.139h0a.325.325,0,0,0-.232-.155c-.155,0,0,.217-.093.4h0l-.093.093c-.077,0,.124-.434-.2-.418,0,0,.077.511-.108.356.155,0,0-.232,0-.294h-.186l.232.325a2.929,2.929,0,0,1-.9.217,3.273,3.273,0,0,0-.93.17c0-.341-.434,0-.465-.418h0c.124,0-.124-.387-.217-.31.155.139-.139.511.17.558l-.2.263c0,.48-.186.48-.387.4s-.449-.263-.62-.093,0-.093,0-.124c-.263.263-.573,0-.728-.124a7.485,7.485,0,0,0-.356,2.169,9.3,9.3,0,0,1,0,1.875c-.155,1.007-.356.341-.573.6,0,1.55.744-.186.248,1.829v-.527c-.124.775-1.131,2.154-.945,2.96l.155-.511a5.518,5.518,0,0,1,0,1.131c0,.4-.108.806-.139,1.162-.108.728-.17,1.286.108,1.395l.248-.139a6.338,6.338,0,0,0,0,1.782,9.3,9.3,0,0,1,.139,1.8h0a7.873,7.873,0,0,1,.124,1.348,1.255,1.255,0,0,0,.387.852v-.387c.155.666.232,1.038.294,1.41s.077.372.108.589.124.5.2.837a2.542,2.542,0,0,1,.279.992c.093,0,.186.186.294.465a9.1,9.1,0,0,1,.4,1.116c.139.418.263.852.387,1.224l.155.48a.372.372,0,0,1,.217.155.356.356,0,0,0-.139,0v.217q0-.085,0-.17v.139a.527.527,0,0,1,0-.232c-.2-.542-.2-.263-.2,0h0a2.325,2.325,0,0,1,.682,1.116h.108a4.306,4.306,0,0,1,.124.589.945.945,0,0,1,.79.186h.155a2.063,2.063,0,0,1,.294.372h0c0-.279.356,0,0-.279.155,0,.232-.139.4,0-.093.232-.294.2-.5.31.139.093.217.155.248.232h.077l.279.279h0c.108-.4.48-.945.713-.992l-.186-.155h-.155v-.093h0a7.035,7.035,0,0,1-2.216-5.114v-.4a.961.961,0,0,1-.713,0v.124c-.325,0,0-.4-.325-.5l.418-.434c-.139,0-.31-.108-.372,0h0c0-.124,0-.232-.186-.108a3.5,3.5,0,0,0,.542-.759,7.749,7.749,0,0,0,.279-.775,2.278,2.278,0,0,1,.821-1.41.5.5,0,0,0-.2-.124c.372,0,0-.248,0-.372h.558c0-.17-.217-.186-.279-.248.279-.527.976-.589,1.131-1.069.217,0,.217.294.387.217-.232-.108-.186-.248-.093-.356s.217-.232,0-.325c.449.294.62-.31.945.325.2,0,0-.341-.093-.356a.759.759,0,0,0,.48-.511,3.061,3.061,0,0,0,.635-.248.756.756,0,0,1,.79,0c-.263-.294,0-.186,0-.372l-.232-.248h.449a.3.3,0,0,0,.186.217c.232,0,.217-.2.325-.372h.139c.124,0-.356.372,0,.465,0-.093.155-.511.294-.31-.2,0-.139.217,0,.294h.263l-.124-.372a3.934,3.934,0,0,1,.6,0h.62l.573.139.635.124c0,.31.558.155.372.62h0c-.186,0,0,.4.108.387-.108-.2.434-.4,0-.573l.372-.139c.248-.434.449-.325.666-.139s.4.5.7.465h-.093c.542,0,.728.728.868.666l-.108.232c.527-.108.62-.108.821.325,0,0-.108,0-.093.139s.434-.155.6.108h0l.356.325c-.31.263-.077.325.139.434s.465.263.139.558a1.627,1.627,0,0,1,.666.294h0a.186.186,0,0,0-.077,0c.48,0,.124.558.263.7s.248,0,.341-.139c-.2.372.635.589.542.744s-.279.155-.434.263c.155.263.682-.248.48.232l-.093-.108c0,.217-.9.666-.7.759l.139-.124c.232.248-.573.7,0,.666h.263c-.294.465.108.17-.155.635h0v.248h0a.465.465,0,0,0,.2.093h0a1.286,1.286,0,0,1,0,.48s.093.139,0,.155c.341,0,0,.635,0,.744,0-.217-.17-.139-.31-.108.248.17.263.263,0,.372.387.124.821.263.759.6a.135.135,0,0,0-.155-.139c-.155.016,0,.108,0,.108a.5.5,0,0,0-.263,0c.341.341,0,.387,0,.744,0-.155-.186-.093-.341-.108.434.2-.542.248,0,.372-.573.434-.79,1.426-1.286,1.379-.186,0,0,.248-.108.341l-.17-.139c.093.48,0,.263,0,.79-.077-.279-.217-.31-.449-.341a1.782,1.782,0,0,0,0,.232v.248l-.263-.2c0,.155-.108.186-.217.232h0a.511.511,0,0,1,0,.449c0,.124-.124.232-.093.341-.356-.279-.17.279-.48,0v.124c.124.2.263.372.124.341h0l.155.155c.139.186-.155,0-.372,0h-.17a.139.139,0,0,0-.2.093.615.615,0,0,0-.511.341c-.139.2-.31.372-.6.186a.372.372,0,0,0,.17,0c-.325,0-.744-.17-.883,0v.217a1.131,1.131,0,0,1-.589.325v.263c-.31,0-.945.48-1.178,0,0,.093-.124.093-.248,0h-.635v-.217a.387.387,0,0,0-.4,0h0c-.108.139-.186.093-.279,0a.527.527,0,0,1-.31-.17c0-.186.155,0,.31.17a.356.356,0,0,0,.248,0c-.356-.449-.914-.108-1.286-.217h-.418c.155-.155-.124.093-.232,0a.387.387,0,0,1-.418-.248l-.248-.093c.325,0,.093-.294.17-.511h-.217c0-.139.17-.139.093-.232s-.418,0-.62.108a.263.263,0,0,0,0,.186h0a.2.2,0,0,0,0,.077h0c-.155-.139-.139,0-.186.093,0-.449-.263-.294-.186-.759,0,.542-.434-.263-.573.2,0-.4-.093-.093,0-.4.124.232.527,0,.759,0v-.294c.31-.294.248.341.4.263a.16.16,0,0,1-.155-.2l-.108.31c.155.248.465.093.682,0-.093-.155.248,0,.248-.356h-.124a12.089,12.089,0,0,1-1.1-.713c-.2.232-.5.139-.573.372,0-.155.124-.263-.124-.325s-.093.387-.093.5c-.232,0-.279,0-.341.124h0a.356.356,0,0,1-.217.093v.139l.093-.108h-.17v-.108h0c-.139-.2-.232-.356-.232-.2a1.224,1.224,0,0,0,.341.62c0,.2-.31-.263-.356,0,.93.868.945,1.829,1.984,3.223-.4-.4-.232,0-.248.294.248,0,.434.5.651.961s.372.821.449.372c.2.387.418.775.651,1.178a13.951,13.951,0,0,0,.837,1.193c.558.821,1.24,1.55,1.844,2.309s1.24,1.333,1.72,1.891a7.748,7.748,0,0,1,1.054,1.271,1.829,1.829,0,0,0,.635.589,9.3,9.3,0,0,1,.868.589l-.186.108h0a.93.93,0,0,0,.852-.465c.186-.248.325-.527.713-.542a1.14,1.14,0,0,0-.155-.17c.294.17,0-.2,0-.2l.434.186a.558.558,0,0,0-.217-.294c.186-.279.682,0,.728-.449.155.108.2.325.31.325-.372-.325.124-.356-.124-.589.341.387.372-.093.682.542.124,0,0-.31-.124-.356s.232-.093.232-.341c.139.108.527-.434.837,0-.2-.294,0-.17,0-.341l-.2-.263h.2a.232.232,0,0,0,.155.217c.155.046,0-.186.093-.356h.077s-.124.372.139.434c0,0,0-.511.077-.294-.108,0,0,.2,0,.279h.155l-.17-.372a5.734,5.734,0,0,1,1.364,0c0,.341.31,0,.341.465h0c-.093,0,.093.387.155.325s.108-.511-.124-.558l.155-.263c0-.945.48,0,.728-.263v.124A.155.155,0,0,1,124.8,134h.139c.093.093.17.2.2.124v.263c.2-.387.232-.434.449-.263a.248.248,0,0,0,0,.186c0-.186.139-.387.31-.294h.279c0,.4,0,.294.232.2s.31-.186.232.263c.108-.232.31-.248.418-.325v.093c.2-.387.248.217.372.186s.093-.217.108-.356c0,.356.511-.232.527,0a.68.68,0,0,1-.108.5c-.108.186.232-.7.325-.325H128.2c0,.155-.155,1.054,0,.9v.682c.232-.139,0,.744.279.248l.093-.232c.093.4.139,0,.232.325h0c.124,0,0,.294.263,0h0c.139,0,.124.077.232.17s.124,0,.093,0c.186-.279.356,0,.4.093s-.155.124-.217.248c.217-.186.279-.186.232,0,.248-.341.511-.713.682-.6a.294.294,0,0,0-.155.108c0,.093,0,0,.077,0s-.108.108-.186.232c.341-.263.186.108.434.093-.139,0-.139.155-.217.294.31-.372,0,.465.263,0,0,.5.651.62.465.992s.17,0,.2,0l-.155.124c.387-.124.186,0,.6-.108a.651.651,0,0,0-.387.4l.4-.186-.217.232c.124,0,.139,0,.124.108h0c.356-.263.465,0,.651-.124-.31.31.186,0-.108.341h.108c.186-.139.356-.263.325-.17h0l.17-.139c.2-.155,0,.093-.124.263s0,0,0,.124h0v.093c-.217.372.7.108.341.573h0c0,.108-.124.48.108.5l.2-.124a.333.333,0,0,1,.294.248l.248-.108c0,.186.542.356,0,.666.217,0,0,.232.124.294H133.9c0,.139,0,.186.155.232h0c.17,0,.139.077,0,.17a.341.341,0,0,1-.093.186c-.186,0,0,0,.093-.186a.4.4,0,0,0-.093-.124c-.341.356.108.449.139.666h0l.2.17c-.186,0,.139,0,.093.093s.093.17,0,.279v.139c-.155-.139-.294,0-.527.093h-.031a.518.518,0,0,0,.4.217h.31c-.356.17-.093.2-.527.341.48-.17,0,.279.48.17-.372.108,0,0-.325.139.093-.139-.248-.248-.418-.31l-.217.108c-.434,0,.139-.232,0-.279.108,0,0,.139,0,.139h.217c.124-.139-.139-.217-.325-.294s-.2,0-.434,0h-.093v.728c.279,0,.418.139.651.093-.108,0-.294,0-.186.17s.341-.108.465-.139a.4.4,0,0,0,.294.093h0a.589.589,0,0,1,.248.093H134.2l-.108.077.139.186h0v.2h-.186a.186.186,0,0,0,0,.108h.325a.542.542,0,0,0-.124-.093h.093a.325.325,0,0,1,0-.186h0c-.17.108-.341-.155-.294,0-.093,0-.263,0-.279-.155a1.317,1.317,0,0,1,.558,0v-.155h0v-.217h0a3.1,3.1,0,0,1-1.209.077v.108h0a8.166,8.166,0,0,1-.279,2.061l.62.139a.232.232,0,0,1,.17,0h0l.775.155a12.088,12.088,0,0,1,3.1.759,1.658,1.658,0,0,0-.868-.155,24.468,24.468,0,0,0,4.556.821v-.248h3.332v-.263h1.457l1.627-.124a7.315,7.315,0,0,1,2.619,0,1.55,1.55,0,0,1,.635-.155c-.155-.155-.294-.372-.4-.5h-.17a.155.155,0,0,1,.108,0h.108c-.465-.139,0-.759-.139-1.007s-.263,0-.372,0c.248-.418-.573-.914-.449-1.085s.294-.139.465-.232c-.124-.387-.728.155-.449-.418l.124.124c0-.232.945-.635.744-.806l-.139.139c-.232-.341.651-.837.124-.9h-.263c.372-.542,0-.232.248-.821h0c0-.248.325-.387,0-.558l-.077.108a4.028,4.028,0,0,1,.139-.728v-.263c-.341,0,0-.806.093-.945,0,.279.155.2.31.17-.217-.232-.232-.356,0-.511-.387-.155-.806-.341-.666-.775a.742.742,0,0,1,0,.2c.2,0,.139-.155.139-.155a.436.436,0,0,0,.248.108c-.263-.434.155-.511.217-.961,0,.186.17.093.341.124-.418-.248.62-.356,0-.48a5.377,5.377,0,0,0,.883-1.147c.279-.372.542-.7.79-.7s.108-.325.217-.434l.139.139c0-.542.108-.31.155-.945,0,.341.186.341.465.341v-.542l.263.186c0-.17.155-.248.31-.31a.093.093,0,0,0,0,.093c-.248-.387.232-.759.2-.961.372.263.248-.341.573,0a1.462,1.462,0,0,1,0-.248c-.17-.093-.31-.263-.139-.263h0l-.186-.155c-.139-.17.186,0,.449,0h.232a.2.2,0,0,0,.248-.155c.325,0,.465-.217.666-.434s.418-.449.775-.325c-.093,0-.2,0-.186.108.387-.232.945,0,1.131-.325l-.093-.217a1.968,1.968,0,0,1,.759-.418V129.6c.4,0,1.178-.651,1.55-.124,0-.217.542,0,.759-.124v.2a.976.976,0,0,0,.635-.108h0c.139-.17.294-.108.434,0h.294l-.186-.124a.542.542,0,0,0-.449,0,1.1,1.1,0,0,0,.434.17h.449a3.1,3.1,0,0,1,.728-.108h0l.542-.093c-.17.17.108-.108.279,0a.635.635,0,0,1,.635.186h.325c-.387,0,0,.294,0,.527l.232-.139c0,.124-.17.155,0,.232a.856.856,0,0,0,.744-.17l-.077-.2h0a.683.683,0,0,1-.124-.108h.17c.248.108.17,0,.186-.108.2.434.434.263.511.744-.124-.558.635.232.62-.263,0,.418.139.077.139.418-.248-.232-.666,0-.945,0l.155.294c-.294.341-.434-.341-.635-.232.124-.077.294.093.279.186v-.325c-.294-.232-.635,0-.9,0,.186.155-.31.108-.2.387h.17c.573.186,1.147.4,1.7.635.155-.248.573-.2.558-.449.093.17,0,.294.294.356s0-.434-.093-.573c.279,0,.31,0,.372-.139h0a.428.428,0,0,1,.31-.124,1.038,1.038,0,0,0,.186.434h.48a.945.945,0,0,1-.108-.217.449.449,0,0,1,.108.217.775.775,0,0,0,.155.217.558.558,0,0,0,.372.108c.139,0,0,.155,0,.2l.232.108a.651.651,0,0,1,.2,0h-.139c-.139,0-.232,0-.294-.108h0a2,2,0,0,1-.325-.31,1.456,1.456,0,0,0-.263-.077c.232.294-.372.124,0,.325-.2,0-.217.186-.465,0,0-.279.248-.232.434-.387a3.1,3.1,0,0,1-.387-.217h-.108l-.434-.263h0c0,.434-.186,1.069-.434,1.131l.279.155a.155.155,0,0,1,.186,0v.108h0a11.932,11.932,0,0,1,4.478,4.556l.31-.325c-.093.108,0,.077,0,.077a1.178,1.178,0,0,1-.356.279,1.766,1.766,0,0,1,.155.294,1.642,1.642,0,0,1,.387-.139c-.635.232-.124-.232.434-.728s1.085-1.038.666-.945c.868-.325.434-.387,1.038-.558a8.755,8.755,0,0,0-1.193,1.333c-.387.465-.713.93-1.038,1.333l.883-.5c0,.341-.449.635-.837.914a1.278,1.278,0,0,0,.155.4c.635-.542,1.24-1.1,1.829-1.658l-.232.186-.248.186.139-.4h.341c.5-.465.976-.93,1.426-1.41,0-.341.961-1.689.48-1.55a3.578,3.578,0,0,1,.527-.341,2.821,2.821,0,0,0,.728-.837c.372-.775-.9.573-1.24.728.573-.79.48-.868.434-.945h-.077c0-.077,0-.248.341-.821a5.517,5.517,0,0,0,1.069-.914l1.007-1.55h0l-.542.542c0-.108.356-.387.527-.527a6.4,6.4,0,0,0,.62-.775,6.6,6.6,0,0,0,.666-1.255c.279-.511.263-.232.294-.139a10,10,0,0,0,.465-.9l.155-.558h0a.372.372,0,0,0,.139-.093h0a5.742,5.742,0,0,1-.294.651,1.968,1.968,0,0,1-.387.837c0,.124,0,.108-.077,0a12.4,12.4,0,0,1-.961,1.395l-.511.9c.868-1.069-.325,1.085.666-.558-.31.651,0,.48-.635,1.441-.542.341,0-.5,0-.883a15.668,15.668,0,0,1-1.054,1.457l-.217.341v-.124a2.458,2.458,0,0,1-.2.248l-.418.511c-.325.372-.635.759-.635.759h0c.821-.372,1.767-.449,1.286.372.31-.372.62-.744.914-1.147-.232.232,0-.108.248-.558h.108l-.124.2a43.281,43.281,0,0,0,8.6-25.135,45.235,45.235,0,0,0-.682-7.748ZM147.2,64.141v-.17c.124,0,0,.217.077.263Zm.449-.2a5.017,5.017,0,0,0,.372.93h-.325l.077-.077c.077-.341-.434-.62-.124-.852Zm.31,1.55L147.8,65.3l.248.2ZM110.471,82.3v-.17l.155.077a.4.4,0,0,0-.155.093Zm-1.069.6a.233.233,0,0,0-.093,0v-.155l.139.108h.093S109.432,82.938,109.4,82.907Zm.217-.232a.355.355,0,0,1-.046,0Zm0,.728h0l.2-.124Zm.6-.248h0s.062-.015-.031-.015Zm-.093-.093h0c-.093,0-.2,0,0-.2s.217.016-.031.279Zm.728-.4H111l-.155.124Zm.2.325h-.139l.341-.093Zm-5.687,37.981-.186-.124h.2c-.062.17-.062.155-.046.124Zm.093-.248.387.139h0Zm.635,1.55-.124.186a.248.248,0,0,1,.093-.232h0v.124Zm1.023,0h.093v.232l-.263-.155s.077-.294.139-.139Zm-.573-.914c0-.186.17-.139.248-.124h0s-.17,0-.186.093h.124a2.5,2.5,0,0,1-.372.449,1.379,1.379,0,0,0,.186-.48Zm-.279.7h0l-.232-.093s.139,0,.17-.108v.2h.108Zm-.387-.635c.248,0,.279-.108.449-.124-.093.2-.325.093-.48.062Zm0-1.813v.124c-.108,0,0-.155,0-.155Zm-.449.2c0-.2-.217-.449-.341-.682h.325c-.186.248.31.4-.015.62Zm-.248-1.1.139.139-.232-.139Zm-.6-1.7h0l-.17.093Zm-.248.465h.248s-.232.062-.279-.062Zm.589-.232a.341.341,0,0,0,0,.124l-.294-.108ZM112.78,85.34a.192.192,0,0,1-.124.155l-.17-.093c.186-.108.186-.17.31-.062Zm-.093.465h0s-.124,0,0-.108h0c.124.015.062.2-.016.108Zm-.434-.372h0l.155.093h-.093c-.2-.031-.093-.062-.046-.093Zm0-.62h-.124a.744.744,0,0,0,.186-.155.265.265,0,0,0-.077.155Zm-.356-.341h0v0l.17-.139c0,.093-.108.17-.155.2Zm.279-.387Zm-.511-.589a.5.5,0,0,1,.217,0,.558.558,0,0,1,.372.093c-.124,0-.124.17-.294.186s0-.248,0-.279Zm0,1.116h.015v.077h-.093Zm-.852-.139.124-.2.2.139s-.2.124-.217,0Zm.418.682c0,.139-.186.108-.248.108h0a.2.2,0,0,0,.155-.077h-.124a4.876,4.876,0,0,1,.449-.341,1.86,1.86,0,0,0-.279.372Zm.325,1.395.108-.108c.093,0,0,.124,0,.139Zm-.124-1.333c.108-.217.294-.124.449-.108-.232-.031-.31.093-.465.108Zm.387.279h0l.356.155Zm.372,1.72-.155-.093.248.108Zm-.217-.325h.093c.108-.17-.372-.294,0-.465,0,.155.17.341.248.527Zm.2-1.162c.155,0,.186,0,.232-.124.108.232-.139.341-.248.124Zm.17,2.572Zm.387.232Zm0-.418h.232c.046,0-.294.062-.294,0Zm-3.316,35.641h0l.139.093a.335.335,0,0,1-.217-.093h-.155a.186.186,0,0,1,.232.015Zm-.077.2Zm-.372-.713v.093l-.17.139Zm-.31.635c-.17,0-.325,0-.124-.2h0c.093.046.232.031.124.217Zm-.263-.294h.093c.093,0-.17.108-.093.015Zm-.682.651.139-.155v.124Zm.635.449h.077a.279.279,0,0,0,.124.108Zm.852.325Zm.2.108c0,.093.108-.217.139-.139.372,0-.325.387-.139.155Zm23.8,17.728v.124h0a.155.155,0,0,0-.093,0Zm-.155.511Zm.635.108h0s.108.015,0,.015Zm0,0h0s-.108-.108.108-.139.17.077-.139.077Zm32.4-12.4a.264.264,0,0,0,0,.093s-.062-.077-.031-.093Zm-.108.31h0l-.232-.093h.511a.294.294,0,0,1-.31.093Zm.79.48-.108-.093.155-.155Zm.372-.5h0c-.17,0-.325,0-.263-.217s.4.031.232.217Zm.2,0a.294.294,0,0,0-.139,0c.078.031.17-.016.108.077Zm2.2,1.395v.108a.858.858,0,0,1,0-.139.356.356,0,0,1,0-.139l.387.139c-.232.139-.279.279-.418.108Zm3.223,1.55a.7.7,0,0,0,.093.139c0-.17.108.124,0,0h0c-.341-.17-.2.015-.124-.17Zm-1.8-2.2h0Zm-.279.558v-.232a.263.263,0,0,1,0,.248h0l-.155-.139s.047.077.124.186ZM148.855,67.117h-.232c.031,0,.139-.155.2.015Zm-.139.434-.124.2h0Zm-.5-.2a.512.512,0,0,0,0-.186l.31.155Zm-21.695,37.083v.139l-.186.217Zm-.279,1.069s.248,0,.232.124-.17.186-.232-.109Zm.589,0-.294-.248h.356c-.093-.031-.077.124-.062.217Zm.294,2.9h.108l.186.341Zm.4,4.169a2.229,2.229,0,0,0-.093-.263c0,.217-.108-.263,0,0,.31.48.2.093.093.279Zm-.294-3.192.356.124v.093c0,.5.558,1.038.279,1.364a6.616,6.616,0,0,0-.635-1.612Zm.93,3.409c-.263-.294-.217,0-.2.2-.325-.666-.093-.868.2-.232Zm-.093-2.278.17.186v.279c-.077.062-.077-.4-.17-.5Zm-.356,3.1c.108.093,0-.217,0-.325l.279.279c0,.155-.046.263-.279-.062Zm.573,0-.279-.325c.139.124.279.155.17.17.248,0,.139,0,.108.155l.139.139c-.139-.139-.155-.2-.139-.232Zm0-.449.542.465v.124Zm.883,2.247c-.077,0-.108.279-.2.294s0-.325,0-.48l.232.186s.139,0,.325.279Zm0-.759c.356.217.31,0,.527,0,.016.4-.325.062-.573-.093Zm.62.9s.17.387.186.387l.186.124h-.108v-.124l-.372-.31c.031-.031.031-.14.031-.171Zm-.17,1.395h.294l.186.093Zm.372-.527-.093.263a.434.434,0,0,1,0-.341v-.093h0l.186.294s-.046-.062-.139-.217Zm.17-.728h0a1.829,1.829,0,0,0,0-.744h0c-.093-.341.139-.17.248-.093h0s-.17-.077-.139.093.17.17.232.2a1.937,1.937,0,0,1-.387.449Zm.914,2.8a2.015,2.015,0,0,1-.713-.387c.186.093,0-.294.232-.263a1.147,1.147,0,0,0,.48.651,2.246,2.246,0,0,1,.387.155.976.976,0,0,1-.434-.248Zm1.937,1.674.232-.124.31.108Zm.821.542.155-.139.108.186Zm.635,22.02h0v-.077h0s-.031.031-.108-.016Zm0-.108h-.186c.046,0,.4-.093.077-.093Zm0,.589v-.093l.077.093s-.046-.109-.108-.093Zm0,.356h0Zm0,.279h-.108l.341.093Zm-.124,1.209h0v-.077a.186.186,0,0,0,0,.077h-.016Zm-.263,0h0l.155.124a1.054,1.054,0,0,0-.217,0v-.093h0Zm-.434-.511.093.17c-.093,0-.232,0-.186-.093h-.124Zm-.418,1.736-.093-.077h.108c.093-.109-.093-.047-.047-.016Zm.2-1.085a.263.263,0,0,1-.263,0h.651l-.418.124Zm.155.124c.2,0,.325,0,.434.124-.2-.2-.31-.155-.465-.217Zm.2.31.263.232-.263-.2Zm.217.31c.108.108.186,0,.263,0s-.279.077-.294-.093Zm.263-.093h-.093l.093.108s-.139-.232-.031-.2Zm0-.62.124.108h.325c-.124,0-.17,0-.248.077v-.077c-.108-.093-.248-.124-.217-.2Zm.186.992h0c0-.17-.108,0,0,0h0c.108-.124-.093-.031-.015-.093Zm.093-.232-.108-.108h.279a.7.7,0,0,1-.186.015Zm.217-1.023h0l.263.124Zm0-.279a.117.117,0,0,0,.093-.2h-.124a.434.434,0,0,1,.124,0,.348.348,0,0,1,.263.217c.015.077-.232-.047-.387-.109Zm.48-23h0a1.317,1.317,0,0,0,.31.217Zm2.231,1.085c0,.108.124-.217.217-.108.713.093-.5.2-.232.015Zm25.941-16.38h0v0Zm.263,0v-.232c.17.093.186-.387.387,0-.139-.217-.263.046-.387.139Zm.155-.6v-.139l.108.077c.062.015-.139-.093-.139-.031Zm.852.914h0c.124-.17,0-.139.093,0h0s-.17-.046-.093-.093Zm0-.542c0,.155,0,.186.124.217-.186.015-.325-.186-.155-.31Zm.108-.2v.015a.975.975,0,0,1,0-.17h0Zm.17.294V106.2h0c0-.016-.016-.016-.031-.046Zm0-.837c.2.093.155.279.17.418a1.551,1.551,0,0,0-.186-.511Zm.139,1.333a.192.192,0,0,1-.155-.124v-.155c.139.015.2.077.139.186Zm-.139-1.55h0c-.139,0-.124-.17-.139-.232h0a.149.149,0,0,0,.108.139c.108.031,0-.077,0-.077a1.782,1.782,0,0,1,.372.387.961.961,0,0,0-.356-.325Zm.573,24.887c0-.093-.077.232-.139.155-.48-.046.279-.511.124-.263Zm0-25.259.2.108-.093.186s-.139-.186,0-.217Zm0,.79h0v.2l-.093-.186h.124v-.093Zm0,.573v-.108a2.374,2.374,0,0,1,.2.248.5.5,0,0,0-.31-.248Zm.248-.356h0l.155.155a1.913,1.913,0,0,1-.263-.263Zm.372.263v0Zm.449.077c0-.108-.17-.124-.217-.279s.217,0,.248,0a.6.6,0,0,1,0-.2.541.541,0,0,1,0,.155.76.76,0,0,1-.139.217Zm.387,24.36a.32.32,0,0,0-.2-.139h.108v.031Zm0-25.491v-.2l.139.341Zm.17-.2h.093v.124Zm.48-.17-.093-.108c-.093-.108.108,0,.139,0Zm.279,26.344v-.139h.186Zm0-26.824h0a.217.217,0,0,0,.078,0,2.279,2.279,0,0,0-.2-.139Zm.108,0s-.186-.17-.108-.17.155.155-.016-.047Zm.372,27.1h-.2l.17-.108a.914.914,0,0,0,.186-.093Zm.992-29.257c.17.139-.17.217-.155.341h-.2c-.124,0-.093.2-.093.294h0c.108.139,0,.17-.108.186a.217.217,0,0,1-.2,0c-.155-.108,0,0,.2,0a.17.17,0,0,0,0-.186c-.48,0-.263.465-.434.666h0v.139a.894.894,0,0,1,0,.155c-.108-.155.078.108,0,.139s-.093.2-.248.2l-.108.108c0-.217-.232-.17-.418-.31l.077.2c-.108,0-.108-.17-.186-.155s-.077.263,0,.48a.325.325,0,0,0,.17,0h0v.093h0v.155c-.372-.139-.232.093-.62-.124.449.232-.232.217.17.48-.341-.186,0,0-.341-.139.186,0,0-.372,0-.573h-.248c-.263-.341.279,0,.217-.217,0,.093-.093.093-.17,0l.263.186c.2,0,.108-.294,0-.48s0-.217-.279-.31v.093h0l-.589.589c.186.217.139.434.325.573-.124,0-.217-.186-.263,0s.325.186.418.232a.419.419,0,0,0,.108.31h0a.388.388,0,0,1,0,.263c-.155,0-.232-.124-.294-.108l-.108.248h.155a.419.419,0,0,1-.155,0h-.155a.2.2,0,0,0,0,.2l-.139-.139-.093.093v.155h0a.777.777,0,0,0,0-.17h.108a.387.387,0,0,1,.2,0v-.139c-.217,0-.093-.325-.232-.139,0-.124-.139-.232,0-.341.217.155.186.31.294.511l.108-.139h.093l.2-.124h0a2.758,2.758,0,0,1-.852-.868l-.108.093v.124h0a7.748,7.748,0,0,1-2.82,1.55h0v.077c0,.093.077,0,.077,0h0v.17a.435.435,0,0,1,0,.139v1.255c.372,0,0,1.395-.108,1.658,0-.5-.155-.279-.31-.17a.558.558,0,0,1,0,.852c.387.139.821.31.635,1.085,0-.139,0-.325-.108-.279s0,.248,0,.248a.23.23,0,0,0-.248-.093c.263.635-.232.868-.372,1.55,0-.279-.186-.108-.341,0,.418.232-.744.775-.077.759-.511.589-.868,1.426-1.348,2.092a6.679,6.679,0,0,1-.6.914,1.658,1.658,0,0,1-.573.449c-.217,0-.248.511-.387.713l-.139-.17c-.155.775-.263.5-.527,1.379,0-.434-.139-.4-.511-.279v.356a2.249,2.249,0,0,1,0,.356l-.294-.155a1.162,1.162,0,0,1-.542.511.124.124,0,0,0,0-.108c.108.217,0,.48-.217.728s-.4.449-.4.573c-.465-.186-.5.511-.883.294a1.44,1.44,0,0,1-.155.31c.2,0,.372.248.108.279h0l.2.139c.17.186-.294.108-.651.093a1.86,1.86,0,0,0-.31,0h0a.573.573,0,0,0-.418.248,2.371,2.371,0,0,0-1.193.666,3.842,3.842,0,0,1-.6.418,1.333,1.333,0,0,1-.744.093c.155,0,.356,0,.372-.155-.728.294-1.55.232-1.968.511l.108.217a5.937,5.937,0,0,1-1.395.511v.263A13.66,13.66,0,0,0,147.6,125a1.24,1.24,0,0,1-1.193-.17c0,.093-.31.093-.573,0h-.79l-.093-.217a2.34,2.34,0,0,0-1.007,0h0a.558.558,0,0,1-.666,0,2.5,2.5,0,0,1-.635-.232c.093-.17.325,0,.635.232a1.859,1.859,0,0,0,.589,0,3.316,3.316,0,0,0-1.426-.341,5.641,5.641,0,0,1-1.379-.124h0l-.914-.077c.279-.124-.2.077-.449,0a1.674,1.674,0,0,1-.992-.434l-.527-.2c.635.077,0-.31.124-.527h-.387c-.093-.155.263,0,0-.217a1.514,1.514,0,0,0-1.209-.186.465.465,0,0,0,.124.248h0c.093,0,.17.124.186.17l.279.139h-.2l-.139-.124h-.139l.139.093c.139.093-.186,0-.186,0-.341-.263-.232-.093-.279,0-.279-.542-.635-.511-.744-1.085.2.7-.992-.589-.976,0-.093-.542-.2-.17-.217-.573.356.418,1.023.372,1.457.465l-.232-.4c.449-.232.7.6.976.6-.186,0-.449-.279-.4-.356l-.078.341a1.767,1.767,0,0,0,.356.232.945.945,0,0,0,.372.108,3.689,3.689,0,0,0,.713,0c-.31-.248.5,0,.341-.294l-.294-.093v-.093a18.592,18.592,0,0,1-2.092-1.178l.186.155-.248.108v-.279l-.666-.449c-.232.17-.837-.139-.837.155-.139-.248,0-.31-.434-.589s.093.558.155.713c-.418-.155-.465-.108-.542,0h-.434a1.906,1.906,0,0,0-.263-.635l-.7-.465h0a3.092,3.092,0,0,1,.155.325c-.077,0-.139-.2-.155-.325a1.163,1.163,0,0,0-.2-.387,1.658,1.658,0,0,0-.511-.387c-.2-.2,0-.2,0-.217l-.31-.31a.619.619,0,0,1-.279-.108h0a1.363,1.363,0,0,1,.263.186.558.558,0,0,1,.325.263h0a4.462,4.462,0,0,1,.465.6,1.548,1.548,0,0,0,.341.279c-.31-.527.542.124,0-.434.279.155.294,0,.666.263,0,.356-.372.155-.62.2.294.263.465.4.573.527l.155.108h0l.6.6h0c0-.527.248-1.178.6-1.085l-.4-.356a.522.522,0,0,1-.263-.093v-.093h0a17.294,17.294,0,0,1-5.439-12.614c0-.325,0-.666,0-.976-.263.2-.511.372-.7.139v.31c-.325-.124,0-.992-.294-1.193a1.083,1.083,0,0,0,0-.17,2.494,2.494,0,0,0,.186-.356c.108-.248.248-.511.248-.511s-.294-.186-.356,0a.661.661,0,0,0,0,.356.93.93,0,0,1,0-.356c0-.263,0-.511-.186-.17a9.368,9.368,0,0,0,.4-.93,9.123,9.123,0,0,0,.372-.9c.186-.6.418-1.193.6-1.8a8.957,8.957,0,0,1,1.8-3.316c0-.155,0-.155-.186-.124.511-.232.108-.465.217-.7l.775-.263c0-.294-.17-.217-.17-.217a4.075,4.075,0,0,1,1.224-1.426,5.8,5.8,0,0,0,1.193-1.193c.356,0,.186.341.542.108-.356,0-.186-.263,0-.5s.542-.465.279-.5c.325.077.651-.139.945-.263s.527-.2.635.139c.449-.217.186-.465,0-.449a3.937,3.937,0,0,0,1.255-.945,8.3,8.3,0,0,0,1.426-.62c.682-.232,1.379-.465,1.7-.263-.434-.248,0-.186.279-.418l-.4-.217.79-.17h.2c.139,0,0,.2.356.186s.527-.248.79-.449h-.077l.356-.093c.263,0-.9.449,0,.465,0,0,.449-.558.713-.372-.449,0-.356.248-.186.31h.62l-.124-.186-.124-.17a13.552,13.552,0,0,1,1.379,0h1.534c.961.108,1.875.279,2.82.449-.093.325,1.317.325,1.007.775h0c-.465,0,0,.4.387.465-.325-.263.821-.279,0-.62h.79c.341-.387.821-.2,1.364.124a6.524,6.524,0,0,0,1.627.914.124.124,0,0,0-.139,0c1.054.2,1.813,1.395,2.077,1.395v.17l.248-.961a1.411,1.411,0,0,1-.139-.279h-.062s.093-.093-.093-.186a1.131,1.131,0,0,0,1.116-.2,1.24,1.24,0,0,1,.992-.325.729.729,0,0,0,0-.217c.232.263,0-.2,0-.2l.372.325a.6.6,0,0,0-.093-.356c.341-.2.759.155.976-.155.124.155,0,.372.186.4-.248-.449.294-.279.139-.589.186.48.449,0,.465.759.139,0,.093-.31,0-.372a.356.356,0,0,0,.418-.217.449.449,0,0,0,.155,0h.31a.372.372,0,0,1,.4.341c0-.356,0-.186.108-.325v-.31h.186a.418.418,0,0,0,0,.263c.139,0,.17-.124.263-.279h.108c.077,0-.294.263,0,.465,0-.093.2-.465.248-.248-.124,0-.139.186-.108.279h.186v-.387a2,2,0,0,1,.4.124l.341.186a4.849,4.849,0,0,0,.713.325c-.108.325.341.155.124.6h0c-.124,0-.108.387,0,.372s.356-.4.139-.558l.279-.139c.511-.821.48.294.9.17v.093c.387-.124.4.542.527.449l-.124.232c.418-.217.465-.2.6.093,0,0-.108,0-.093.139s.341-.232.465,0h0l.263.17c-.263.294-.093.279.077.294s.372,0,.093.387c.217-.139.418,0,.573,0a.171.171,0,0,1,.124,0h0a.124.124,0,0,0-.108.077c.4-.186.124.341.248.418s.2-.108.294-.232c-.17.341.589.155.511.294s-.217.217-.341.341c.17.108.589-.434.449,0h-.108c0,.124-.713.759-.511.744l.108-.139c.263,0-.372.666.108.418l.217-.139c-.155.4.155,0,0,.449h0c.093.093-.17.279.232.17h0a.62.62,0,0,1,.124.31s.124,0,0,.093c.325-.124.279.31.294.372s-.2,0-.325.077c.279,0,.325,0,.17.186.4-.124.852-.248.93,0a.217.217,0,0,0-.186,0v.077h-.294c.418,0,0,.232.263.4a.5.5,0,0,0-.341.093c.48-.077-.325.372.263.155-.294.465.139,1.023-.263,1.209s.108.139.124.217h-.2c.387.17.155.139.527.356a.6.6,0,0,0-.542,0h.077l.232.093h-.341c.139,0,.077.124.077.124h-.139c.449,0,.372.294.589.356-.434,0,.093.186-.31.217l.124.093h.542c.248,0,0,0-.263.139h-.108s-.093,0,0,.139c-.2.093-.108.232,0,.387s.139.325-.139.387c0,0,.093,0,0-.108,0,.217-.418.31-.279.5h.232a.775.775,0,0,1,0,.449l.248.093c-.2.527.031,1.1-.511.976Zm-2.619,2.247h0c0-.077,0-.186.17,0s-.047.015-.294-.217Zm0-.728h.139a.325.325,0,0,1-.093.124v.108h0Zm-.093.806h0a.548.548,0,0,0-.093-.217Zm-.093-.387-.217-.17h.093ZM134.645,120.1a1.316,1.316,0,0,0,.217.139C134.722,120.176,134.552,120.176,134.645,120.1Zm.263.17c.248.155.511.2.418.4-.31,0-.62-.17-.372-.372Zm1.55.573.325.139h.155l.341.248a4.156,4.156,0,0,1-.5-.217,1.689,1.689,0,0,1-.31-.17Zm.263.341h0Zm-5.656-4.416c.093,0,.155-.17.356.155h0v.372l-.263-.2a1.551,1.551,0,0,1-.078-.325Zm39.113,15.078c-.093-.217-.2-.31-.356-.325a.713.713,0,0,0-.2,0h.2a.682.682,0,0,1,.527,0c-.124.031.016.263-.155.325Zm.2,2.154h0s.155,0,.124-.139a.108.108,0,0,0-.139,0,.93.93,0,0,1,.124-.511,1.24,1.24,0,0,0,0,.511h0c.2.17.015.139-.093.139Zm.4-.744-.155-.2h.263c-.031.062-.062.155-.093.2Zm.093.6c0-.31.232-.248.418-.217-.263-.031-.217.186-.4.217Zm.387-.744a.255.255,0,0,1-.279,0h.279a.743.743,0,0,0,.077-.248.438.438,0,0,0,.108.279Zm.542,1.147h0Zm.217-.263h.015l.232.155h-.139c-.2,0-.108-.093-.093-.155Zm.186,1.844v-.186c.093,0,.093.2.093.2Zm0-1.379c.232,0,.186,0,.17-.217.263.294.093.5-.217.217Zm.341-.449-.248-.093c0-.186,0-.279.263-.155a.759.759,0,0,1-.062.248Zm.418,2.262V136.2c0-.31-.62-.387-.4-.713,0,.232.465.48.666.744Zm.465.48-.2-.124.294.108Zm.93,0c.465-.558.868-1.131.945-.79h0c-.4.434-.775.9-.992.79Zm1.131-.976c.248-.294.418-.589.434-.449a5.938,5.938,0,0,0-.48.5Zm.279-1.364a1.084,1.084,0,0,1-.186.124,1.965,1.965,0,0,0,.139-.232l.124-.248.108.2Zm1.333-1.41-.186.31a.8.8,0,0,1,.17-.449,4.637,4.637,0,0,0,.155-.465v.325Zm3.347-5.253c-.093.294-.2.542-.294.79a3.455,3.455,0,0,1,.294-.79,12.4,12.4,0,0,1,.62-1.55c-.124.4.4-.325.356,0a7.283,7.283,0,0,0-1.023,1.55Zm2.107-4.091v.542l-.108.418Zm.108,3.1-.573.62.7-1.441c0,.139.248,0-.248.806Zm.806-3.626a3.4,3.4,0,0,1-.139.325h0l-.387.713.372-.713-.372.232a1.549,1.549,0,0,1,.511-.558h0Zm2.836-9.856c-.17,1.364,0,.5-.155.651a2.484,2.484,0,0,1,.124-.589c-.217.341.093-.651-.016-.031Zm-1.069,6.2c-.108.837.217.294.217.7-.62,1.054-.325-.077-.263-.635Zm-.744.682-.139.6c.108,0,.139.155-.2.914a1.18,1.18,0,0,1,.108-.449,4.228,4.228,0,0,0,.093-.465c-.109,0-.341.294-.4.2s.325-.465.5-.744Zm-.666,3.1v-.139l.17-.341.279-1.023c0,.263.108.139.17.139l-.449.883Zm1.658-1.829c-.077,0,0-.4-.17,0a1.689,1.689,0,0,0-.186.7,2.883,2.883,0,0,1-.821.62h0a5.254,5.254,0,0,0,.93-1.333v-.139c.4-.759.248,0,.217.2h0c-.047.124-.047.077.046-.047Zm0-5.517c0,.279.186-.434.31-.573l-.077.837c-.217.434-.4.573-.217-.263Zm.356.666v0l.124-.93v.511c.077.341-.062.31-.14.418Zm.31.7-.093.279s.078-.449.108-.914.077-.93.077-.93Zm.31-2.278c0-.852-.124-.263-.325.17.279-1.581.558-1.767.31-.17Zm1.364-10.243v.837l-.108-.48a1.269,1.269,0,0,0-.108-.465Zm-.108,5.517a1.55,1.55,0,0,1-.232.589,9.841,9.841,0,0,0,.17-1.844V106.9l.294.5-.108.186a17.288,17.288,0,0,0,0,1.829,7.526,7.526,0,0,1-.139.868Zm.108.945c-.139,0,.186-.9.124-1.193v.573Zm.279-12.01-.155-.077v-.093Z" transform="translate(225.163 1481.298)" fill="#c7d588"/>
    <path id="Path_12639" data-name="Path 12639" d="M107.16,106.7c.248,0,.108.17.124.325.077-.232.372-.139.573-.372a6.942,6.942,0,0,0,1.116.682.2.2,0,0,0,0,.093h.124c0,.279-.341.2-.248.356-.217,0-.527.217-.682,0l.108-.31c0,.093,0,.263.155.2-.155,0-.093-.558-.4-.263v.294c-.232,0-.635.217-.759,0-.108.31,0,0,0,.4.139-.465.527.341.573-.2,0,.465.155.31.186.759,0-.108,0-.232.186-.093a.294.294,0,0,1,.093,0h0a.263.263,0,0,1,0-.186c.2-.17.465,0,.62-.108s-.093.093-.093.232h.217c-.077.217.155.48-.17.511l.248.093a.387.387,0,0,0,.418.248c.108.077.387-.17.232,0h.418c.372.108.93-.232,1.286.217a.387.387,0,0,1,.4,0v.217h.635c.232.558.868,0,1.178,0v-.263a1.131,1.131,0,0,0,.589-.325v-.217c.139-.232.558,0,.883-.155,0,0,0,.108-.17,0,.294.186.48,0,.6-.186s.279-.4.511-.341a.155.155,0,0,1,.217-.093h0a.6.6,0,0,0,.2-.232l.186.2h0c.139,0,0-.139-.155-.263a1.4,1.4,0,0,0,0-.2c.31.279.124-.279.48,0a.5.5,0,0,1,.093-.341.465.465,0,0,0,0-.48h0a.211.211,0,0,0,.217-.232l.263.2v-.248a1.78,1.78,0,0,1,0-.232c.232,0,.372,0,.449.341,0-.527.093-.31,0-.79l.17.139c0-.093-.077-.387.108-.341.5,0,.713-.945,1.286-1.379-.6-.124.372-.17,0-.372.155,0,.263,0,.341.108,0-.356.4-.4,0-.744a.186.186,0,0,1,.186.124s0-.155.093-.155.108,0,.155.139c0-.341-.372-.48-.759-.6.232-.108.217-.2,0-.372.139,0,.294-.108.31.108,0-.108.31-.728,0-.744.093,0,0-.139,0-.155a1.286,1.286,0,0,0,0-.48h0a.4.4,0,0,1-.155,0,.124.124,0,0,1,0-.093h0v-.248h0c.263-.465-.139-.17.155-.635H119.7c-.542,0,.263-.418,0-.666l-.139.124c-.2-.093.635-.542.651-.728a.434.434,0,0,1,.139,0c.2-.48-.325,0-.48-.232.155-.108.465,0,.434-.263s-.744-.372-.542-.744c-.093.108-.2.217-.341.139s.217-.744-.263-.7a.186.186,0,0,1,.077,0c-.186-.093-.418-.341-.666-.294.325-.294,0-.449-.139-.558s-.449-.17-.139-.434l-.356-.325h0c-.17-.263-.4-.186-.6-.108a.093.093,0,0,1,0-.108c-.17-.465-.263-.465-.79-.356l.108-.232c-.139,0-.325-.713-.868-.666h0c-.248,0-.434-.294-.651-.48s-.418-.294-.666.139l-.372.139c.372.17-.17.372,0,.573-.139,0-.294-.387-.108-.387h0c.186-.465-.449-.31-.372-.62l-.713-.372-.573-.139h-.62a3.934,3.934,0,0,0-.6,0l.124.372h-.263s-.139-.279,0-.294c-.139-.2-.31.217-.294.31-.4-.093,0-.465,0-.465h-.139c-.108.17-.093.325-.325.372a.186.186,0,0,1-.124-.217h-.511l.232.248c-.108.186-.325.077,0,.372-.186-.232-.511-.17-.79,0s-.527.31-.635.248a.759.759,0,0,1-.48.511s.294.294.093.356c-.325-.635-.5,0-.945-.325.17.093,0,.2,0,.325s-.139.248.093.356c-.17,0-.17-.2-.387-.217-.155.48-.852.542-1.131,1.069a.291.291,0,0,1,.279.248h-.558c0,.124.372.372,0,.372h.2a2.7,2.7,0,0,0-.821,1.55,7.75,7.75,0,0,1-.279.775,3.5,3.5,0,0,1-.542.759c.2-.124.2,0,.186.108s.232,0,.372,0l-.418.434c.341.093,0,.434.325.5v-.124a.961.961,0,0,0,.713,0v.4a7.035,7.035,0,0,0,2.216,5.114h0l-.093.093a.341.341,0,0,0,.17,0h.17c-.232,0-.6.589-.713.992a.462.462,0,0,1,.341-.124C107.051,107.024,106.912,106.745,107.16,106.7Zm11.715-4.246h.248v.17a1.557,1.557,0,0,1,0,.17.5.5,0,0,1-.294-.108h-.17Zm-1.689,3.285c.124.248.217.465.217.465a3.5,3.5,0,0,0-.341-.341Zm-1.906,1.55a1.549,1.549,0,0,1,0,.852l-.139-.124-.155.279v-.837Zm-1.813.666v-.016h.248a2.727,2.727,0,0,1,.124.7,2,2,0,0,1-.6-.465v-.124Zm-1.007.124a.5.5,0,0,1-.155.248,1.178,1.178,0,0,0,0-.248Zm-2.371-14.814h0c-.046.077-.046,0-.016-.077Zm-.449,14.551c.248,0,.263.279.418.31l-.139-.17c.093,0,.248-.108.31,0s0,0,0-.093a5.362,5.362,0,0,0,.992.2,1.069,1.069,0,0,1-.589.573c-.31,0,0-.294-.139-.248-.48-.217-.651.651-.992.186-.155-.418.093-.635.124-.837Zm-.31,1.054Zm-1.55-2.247Zm0,0c-.108,0-.217,0-.2-.17Z" transform="translate(226.026 1497.705)" fill="#fff"/>
    <path id="Path_12640" data-name="Path 12640" d="M156.116,113.79a1.765,1.765,0,0,0-.155-.294h0a11.932,11.932,0,0,0-4.478-4.556h0v-.108a.357.357,0,0,0-.217,0,.3.3,0,0,1-.155,0,2.185,2.185,0,0,0,.341-1.193.436.436,0,0,1-.372.139c0,.139.356.5.093.573s-.2-.186-.294-.356c0,.248-.4.2-.558.449a13.308,13.308,0,0,0-1.72-.6v-.093h.016c-.108-.279.387-.232.2-.387.263-.093.6-.263.9,0v.325c0-.093-.155-.263-.279-.186.2-.108.341.573.635.232l-.155-.294c.279,0,.7-.31.945,0,0-.341-.077,0-.139-.418,0,.5-.744-.294-.62.263,0-.48-.31-.31-.511-.744,0,.108,0,.217-.186.108a.356.356,0,0,0-.077,0h0l.077.2c-.186.2-.573,0-.744.17s.093-.108,0-.232l-.232.139c0-.232-.325-.465,0-.527H148.1a.635.635,0,0,0-.635-.186c-.17,0-.449.217-.279,0l-.542.093h0a3.1,3.1,0,0,0-.728.108h-.4a1.1,1.1,0,0,1-.434-.17.976.976,0,0,1-.635.109v-.2c-.217.108-.7-.093-.759.124-.341-.527-1.116.108-1.55.124v.263a1.968,1.968,0,0,0-.759.418l.093.217c-.186.279-.744.093-1.131.325,0-.093.093-.124.186-.108-.356-.124-.573.093-.775.325s-.341.48-.666.434a.2.2,0,0,1-.248.155h-.093a1.55,1.55,0,0,0-.217.279l-.186-.17h0c-.17,0,0,.186.139.279a1.459,1.459,0,0,0,0,.248c-.325-.279-.2.325-.573,0,0,.2-.449.573-.2.961h-.077a.294.294,0,0,0-.263.263l-.263-.186v.542c-.279,0-.418,0-.465-.341,0,.635-.17.4-.155.945l-.139-.139c-.108.108,0,.465-.217.434s-.511.325-.79.7a5.378,5.378,0,0,1-.883,1.147c.62.124-.418.232,0,.48-.17,0-.294,0-.341-.124,0,.449-.48.527-.217.961-.155,0-.17-.17-.263-.155s.077.17,0,.186a.542.542,0,0,1-.139-.186c-.139.434.279.62.666.775-.263.155-.248.279,0,.511-.155,0-.325.108-.31-.17,0,.139-.434.883-.093.945-.108,0,0,.217,0,.263a4.029,4.029,0,0,0-.139.728l.077-.108c.387.17,0,.31,0,.558h0c-.325.589.124.279-.248.821h.263c.527,0-.356.558-.124.9l.139-.139c.2.17-.713.573-.744.806l-.124-.124c-.279.573.325,0,.449.418-.17.093-.465,0-.465.232s.7.666.449,1.085c.108-.108.232-.217.372,0s-.325.868.17.976v.077c.108.124.248.341.4.5a.48.48,0,0,0,.248.108c-.372.263-.139.527.093.744s.449.4.093.6h0l.186.31.4.651.62-.17h.2a.6.6,0,0,0,.589-.434.093.093,0,0,1,0,.124c.573.093.635,0,1.007-.449l.108.248c.093-.186.9.232,1.379-.2v.124c.527-.449,1.658.325,1.55-.666l.341-.341h-.248c-.031,0,.139-.4,0-.48a.341.341,0,0,1,.248,0c.139,0,.263.17.108.248h0l.155.124a2.4,2.4,0,0,0,.325,0c.124,0,.232,0,.263.093.992-.341,2.061-.434,2.991-.775l-.248-.31.325-.124c.124,0,.232.232,0,.325.2.139.31-.341.279-.4.511,0,0,.48.139.434l.17-.108h0c.093-.217,0-.372.31-.48a.17.17,0,0,1,.186.186.264.264,0,0,0,.186,0l.418-.139-.279-.217c.108-.217.372-.155,0-.387.248.186.635,0,.992-.093s.666-.387.79-.356c.139-.31.372-.4.682-.542-.093,0-.31-.31,0-.4.232.682.589,0,1.038.372-.341-.2.666-.465.155-.728.232,0,.139.217.372.279.372-.527,1.193-.465,1.736-.93,0,0-.217-.139-.17-.341l.573.2c.093-.108-.186-.527.2-.387,0,0-.186-.108-.124-.2a4.959,4.959,0,0,0,1.767-1.085,3.8,3.8,0,0,1,1.937-.992c-.263,0-.186-.093,0-.2-.108,0-.155-.17-.248-.263l.666-.093c-.139-.325.465-.4.294-.7l-.108.155c0-.248-.279-.356-.527-.48l.418-.356c0-.124-.108-.263-.155-.4S156.24,114.022,156.116,113.79Zm-21.447,1.8h0v.186h-.2l-.124-.418a.291.291,0,0,1,.279.155h0a.124.124,0,0,1,.17,0Q134.729,115.546,134.669,115.587Zm2.619-4.494-.17-.5a2.324,2.324,0,0,0,.341.31Zm3.1-2.371-.48.263a1.673,1.673,0,0,1,.124-.93l.17.124.217-.325a4.369,4.369,0,0,0-.093.868Zm2-.821-.124-.387v.4l-.341.108a2.355,2.355,0,0,1-.17-.682l.372.108a2.094,2.094,0,0,1,.465.248h0a.868.868,0,0,1-.263.2Zm1.379-.325a.62.62,0,0,1,.2-.263.729.729,0,0,0,0,.217Zm2.262,15.155h-.093c.046-.17.046-.077.031,0Zm1.689-15.295c-.31,0-.434-.232-.651-.263l.248.17c-.124,0-.325.124-.418,0h-1.379V107.2a1.55,1.55,0,0,1,.635-.511c.387-.093.155.294.232.232.682.124.682-.713,1.271-.325.263.387-.016.62,0,.914Zm.124-1.1C147.67,106.212,147.732,106.336,147.841,106.336Zm2.882,2.154Zm0,0a.248.248,0,0,1,.341.17Z" transform="translate(241.906 1504.963)" fill="#fff"/>
    <path id="Path_12641" data-name="Path 12641" d="M157.656,78.165h-.217l-.093-.465-.666.124h0c-.232-.217-.542,0-.914.155a1.239,1.239,0,0,1-.418,0c.387.48-.325-.124-.093.294-.093-.108-.2-.139-.2-.294-.108.263-.434,0-.31.434-.124-.093-.093-.186-.17-.248s0,.139,0,.108v-.2c-.186.17.093.542.356.868-.217,0-.248,0-.124.248-.124-.093-.263-.139-.2-.279s-.5.2-.248.449h-.108a1.779,1.779,0,0,0-.232.294h.077c.263.31,0,.155,0,.294h0c-.434,0,0,.186-.418.248l.217.124c.449.31-.418,0-.325.31h.155c.124.17-.775-.124-.9,0h0c-.434,0,.248.139.232.372-.17,0-.387-.263-.48-.139s.356.62,0,.651c.139,0,.294,0,.356.155s-.62.2-.248.449H152.6a.468.468,0,0,0,.279.5c-.434,0-.372.155-.279.325s.2.325-.2.294v.186a.7.7,0,0,0,0,.155H152c0,.17.139.248.325.325h-.17c-.17.356-.124.372.294.6h-.263c.139,0-.356.511,0,.775h-.124c.186.155,0,.387,0,.6s0,.372.449.263l.294.139c0-.294.4-.093.511-.263.093.077-.17.356-.263.248h0c-.5.124,0,.387-.356.511a11.357,11.357,0,0,0,.666,1.55l.263-.294.093.155c0,.108-.186.248-.263.139-.124.2.279,0,.356,0,0,.294-.4.217-.372.279h.093c.17,0,.31-.124.4,0s-.139.2-.139.2V88.9l.17.186.139-.263c.17,0,.139.155.31-.17-.139.232,0,.434.17.573s.356.2.341.31a.4.4,0,0,1,.5.093c0-.077.155-.387.263-.263-.4.573.077.4,0,.9,0-.356.449.124.5-.387,0,.108-.108.232-.093.434a.48.48,0,0,1,.558.248.837.837,0,0,0,.527.279.516.516,0,0,1,.108-.372v.263a2.4,2.4,0,0,0,0,.248c.093,0,.17-.511.263-.17v-.217a1.209,1.209,0,0,0,.589.232,2.837,2.837,0,0,0,.511,0,1.55,1.55,0,0,1,1.209.341c-.124-.17,0-.2,0-.217v-.356l.186.155.2.155c0-.356.325-.108.279-.449l-.077.093a1.379,1.379,0,0,0-.232-.7h.279q-.232-1.224-.511-2.417c-.124-.48-.232-.961-.372-1.426h-.031a.7.7,0,0,1,0-.17,1.131,1.131,0,0,0,.558-.108l.589-.263a.434.434,0,0,1-.325,0,.913.913,0,0,1-.279.263h0c-.17-.093,0-.124,0-.186h-.6c-.232,0-.108-.325-.155-.5h0a.978.978,0,0,0-.124-.356h.108c.186-.139.341,0,.4-.077l.263.077a.159.159,0,0,1,.139.217h-.108l-.186.093s.139-.17,0-.17c.17,0-.341.356.077.31l.093-.093.093-.077c.186,0,.558.093.5.263.294-.155,0,0,.294-.232-.418.217-.093-.356-.511,0,.372-.217.124-.217.434-.465-.093,0-.186.108-.155,0h-.108l-.139.108c-.263,0-.31-.17-.449-.186s.124,0,.217,0H160c.232-.093.31-.31.5-.2v-.139c.108-.124.108-.263,0-.31s-.31,0-.124,0l-.217-.17h0c0-.232-.527-.341-.217-.728,0,0-.17-.108-.155-.248l.186-.093c-.108,0,.093-.356-.139-.325.48-.294,0-.511,0-.713l-.248.108c0-.124-.139-.217-.31-.31l-.2.093c-.232,0,0-.372-.077-.542s.093,0,.093,0c.356-.387-.589-.263-.325-.635-.108,0-.093,0,0-.124h0l.093-.108h-.093l-.155-.093.217-.124h0c0-.093-.124,0-.294.108h-.17c.356-.2-.2-.093.17-.341a.716.716,0,0,1-.4-.093.7.7,0,0,0-.294,0h.093c0-.093,0-.186-.108-.186l.186-.108h-.356a.558.558,0,0,1,.248-.217h0a.759.759,0,0,0-.4,0ZM154,88.8h0c.139-.015.077.016,0,.046Zm1.085-9.3h0l-.17-.108V79.11a.729.729,0,0,1,.17.248h0a.434.434,0,0,1,.139,0Zm4.649,6.2V85.51c0-.062.016.062.016.17ZM159.733,85.464Zm.713-1.875h0c-.062-.124-.093-.093-.108-.016Zm-1.767-1.3v-.124h.217a.356.356,0,0,1-.325.108Zm.992.821c.17.139-.248.17-.17.17s.294.186.48.2.232,0,.124.2h0a5.487,5.487,0,0,1-.635.232c-.139-.108.108-.279,0-.372l-.093.17c-.093,0-.2-.093-.139-.17h0a2.061,2.061,0,0,0-.217-.635,1.193,1.193,0,0,1,.542.186Zm-.682-2a3.764,3.764,0,0,1-.434.511h-.108v-.17l.372-.139-.387.124a.652.652,0,0,0,0-.155,3.175,3.175,0,0,1,.449-.186Zm-.31-.852-.155.108h.232l-.775.108a1.194,1.194,0,0,1-.109-.248,1.828,1.828,0,0,1,.7.016Zm-1.007-1.55-.418.2v-.093Z" transform="translate(252.468 1489.373)" fill="#fff"/>
    <path id="Path_12642" data-name="Path 12642" d="M150.877,91.952l-.248-.093a.775.775,0,0,0,0-.449H150.4c-.139-.186.279-.279.279-.5.093,0,0,.077,0,.108.279,0,.217-.232.139-.387s-.186-.294,0-.387c-.077,0,0-.108,0-.139h0l.139-.077h-.124l-.093-.186h-.062l-.124-.093c.4,0-.124-.186.31-.217-.217,0-.139-.294-.589-.356h.093s.108-.139,0-.2h.341l-.232-.093h-.108a.6.6,0,0,1,.542,0c-.372-.217-.139-.186-.527-.356h.2s-.294-.155-.124-.217,0-.744.263-1.209c-.589.217.217-.232-.263-.155.139,0,.217-.124.341-.093-.186-.17.155-.372-.263-.4h.294v-.077a.093.093,0,0,1,.124,0c0-.2-.465,0-.868,0,.155-.155.108-.2-.17-.186.124-.077.232-.17.325-.077s0-.5-.294-.372c.077,0,0-.093,0-.093a1.859,1.859,0,0,0-.17-.31h0c-.4.108-.139,0-.232-.17h0c.139-.387-.17,0,0-.449l-.217.139c-.48.248.155-.387-.108-.418l-.108.139c-.2,0,.511-.62.511-.744h-.031c.139-.387-.279.155-.449,0,.124-.124.387-.217.341-.341s-.682,0-.511-.294c-.093.124-.17.232-.294.232s.155-.6-.248-.418a.155.155,0,0,1,0-.077c-.155,0-.356-.124-.573,0,.279-.341.093-.372-.093-.387s-.341,0-.077-.294l-.263-.17h0c-.124-.17-.294,0-.465,0s0-.108,0-.108c-.108-.325-.155-.341-.573-.124l.124-.232c-.124.093-.139-.573-.527-.449v-.093c-.418.124-.387-.992-.9-.17l-.279.139c.217.155-.186.356-.139.558s-.124-.372,0-.372h0c.217-.449-.232-.279-.124-.6a4.854,4.854,0,0,1-.713-.325l-.341-.186a2,2,0,0,0-.4-.124v.387H142.9c0-.093,0-.31.108-.279,0-.217-.248.155-.248.248-.232-.2.139-.449,0-.465h-.108c-.093.155-.124.31-.263.279a.31.31,0,0,1,0-.248H142.2v.31c-.077.139-.17,0-.108.325a.372.372,0,0,0-.4-.341h-.449a.387.387,0,0,1-.434.186s.108.4,0,.372c0-.713-.279-.279-.465-.759.155.31-.387.139-.139.589-.124,0,0-.248-.186-.4-.217.31-.635,0-.976.155a.6.6,0,0,1,.093.356l-.325-.387s.124.527-.108.263l.108.17a1.55,1.55,0,0,0-1.023.372,1.131,1.131,0,0,1-1.116.2c.186.093.139.139.093.186l.434.109-.449-.108h0a.388.388,0,0,1,0,.108c0,.17-.217.139,0,.372v-.108a1.549,1.549,0,0,0,.48.542l-.2.155,1.41,2.944.17.372.449.914,1.875,3.936.186.372.449.945.124.248.248.542,1.689,3.5.449-.108a7.748,7.748,0,0,0,2.82-1.55h0v-.031h0a3.874,3.874,0,0,0,.883.837.418.418,0,0,1-.108-.31c-.093,0-.372,0-.418-.232s.139,0,.263,0c-.186-.139-.139-.356-.325-.573.2-.2.387-.4.573-.62h.077v-.093c.217.093.139.31.279.31s.155.449,0,.48l-.263-.186h.17c0,.139-.48-.124-.217.217h.248c0,.2.17.542,0,.573.279.186,0,0,.341.139-.4-.263.279-.248-.17-.48.387.217.248,0,.62.124,0-.077-.17-.093,0-.155V94.6h0a.326.326,0,0,1-.17,0c-.139-.217,0-.356,0-.48s0,.108.186.155l-.077-.2c.186.139.418.093.418.31l.108-.108c.155,0,.279,0,.248-.2s-.093-.294,0-.139a.9.9,0,0,0,0-.155v-.139h0c.17-.2,0-.62.434-.666a.358.358,0,0,1,.093-.294h.2c0-.124.325-.2.155-.341C150.954,92.664,150.722,92.091,150.877,91.952Zm-8.244-12.025h0c-.046.139-.031.139,0,0Zm4.4,14.752.093-.077c.078.062.047.124-.093.077Zm.155-.155Zm3.1-5.842h-.465v-.108Zm-.713-2.665.232.124h-.217a.372.372,0,0,1-.17.093h0Zm-.651,7.221c-.232.248.48.682,0,.744s-.449-.341-.635-.434.279,0,.325-.155h-.17v-.2h0l.325-.542a1.147,1.147,0,0,1,.387.6c-.062.232-.341-.077-.31-.016ZM149.234,94.183Zm-.124-2.138v-.124a.4.4,0,0,1,.17.2.465.465,0,0,0-.248-.077Zm.356-.542h-.124v-.155l.372.139-.372-.139v-.108a2.371,2.371,0,0,1,.682.186,2.634,2.634,0,0,1-.635.077Zm.744-.976.155.2-.713-.372a1.177,1.177,0,0,0,0-.248,1.938,1.938,0,0,1,.682.4Z" transform="translate(244.03 1490.571)" fill="#fff"/>
    <path id="Path_12643" data-name="Path 12643" d="M101.91,89.242l.217.077.79.31c.217.093.325,0,.434-.248a.217.217,0,0,1,0,.17c.248.17.341.17.558,0h0v.139h0c.2.108.511.418.775.155v.124a4.183,4.183,0,0,1,.62.093c.217.093.4,0,.387-.4l.2-.263c-.31,0,0-.418-.17-.558.093,0,.341.232.217.31h0c0,.5.4,0,.465.418.31-.093.62-.108.93-.17a2.929,2.929,0,0,0,.9-.217L108,88.855h.186a.151.151,0,0,1,0,.294c.186.155.139-.279.108-.356.325,0,.124.449.2.418l.093-.093h0c0-.186,0-.341.093-.4s.17.17.17.17h.093l.263-.186-.248-.17c0-.2.2-.139-.093-.341.217.155.434,0,.635-.093s.31-.325.4-.294a.536.536,0,0,1,.232-.5c-.093,0-.356-.232-.217-.31.48.511.434,0,.9.217-.325-.124.248-.449-.248-.589.124,0,.217.155.4.17,0-.418.573-.511.713-.945a.344.344,0,0,1-.31-.2h.5c0-.093-.434-.294-.077-.294,0,0-.2,0-.2-.093a.976.976,0,0,0,.356-.511,2.788,2.788,0,0,0,.155-.62,1.969,1.969,0,0,1,.17-.589,1.55,1.55,0,0,1,.465-.62c-.186.108-.2,0-.2,0a.651.651,0,0,0-.356-.108l.372-.31c-.341,0,0-.341-.325-.372v.093a1.457,1.457,0,0,0-.728,0,1.874,1.874,0,0,0,0-.294,6.927,6.927,0,0,0-1.3-4.06h.108a.093.093,0,0,0-.155,0l-.108-.139c.2,0,.7-.48.93-.806a.387.387,0,0,1-.325,0c0,.108,0,.4-.263.418s0-.155,0-.279c-.139.186-.387.093-.62.263l-.356-.387h0l-.263-.248h-.093c0-.186.248-.155.31-.217h0c.2,0,.48-.108.511.108l-.2.263v-.2c.155,0-.124.511.248.279v-.248c.2,0,.589-.124.62,0,.2-.279,0,0,.139-.356-.248.387-.31-.356-.527.108.217-.387,0-.279.108-.666,0,0-.093.2-.17,0H110a.557.557,0,0,1,0,.17.4.4,0,0,1-.372,0h-.108l.093-.17h-.2c.139-.186,0-.465.31-.434l-.139-.124c0-.17-.108-.31-.248-.294a.912.912,0,0,1-.217,0l-1.72.356h.016l1.72-.356h0l-1.55-.248h-.434v.992h0a1.023,1.023,0,0,0-.108.4.511.511,0,0,1-.108.2.341.341,0,0,1-.2,0h0a.232.232,0,0,1-.108.279H106.5a1.551,1.551,0,0,0-.232.232h-.124c-.31,0-.217.48-.372.573h0l.2.124a.791.791,0,0,0,0,.449l.217.108c.093.217-.325.248-.418.465v-.108c-.589,0,0,.682-.372.728v.108h-.124a.744.744,0,0,0,0,.2l-.232-.093h0c-.124,0,0,.108.263.155a.634.634,0,0,0,.093.155c-.387-.124,0,.217-.387.108.17.124,0,.387.387.6h0c.093,0-.155.093-.077.2l-.31-.108.341.341a.573.573,0,0,1-.542-.186c.248.387,0,.232.31.589l-.186-.093s.186.294,0,.263c-.4,0-.4.651-.821.945h0c.325.093,0,.093,0,.139h0a.4.4,0,0,0,.124,0H104.1a.341.341,0,0,1-.2-.093c0,.248-.341.217,0,.511-.155,0-.186-.124-.279-.139s.093.108,0,.108l-.155-.139c0,.155.124.279.356.4l.372.17c-.232,0-.217.108,0,.279-.139,0-.294,0-.294-.155s-.356.387,0,.511c-.093,0,0,.093,0,.093a.737.737,0,0,1-.108.356h0c.372.186,0,.155,0,.31h0c-.372.2.093.17-.325.372h.248c.511.2-.4.155-.248.4h.155c.124.139-.511,0-.79.108h0c-.294,0,0,.093.124.155s.17.093.17.155h-.5c-.046,0,.124.248.186.434v.139h0a.372.372,0,0,1,.31.124c0,.155-.62.217-.232.465h-.108a.5.5,0,0,0,.294.511c-.821-.139.124.635-.434.558h-.093v.325h0l-.155.31-.248.5ZM110.216,77.5v-.108s.062-.031,0,.108Zm-.139-.2Zm-.527-2.169h0c-.031-.139-.016-.093,0,.062Zm-.573,13.4h0c-.031-.139-.031-.062,0,0Zm-.945-12.568c.108-.124,0-.279,0-.418l.976-.217c.186-.093.356-.2.4,0s-.325.449-.434.635-.108-.279-.2-.341l-.217-.217-.186.294h0l.387-.077h0v.17a.434.434,0,0,1-.17,0h.015l-.2.325h0s-.108.17-.17.263a1.317,1.317,0,0,1-.372-.666c-.077,0,.2.31.17.248Zm-.31,1.348-.093.139-.124-.17a.527.527,0,0,1,.217.031Zm-.48.589h.124l-.093.17-.356-.186.341.217-.093.17-.62-.372a2.8,2.8,0,0,1,.7,0Zm-1.116.682c.155.139.372.341.589.573l-.139.248a1.891,1.891,0,0,1-.527-.6h.17Zm-.279,2.34v.139l-.387-.341a1.891,1.891,0,0,0,.387.2Zm-1.55,7.857h0l.124.2Zm.17-5.253h-.155l-.093-.279a.511.511,0,0,1,.279.155.155.155,0,0,0,.046.124ZM103.4,87.212h0a1.006,1.006,0,0,0,0,.155,1.692,1.692,0,0,0,.077-.155Z" transform="translate(224.937 1487.702)" fill="#fff"/>
    <path id="Path_12644" data-name="Path 12644" d="M127.5,120.715a8.2,8.2,0,0,0,.279-2.076h-.016a3.982,3.982,0,0,0,1.209-.108.4.4,0,0,1-.294-.093c-.124,0-.263.217-.465.139s.077-.108.186-.17c-.232,0-.372-.093-.651-.093v-.728h.093c.232-.093.341.093.434,0s.449.155.325.294h-.31s.186-.108,0-.139c.155,0-.418.248,0,.279l.217-.108c.17,0,.511.17.418.31.31,0,0,0,.325-.139-.449.108,0-.341-.48-.17.434-.139.17-.17.527-.341h-.341c-.31,0-.341-.17-.465-.2s.124,0,.232,0h-.2c.232,0,.372-.232.527-.093v-.139c.124-.108.155-.232,0-.279s-.279-.093-.093-.093l-.2-.17h0c0-.217-.48-.31-.139-.666,0,0-.17-.093-.155-.232h.186c-.108,0,.093-.341-.124-.294.5-.31,0-.48,0-.666l-.248.108c0-.108-.139-.17-.294-.248l-.2.124c-.232,0,0-.341-.108-.5s.077,0,0,0c.356-.465-.558-.2-.341-.573h-.093a.372.372,0,0,1,0-.139v.124a.3.3,0,0,0-.17,0l.186-.17h0c0-.093-.139,0-.263.17a.481.481,0,0,0-.17,0c.294-.279-.2,0,.108-.341-.186.093-.294-.139-.651.124h0s0-.155-.124-.108l.217-.232-.4.186a.651.651,0,0,1,.387-.4c-.418.109-.217,0-.6.109l.155-.124h-.2c.108,0-.434-.5-.465-.992-.325.527,0-.31-.263,0,0-.139,0-.232.217-.294-.248,0-.093-.356-.434-.093,0-.124.155-.155.186-.232s-.108,0-.077,0,.093-.077.093-.077a2.531,2.531,0,0,0-.62.573c0-.217,0-.217-.232,0,0-.124.093-.263.217-.248s-.217-.372-.4-.093h0a.7.7,0,0,0-.263-.139h0c-.248.341-.139,0-.263,0h0c-.093-.372-.139,0-.232-.325l-.093.232c-.232.5,0-.387-.279-.248v-.449c-.139.155,0-.744,0-.852a.249.249,0,0,1,.093,0c-.093-.372-.139.294-.325.325s.186-.418.108-.5-.5.434-.527,0c0,.139,0,.279-.108.356s-.17-.573-.372-.186v-.093a.527.527,0,0,0-.418.325c0-.449-.093-.356-.232-.263s-.279.2-.232-.2H120.5c-.17-.093-.248.108-.31.294a.248.248,0,0,1,0-.186c-.217-.17-.248-.124-.449.263v-.263a.276.276,0,0,1-.2-.124H119.4a.155.155,0,0,0-.186.093v-.124c-.248.31-.713-.682-.728.263l-.155.263c.232,0,0,.418.124.558s-.248-.263-.155-.325h0c0-.5-.294-.124-.341-.465-.449.093-.93-.077-1.364,0l.17.372h-.109s-.139-.279,0-.279c-.124-.217-.124.217-.077.294-.263,0,0-.449-.139-.434h-.077c0,.17,0,.325-.093.356s-.124-.217-.124-.217h-.2l.2.263c0,.17-.17,0,0,.341-.31-.449-.7.093-.837,0,0,.248-.093.294-.232.341s.248.325.124.356c-.31-.635-.341-.155-.682-.542.248.232-.248.263.124.589-.108,0-.155-.217-.31-.325,0,.372-.542.17-.728.449a.558.558,0,0,1,.217.294l-.418-.263s.31.449,0,.279c0,0,.155.124.155.17-.387,0-.527.294-.713.542a.93.93,0,0,1-.852.465h0v.124a2.757,2.757,0,0,0,.279.2h-.263c.263.232-.124.217.139.434v.124a1.674,1.674,0,0,0,.6.372,1.288,1.288,0,0,0-.124.186l1.658.868.279.155,2.758,1.55.558.279,9,4.773.31.17h0a2.018,2.018,0,0,1,0-.217C127.316,121.3,127.409,120.994,127.5,120.715Zm.279-2.247v-.155c.077.031.108.093-.016.155ZM127.781,118.282ZM128.834,116.733Zm-12.645-6.88h0c0,.2-.015.124-.015.062Zm8.027,1.658-.077.155h0v-.093h0v-.186l.248-.108a1.875,1.875,0,0,1-.2.248Zm1.55,1.55h0l.4-.232a3.739,3.739,0,0,1-.48.279Zm2.448,3.208c.124.124-.279.139-.279.139,0,.31.914,0,.635.387a2.185,2.185,0,0,1-.759.17c-.108-.093.155-.2.124-.294l-.108.124c-.108,0-.2-.077-.124-.139l-.139-.542a1.271,1.271,0,0,1,.573.2Zm-1.55-2.03a1.549,1.549,0,0,0-.108-.186,2.309,2.309,0,0,1,.759-.217l-.139.139h.248Zm.573.821h0a.356.356,0,0,1-.093-.108l.356-.17-.372.155v-.124a5.705,5.705,0,0,1,.651-.294,2.728,2.728,0,0,1-.666.589Zm.31.449a.388.388,0,0,0-.139,0H127.3a.4.4,0,0,1,.2.046Z" transform="translate(230.478 1506.669)" fill="#fff"/>
    <path id="Path_12657" data-name="Path 12657" d="M156.116,113.79a1.765,1.765,0,0,0-.155-.294h0a11.932,11.932,0,0,0-4.478-4.556h0v-.108a.357.357,0,0,0-.217,0,.3.3,0,0,1-.155,0,2.185,2.185,0,0,0,.341-1.193.436.436,0,0,1-.372.139c0,.139.356.5.093.573s-.2-.186-.294-.356c0,.248-.4.2-.558.449a13.308,13.308,0,0,0-1.72-.6v-.093h.016c-.108-.279.387-.232.2-.387.263-.093.6-.263.9,0v.325c0-.093-.155-.263-.279-.186.2-.108.341.573.635.232l-.155-.294c.279,0,.7-.31.945,0,0-.341-.077,0-.139-.418,0,.5-.744-.294-.62.263,0-.48-.31-.31-.511-.744,0,.108,0,.217-.186.108a.356.356,0,0,0-.077,0h0l.077.2c-.186.2-.573,0-.744.17s.093-.108,0-.232l-.232.139c0-.232-.325-.465,0-.527H148.1a.635.635,0,0,0-.635-.186c-.17,0-.449.217-.279,0l-.542.093h0a3.1,3.1,0,0,0-.728.108h-.4a1.1,1.1,0,0,1-.434-.17.976.976,0,0,1-.635.109v-.2c-.217.108-.7-.093-.759.124-.341-.527-1.116.108-1.55.124v.263a1.968,1.968,0,0,0-.759.418l.093.217c-.186.279-.744.093-1.131.325,0-.093.093-.124.186-.108-.356-.124-.573.093-.775.325s-.341.48-.666.434a.2.2,0,0,1-.248.155h-.093a1.55,1.55,0,0,0-.217.279l-.186-.17h0c-.17,0,0,.186.139.279a1.459,1.459,0,0,0,0,.248c-.325-.279-.2.325-.573,0,0,.2-.449.573-.2.961h-.077a.294.294,0,0,0-.263.263l-.263-.186v.542c-.279,0-.418,0-.465-.341,0,.635-.17.4-.155.945l-.139-.139c-.108.108,0,.465-.217.434s-.511.325-.79.7a5.378,5.378,0,0,1-.883,1.147c.62.124-.418.232,0,.48-.17,0-.294,0-.341-.124,0,.449-.48.527-.217.961-.155,0-.17-.17-.263-.155s.077.17,0,.186a.542.542,0,0,1-.139-.186c-.139.434.279.62.666.775-.263.155-.248.279,0,.511-.155,0-.325.108-.31-.17,0,.139-.434.883-.093.945-.108,0,0,.217,0,.263a4.029,4.029,0,0,0-.139.728l.077-.108c.387.17,0,.31,0,.558h0c-.325.589.124.279-.248.821h.263c.527,0-.356.558-.124.9l.139-.139c.2.17-.713.573-.744.806l-.124-.124c-.279.573.325,0,.449.418-.17.093-.465,0-.465.232s.7.666.449,1.085c.108-.108.232-.217.372,0s-.325.868.17.976v.077c.108.124.248.341.4.5a.48.48,0,0,0,.248.108c-.372.263-.139.527.093.744s.449.4.093.6h0l.186.31.4.651.62-.17h.2a.6.6,0,0,0,.589-.434.093.093,0,0,1,0,.124c.573.093.635,0,1.007-.449l.108.248c.093-.186.9.232,1.379-.2v.124c.527-.449,1.658.325,1.55-.666l.341-.341h-.248c-.031,0,.139-.4,0-.48a.341.341,0,0,1,.248,0c.139,0,.263.17.108.248h0l.155.124a2.4,2.4,0,0,0,.325,0c.124,0,.232,0,.263.093.992-.341,2.061-.434,2.991-.775l-.248-.31.325-.124c.124,0,.232.232,0,.325.2.139.31-.341.279-.4.511,0,0,.48.139.434l.17-.108h0c.093-.217,0-.372.31-.48a.17.17,0,0,1,.186.186.264.264,0,0,0,.186,0l.418-.139-.279-.217c.108-.217.372-.155,0-.387.248.186.635,0,.992-.093s.666-.387.79-.356c.139-.31.372-.4.682-.542-.093,0-.31-.31,0-.4.232.682.589,0,1.038.372-.341-.2.666-.465.155-.728.232,0,.139.217.372.279.372-.527,1.193-.465,1.736-.93,0,0-.217-.139-.17-.341l.573.2c.093-.108-.186-.527.2-.387,0,0-.186-.108-.124-.2a4.959,4.959,0,0,0,1.767-1.085,3.8,3.8,0,0,1,1.937-.992c-.263,0-.186-.093,0-.2-.108,0-.155-.17-.248-.263l.666-.093c-.139-.325.465-.4.294-.7l-.108.155c0-.248-.279-.356-.527-.48l.418-.356c0-.124-.108-.263-.155-.4S156.24,114.022,156.116,113.79Zm-21.447,1.8h0v.186h-.2l-.124-.418a.291.291,0,0,1,.279.155h0a.124.124,0,0,1,.17,0Q134.729,115.546,134.669,115.587Zm2.619-4.494-.17-.5a2.324,2.324,0,0,0,.341.31Zm3.1-2.371-.48.263a1.673,1.673,0,0,1,.124-.93l.17.124.217-.325a4.369,4.369,0,0,0-.093.868Zm2-.821-.124-.387v.4l-.341.108a2.355,2.355,0,0,1-.17-.682l.372.108a2.094,2.094,0,0,1,.465.248h0a.868.868,0,0,1-.263.2Zm1.379-.325a.62.62,0,0,1,.2-.263.729.729,0,0,0,0,.217Zm2.262,15.155h-.093c.046-.17.046-.077.031,0Zm1.689-15.295c-.31,0-.434-.232-.651-.263l.248.17c-.124,0-.325.124-.418,0h-1.379V107.2a1.55,1.55,0,0,1,.635-.511c.387-.093.155.294.232.232.682.124.682-.713,1.271-.325.263.387-.016.62,0,.914Zm.124-1.1C147.67,106.212,147.732,106.336,147.841,106.336Zm2.882,2.154Zm0,0a.248.248,0,0,1,.341.17Z" transform="matrix(-0.985, -0.174, 0.174, -0.985, 483.979, 1692.104)" fill="#fff"/>
  </g>
</svg>
