<svg xmlns="http://www.w3.org/2000/svg" width="123.057" height="127.846" viewBox="0 0 123.057 127.846">
  <g id="Group_2643" data-name="Group 2643" transform="matrix(0.883, -0.469, 0.469, 0.883, 28.264, 97.292)" opacity="0.5">
    <path id="Path_18842" data-name="Path 18842" d="M56.132,34.783c2.292,1.7,6.035,1.375,7.582-.859a4.556,4.556,0,0,0-2.578-6.646,7.843,7.843,0,0,0,5.309-5.367,6.316,6.316,0,0,0-3.075-6.78c-2.445-1.28-5.882-.477-7.028,1.833-.344.688-.535,1.509-1.222,1.872a2.952,2.952,0,0,1-1.948.038A123.7,123.7,0,0,1,26.893,9.917a8.535,8.535,0,0,0-2.12-6.283c-1.642-1.662-4.507-2.349-6.4-1.108C15.8,4.207,16.37,8.218,18.432,10.6c-3,.172-5.844,2.387-5.959,5.233s3.151,5.615,5.959,4.717c1.222-.382,2.139-1.3,3.285-1.833,2.349-1.07,5.176-.325,7.735.439C35.334,20.9,41.2,22.637,47.08,24.394a13.476,13.476,0,0,1,4.889,2.177C54.719,28.844,53.1,32.491,56.132,34.783Z" transform="translate(-11.863 -1.457)" fill="rgba(226,225,225,0.98)"/>
    <g id="Group_1534" data-name="Group 1534">
      <path id="Path_18843" data-name="Path 18843" d="M14.777,3.655c.172.134.172.019.191.019C14.7,3.464,14.777,3.674,14.777,3.655Z" transform="translate(29.684 29.118)" fill="rgba(226,225,225,0.98)"/>
      <path id="Path_18844" data-name="Path 18844" d="M14.831,3.865l.057.057-.115-.248-.115-.267.076.229Z" transform="translate(27.739 25.985)" fill="rgba(226,225,225,0.98)"/>
      <path id="Path_18845" data-name="Path 18845" d="M14.614,3.247a1.025,1.025,0,0,0,.1.363l.115.229.1.267.115.267.1.267a1.922,1.922,0,0,1,.115.535v.1l.191.267-.172-.611-.21-.63c-.076-.191-.153-.4-.229-.573Z" transform="translate(26.925 23.09)" fill="rgba(226,225,225,0.98)"/>
      <path id="Path_18846" data-name="Path 18846" d="M14.629,3.151h-.076l.076.057.019.019.134.1.21.191-.038-.057-.134-.115-.057-.076-.057-.038h0l-.038-.038Z" transform="translate(25.821 21.352)" fill="rgba(226,225,225,0.98)"/>
      <path id="Path_18847" data-name="Path 18847" d="M14.6,3.22c.286.248-.153-.21,0,0Z" transform="translate(26.151 21.57)" fill="rgba(226,225,225,0.98)"/>
      <path id="Path_18848" data-name="Path 18848" d="M14.671,3.309l.248.115.248.1c-.076-.1-.5-.325-.325-.267L14.48,3.1Z" transform="translate(24.5 20.411)" fill="rgba(226,225,225,0.98)"/>
      <path id="Path_18849" data-name="Path 18849" d="M14.464,3.1l.248.1A.381.381,0,0,0,14.464,3.1Z" transform="translate(24.21 20.501)" fill="rgba(226,225,225,0.98)"/>
      <path id="Path_18850" data-name="Path 18850" d="M15.012,3.338l-.267-.115-.267-.115c.057.057.038.1.248.1Z" transform="translate(24.445 20.592)" fill="rgba(226,225,225,0.98)"/>
      <path id="Path_18851" data-name="Path 18851" d="M14.519,3.131c.248.191.535.439.076.191.42.267.592.382.592.344A2.448,2.448,0,0,0,14.519,3.131Z" transform="translate(25.205 20.99)" fill="rgba(226,225,225,0.98)"/>
      <path id="Path_18852" data-name="Path 18852" d="M14.6,3.245l.076.172.057.191.191.267-.172-.382C14.7,3.34,14.62,3.226,14.6,3.245Z" transform="translate(26.689 23.015)" fill="rgba(226,225,225,0.98)"/>
      <path id="Path_18853" data-name="Path 18853" d="M14.334,3.044l.153.191.363.076Z" transform="translate(21.857 19.416)" fill="rgba(226,225,225,0.98)"/>
      <path id="Path_18854" data-name="Path 18854" d="M14.867,3.163l-.554-.115C14.79,3.2,14.886,3.2,14.867,3.163Z" transform="translate(21.477 19.488)" fill="rgba(226,225,225,0.98)"/>
      <path id="Path_18855" data-name="Path 18855" d="M14.6,3.182l.458.153.439.172-.172-.076L14.963,3.3l-.516-.191Z" transform="translate(23.902 20.538)" fill="rgba(226,225,225,0.98)"/>
      <path id="Path_18856" data-name="Path 18856" d="M14.466,3.038l.318.017-.568-.045Z" transform="translate(19.703 18.809)" fill="rgba(226,225,225,0.98)"/>
      <path id="Path_18857" data-name="Path 18857" d="M15.117,3.318c.229,0-.286-.191-.038-.172a7.534,7.534,0,0,0-.974-.172A6.344,6.344,0,0,1,15.117,3.318Z" transform="translate(17.713 18.149)" fill="rgba(226,225,225,0.98)"/>
      <path id="Path_18858" data-name="Path 18858" d="M14.079,2.971l.5.057Z" transform="translate(17.242 18.094)" fill="rgba(226,225,225,0.98)"/>
      <path id="Path_18859" data-name="Path 18859" d="M14.628,3.232a1.089,1.089,0,0,0-.382-.21l.191.153Z" transform="translate(20.265 19.017)" fill="rgba(226,225,225,0.98)"/>
      <path id="Path_18860" data-name="Path 18860" d="M14.69,3.157h0l-.458-.134Z" transform="translate(20.011 19.036)" fill="rgba(226,225,225,0.98)"/>
      <path id="Path_18861" data-name="Path 18861" d="M14.305,3.034h0Z" transform="translate(20.645 19.235)" fill="rgba(226,225,225,0.98)"/>
      <path id="Path_18862" data-name="Path 18862" d="M14.989,3.168c-.325-.057-.993-.21-.4.057C14.836,3.244,14.492,3.072,14.989,3.168Z" transform="translate(22.176 19.922)" fill="rgba(226,225,225,0.98)"/>
      <path id="Path_18863" data-name="Path 18863" d="M14.281,3.044l.554.191s-.1-.1.057-.076Z" transform="translate(20.898 19.416)" fill="rgba(226,225,225,0.98)"/>
      <path id="Path_18864" data-name="Path 18864" d="M14.266,3.057l.284.056-.2-.072Z" transform="translate(20.627 19.353)" fill="rgba(226,225,225,0.98)"/>
      <path id="Path_18865" data-name="Path 18865" d="M14.906,3.171a3.853,3.853,0,0,1-.821-.191c.306.115.649.229.955.325C15.1,3.286,15.25,3.286,14.906,3.171Z" transform="translate(17.351 18.257)" fill="rgba(226,225,225,0.98)"/>
      <path id="Path_18866" data-name="Path 18866" d="M14.226,3.01h0Z" transform="translate(19.215 18.8)" fill="rgba(226,225,225,0.98)"/>
      <path id="Path_18867" data-name="Path 18867" d="M13.93,2.935l.045.033.017-.017Z" transform="translate(14.554 17.436)" fill="rgba(226,225,225,0.98)"/>
      <path id="Path_18868" data-name="Path 18868" d="M14.2,3.035a2.464,2.464,0,0,0,.535.115L14.145,3C14.126,3,14.126,3.016,14.2,3.035Z" transform="translate(18.246 18.565)" fill="rgba(226,225,225,0.98)"/>
      <path id="Path_18869" data-name="Path 18869" d="M14.035,2.96l.4.191Z" transform="translate(16.446 17.895)" fill="rgba(226,225,225,0.98)"/>
      <path id="Path_18870" data-name="Path 18870" d="M14.183,3.007h0Z" transform="translate(19.124 18.746)" fill="rgba(226,225,225,0.98)"/>
      <path id="Path_18871" data-name="Path 18871" d="M14.491,3.043,14.166,3l.4.1Z" transform="translate(18.817 18.71)" fill="rgba(226,225,225,0.98)"/>
      <path id="Path_18872" data-name="Path 18872" d="M14.44,3.278a2.375,2.375,0,0,1,1.26.286c.554.1.286-.286-.134-.592-.038.038-.038.076-.611-.038.172.1,1.2.477.707.42a2.455,2.455,0,0,1-.936-.363c.267.191-.974-.134-.879.076l.668.134C14.516,3.24,14.268,3.2,14.44,3.278Z" transform="translate(12.966 17.425)" fill="rgba(226,225,225,0.98)"/>
      <path id="Path_18873" data-name="Path 18873" d="M14.965,3.281l.229.057a4.927,4.927,0,0,1-.745-.344,1.834,1.834,0,0,0-.516-.057l1.108.363Z" transform="translate(14.618 17.441)" fill="rgba(226,225,225,0.98)"/>
      <path id="Path_18874" data-name="Path 18874" d="M15.031,3.262c-.21.038-.764-.076-.458.115a3.424,3.424,0,0,0,.9.134c-1.089-.286.325.038-.439-.229l.592.134-.554-.191h.038v.019h-.019l-.057.019c-.306-.115-.038-.038.057-.019l.019-.019h-.019L14,2.956C14.229,3.032,14.516,3.128,15.031,3.262Z" transform="translate(15.812 17.823)" fill="rgba(226,225,225,0.98)"/>
      <path id="Path_18875" data-name="Path 18875" d="M14.417,3.111l-.038-.019C14.321,3.073,14.283,3.073,14.417,3.111Z" transform="translate(21.717 20.055)" fill="rgba(226,225,225,0.98)"/>
      <path id="Path_18876" data-name="Path 18876" d="M14.75,3.434a1.176,1.176,0,0,1,.42.076c.21.1-.019.057-.019.076.172.038.573.115.1-.1H15.17a4.458,4.458,0,0,1-.879-.439A2.134,2.134,0,0,0,14.75,3.434Z" transform="translate(20.945 19.541)" fill="rgba(226,225,225,0.98)"/>
      <path id="Path_18877" data-name="Path 18877" d="M15.048,3.221l-.917-.21.439.21-.019-.057C15.067,3.336,14.971,3.24,15.048,3.221Z" transform="translate(18.183 18.818)" fill="rgba(226,225,225,0.98)"/>
      <path id="Path_18878" data-name="Path 18878" d="M14.318,3l.149-.061L13.9,2.926Z" transform="translate(14.078 17.288)" fill="rgba(226,225,225,0.98)"/>
      <path id="Path_18879" data-name="Path 18879" d="M14.109,3.019l.066-.072-.323-.039Z" transform="translate(13.117 16.94)" fill="rgba(226,225,225,0.98)"/>
      <path id="Path_18880" data-name="Path 18880" d="M13.58,2.435l.267.076Z" transform="translate(8.211 8.394)" fill="rgba(226,225,225,0.98)"/>
      <path id="Path_18881" data-name="Path 18881" d="M13.537,2.394l-.057.038C13.575,2.451,13.614,2.432,13.537,2.394Z" transform="translate(6.401 7.652)" fill="rgba(226,225,225,0.98)"/>
      <path id="Path_18882" data-name="Path 18882" d="M12.5,3.287l.019-.153.019-.076V3.019L12.558,3h0v.038h0l.076-.229c.057-.134.057-.21.019-.21l-.115.1-.019.325v.019h0V3h0v.019l-.019.038v.229Z" transform="translate(-11.317 11.362)" fill="rgba(226,225,225,0.98)"/>
      <path id="Path_18883" data-name="Path 18883" d="M13.269,1.926l-.115-.038-.267.1Z" transform="translate(-4.331 -1.506)" fill="rgba(226,225,225,0.98)"/>
      <path id="Path_18884" data-name="Path 18884" d="M12.924,1.869,13,1.888l.191.057.286.076C13.344,1.984,13.172,1.926,12.924,1.869Z" transform="translate(-3.661 -1.85)" fill="rgba(226,225,225,0.98)"/>
      <path id="Path_18885" data-name="Path 18885" d="M14.118,2.692h.344C13.965,2.539,14.175,2.654,14.118,2.692Z" transform="translate(17.948 11.651)" fill="rgba(226,225,225,0.98)"/>
      <path id="Path_18886" data-name="Path 18886" d="M14.046,2.931a7.851,7.851,0,0,0-.859-.21C13.607,2.836,13.932,2.988,14.046,2.931Z" transform="translate(1.099 13.57)" fill="rgba(226,225,225,0.98)"/>
      <path id="Path_18887" data-name="Path 18887" d="M13.523,2.476l.229.076C13.6,2.476,13.5,2.456,13.523,2.476Z" transform="translate(7.141 9.003)" fill="rgba(226,225,225,0.98)"/>
      <path id="Path_18888" data-name="Path 18888" d="M13.132,2.734l.191.038a4.768,4.768,0,0,1,.859.076A2.382,2.382,0,0,0,13.132,2.734Z" transform="translate(0.103 13.443)" fill="rgba(226,225,225,0.98)"/>
      <path id="Path_18889" data-name="Path 18889" d="M15.117,3.239l.076.076Z" transform="translate(36.028 22.945)" fill="rgba(226,225,225,0.98)"/>
      <path id="Path_18890" data-name="Path 18890" d="M14.921,3.646a3.637,3.637,0,0,0,.458,0Z" transform="translate(32.481 30.311)" fill="rgba(226,225,225,0.98)"/>
      <path id="Path_18891" data-name="Path 18891" d="M13.618,2.838c.248.057.057,0,.057,0Z" transform="translate(8.899 15.687)" fill="rgba(226,225,225,0.98)"/>
      <path id="Path_18892" data-name="Path 18892" d="M13.785,2.876,13.67,2.9Z" transform="translate(9.84 16.375)" fill="rgba(226,225,225,0.98)"/>
      <path id="Path_18893" data-name="Path 18893" d="M13.014,2.758h0Z" transform="translate(-2.376 14.239)" fill="rgba(226,225,225,0.98)"/>
      <path id="Path_18894" data-name="Path 18894" d="M13.927,2.973l-.306-.134Z" transform="translate(8.953 15.705)" fill="rgba(226,225,225,0.98)"/>
      <path id="Path_18895" data-name="Path 18895" d="M13.635,2.843l.229.057C13.883,2.9,13.864,2.881,13.635,2.843Z" transform="translate(9.207 15.778)" fill="rgba(226,225,225,0.98)"/>
      <path id="Path_18896" data-name="Path 18896" d="M13.6,2.833l.4.115-.057-.019Z" transform="translate(8.573 15.597)" fill="rgba(226,225,225,0.98)"/>
      <path id="Path_18897" data-name="Path 18897" d="M14.948,2.589h.057C15.273,2.512,15.158,2.531,14.948,2.589Z" transform="translate(32.97 10.264)" fill="rgba(226,225,225,0.98)"/>
      <path id="Path_18898" data-name="Path 18898" d="M12.689,2.349l-.028.017.039-.011Z" transform="translate(-8.415 6.842)" fill="rgba(226,225,225,0.98)"/>
      <path id="Path_18899" data-name="Path 18899" d="M13.58,2.33a3.447,3.447,0,0,1-.477.229l-.439.153.21.076.191.076.076-.1.172-.191Z" transform="translate(-8.385 6.493)" fill="rgba(226,225,225,0.98)"/>
      <path id="Path_18900" data-name="Path 18900" d="M38.389,14.358l-.573-.306c.783.134,1.3.363.764.057-.1.115-.688-.1-1.28-.306-.592-.191-1.184-.42-1.28-.286l-.382-.21.248.076c-.726-.439-.649-.019-1.642-.458-.344-.153-.554-.286-.306-.229l-.8-.248c-.229-.1-.153-.134.057-.038l-1.165-.458h0c-.172-.038-.592-.134-.783-.172-.286-.172.153.019.1-.038l-.668-.21c-.248-.191.325-.019.764.172-.477-.554-.573-.153-1.8-.9l.63.229a12,12,0,0,0-1.451-.9c.134.134,1.241.879.516.63a3.859,3.859,0,0,0-.84-.344c.038-.115-.325-.248-.783-.458l.1-.115-.344-.115.363.611a4.794,4.794,0,0,0-.134-.5,2.651,2.651,0,0,1,.057-.668l.115-.286c-.076-1.031-.1.726-.267-.477a5.631,5.631,0,0,0-.726-2.368c-.21-.573.134.057.076-.153l-.153-.21-.172-.229c-.076-.115-.019-.1,0-.076-.248-.382-.134.019-.535-.554-.115-.019-.267-.363-.516-.726a2.66,2.66,0,0,0-1.031-.974c-.153-.153.134-.019.115-.1l-.363-.191-.267-.134-.382-.153a4.453,4.453,0,0,0-.9-.21l-.115-.057-.267-.115-.286-.1-.115-.038c.573.229-.229.153-.879.248l.477.153h-.5l-.363.038-.1.019h-.057c-.115-.019-.019-.076.153-.153l-.191.057c-.363-.019-.191-.115.076-.229l.382.076c.248-.076.516-.153.458-.248l-.363.019.1-.057-.325.057-.267-.153-.057.076A5.5,5.5,0,0,0,19.768,2l-.516.115-.229.076a2.086,2.086,0,0,0-.325.248l-.153.115-.076.057-.019.019h0l-.019.019h0l-.019.019-.038.038a6.176,6.176,0,0,0-.5.611,4.47,4.47,0,0,0-.783,1.8c0-.42-.172-.153-.306-.21a1.287,1.287,0,0,0,.191-.363l.191-.477.076-.134.038-.076.191-.325.21-.248.229-.267c-.344.344-.325.229-.248.115l-.172.21a5.246,5.246,0,0,0-.286.477,4.752,4.752,0,0,0-.21.5l-.076.229c-.057-.038-.1.038-.153.172l-.1.229-.1.286c.076-.076.1-.019.115.076l-.038.477-.019.325v.306l.019.325.057.248c-.076.057-.21-.076-.172-.84a2.613,2.613,0,0,0-.038.535,1.417,1.417,0,0,0,.134.4,3.216,3.216,0,0,1,.229.9l-.115-.325a6.212,6.212,0,0,1,.229.821c.076.267.134.458.057.363l-.076-.172A7.232,7.232,0,0,0,17.572,10a5.037,5.037,0,0,0,.439.668c.153.21.325.382.458.554l.229-.535-.573.115-.267.134.191-.306-.325.153a6.753,6.753,0,0,0-.649.4,5.975,5.975,0,0,0-.592.439l-.229.229c.038-.115-.134-.191-.229-.286-.076-.115-.076-.248.363-.5l-.477.172a5.529,5.529,0,0,0-.649.4c.191-.076.554-.038.325.115a3.38,3.38,0,0,0-.611.21l-.248.134-.439.267c.248-.191.153.229-.172.535.019-.076-.21-.153-.1-.286l-.115.153-.191.363-.191.363-.057.172c.057-.134.019-.172-.057-.153a.559.559,0,0,0-.306.172l-.229.458-.21.42-.115.363.229-.458a2.225,2.225,0,0,0-.21,1.3l.1.535c.038.191.038.42.1.726-.057-.115-.382-.382-.286.344l.248.325.191.21.21.229c.153.153.344.306.516.5l.286.248.286.267.076.191.649.477a4.362,4.362,0,0,1-1.184-.611,4.217,4.217,0,0,1-1.108-1.165l.1.363.057.153.191.344c.038.134-.038.057-.134-.1l-.172-.229-.1-.21.115.267.306.535.363.516.191.21c.019-.076.267.172.554.363l.21.134.191.115c.115.057.191.076.191.038l-.267-.153c-.134-.1-.325-.248-.516-.382l-.5-.458-.191-.229c.038-.076.286.1.63.344.172.134.4.267.611.439l.344.229.191.134.191.115c.229.191-.344.115-.344.153.076.019.344.172.592.286l.592.248-.267-.057-.248-.076a1.24,1.24,0,0,0,.439.172l.458.1c.306.038.611.076,1.031.153l.267.038.306.038.248.019.115-.038a1.142,1.142,0,0,1-.306-.153.492.492,0,0,1-.153-.248.325.325,0,0,1,.1-.4,1.485,1.485,0,0,0,.248-.019c.134-.019.306-.019.477-.057.363-.076.726-.191.9-.229.21-.057.115.1,0,.248s-.267.306-.057.267l.267-.267c.267-.115-.019.172.5-.172.019-.191,1.05-.668.172-.267a7.637,7.637,0,0,1,1.127-.688c-.115.019-.038-.134.153-.325a1.785,1.785,0,0,1,.363-.267,2.281,2.281,0,0,1,.42-.229l.191.057a5.713,5.713,0,0,1,1.509-.191,13.83,13.83,0,0,1,1.451.1c.115.038.63.172.4.191a4.115,4.115,0,0,1,.649.019c.325.134.134.115-.076.076-.21-.019-.439-.057-.21.057a6.339,6.339,0,0,1,1.394.115,3.7,3.7,0,0,0-1.6-.286c.019-.191.917-.267,2.1-.038.936.191.363.229.535.229,1.681.535,1.528.115,2.9.668.535.267-.038.229.057.344-.745-.172-1.108-.4-1.6-.535l.592.229a4.054,4.054,0,0,1-.993-.267c.439.248,2.865.879,4.125,1.356.248.038.668.115.477.019l-.4-.115c-.363-.21.8.1.306-.1a9.635,9.635,0,0,1,1.986.458l.115.172a2.215,2.215,0,0,0-.726-.248c.344.038,1.146.535,1.547.458l-.516-.248a10.593,10.593,0,0,1,1.986.42c-.267-.229-.153-.038-.611-.344.382.325-1.757-.535-1.146-.134a14.02,14.02,0,0,0-1.471-.668c.019.038.229.153-.344-.057h-.153v.019l.286.153a15.1,15.1,0,0,1-1.566-.306c-.344-.115.153,0-.019-.115l-.5-.057c-.019-.115-.859-.439-.038-.248l-.726-.21a7.73,7.73,0,0,0-1.375-.458c-.344-.115-.917-.153-.592-.134L29.375,18.9v-.019a16.826,16.826,0,0,0-1.814-.42c-.63-.115-1.3-.229-1.986-.382a14.922,14.922,0,0,0-1.566.019l-.153-.1c-.267.038-.688.1-1.07.172l-.516.134a1.2,1.2,0,0,0-.286.153,3.272,3.272,0,0,0-1.528.707,9.486,9.486,0,0,1-1.451.9l.019.134-.191.076-.172.076-.115.038-.076.019-.191.057-.21.057-.21.019-.229.038H17.4l.038.115H17.19l-.267-.038-.286-.076-.286-.115-.287-.134-.306-.153c-.191-.134-.4-.248-.592-.4l.172.1.229.172c-.42-.382-.9-.745-1.3-1.146a2.689,2.689,0,0,1-.821-1.432l-.115-.306-.019-.248v-.21l.019-.191-.038.306v-.057l-.019-.1-.019-.229v-.172l-.019-.019V16.23h0v.038h0v-.019l.019-.21.115-.115v-.057c.1-.267,0-.229-.115-.1a3.1,3.1,0,0,0,.019-.4.942.942,0,0,0,.229-.458.8.8,0,0,1,.306-.5l.115-.306.286-.439.306-.42c.076-.134.153-.229.153-.306,0,0,.1-.038-.038.076l.21-.153.191-.153.382-.306.191.019.286-.267.191-.172.1-.076c.458-.115.649-.153.287.134a4.4,4.4,0,0,1,.516-.306l.325-.134.325-.115.5-.172-.038.1.649-.134.5-.115-.325-.325a1.5,1.5,0,0,1-.248-.344,15.72,15.72,0,0,1-1.012-2.139,6.283,6.283,0,0,1-.306-1.6,4.089,4.089,0,0,1,.191-1.49c-.153.134-.1-.076.038-.306.1-.248.306-.477.229-.573l.153-.115c.038,0,.057,0,0,.134l.172-.248.153-.21.172-.172.076-.076.1-.076.21-.153.1-.057.057-.038V3.358h0l-.038.038h0V3.377h.019l.019-.019.344-.267c.134.019-.134.153-.038.153a.944.944,0,0,1,.344-.153l-.038.057-.172.115c.382-.191.611-.267.745-.363a.469.469,0,0,0,.191-.286H20.7a.631.631,0,0,0,.267,0,2.2,2.2,0,0,0,.5-.057l.21.1-.057.038h-.306a4.98,4.98,0,0,1,1.146.248l.611.21.286.1.535.248c.306.21.458.344.63.477l.248.248.325.325-.134-.172.229.115.172.21.191.286.229.363-.038-.019c.325.649.363.8.458.936a3.21,3.21,0,0,1,.286.955l.076-.1c.134.019.191.344.229.764.038.4.038.9.1,1.3l.019-.153.019-.153a3.3,3.3,0,0,1-.229,1.432l-.057.191.325.267.267.172c.076.057-.172-.038-.306-.076,1.07.63.21-.057,1.05.286.115.134-.286.1.267.363.267.191,1.738.516,2.445.974-.134-.134-.286-.248.115-.134.306.134.688.344,1.07.554a3.833,3.833,0,0,0,1.089.4l.1.1c.477.134,1.528.516,1.833.535.153.267.9.477,1.566.707.688.191,1.337.363,1.26.535l.726.248.726.248-.057.019a5.372,5.372,0,0,0,1.642.4c.191.1.038.076.019.076a10.769,10.769,0,0,0,1.375.5c.344.076.688.153,1.28.248l.1.134a11.506,11.506,0,0,1,1.26.439,13.355,13.355,0,0,0,2.044.573s-.038.038-.153.019c1.547.286,3.571,1.26,4.24.993l.516.076.516.057c-1.3-.325.229-.115-.286-.306.516.1,1.3.42.668.286l-.1-.038c-.286.153,1.6.458,1.547.573a4.229,4.229,0,0,0,1.108.057,1.811,1.811,0,0,0,.592-.153,2.019,2.019,0,0,0,.5-.325,3.036,3.036,0,0,0,.63-.917l.21-.458.1-.191.115-.21A4.078,4.078,0,0,1,59.7,15.6l-.286-.076.115-.038.267-.076.4-.076.153.057-.42.115a3.621,3.621,0,0,0,.936-.191c.306-.038.42,0,.439.019l-.172.057c-.191.057-.5.1-.325.1l.458-.019-.1-.038a2.231,2.231,0,0,1,1.089,0c.42.153.191.153.344.21l.229.076.134.057.344.153.1.057h.019l.038.019.134.1.134.076L63.6,16.02l-.076-.076-.038-.057h0v-.019h0l.057.019.057.038.153.076.229.134c.1.057.134.038-.038-.153.115.153.382.363.649.63a6.829,6.829,0,0,1,.859,1.031,5.028,5.028,0,0,1,.821,1.833,3.632,3.632,0,0,1,.267,2.005c.057-.172.21-.306.134.382-.076-.076-.134-.038-.172.076l-.076.229-.019.057v.019h0l-.019.038-.057.134a2.58,2.58,0,0,1-.535,1.05c.172-.191-.019.248-.248.63l-.267.477c-.057.1-.038.115.115,0-.172.229-.21.21-.21.21-.038-.057-.057-.115-.21.038a5.629,5.629,0,0,1-1.566,1.413,10.968,10.968,0,0,1-2.139.993l-1.318.477,1.356.439.115.019c.019-.019-.21-.172.134-.115l.115.076.076.038.115.1.267.229.1.1a.7.7,0,0,0,.325.1.787.787,0,0,1,.382.363c-.019-.076-.1-.21.076-.076a5.226,5.226,0,0,1,1.127,2.1c.019.191.1.4.1.592l.038.306v.439l-.019.153-.038.306-.076.286-.076.267-.1.267-.172.286-.076.134-.019.038h0v0l-.019.019-.038.038-.191.248a3.578,3.578,0,0,1-.936.745,4.064,4.064,0,0,1-1.127.439,4.273,4.273,0,0,1-1.2.1c.439.057.153.076-.172.1.21,0,0,.1.038.153l-.21-.019-.477-.076-.458-.1-.21-.076a1.492,1.492,0,0,1-.821-.153l-.458-.172-.267-.057.21.076.134.057.057.019c-.306-.038-.172.134.057.325.21.21.535.4.458.5.363.019.8.172,1.337.267a2.914,2.914,0,0,0,1.7-.134c.134,0,.076.019.019.057l-.076.076a2.987,2.987,0,0,1,.5-.21l.344-.115.439-.153-.076.057a5.472,5.472,0,0,0,1.929-1.394l.076-.115.057-.038.019-.038h0l.019-.038.019-.019.134-.21.153-.229.134-.306a3.736,3.736,0,0,0,.229-.649l.076-.382.038-.4-.057.076-.057.076c.038-.458.076-.554.076-.783-.057-.134-.076-.115-.076-.019a3,3,0,0,1,0,.42,2.576,2.576,0,0,1-.019.42c-.038.115-.057.115-.1,0l.076-.325a1.724,1.724,0,0,0,.019-.458,2.871,2.871,0,0,0-.057-.554,3.181,3.181,0,0,0-.153-.573c-.21-.764-.649-1.413-.688-1.662l-.191-.21v.038c0,.057.019.115-.229-.153l-.076-.191-.1-.038-.1-.019c-.344-.325-.516-.535-.5-.592.1.076.286.191.382.267a2.255,2.255,0,0,0-.382-.325l-.248-.153-.267-.134-.248-.115L61.9,27.25l-.325-.115.019,1.07h0l-.019-1.05c.191.076.4.153.611.248-.21-.076-.42-.134-.63-.21l.019.974a10.217,10.217,0,0,0,2.483-1.28,8.065,8.065,0,0,0,1.07-.9,5.775,5.775,0,0,0,.8-1.031l-.115.076.229-.382.172-.286.267-.42a4.608,4.608,0,0,0,.535-1.28V22.7l.019-.248.019-.057v-.057l.019-.019v-.153l.038-.267.038-.325c0,.191.057.019.1-.153.057-.172.076-.325.1-.076l-.019-.477-.038-.325-.076-.286-.1-.191-.172-.458.019-.248L66.75,19l-.306-.649c.172.267.134.153.134.019-.019-.1-.019-.229.172.1a4.273,4.273,0,0,0-.974-1.662l-.248-.267-.229-.229a2.733,2.733,0,0,1-.363-.458c-.363-.172-.115.1.172.363l.382.382c.076.1.115.153.038.076.076.153-.038.057-.248-.1l-.325-.286L64.63,16l-.286-.248L64.21,15.6l-.153-.153-.21-.191-.019-.019h0l-.019-.019h0L63.79,15.2l-.076-.038-.115-.076-.153-.1-.172-.076-.458-.172.286.076a8.641,8.641,0,0,0-1.566-.344c-.363.115-.8,0-.9.172h.191l.42-.038.4.019h.115l.076.019a4.059,4.059,0,0,0-1.05.1l-1.337.229a3.548,3.548,0,0,1,.611-.248,3.52,3.52,0,0,0-.477.1,3.484,3.484,0,0,1-.477.134c.019-.1.382-.248.821-.325.21-.057.458-.057.688-.115l.649-.057a.714.714,0,0,0-.363-.019l-.42.057c-.267.038-.439.076-.267-.057a1.387,1.387,0,0,1-.42.172l-.248.076-.267.057-.267.076-.286.115a2.535,2.535,0,0,0-.573.344V15.16c-.115.076-.344.286-.573.42l.057-.057.115-.134.172-.191c-.153.134-.306.229-.458.344l-.439.344a3.8,3.8,0,0,0-.42.382,2.618,2.618,0,0,0-.325.439c.458-.649.592-.649.592-.611s-.057.172.21-.019l-.21.229-.153.229-.248.306a4.161,4.161,0,0,1-.325.4L56,17.433l-.172.248c-.115.172-.229.458-.42.726l.248-.325c.076-.115.134-.172.076,0a1.181,1.181,0,0,1-.286.382.454.454,0,0,1-.248.153l-.038.019-.038.038h0l-.076.038-.019.019H55l-.038.019.038.057h.057l.057-.019c.076,0,.057.038-.038.1a.588.588,0,0,0-.363.057,1.678,1.678,0,0,1-.535.1v-.115l-.63-.115a.446.446,0,0,0-.21.038c-.076.038-.153.076-.764-.115l.554-.019-.649-.115.153-.1a5.861,5.861,0,0,1-1.623-.344c.153.115-.134.172-.745.019-.4-.153.248-.038-.611-.229a1.2,1.2,0,0,1,.8.134l.248-.038a10.8,10.8,0,0,0-1.432-.382l.344.115-.649-.076-.649-.1c-.172-.1-.019-.1.153-.076-.267-.057-.458-.057-.821-.153.115-.057.115-.153.649-.038l-1.2-.229c-.076-.057-.573-.286-.42-.267-.63-.229-1.662-.286-2.5-.63l-.325-.038a15.168,15.168,0,0,0-2.483-.8l-.5-.344c-.764-.21.668.439-.592.076-.9-.248-.286-.229-.573-.382a6.075,6.075,0,0,1-2.044-.611C37.95,14.186,38.141,14.282,38.389,14.358Zm-9.034-3.571a1.845,1.845,0,0,1,.649.248C29.756,11.073,29.642,10.94,29.355,10.787ZM19.6,2.25a1.407,1.407,0,0,1,.63-.1l-.306.057ZM31.915,19.668H31.9C31.514,19.515,31.647,19.572,31.915,19.668Zm.84.286c.076.019.076,0,.038-.019a3.753,3.753,0,0,1-.458-.115A.914.914,0,0,0,32.755,19.954ZM62.7,15.619l-.134-.076C62.911,15.638,62.8,15.638,62.7,15.619Z" transform="translate(-12.148 -1.868)" fill="rgba(226,225,225,0.98)"/>
      <path id="Path_18901" data-name="Path 18901" d="M12.921,1.872,13,1.91C13.093,1.929,13.093,1.91,12.921,1.872Z" transform="translate(-3.716 -1.796)" fill="rgba(226,225,225,0.98)"/>
      <path id="Path_18902" data-name="Path 18902" d="M14.115,2.619l.028.006.033-.006Z" transform="translate(17.886 11.722)" fill="rgba(226,225,225,0.98)"/>
      <path id="Path_18903" data-name="Path 18903" d="M13.173,2.865a1.725,1.725,0,0,1-.344.115S12.924,3,13.173,2.865Z" transform="translate(-5.381 16.176)" fill="rgba(226,225,225,0.98)"/>
      <path id="Path_18904" data-name="Path 18904" d="M14.279,3l-.554-.134a2.668,2.668,0,0,1,.477.191C14.2,3.021,14.107,2.963,14.279,3Z" transform="translate(10.835 16.23)" fill="rgba(226,225,225,0.98)"/>
      <path id="Path_18905" data-name="Path 18905" d="M14.144,3.064l.248.057V3.064C14.049,2.969,13.8,2.93,14.144,3.064Z" transform="translate(15.439 18.211)" fill="rgba(226,225,225,0.98)"/>
      <path id="Path_18906" data-name="Path 18906" d="M13.774,2.9c.019.1.363.172.745.267l-.057-.019C14.614,3.054,14.194,2.977,13.774,2.9Z" transform="translate(11.722 16.828)" fill="rgba(226,225,225,0.98)"/>
      <path id="Path_18907" data-name="Path 18907" d="M13.818,2.916l.344.1Z" transform="translate(12.519 17.099)" fill="rgba(226,225,225,0.98)"/>
      <path id="Path_18908" data-name="Path 18908" d="M13.9,2.945c.172.076.153-.076.248-.019C14.381,2.868,12.911,2.716,13.9,2.945Z" transform="translate(7.773 15.409)" fill="rgba(226,225,225,0.98)"/>
      <path id="Path_18909" data-name="Path 18909" d="M14.109,3.064l-.1-.15-.24.022Z" transform="translate(11.612 17.051)" fill="rgba(226,225,225,0.98)"/>
      <path id="Path_18910" data-name="Path 18910" d="M13.631,2.871l.592.21a.431.431,0,0,1,.172,0Z" transform="translate(9.134 16.285)" fill="rgba(226,225,225,0.98)"/>
      <path id="Path_18911" data-name="Path 18911" d="M13.671,2.882l.5.134Z" transform="translate(9.858 16.484)" fill="rgba(226,225,225,0.98)"/>
      <path id="Path_18912" data-name="Path 18912" d="M14.307,3.111l-.172-.078L13.711,2.9Z" transform="translate(10.582 16.792)" fill="rgba(226,225,225,0.98)"/>
      <path id="Path_18913" data-name="Path 18913" d="M13.943,2.9,13.6,2.82l-.325-.057c-.076.019.1.076.344.134C13.79,2.9,14.038,2.954,13.943,2.9Z" transform="translate(2.348 14.33)" fill="rgba(226,225,225,0.98)"/>
      <path id="Path_18914" data-name="Path 18914" d="M13.7,2.979c-.172-.1-.172-.115-.267-.172l-.057.134Z" transform="translate(4.501 15.126)" fill="rgba(226,225,225,0.98)"/>
      <path id="Path_18915" data-name="Path 18915" d="M13.762,2.822c-.076.019-.974-.134-.153.076C13.685,2.879,14.354,3.013,13.762,2.822Z" transform="translate(2.51 14.748)" fill="rgba(226,225,225,0.98)"/>
      <path id="Path_18916" data-name="Path 18916" d="M12.786,3.124l.167-.061-.1-.206Z" transform="translate(-6.155 16.021)" fill="rgba(226,225,225,0.98)"/>
      <path id="Path_18917" data-name="Path 18917" d="M12.477,2.672l-.038.286v.153h0v.038l.019.1.076.115V3.7c.057.115.019-.076.038-.21.019-.153.019-.306.057-.21l-.038-.172h0v-.42C12.592,2.576,12.573,2.557,12.477,2.672Z" transform="translate(-12.439 11.289)" fill="rgba(226,225,225,0.98)"/>
      <path id="Path_18918" data-name="Path 18918" d="M12.449,2.631l.038.248Z" transform="translate(-12.258 11.941)" fill="rgba(226,225,225,0.98)"/>
      <path id="Path_18919" data-name="Path 18919" d="M15.213,3.82l-.21-.1-.134-.1-.057-.019.115.1.134.1Z" transform="translate(30.508 29.659)" fill="rgba(226,225,225,0.98)"/>
      <path id="Path_18920" data-name="Path 18920" d="M15.131,3.843l-.019-.172-.344-.076Z" transform="translate(29.712 29.388)" fill="rgba(226,225,225,0.98)"/>
      <path id="Path_18921" data-name="Path 18921" d="M13.332,2.289l-.057.019a1.844,1.844,0,0,0,.4.229Z" transform="translate(2.691 5.751)" fill="rgba(226,225,225,0.98)"/>
      <path id="Path_18922" data-name="Path 18922" d="M13.72,2.483l-.111-.045.162.206Z" transform="translate(8.728 8.447)" fill="rgba(226,225,225,0.98)"/>
      <path id="Path_18923" data-name="Path 18923" d="M14.614,2.775c-.229-.1-.516-.153-.745-.248C14.385,2.68,14.614,2.947,14.614,2.775Z" transform="translate(13.442 10.059)" fill="rgba(226,225,225,0.98)"/>
    </g>
  </g>
  <g id="Group_2642" data-name="Group 2642" transform="translate(419.6 1637.638) rotate(-165)" opacity="0.5">
    <path id="Path_12650" data-name="Path 12650" d="M38.616,100.838a2.285,2.285,0,0,1-.9-.586,6.756,6.756,0,0,1-1.777-1.621.976.976,0,0,0-.566.2,6.811,6.811,0,0,1,.605.351c.2.137.312.293.2.469s-.82-.547-1.054-.41c.137-.566.547.449.547-.2-.176-.176-.351-.156-.508-.215.254,0,.137-.371.2-.488a15.953,15.953,0,0,1-.879-1.836h0l-.273-.43h-.918c-.254-.332,0-.508-.41-.722,0,.722,0-.156-.41,0-.254-.273.1-.234,0-.469a.488.488,0,0,0-.293,0,.293.293,0,0,0,0,.254c-.1-.137,0-.215,0-.254a1.145,1.145,0,0,1,.547-.312.859.859,0,0,0,.488-.215,4.4,4.4,0,0,0-.41-.469L32.68,94h.156a4.452,4.452,0,0,0-.43-.43,5.643,5.643,0,0,0-.937,1.269c-.2.176,0-.391,0-.527s-.234-.332-.41-.332h-.137c0-.137-.469-.215-.566-.137s.547-.547.488-.8a1.25,1.25,0,0,0-1.152,0,.546.546,0,0,0-.156,0h0v.1a.742.742,0,0,0-.176.352h1.054c0,.371-.918,0-1.035.488h-.156l-.254-.137h-.117c.117,0,.43,0,.351-.254s-.156,0-.371-.293c.254-.215.644-.547,1.113-.879l.215-.137h-.1l-.8-.2a4.277,4.277,0,0,0-.762,1.094c-.351-.117-.2-.9,0-1.054a.861.861,0,0,0-.781.527c-.176.293-.351.527-.683.527l.273.137c-.156,0-.781,0-.683.156-.176-.2-.41-.625-.293-.8l-.234.449a2.5,2.5,0,0,0-.2.43s-.176-.7-.176-.82-.2.84,0,.9a9.2,9.2,0,0,1-1.015-.41c-.137,0,.293.605.41.625a.7.7,0,0,1-.605.312h0c-.2,0-.332,0-.312.469l-.566-.762-.117-.547a2.537,2.537,0,0,1,.293.312l.293.312h0c.254-.352-.1-.859-.508-1.23l-.254.137a3.028,3.028,0,0,0,0,.43,5.154,5.154,0,0,0,0,.781,2.754,2.754,0,0,0,0,.351l-.371-.722a1.552,1.552,0,0,1-.332.957l-.43.527-.351.43h-.293a1.677,1.677,0,0,0-.137.2.43.43,0,0,0,0,.215v-.2c-.566.215.566.723,0,1.074.2-.43,0-.586-.215-.644a1.191,1.191,0,0,1,0,.371v.351h0c0,.215.1.351.43.351-.176.137-.1.332-.43.273l.176.371a2.577,2.577,0,0,0,.215.351.2.2,0,0,0-.312.137,1.486,1.486,0,0,0-.2-.586c-.078-.176-.117-.391.117-.469a1.375,1.375,0,0,1-.937-.215,2.3,2.3,0,0,0,1.445,1.855,2.285,2.285,0,0,0,0,.391,2.245,2.245,0,0,0,0,.391l-.039-.1-.371.332c.137,0,.234,0,.176.117h-.137a.215.215,0,0,0,.234,0,.391.391,0,0,0,.1,0l-.137.137a1.66,1.66,0,0,1-.859.156h0c.488.254,1.035.41,1.133,0v-.352a1,1,0,0,1,0,.352v.527c.683.156.586.117,1.25.312,0,.137-.312.137-.312.312.351,0,.43.254.547.508s.176.547.332.351a.789.789,0,0,1,.605-.293.39.39,0,0,0,0,.156.7.7,0,0,0,.215,0l.176-.117c0,.156-.312.137-.1.371h.683a1.035,1.035,0,0,1,.527.117c.273,0,.215-.176.176-.332s-.1-.312,0-.254,0,.605.391.644a.43.43,0,0,0,.1-.156l.488-1.289.644,4.1a.957.957,0,0,1,0,.508l-.234-.352c-.215.2-.332.43-.547.176a.415.415,0,0,1-.332.43c-.156.469.82.391,1,.469-.527,0-.566.371-1.113.2a.723.723,0,0,1,0-.176l.1-.176c-.957.254,0,.957-1,.683.2-.215.254-.605,0-.644v.254a.332.332,0,0,1-.156.2s.2-.2,0-.137a2.675,2.675,0,0,0,0,.664v0h0s-.1.176-.176.351l-.176.312s0-.215-.137,0v.254a2.208,2.208,0,0,0,0,.273c0-.2-.215-.117-.371,0-.43.527.625.859,0,1.113v-.156l-.254.156c.391.2.293.508.215.84s0,.664.332.762c-.43.234-.234,0-.547-.508l-.332.293c0-.156.1-.254,0-.43-.488.391-.1.937.117,1.191-.137.156-.664-.215-.547.312s.254.312.391.254.312-.137.371,0l-.254.117-.234.156a1.054,1.054,0,0,1,.176.469h0a2.48,2.48,0,0,0,0,.664l.176.117h0c.137,0,.254-.156.332,0H24.01c0,.527.742.762.762,1.113-.117,0-.156.312-.234.41l.293.2.293.2c-.254-.156-.469,0-.722,0,.137.176.293.176.43.273s-.273,0-.293.117l.391.176.391.117v-.176a.772.772,0,0,1,.43.683.761.761,0,0,0-.234,0c0-.332-.2-.254-.43-.215.371.351,0,.137,0,.449a.43.43,0,0,0,.722-.117c.215.312.273.488.742.488l-.254.254.351.117h-.488c.469.644.449-.43,1.015.176l-.156.273c.351,0,.644-.41.722,0,.332,0-.254-.586.351-.41a.859.859,0,0,0,.156.293l.215.215c.176,0,0-.312,0-.371a.625.625,0,0,1,.332.2,4.665,4.665,0,0,1,.254.41,1.152,1.152,0,0,0,.273.41,1.424,1.424,0,0,0,.43,0c-.156-.117,0-.273,0-.391v-.176l-.254.488h0c.215-.176.586.547.918.176l-.117.2-.117.215a.625.625,0,0,0,.351-.2v.332a.527.527,0,0,1,.625-.234c.2,0,.371,0,.43-.371,0,.293,0,.254.293,0s.137-.137.254,0c-.273.508-1.054.234-1.054.742.215.156.351-.137.566,0s.156-.117,0,0h0a1.016,1.016,0,0,0-.332.391c.722.176.957-.527,1.25-.781l-.605.312c0-.527.273-.176.332-.605.371.137.469-.312.7-.234h0c.605-.312,1.211.312,1.5.156s.566-.683.254-.742c.1-.234-.683.7-.742-.1a.431.431,0,0,0,.664-.215,1.23,1.23,0,0,1,.254-.391.859.859,0,0,1,.488-.312c0,.488.508.117.41.527a.7.7,0,0,0,.1-.762h.273a1.445,1.445,0,0,0-.234-.586,1.582,1.582,0,0,1,0-.605c0,.312.449-.137.527.117a.566.566,0,0,0,0-.586h0a2.324,2.324,0,0,1,0-.527h0v-.117h0a1.054,1.054,0,0,0,0-.82h-.137a2.753,2.753,0,0,1,0-1.152,5.039,5.039,0,0,1,.176-.683,3.475,3.475,0,0,1,.43-.781,5.1,5.1,0,0,1,.547-.605,2.851,2.851,0,0,1,.683-.43,9.936,9.936,0,0,1,1.211-.527h-.586c.2,0,1.015-.508,1.465-.312h-.312a.605.605,0,0,0,.566.391v-.273h0v.1c.43,0-.176-.352.273-.371.332.7,1.953,0,2.343.527.254-.547-.84,0-.547-.508a1,1,0,0,0,.508.176l-.137-.312a13.941,13.941,0,0,0,3.085.117h0c.43.1.644,0,.8-.254.117.137-.176.215,0,.351.664-.879,1.543.449,1.953-.156a1.386,1.386,0,0,0,.41.781h.508c0-.332,0-.586-.293-.605l-.293.137a3.007,3.007,0,0,0,0-1.23,2.773,2.773,0,0,1,0-1.25h0c-.1-.742.312-1.152-.215-1.523v-1.7c0-.117-.137-.566,0-.683-.215,0-.254-.566-.254-1.152v-1.289l-2.695.117H44.571a5.656,5.656,0,0,0-.742,0,.722.722,0,0,0,0,.2c-.117,0,0-.254,0-.254h0l-.391.156v.449h-.8a15.407,15.407,0,0,1-2.3-.254s-.234.137-.371.2S39.143,101.092,38.616,100.838Zm-14.079,11.13a.586.586,0,0,1,0,.176C24.146,112.144,24.478,112.066,24.537,111.968Zm.41-2.87-.371-.117h.41Zm2.324-2.851c.117,0,.176-.117.273,0h-.273ZM27.9,93.281c-.391-.215,0,.351-.488.215-.117-.43,0-.371.273-.527s0,0,.156-.1l-.156.1C27.544,93.105,28.013,93.125,27.9,93.281Zm8.162,6.971c-.469-.469.156,0,.273-.176.293.391-.156.137-.273.176Zm1.23.644.215-.351v.332Zm4.882.644h.137l-.43-.117Z" transform="translate(681.775 1353.823)" fill="#e8e9e9"/>
    <path id="Path_12651" data-name="Path 12651" d="M93.683,102.356c.137-.234.293-.469.41-.7a8.005,8.005,0,0,1,.43-.9,6.7,6.7,0,0,0,.332-2.226.859.859,0,0,0-.566-.156,2.85,2.85,0,0,1,.254.547c0,.2,0,.371-.215.391-.1-.312-.234-.781-.488-.781.469-.312.137.508.527.117a.605.605,0,0,0-.234-.351c.2,0,.293-.2.391-.273s0-.605,0-.918a3.221,3.221,0,0,0-.2-.918h0a4.133,4.133,0,0,0-.215-.41h-.254a.742.742,0,0,0-.644.2c-.234-.273,0-.449-.391-.625,0,.664,0-.117-.371.156-.273-.2,0-.234,0-.41a.43.43,0,0,0-.293.176.39.39,0,0,0,0,.156v-.234c0-.351.7-.371.937-.7l-.449-.371v.137h0l.117-.137A4.889,4.889,0,0,0,92.3,93.8a5.858,5.858,0,0,0-.7,1.425c-.176.2,0-.41-.2-.508-.137-.566-.683,0-.9-.293l.332-.117s-.527-.2-.644,0c0-.156.527-.625.43-.859a1.035,1.035,0,0,0-.976.137,1.054,1.054,0,0,0-.469.7l.469-.137h.527c-.117.371-.742.156-.8.644L89,94.643l-.351-.117c.1,0,.41,0,.312-.293s-.176,0-.391-.254a12.072,12.072,0,0,1,1-.976l.176-.156-.859-.156h0a4.823,4.823,0,0,0-.566,1.054c-.312,0-.234-.859-.156-1.015a.566.566,0,0,0-.43.176,1.622,1.622,0,0,0-.234.41c-.137.293-.234.547-.527.586l.254.117c-.117.117-.644,0-.527.215s-.488-.566-.41-.742a2.87,2.87,0,0,0,0,.43,2.792,2.792,0,0,1,0,.469c0-.117-.351-.644-.371-.762s0,.9.2.879H85.13c0,.117.469.488.566.488a.586.586,0,0,1-.43.43h0c-.156,0-.293.137-.156.527l-.293-.469-.273-.488.351.215.371.215h0c.117-.391-.351-.762-.742-1.113a1.954,1.954,0,0,0-.293.293,3.125,3.125,0,0,0,0,.41c.156.547.332,1.074.332,1.074l-.527-.605c.351.41-.41,1.621-1.015,2.187h0c0-.234-.586.156-.664.508,0-.117,0-.137.117-.234-.371,0-.293.293-.293.566s0,.566-.391.547c.43-.293.351-.547.176-.664-.156.43-1.035.82-.508,1.23-.293,0-.469.254-.625,0l-.332.43-.351.41s0-.312-.293-.215c.566-.176.7-.976,1.172-.781-.215-.351-.488-.41-.488-.84a12.577,12.577,0,0,0-1.367,2.246H77.906v.2l-.2-.879c0,.137-.117.254-.137.215s0,0,0-.176a.937.937,0,0,0-.2.176v.137c-.117,0-.137,0,0-.137a1.484,1.484,0,0,1,0-.859h0c-.312.41-.7.879-.254,1.113l.391.1-.391-.1h-.586a3.515,3.515,0,0,1-1.113.937c0-.156.117-.332,0-.41-.469.586-1.386-.469-1.445,0-.41.156-.137.43-.391.547s0-.117,0-.117l-.293.371c-.156-.117.273-.254-.117-.391-.605.312-.957.508-1.484.371s.351.664-.273.625a.635.635,0,0,0-.605-.625c-.391-.02-.137.41-.488.547v-.43c-.332,0-.586.117-.605-.176a.508.508,0,0,1-.547,0c-.469.234.371.84.508,1.015-.488-.312-.82-.117-1.113-.605l.41-.137a.664.664,0,0,0-.605,0,.156.156,0,0,1,0,.234h0l-.2.273h.2c.566.293,0,1.562.8,1.621-.371.371-.215,0-.644-.469l-.254.391v-.469c-.391.527.1,1.035.332,1.328-.137.215-.683-.156-.527.43s.644-.156.762.332l-.469.371c.351.683,0,1.211,0,1.777a.449.449,0,0,0,0,.234h0c.117,0,.293,0,.254.254l-.293-.254h0a1.367,1.367,0,0,0,0,.84.918.918,0,0,0,.879,0l-.1.371h.43l-.371.43c.8.293.2-.605,1.074-.351v.312c.351,0,.508-.644.762-.234.351-.176-.547-.488.234-.508a1.543,1.543,0,0,0,.644.391c.234,0,0-.332-.254-.352,1.093,0,.625,1.133,1.679.8-.332-.254.351-.605-.508-.664.43-.156.781.527,1.23.215l-.312.391a1.233,1.233,0,0,0,.43-.156v.312c.566-.508.957.351,1.328-.351-.254.547.41,0,.605.234-.469.371-1.25-.117-1.367.41.2.176.391,0,.586,0h0a1.172,1.172,0,0,0-.41.293c.625.351,1.054-.215,1.484-.332H75.66c0-.508.332,0,.566-.449.332.312.644,0,.937.137h-.176c.781,0,.918.937,1.211.976a.82.82,0,0,0,.644-.117l.508.43h.273l-.176-.547h-.625c-.215,0-.859,0-.469-.508a.488.488,0,0,0,.508.332h.41l.547.82c.176.273.547.527.449,1.172-.41-.273-.332.391-.664.117a.82.82,0,0,0,.625.449l-.156.215c.742.293.488,0,1.152.508-.312-.137-.156.469-.41.371a.8.8,0,0,0,.488.43h0c.566.625.137.781.84,1.191v-.156a7.6,7.6,0,0,1,1.289.957l.742.547h.547L84.584,117h.547l.176.176H85.15a.527.527,0,0,0,.117.566l.176-.2v.215c.332.117,0-.371.371-.254,0,.371.332.508.723.605s.8.137.937.469c.273-.508-.683-.156-.371-.586a.709.709,0,0,0,.371.254v-.332a3.671,3.671,0,0,0,2.441.156v.1c.371,0,.527-.137.566-.43.117.117,0,.273,0,.351.117-.488.43-.469.742-.449s.644,0,.644-.312a1.211,1.211,0,0,0,.742.449,6.115,6.115,0,0,0,.605-.644c2.207-2.851.723-6.776-1.953-9.275h0a1.817,1.817,0,0,0-.7,0l-.371.254V108h0v-1l-.156-.1v.742a.2.2,0,0,0,0-.234v-.566a2.384,2.384,0,0,0-.371-.234,1.386,1.386,0,0,0,.293-.156h0v-.547h0v-.332a.312.312,0,0,1,.176,0V105.3h0v-.293l.351.137h0a2.736,2.736,0,0,1-.2-.312,1.474,1.474,0,0,1,.2.312,1.68,1.68,0,0,0,.312.352h0a.215.215,0,0,0,0-.156c.117,0,0,.137.117.2h0l.215-.332a.351.351,0,0,1,0,.117l.215-.156H91.2a2.484,2.484,0,0,1-.43,0,1.034,1.034,0,0,1,.43,0h.176a6.681,6.681,0,0,0,.957-.859l-.215.176H92l.332-.215a7.81,7.81,0,0,0,.84-.957v-.41A2.187,2.187,0,0,0,93.683,102.356Zm.215-1.621-.1-.234.391.156C94.074,100.677,94,100.657,93.9,100.735Zm.2-1.133c-.176.332-.176,0-.293,0,.02-.566.176-.059.293,0Zm-25.385,5.018v.488c-.371.039.117-.1.059-.488Zm1.152-1.953-.273-.234c.137,0,.215,0,.273.117Zm17.906-8.65c-.371-.2,0,.351-.41.234s0-.332.215-.566h0a.351.351,0,0,1-.117.1c.02.02.449.02.371.176Z" transform="translate(727.291 1354.395)" fill="#e8e9e9"/>
    <path id="Path_12652" data-name="Path 12652" d="M71.444,86.878h-4.12a.8.8,0,0,0-.332.566c.566-.156,1.718-.469,1.953,0-.547.156-1.543.273-1.582.527-.586-.469,1.054-.137.293-.527a1.582,1.582,0,0,0-.762.254c.273-.215-.332-.332-.469-.449-1.289,0-1.953-.2-3.4-.234h-.859c-.469.273-.84.644-.664.84-.8,0-.84-.2-1.5,0,1.074.43-.215,0-.332.391-.683,0-.234-.234-.566-.332s-.371.2-.391.332a1.113,1.113,0,0,0,.391.156c-.312,0-.41-.1-.391-.156-.371-.312.527-.762.43-1.152H57.97v.176h-.2v-.176H56.8a2.578,2.578,0,0,0,.449,1.582c0,.273-.644-.293-.957-.312-.879-.449-1.289.371-1.953.215l.508-.254a2.109,2.109,0,0,0-1.25.234c0-.137.449-.781.117-.937-1.289,0-2.324,1.074-2.128,1.523a.956.956,0,0,1,.273-.137l.586-.254.918-.371c0,.351-1.269.566-1.113,1a15.875,15.875,0,0,0-1.64.254c.2,0,.8-.352.508-.469-.7.2-.391,0-.918,0A18.619,18.619,0,0,0,51.526,87.7l.234-.234a13.044,13.044,0,0,0-1.562.391h0a6.854,6.854,0,0,0-.586,1.328c-.683.156-.722-.683-.605-.879-1.347.41-.859,1.523-2.089,1.953h.508a4,4,0,0,1-.722.371c-.273.137-.488.254-.41.312-.332,0-.8-.371-.605-.644l-.312.644a1.66,1.66,0,0,0-.215.41v.215c0-.176-.332-.644-.332-.781-.43.273-.273,1.093,0,1.015a10.273,10.273,0,0,1-1.621.254c-.176.234.449.508.644.43a2.128,2.128,0,0,1-.937.859h0a.8.8,0,0,0-.527.84l-.234-.781a6.014,6.014,0,0,1-.117-.625l.8.391h0c.41-.605-.117-1-.527-1.328l-.527.488a5.563,5.563,0,0,0,0,.566v1.465a8.046,8.046,0,0,0-.43-.7c.254.508-1.308,2.46-1.953,3.515l.117-.156c0-.312-.762.508-.762,1v-.371c-.762.566.254,1.347-.527,1.953.332-.683.234-.9,0-.957a5.858,5.858,0,0,1-.176.566,2.326,2.326,0,0,1-.2.625c-.059.2,0,.7.273.683-.273.312-.312.664-.625.527v1.582c0-.117-.2-.273-.371.156.332-.781,0-1.8.527-2.089-.371-.156-.7,0-.879-.43a3.613,3.613,0,0,0-.137,1.172,7.673,7.673,0,0,0,0,1.015,6.934,6.934,0,0,0,.488,1.679,2.109,2.109,0,0,0-.254.664c-.117.391-.215.762-.215.762h.176l-.488.234c0,.2.176.332.137.371s-.176,0-.176,0a.723.723,0,0,0,0,.391h.137c-.273,0-.527-.254-.762-.566v.137a3.5,3.5,0,0,0,.547,1.074.371.371,0,0,0,.254,0l.156-.215.117-.293v-.215h0v.254a.859.859,0,0,1,0,.156h0v.312a2.532,2.532,0,0,1-.137.449,9.764,9.764,0,0,1,.722,2.167c-.176,0-.293-.273-.43,0,.527.937-.625,2.285-.137,2.46.156.7.43.273.586.7h-.156l.391.488c-.1.234-.293-.449-.371.176s.351.879.469,1.23a3.1,3.1,0,0,1,.254,1.152c.371,1.133.547-.664.722.312a.879.879,0,0,0-.351,1.054c.293.273.488.137.781.625l-.859.43c.215.488.469.84.176.976a1.465,1.465,0,0,1,.488.84c.586.586.469-.918.605-1.133a2.7,2.7,0,0,0,.2.976,1.133,1.133,0,0,1,0,.84l-.43-.547a1.445,1.445,0,0,0,.664,1.172c.234.156.351.234.176.781-.254-.43-.8-.84-.82-.469l.605.508c0,.156-.312-.312-.234,0a4.416,4.416,0,0,0,.859.43h0l.9,1c-.156-.215-.312-.156-.156,0l.371.254.508.234.2.137-.254-.176c-.273-.117-.176.176,0,.508.742.9,1.328,0,1.679.82a.287.287,0,0,1-.234-.137,1.21,1.21,0,0,1,0,.215l.117.215c.312-.312.859,0,1.386.43s1.113.644,1.367.293c.332.644,0,.215-.976.137l.43.605a2.713,2.713,0,0,0-.7-.391,1.953,1.953,0,0,0,1.035.723,4.161,4.161,0,0,0,1.035,0c.254.254-.547.469.391.781,1.347.371,0-.7.84-.488l.351.664a8.827,8.827,0,0,1,2.6.8,1.152,1.152,0,0,0,.371,0h0c0-.137-.117-.312.371-.215l-.371.215h0a2.343,2.343,0,0,0,1.367,0h.625a1.758,1.758,0,0,1,.644,0c-.176,0,.43.312.508.43h.644l.683-.156c-.605.137-.586.391-.683.664a6.775,6.775,0,0,0,.937-.215c-.2,0-.391.2-.137.312l1.465-.449a1.093,1.093,0,0,0-.391,0,4.1,4.1,0,0,1,1.679,0,1.651,1.651,0,0,0-.273.312c-.449-.312-.683,0-.937.156,1.035,0,.273,0,.762.254s1-.371.82-.586a3.5,3.5,0,0,0,1.953,0l-.176.351.781-.117-.625.449c1.445.254.273-.625,1.953-.41v.312c.605-.117.82-.664,1.308-.273.605-.2-1.035-.469.371-.527a3.417,3.417,0,0,0,1.191.352c.469-.137-.332-.391-.625-.332,2.148-.156,1.328,1.094,3.241.683-.644-.234.547-.625-1-.625.723-.2,1.465.469,2.226.117l-.508.41a2.128,2.128,0,0,0,.742-.2v.332c.937-.566,1.757.254,2.343-.469-.41.566.7,0,1.074.176-.781.41-2.246,0-2.343.527.351.156.683-.117,1.035,0s.371-.1,0,0h0a2.675,2.675,0,0,0-.7.312c1.211.293,1.953-.312,2.636-.449l-1.308.117c.117-.527.605,0,.957-.488.644.273,1.152-.137,1.679,0h-.293c1.406,0,1.8.859,2.343.84s1.523-.293,1.152-.488c.41-.176-1.777.234-1.035-.469a1.113,1.113,0,0,0,1.269.117,6.012,6.012,0,0,1,.82-.234h.508a2.929,2.929,0,0,1,.586,0c-.664.43.508.352-.1.7a1.718,1.718,0,0,0,1.074-.664h.312c.84-.84.1-.527,1.465-1.308-.41.391.7,0,.391.41a2.519,2.519,0,0,0,1.015-.644h0c1.347-.84,1.328-.293,2.4-1.308H87.4c.351-.293.722-.644,1.113-1l.586-.488.586-.547a9.762,9.762,0,0,0,1.113-1.093,7.615,7.615,0,0,0,.937-1.191l-.43.391.351-.586a3.908,3.908,0,0,1,.332-.449,1.621,1.621,0,0,1,.391-.43h0a1.816,1.816,0,0,1-.176.391.975.975,0,0,0,.762-.312l-.117-.293h.273c.41-.586-.41,0,0-.625.391,0,.82-.625,1.172-1.347.176-.332.351-.7.527-1a1.582,1.582,0,0,1,.527-.625c-.156-.312-.293,0-.41.293s-.273.586-.371.273a1.738,1.738,0,0,0,.469-.644h-.352c.215-.469.41-.84.586-1.23l.43-1.133a6.854,6.854,0,0,0,.488-2.265h0c.2-.664.156-1.054-.117-1.367.176-.137.215.351.351,0a2.05,2.05,0,0,1,0-1.816c.156-.586.371-1.094,0-1.484a1.391,1.391,0,0,0,.84-.547v-2.578a5.659,5.659,0,0,0-.1-1.23A20.074,20.074,0,0,0,85.113,88.6a.7.7,0,0,0-.234,0h0l-.84-.312h0l-1-.312a.625.625,0,0,0-.332.156c-.176-.117.1-.234.1-.234h-.762v-.176l-1.465-.527h0a18.354,18.354,0,0,0-3.456-.312h-.488a3.144,3.144,0,0,0-.488.176C74.724,86.878,72.362,87.054,71.444,86.878ZM38.99,118.922c-.1-.234-.137-.352,0-.469h.137Zm3.573,5.858.117-.43h0Zm6.112-35.441a.722.722,0,0,1,.215-.2l-.215.2c-.137.2.644,0,.508.137-.781,0,0,.391-.82.527-.351-.215-.117-.254.312-.566Zm-3.749,14.313c.488,0,0,0,0,.215s-.02-.059,0-.117Zm1.66,15.875c-.1-.215.293,0,.293,0l-.293.1Zm.371.332.391-.156a.224.224,0,0,0-.215.156Zm.254,7.284c.215.137.508.176.722.312-.156.566-.215-.039-.723-.215Zm.469-8.182.137.137h-.234l.1-.039Zm.566,2.246Zm0-.449v0h0Zm.391.43-.293.176v-.117Zm-.273.586a.469.469,0,0,0,.2,0h-.215c.41-.254.683,0,.937-.254,0,.137-.293.215,0,.312s.312-.351.43-.43a.605.605,0,0,0,.391,0h0a.488.488,0,0,1,.234,0,2.225,2.225,0,0,0-.215.332h.254l.176-.2-.176.2a1.579,1.579,0,0,0,0,.176.605.605,0,0,0,.273.117h-.234a.469.469,0,0,1,0-.176h-.137c0,.234-.41,0-.215.254-.156,0-.312.137-.43,0,.234-.234.41-.176.683-.293,0,0-.137-.117-.117-.2h0v-.234h0a3.593,3.593,0,0,1-1.328.8c.059-.332-.234-.352-.43-.312Zm.7-.664h0c-.1,0-.215,0,0-.215s.43.156.078.312Zm0,0h0s.293.117.156.176Zm.859-.312v-.117H50.1Zm.43,0-.293.117h-.137Zm.547.742V121.3h.391c0,.273-.059.449-.234.508Zm.41.137h0Zm-.566.547h0l.215-.2a.566.566,0,0,1-.2.234Zm0,.234-.215.137v-.137h.215Zm-1.953-.391a.1.1,0,0,1,.2,0Zm.859.293h-.117l.137-.215h.234c.059.508-.117.625-.137.488ZM50,123.1h0c0,.156-.312.2-.312.2h0l.117-.1a.137.137,0,0,0,.117,0h.039a2.89,2.89,0,0,1,.488-.488.781.781,0,0,0-.332.664Zm.781-.293c-.254,0-.312.2-.508.273a3.321,3.321,0,0,0,.625,0Zm0,1.523v-.137c.1-.117,0,.117.117,0Zm0-1.133h0Zm.273-.82h0l.293-.254a.371.371,0,0,0-.156.254Zm.312.527c-.254.156-.137,0,0,0h.176s-.176.352-.059.273Zm-.156.332c.2,0,.2-.117.254-.234s.059.625-.137.508Zm0,.644c0,.176.312.176.469.254l-.332.215h0c.312-.059-.254.2.059-.2Zm.43-1.133h-.176c.1-.156.176-.234.312-.215s.137.41.137.488Zm.117.234h0s.254.312.156.273Zm0,1.484h-.2l.293-.117Zm1.015,0,.234-.2Zm-.918-29.7h.234c-.41,0,.117.234.137.312H51.6c0,.156.293.176.391.254-.1.41-.8.449-.644.918-.234,0-.41-.254-.547-.176.625.137,0,.488.508.586-.625-.2-.371.352-1.113,0-.137.117.273.293.351.293a.391.391,0,0,0,0,.547c-.254,0-.176.859-.859.742.449,0,.215,0,.351.273h.391l-.156.215h0a.391.391,0,0,0-.312,0c0,.156.117.234.254.391h0v.117s-.234-.41-.527-.234c0,0,.508.371.215.352,0-.137-.176-.215-.293-.215V99.3l.469.137c-.234.508-.762.937-.9,1.523-.41-.156-.156.391-.722.156h0c0-.176-.488,0-.449,0s.527.391.7.117l.215.312c1.133.469-.254.586,0,1.035h-.137c.293.391-.488.605-.312.722h-.332c.43.391.469.43.2.7a.332.332,0,0,0-.215,0c.215.137.43.273.332.469h-.1v.351c-1-.215.488.723-.605.605.273.117.312.41.43.547H48.07c.508.234-.234.351-.215.508s.293.117.469.1c-.449.117.391.625.2.664a3.333,3.333,0,0,1-.625,0c-.234,0,.918.117.469.332,0,0,0-.1-.234,0s-1.191,0-.976.156h.2c.234.234-.9.312-.215.449h.312c-.469.273,0,.156-.312.449h0c0,.156-.351.2.137.332h0a.664.664,0,0,1,0,.391s.117.137,0,.137c.41,0,.117.527.117.527a.549.549,0,0,0-.41,0c.332.117.371.176.1.273.547,0,1.094.117,1.113.352s-.039-.02-.176-.02H47.64c.508.2,0,.273.2.508h-.449c.605,0-.527.312.254.234-.488.449,0,1.152-.527,1.328s.137.254.137.254H47c.488.2.2.176.683.391a.742.742,0,0,0-.683,0l.547.137h-.41c.176,0,.117.156,0,.215h-.1c.566,0,.508.332.8.332-.547.137.156.2-.254.332H47.7c.234,0,.488-.117.391,0h.273c.293,0,0,0-.312.215l-.137.117h0s-.117.117,0,.156c-.469.332.742.43.137.82v-.117s-.332.547,0,.644h.273c.176.137.312.234.312.371h.332c0,.215.547.488-.1.781.273,0,0,.273.117.351h-.234c0,.176,0,.234.2.273h0c.215,0,.176.1,0,.254l-.117.176c-.234,0,0,0,.117-.215s-.117-.156-.117-.156c-.43.449.156.547.215.8h0l.273.176h.137c-.02,0,.117.176,0,.312v.156c-.234-.1-.351.156-.605.293H49.1c-.117,0-.254,0-.273.137s.254.2.566.137a1.112,1.112,0,0,0,.156-.156h.137c0,.137,0,0,.2,0-.351.312,0,.254-.488.605.488-.41.156.293.644,0-.371.312,0,0-.312.332,0-.2-.43-.156-.664-.176l-.2.234c-.527.156,0-.351-.137-.332.137,0,0,.2,0,.2l.351-.2c0-.234-.273-.234-.508-.273a.559.559,0,0,0-.508.137h0c-.117.1-.273,0-.41,0,.137-.41-.312-.879,0-1.093,0,.1,0,.176.176.2h.176s-.312.215-.117.352.605-.137.879-.391-.722,0-.859-.449c0,0,.508,0,.312-.215a2.363,2.363,0,0,0-1.484,0c.176,0,.566.2.215.371s-.371-.234-.625-.156c.43-.273.215.176.527-.117h-.273l.391-.234c.1-.059,0-.469,0-.742h0a1.015,1.015,0,0,1,.234,0,1.953,1.953,0,0,0-1.152,0c0-.176.156-.234,0-.332-.351.312,0,0-.391,0,0-.137.2,0,.293-.176a.84.84,0,0,0-.391,0,.393.393,0,0,0-.1,0l.156-.117c.293-.156.9,0,1.269-.234a3.339,3.339,0,0,0,.625-.527,10.894,10.894,0,0,0-2.4.566c-.254,0,.254-.273.254-.273.391-.273-.371-.234-.234-.41h.371a.7.7,0,0,0-.351-.215,3.905,3.905,0,0,0,.937-.117c0-.293-.82-.41-1.269-.332l.547.351c-.371,0-.43-.234-.859-.137v-.391a.273.273,0,0,0,.312,0c0-.156,0,0,.215-.234a12.592,12.592,0,0,0,2.343.293l-.293-.137h.215a10.153,10.153,0,0,0-2.187-.254c0-.156.859-.215,1.015-.2,0-.293-1.133-.156-1.074-.469l-.156.137v-.312a1.953,1.953,0,0,1,.84-.137l-.781-.2a6.19,6.19,0,0,0,.84,0c0-.117-.742-.117-.84,0a2.793,2.793,0,0,1,.722-.391,1.66,1.66,0,0,0-.742,0c-.2-.137-.117-.215,0-.293h0s.117-.117-.234-.215h1.054l-.82.117h0c.273.215,1.425,0,1.953,0l-.957-.176c-.488-.117-.976-.2-.976-.2h.8c-.586,0-.644-.605-.586-.879h0c.176,0,.351-.2.137-.273h0c.43-.2-.879-.254-.371-.449,0,.176.176.215.41.2-.215-.137,0-.469-.644-.41.137,0,0-.176.391-.156l-.391-.371h.332c0,.215.508.43,0,.527a3.046,3.046,0,0,1,.957,0c-.176-.371-.859-.605-1.328-.879l.312-.332H45.2a2.265,2.265,0,0,1,.781.176h0c-.293-.176-.664-.41-1-.293l.293-.176a2.148,2.148,0,0,1-.664-.566c.156,0,.293.1.41,0-.488-.254.683-.391.234-.488-.1-.176-.391-.117-.508-.234s.137,0,.156,0l-.312-.176c.117,0,.215.156.371,0l-.234-.332h0c0-.273-.683,0-.566-.215s.605,0,.683,0-.41-.137-.488-.293h.41c0-.137,0-.234.254-.176-.156-.117-.117-.2,0-.234a8.786,8.786,0,0,0-1.035,0c.332-.117.176-.273.7-.293v.176c.586-.234-.527-.43.332-.312a.664.664,0,0,0,.449.156l-.2-.215s0,.117.117,0l-.332-.215h0v-.312h.156l-.2-.254a.273.273,0,0,0,.332,0c.176-.234-.9-.391-.449-.508h.215c-.879-.2,0-.625-.84-.82.371,0,.2,0,.586.312l.293-.117a1.153,1.153,0,0,1,0,.215c.41-.137,0-.43-.234-.586.137,0,.644.2.547,0s-.664,0-.7-.293h.469c-.293-.332,0-.449.176-.644h-.137c-.137,0-.312,0-.254-.156l.273.156c.254-.176-.312-.586-.117-.7s.293,0,.41,0l-.2-.391c0,.176.332.234.586.332s-.117-.2-.156-.254a.39.39,0,0,0,.293,0l-.332-.43h0a.176.176,0,0,1,.137-.273l.273.137c-.312,0,0,.137,0,.234,0-.234.1,0,.293,0s-.273-.312-.508-.332c.137-.156.234-.176,0-.43l.332.137v-.2l.371.254c.332-.234-.586-.234-.273-.508h.312c0-.156-.586-.371-.2-.371-.137-.176-.488,0-.449-.234a.645.645,0,0,0,.41-.156c0-.117-.351,0-.351,0,0-.508,1.113,0,.859-.449-.273,0-.527-.332-.644,0-.117-.234.547-.137.273-.43l.351.254-.117-.215.293.117c-.469-.41.391-.273-.254-.644.508.293,0-.156.273-.156.293.312-.2.449.293.664.156,0,0-.176.117-.2h0l.254.273c.371-.137-.137-.488-.215-.7v.293c-.469-.215,0-.137-.371-.371.312,0,0-.273.176-.312h0c.1-.293.918,0,.976-.117a.321.321,0,0,0-.293-.43c-.293-.02,0,.43-.566,0,.781.176-.117-.469.547-.586.176.293.449.117.566.332,0-.176,0-.234-.254-.41h.254c-.391-.449-.43-.254-.508-.722,0,.2.371,0,.488.215s0-.215,0-.351h0c0-.371.41-.117.332-.547h-.137c-.156-.566.351-.9.43-1.386h-.2c.1,0,0-.391.234-.41h0c.137,0,.371.176.469.117l-.2-.176h.2c0-.137-.351-.137-.254-.273.664.293.449-.547,1.074-.332-.391-.371-.234.215-.566-.117a.352.352,0,0,0,.273,0l.2.117c.41-.332.742-.332.918-.722h0c.176,0,.176-.156,0-.352.156,0,.156.176.293.2-.527-.664.781-.117.41-.566.508.371,1.211.41,1.543.82v-.137c.332.254-.2.293.156.586h-.547c.117,0,.293.273.371.254v0s0,.137.176.176c-1.308.137-.879,1.386-1.777,1.836Zm-1.894,25.619h.117a.723.723,0,0,1-.156.117Zm-.254-.508s-.312.117-.254,0c-.254-.137.508-.137.254-.039Zm0,.117Zm-3.027-2.968.683-.1-.683.137Zm-1.953-1.953c.43-.1.351,0,.527,0-.137,0-.117.156-.293.137.2-.176-.371.059-.234-.176Zm-.234-8.162h0Zm.625-1.6ZM53.987,92.4h0l.293.293Zm.273.469Zm2.988,9.939v-.234C57.775,102.695,57.209,102.695,57.248,102.812Zm1.406,18.9c-.137-.254.176,0,.293,0s-.2.039-.293.059Zm.586.469h-.176l.391-.137a1.426,1.426,0,0,0-.215.293Zm.488-1.054.156.156h-.156s-.117-.078,0-.1Zm.84,2.675v-.1Zm.137-.547a.312.312,0,0,0-.137,0v-.234a.761.761,0,0,0,0,.234.312.312,0,0,1,.117,0l.02.059Zm0,.586h.254l-.273.2Zm.605,1.191c0-.117.156-.117.2,0Zm1.289-.82h0l-.137-.293h0c-.351.371-1.054.9-1.308.859.176-.273-.137-.332-.371-.215l.234-.117h-.234c.391-.273.7,0,.937-.273,0,.176-.273.254,0,.351s.293-.351.391-.469a.449.449,0,0,0,.41,0h0a.469.469,0,0,1,.351,0,1.269,1.269,0,0,0-.2.371l.293.176h0a.469.469,0,0,1,.137-.215l-.137.215v.2a.331.331,0,0,0,.254.117c.137-.02-.176.176-.176.176a.351.351,0,0,0,.137.1h-.1a.957.957,0,0,1,0-.332.176.176,0,0,0-.117,0c0,.254-.43,0-.215.273-.156,0-.312.117-.43,0,.215-.254.391-.176.664-.293a.371.371,0,0,1-.312-.547Zm-1.191-.508h0s-.234-.117,0-.254.43.156.078.312Zm.1.117v-.1s.176.1.176.156Zm.84-.312v-.137h.2Zm.488.117-.293.137h-.156Zm.605,1.738h0l.215-.215a.527.527,0,0,1-.176.254Zm0,.293-.215.137v-.156h0Zm.312,0a2.991,2.991,0,0,1,.293-.254.371.371,0,0,0-.137.273h-.078s-.156.117-.215,0Zm0-.722h0Zm-.234-.273a.234.234,0,0,0,0-.293h-.254a.508.508,0,0,1,.254,0,.664.664,0,0,1,.449,0c-.137.039-.176.234-.332.293Zm-1.269.84H62.11l.137-.234.273.137c-.039.117-.156.254-.2.1Zm.449.879h0c0,.2-.215.176-.293.176h0s.156,0,.176-.137-.117,0-.176,0a4.218,4.218,0,0,1,.488-.527,1.211,1.211,0,0,0-.117.488Zm.312,0c.1-.273.332-.215.527-.254-.2.117-.254.215-.449.254Zm.742,1.484v-.156c.1-.117.137.117.137.117Zm-.2-1.269Zm.43-.293h0Zm.293.117c.2.137,0,.391-.234.254.293-.02.273-.117.312-.254Zm.254-.254h-.2a.23.23,0,0,1,.312-.215c.156.039.039.137-.039.293Zm.156.273h0c-.215-.1-.156,0,0-.117a.137.137,0,0,0,.078.117Zm-.508.976c0,.176.371.215.547.293l-.312.215h0c.137-.332-.449-.137-.156-.508Zm.644.625h-.2l.273-.117Zm.9-.234h0v-.117h0a.235.235,0,0,0,.078.117Zm2.246-37.374-.586-.137a.563.563,0,0,0,.234.371h.117a.273.273,0,0,1-.117,0,.137.137,0,0,0,0,.234,1.152,1.152,0,0,0-.781,0,1.5,1.5,0,0,0-.527.371c-.312.371-.547.762-1.074.9a.938.938,0,0,0,.2.176c-.391-.137,0,.391,0,.391l-.586-.215c0,.2.332.332.332.332a4.453,4.453,0,0,1-.527.43c-.2.117-.371.254-.351.508s-.351-.293-.508-.215c.625.176,0,.566.391.683-.625-.254-.391.391-1.113-.117-.156.137.234.332.332.332a.469.469,0,0,0,0,.605c-.273,0-.273,1.015-.957.9.449,0,.2.117.293.312h.41l-.156.234a.137.137,0,0,1,0,.117.244.244,0,0,0-.312,0c-.137.137,0,.293.234.469h0v.137s-.215-.488-.43-.215.391.371.117.351c0-.137-.176-.234-.293-.234l-.117.215.469.117c-.156.293-.351.605-.547.9a3.9,3.9,0,0,0-.488.976c-.391-.137-.156.488-.742.234h0c0-.2-.469,0-.469.1s.527.43.722,0l.215.371c1.113.469-.293.7,0,1.23h-.137c.273.469-.508.781-.351.918h-.312c.43.43.449.469.117.8a.2.2,0,0,0-.156,0c.215.137.43.273.332.527h0v.43c-1.015-.156.488.82-.605.781.273.117.312.449.449.605s.117,0,0,0h-.137c.508.254-.234.469-.2.644s.293.117.469,0c-.449.176.41.683.215.762a1.68,1.68,0,0,1-.625,0c-.215,0,.918,0,.469.351h-.117c-.1.117-1.289.234-1.054.41h.2c.234.254-.9.488-.215.586h.332c-.469.391,0,.2-.293.586h0c0,.176-.351.254.156.391h0a1.953,1.953,0,0,1,0,.469s.1.156,0,.176c.41,0,.156.547.137.664,0-.2-.254-.137-.43,0,.351.117.391.2.137.332.508,0,1.074.117,1.093.41a.409.409,0,0,0-.234-.117c-.117,0,0,.117,0,.137a1.988,1.988,0,0,1-.371,0c.508.215,0,.332.2.644h-.449c.605,0-.527.371.254.293-.488.547,0,1.425-.566,1.64s.137.215.137.312h-.254c.469.273.176.215.664.527a.644.644,0,0,0-.7,0l.547.215h-.41c.156,0,.1.176,0,.293s-.117,0-.117,0c.566,0,.527.43.781.488-.547.117.156.254-.351.352a.293.293,0,0,1,.176.117h.7c.293,0,0,.117-.312.234l-.176.117h0s-.117.1,0,.176c-.469.351.7.664,0,1.054v-.156c0,.312-.371.625-.117.781h.293a.879.879,0,0,1,.254.527h.351c-.1.254.488.723-.176.957.137,0,.137,0,.1.2v.156H60.8c0,.215,0,.351.156.371h0c.215,0,.156,0,0,.215a.351.351,0,0,1-.117.137c-.234,0,0,0,.117-.2s0-.117,0-.117-.2.293,0,.41a.592.592,0,0,1,.312.371h0l.293.215c-.254,0,.137.1.137.1a.293.293,0,0,1,0,.371v.2c-.254-.117-.332.176-.586.312h.273c-.117.117-.254,0-.273.137s.293.254.605.176a.313.313,0,0,0,.156-.156h.332c-.332.371,0,.312-.41.7.449-.469.2.371.664,0-.351.332,0,0-.293.351,0-.234-.469-.2-.722-.254l-.176.293c-.508.137,0-.43-.176-.43.137,0,.1.2,0,.254l.351-.234c0-.273-.332-.293-.586-.352s-.293,0-.508.156v.215H60.06c0-.488-.43-1.054-.2-1.308,0,.117,0,.215.215.254v-.254c0,.137-.215.391,0,.547.215-.156.605-.156.879-.43s-.762,0-.937-.547c0,0,.508,0,.293-.234a2.167,2.167,0,0,0-1.523-.137c.2.117.625.293.234.469s-.371-.312-.625-.273c.41-.293.215.254.527,0,0-.117-.2-.117-.293-.156.215,0,.293-.176.391-.215v-.9h0a1.211,1.211,0,0,1,.312,0,1.7,1.7,0,0,0-1.152-.215c0-.2.176-.234,0-.41-.391.332,0,0-.391,0,0-.156.215,0,.254-.2a.7.7,0,0,0-.293,0h0a3.68,3.68,0,0,1,1.308,0,3.378,3.378,0,0,0,.683-.547,9.373,9.373,0,0,0-2.46.293c-.254,0,.273-.2.312-.273.391-.254-.371-.312-.234-.527l.273.137c.1,0,0-.312-.215-.351a6.773,6.773,0,0,1,.937,0c.176,0-.781-.605-1.23-.566l.508.488c-.371,0-.41-.332-.859-.293l.117-.43a.293.293,0,0,0,.332,0c0-.215,0-.117.215-.273a15.874,15.874,0,0,0,2.3.683l-.273-.215h.215a6.717,6.717,0,0,0-1.914-.957c0-.2.859-.156,1.035-.117,0-.371-1.152-.312-1.054-.683l-.156.137v-.352c.215,0,.7-.176.84,0l-.762-.312h.84c.117,0-.742-.215-.84-.117a2.441,2.441,0,0,1,.742-.41h-.742v-.351h0l-.312-.176,1.074.176H57.6c.293.273,1.445,0,1.953,0l-1.8-.547h.683c-.566,0-.644-.742-.547-1.074h0c.2,0,.332-.215.156-.332h0c.43-.215-.84-.312-.351-.527,0,.215.176.254.41.254-.215-.176,0-.566-.644-.508.137,0,0-.215.391-.176l-.371-.43h.312c0,.234.508.469,0,.586a3.006,3.006,0,0,1,.957,0c-.176-.449-.859-.723-1.328-1.035l.312-.391h.312s-.2,0,0-.117h-.273a.117.117,0,0,1,.156,0,3.047,3.047,0,0,1,.82.156h0c-.293-.2-.664-.43-1-.293l.293-.215a2.07,2.07,0,0,1-.683-.605h.43c-.508-.273.664-.527.2-.625,0-.2-.41,0-.527-.234h.312l-.332-.176c.137,0,.234.137.391,0-.234-.312-.391-.508-.2-.722s-.7,0-.605-.2.605,0,.664-.2-.391-.117-.488-.293h.41c0-.137,0-.273.254-.234-.176-.137-.137-.234,0-.273a8.679,8.679,0,0,0-1.035,0c.332-.176.176-.352.683-.449v.215c.586-.352-.547-.469.371-.547a.332.332,0,0,0,.391.293l-.176-.254c.1,0,0,.137.2,0l-.527.02h0v-.391h.137l-.137-.2h.312c.078,0-.918-.391-.469-.527h.215c-.9-.156,0-.762-.859-.937.391-.117.215,0,.605.332l.273-.156v.234c.41-.2,0-.508-.215-.683.137,0,.644.2.547-.117s-.644,0-.722-.293h.508c-.293-.371,0-.527.176-.781l-.117-.117h0c-.137,0-.293,0-.254-.156l.254.156h0c.254-.215-.332-.664-.137-.82s.332,0,.449,0l-.2-.449c0,.2.332.254.586.351s-.137-.215-.156-.293a.312.312,0,0,0,.293,0l-.332-.488h-.1s0-.351.254-.391a.6.6,0,0,0,.176,0c-.293,0,0,.176.1.293,0-.273,0,0,.293-.137s-.273-.332-.508-.351c.156-.2.254-.234,0-.508l.332.137v-.234l.391.273c.332-.273-.586-.234-.254-.586h.293c0-.2-.566-.41-.176-.41-.117-.215-.508.117-.449-.273a.957.957,0,0,0,.449-.2c0-.156-.391,0-.391,0,0-.605,1.172,0,.937-.586-.273,0-.547-.371-.664,0-.117-.254.566-.215.312-.527l.371.2a.781.781,0,0,1-.137-.176l.273.137c-.41-.449.43-.352-.2-.762.488.312,0-.2.312-.2.273.352-.254.547.215.781s0-.215.117-.332h0a.82.82,0,0,0,.215.312c.391-.176-.1-.586-.156-.82v.352c-.469-.215,0-.176-.351-.43.312,0,0-.332.2-.351.156-.351.976,0,1.054-.2a.339.339,0,0,0-.254-.488c-.254-.02,0,.508-.586,0,.781.176,0-.527.605-.7.156.312.449.117.547.371a.5.5,0,0,0-.176-.469h.234c-.312-.527-.391-.312-.41-.84,0,.215.391,0,.566.117a.723.723,0,0,0,0-.293h0c.117-.449.449-.156.449-.625h-.137a1.445,1.445,0,0,1,.332-.879,3.32,3.32,0,0,0,.527-.762H62.91c.117,0,0-.449.371-.43h0s.371.215.469.137l-.117.41.176.1c.156-.156-.312-.2-.156-.352.605.41.722-.566,1.289-.234-.254-.469-.332.215-.449-.215a.332.332,0,0,0,.215,0l-.234-.215a3.766,3.766,0,0,1,.762-.293,1.191,1.191,0,0,0,.625-.351h0c.215,0,.273-.117.215-.41a.859.859,0,0,1,.156.312c-.137-.859.859.176.742-.43.312.566.976.859,1.074,1.386v-.137c.351.43-.156.273,0,.683ZM62.11,122.808l.137.1h-.176l.176-.1Zm-.605-.586c-.273-.156.566-.156.234,0,.215-.117-.059.117-.059,0Zm.293,0Zm-3.085-3.749h.02ZM56.76,106.464h.1Zm.2,9.471c.449,0,.371,0,.527.117s-.137.176-.293.137c.293-.117-.273.078-.137-.156Zm.371-11.521Zm11.033-13.9v-.117l.2.156Zm0-.586H68.5l.137.391Zm.918-2.148c-.976,0,0-.176.156-.293.781.176.059.293-.078.391Zm1.953-.234v-.351a.722.722,0,0,0,.351.254ZM80.856,93.4s.117.254,0,.254.078-.176.176-.234Zm-.683,1.133v0Zm-4.14,2.812H75.9v-.156Zm-.566.312.156.117h-.176Zm-.234.683Zm-.117.117.176.176c.2.273-.254-.371.059-.156Zm1.7,29.74v-.176h0Zm.254,0,.332-.293v.117ZM78.883,96.6a.177.177,0,0,0-.156-.176c-.156-.02,0,.117,0,.156a4.1,4.1,0,0,1-.586-.43,1.231,1.231,0,0,0,.508.215h0c.176,0,.2.2.215.273h0Zm-.547-1.015c0,.254.215.312.293.488-.273.02-.254-.234-.293-.41Zm.41-.469v.43h0Zm1.074.332c0-.117.137,0,.137,0v.176Zm.2-.9.117.391v-.1c-.234,0-.137.527-.469.176.117.117.2-.215.351-.391Zm-.625-7.576h.215l-.7-.176Zm-.547,8.084c0-.2,0-.2-.215-.234.176-.117.391.176.215.312Zm-.137-.644h0s0,.156-.156,0h.1c-.1-.02.059.078.059.078Zm-.215.605v.1c.137.254,0,.137,0,0h0c-.078-.117,0-.02,0-.02Zm-.332-.469a.254.254,0,0,1,.215,0v.215c-.176,0-.273-.078-.215-.137Zm0,29.29h0a1.954,1.954,0,0,0-.351.332h.254l-.156.117c0,.117.293-.2.351,0-.605.391.2.566-.312.976.508-.176,0-.273.41-.41,0,0-.137.156-.117.234l.254-.156c0,.43-.1.683.137.957h0c0,.2,0,.215.312.117a1.484,1.484,0,0,1-.293.176c.781-.254-.176.781.351.566-.527.351-.8.976-1.289,1.172h.117c-.351.215-.2-.273-.586,0l.156-.508-.351.254a.341.341,0,0,0-.234.137,1.367,1.367,0,0,0-.312-1.386,1.953,1.953,0,0,1-.547-1.211l-.2.156c.312-.312-.254,0-.332,0l.43-.449a.761.761,0,0,0-.43.156c-.293-.351,0-.937-.351-1.133.156-.176.449-.137.469-.293-.488.391-.41-.293-.762,0,.566-.332,0-.527.82-.742,0-.176-.449,0-.449,0a.451.451,0,0,0-.371-.43c.156-.156-.449-.8.156-1.152-.391.215-.234,0-.43,0l-.351.176v-.391s.215,0,.273-.117-.215-.137-.43-.176h0V120.7s.43.215.469,0c0,0-.547,0-.273-.2s.254,0,.371,0v-.215l-.469.176a16.25,16.25,0,0,0,0-1.953c.41,0,0-.43.605-.449h0c0,.156.508,0,.41-.2s-.644-.176-.7.156l-.312-.215c-1.23,0,0-.664-.391-.976H73.4c-.41-.312.273-.742,0-.82h.332c-.527-.254-.566-.293-.332-.625a.156.156,0,0,0,.156,0c-.234,0-.488-.137-.43-.371H73.4v-.371c1.015,0-.644-.586.469-.7-.312,0-.391-.332-.527-.449H73.4c-.547-.137.156-.391,0-.547s-.293,0-.469,0c.43-.2-.488-.547-.293-.605a2.091,2.091,0,0,1,.605,0c0-.2-.918,0-.508-.254h.156c0-.117,1.23-.273,1.015-.391h-.2c-.254-.215.84-.449.156-.488h-.312c.43-.312-.117-.137.254-.469h0c0-.137.351-.215-.176-.293h0a1.386,1.386,0,0,1,0-.391s-.117,0,0-.117c-.43,0-.2-.449-.176-.527s.254,0,.43,0c-.332-.117-.391-.176-.117-.293-.527,0-1.094,0-1.113-.312a.41.41,0,0,0,.234,0c.1,0,0-.117,0-.117h.371c-.488-.176,0-.273-.176-.508h.43c-.586,0,.566-.312-.234-.254.508-.43.117-1.172.625-1.328s0-.176,0-.254h.254c-.449-.293-.156-.2-.605-.527a.761.761,0,0,0,.7,0l-.527-.254h.41c-.137,0,0-.176,0-.254h.117c-.547-.117-.449-.43-.7-.527.547,0-.1-.254.41-.234l-.176-.117H73.1c-.293,0,.1,0,.371-.156h.176s.137,0,0-.176c.508-.156-.547-.722.176-.9v.137s.508-.391.312-.605h-.273a.82.82,0,0,1,0-.527l-.469-.176c.176-.215-.2-.8.527-.781-.234-.137.176-.234.137-.371h.371a1.7,1.7,0,0,0,0-.254h0c-.156-.156,0-.215.137-.312h.215c.2.117,0,0-.293.215a.721.721,0,0,0,0,.156c.644-.156.273-.625.43-.879h0v-.371c.176.2-.117-.117,0-.176s0-.254.254-.273l.117-.156c0,.273.332.156.605.312l-.176-.234c.156,0,.176.2.254.137s0-.352-.254-.605h-.137a.231.231,0,0,0-.117-.176c.508,0,.293-.156.82,0-.625-.2.215-.332-.332-.566.469.156,0,0,.469,0-.215,0,0,.488.117.7h.312c.391.371-.332.156-.215.332,0-.117,0-.156.176,0l-.351-.2c-.254,0,0,.391,0,.605s.137.254.43.332v-.117c.137,0,.215.2.273.293-.41.117-.449.723-.781.683.117,0,0-.156,0-.254h-.176s.371,0,.332-.137a3.065,3.065,0,0,0-.879-.43c-.508.156.449.586.2.9,0,0-.351-.254-.312,0a1.953,1.953,0,0,0,1.113.976c-.137-.156-.332-.508,0-.352s.137.371.391.469c-.488,0,0-.234-.488-.254l.2.234a.586.586,0,0,0-.449,0c-.117.215-.351.293-.488.527h-.273a2.343,2.343,0,0,0,1,.605c0,.156-.254,0-.156.254.469,0,0,0,.351.156,0,.137-.234,0-.312,0a1.191,1.191,0,0,0,.254.137h0a7.54,7.54,0,0,0-1.23-.43,3.9,3.9,0,0,0-.82.2,14.918,14.918,0,0,0,2.4.586h-.351c-.449,0,.273.312,0,.41l-.215-.156s0,.215.137.273c-.156,0-.722-.254-.918-.254s.625.644,1.054.723l-.371-.469c.371,0,.312.351.742.43l-.176.293a.273.273,0,0,0-.293-.2c0,.156-.1,0-.273.137-.449-.254-1.562-.82-2.089-1.054l.2.234h-.215a6.912,6.912,0,0,0,1.953.937,1.5,1.5,0,0,1-1.035-.137c0,.273,1.054.469.918.7h.176s-.137.273,0,.273a2.381,2.381,0,0,1-.859,0l.664.293H75.31a3.823,3.823,0,0,0,.82.215,6.5,6.5,0,0,1-.781.2,2.441,2.441,0,0,0,.762,0,.156.156,0,0,1,0,.254h0s-.137,0,.215.215l-.976-.605h.82c-.234-.234-1.406-.215-1.953-.312l.918.332.918.332-.781-.117a.605.605,0,0,1,.488.859h0c-.2,0-.351.117-.176.234h0c-.43.137.84.273.332.41,0-.137-.156-.2-.391-.2.2.137,0,.43.625.391-.137,0,0,.156-.391.137l.312.293h-.254c-.039,0-.508-.371,0-.469a3.9,3.9,0,0,1-.976,0c.2.371.879.586,1.347.82l-.312.273h-.02a.313.313,0,0,1-.176,0,2.714,2.714,0,0,1-.781-.117h0a1.25,1.25,0,0,0,1,.234l-.273.156a2.206,2.206,0,0,1,.7.469H75.9c.527.215-.625.449-.156.508,0,.137.391,0,.527.176h-.156l.332.137c-.117,0-.234-.137-.391,0,.254.234.43.352.254.527s.683,0,.605.117-.605,0-.644.2.41,0,.527.176h-.43c0,.117,0,.2-.234.2.2.1,0,.2,0,.2a3.189,3.189,0,0,0,1.035-.137c-.312.156-.137.273-.644.352l-.117-.137c-.527.312.605.312-.293.43a.485.485,0,0,0-.43-.176l.215.176h-.215l.449.2h0l.1.234h-.176l.234.176a.254.254,0,0,0-.312,0c-.137.254.957.176.527.371h-.2c.918,0,.1.547,1.015.547-.351.156-.234,0-.664-.137h-.273c-.391.2,0,.351.351.449-.137,0-.7,0-.527.176s.644-.1.762,0l-.449.156c.351.2,0,.371,0,.566a.332.332,0,0,0,.137,0h0c-.2.2.488.371.332.527a1.113,1.113,0,0,0-.391.137l.312.234a1.309,1.309,0,0,0-.664,0s.176.117.215.156a.742.742,0,0,0-.293,0l.508.234h0s.215.2,0,.312h-.312c.293-.117,0-.137-.176-.156s0,0-.234.156.391.176.605,0c-.1.176-.156.234.137.351H76.13l.137.137H75.8c-.215.312.644,0,.469.312h-.312c.137,0,.664,0,.312.215.215,0,.41-.254.527,0a.625.625,0,0,0-.312.273c.137,0,.352-.117.312-.176.215.371-1.054.41-.586.723.215-.176.625,0,.586-.293.2,0-.43.352,0,.43h-.566c.566,0-.215.391.527.351-.566,0,0,.137-.137.234s0-.41-.605-.332c-.137.1.137.1,0,.234h-.351c-.234.293.371.293.527.391l-.156-.215h.527c-.254.156.176.156,0,.293h0c0,.254-.742.644-.742.644s.273.254.469.117-.215-.312.488-.332c-.742.352.332.254,0,.683-.293,0-.391.215-.644.137.117.137.234.117.469.117l-.234.117a1.706,1.706,0,0,1,.859.117c-.215,0-.312.234-.488.2s.1.156.254.176h0c.234.254-.2.332.156.508h.137c.488.215.43.722.742,1.015v-.117s.351,0,.2.273-.117.254-.156.254ZM77.028,98.985h-.156v-.1a.382.382,0,0,0,.059.117Zm-.117-.9h0s0,.215-.215,0-.176-.234.117.02Zm0-.117h0s-.156-.078-.039.02Zm-.234.8Zm.625-.137-.176-.2.293.156Zm0,.273h0Zm-.176,2.148c0,.176-.156,0-.254-.137s.215-.059.293.059Zm-.41-.625h.254l.117.137Zm-.586.234h-.156v-.176c.137-.039.137.039.2.1Zm-.469,2.148h0l-.644-.215Zm1.152,2.3c-.449,0-.351,0-.488-.2s.156-.1.312,0c-.234,0,.371-.02.176.117Zm0,6.932h-.1Zm-.332,1.523Zm.449,1.191h0c-.332.059.176-.02.078-.078Zm1.094-17.574H77.77l.117-.176s.156.117,0,.156Zm-.156.8h0l-.117-.156Zm.156-1.953h-.156v-.254l.234.2Zm-.254-.664v.156s.117.156,0,.234v-.234a1.467,1.467,0,0,1-.293-.254c-.039-.078.293.02.371.039Zm-.215.508h0L77.3,95.7a.449.449,0,0,1,.332.117Zm-.527-.215V95.8l-.137-.371Zm-.566,0c0,.137.234.117.332.293-.2,0-.273,0-.273.137a1.95,1.95,0,0,1,0,.273.586.586,0,0,1,0-.273c.02-.215-.039-.391.02-.488Zm.215,1.289v-.312h.176a.312.312,0,0,0,0-.273.244.244,0,0,1,.215.137v-.156a.624.624,0,0,1,0-.176h0a1.584,1.584,0,0,0,0,.176h0l-.215.117a.468.468,0,0,0,0,.137c.254,0,.2.371.332.1,0,.176.2.273.117.43-.293-.137-.293-.332-.469-.566a.23.23,0,0,1-.2.215h0l-.215.215h0a3.125,3.125,0,0,1,1.269.918c-.312,0-.215.176,0,.351l-.215-.176v.234c-.41-.254-.351-.586-.644-.723.156,0,.312.176.312,0s-.41-.137-.566-.2a.527.527,0,0,0-.215-.351h0a.527.527,0,0,1,0-.234.6.6,0,0,0,.391.137Zm-.391.2v.156l-.137-.352Z" transform="translate(696.456 1348.784)" fill="#997151"/>
    <path id="Path_12653" data-name="Path 12653" d="M98.93,115.753c.215-1.035.41-2.07.664-3.124-.215.566-.234.176-.234-.234,0,.273-.312,0-.469,0l.449-1.64c-.449-.312,0-1.777-.449-1.953v.527c-.273-.371-.586,0-.9.312s-.566.586-.84.547c.273.391,0,.9,0,1.484a2.05,2.05,0,0,0,0,1.816c-.137.254-.176-.234-.351,0,.273.312.312.7.117,1.367h0a6.854,6.854,0,0,1-.488,2.265L96,118.252c-.176.391-.371.762-.586,1.23h.351a1.738,1.738,0,0,1-.469.644c0,.312.254,0,.371-.273s.254-.605.41-.293a1.582,1.582,0,0,0-.527.625c-.176.293-.351.664-.527,1-.351.723-.781,1.367-1.172,1.347-.391.586.43,0,0,.625H93.58l.117.293c-.293.351-.625.41-.762.312a1.817,1.817,0,0,0,.176-.391,1.387,1.387,0,0,0-.352.391,3.905,3.905,0,0,0-.332.449c-.2.312-.449.644-.449.644l.527-.449a7.616,7.616,0,0,1-.937,1.191,9.761,9.761,0,0,1-1.113,1.094l-.586.547-.586.488c-.391.351-.762.7-1.113,1h.215c-1.074,1.015-1.054.469-2.4,1.308h0a2.519,2.519,0,0,1-1.015.644c.312-.312-.8,0-.391-.41-1.367.781-.625.469-1.465,1.308H82.8a1.718,1.718,0,0,1-1.074.664c.605-.352-.566-.273.1-.7a2.929,2.929,0,0,0-.586,0h-.508a6.016,6.016,0,0,0-.82.234,1.113,1.113,0,0,1-1.269-.117c-.742.7,1.445.293,1.035.469.371.2-.605.547-1.152.488s-.937-.84-2.343-.84h.293c-.527-.176-1.035.234-1.679,0-.351.41-.84,0-.957.488l1.308-.117c-.742.137-1.425.742-2.636.449a2.674,2.674,0,0,1,.7-.312c-.351-.176-.683,0-1.035,0,.1-.527,1.562-.117,2.343-.527-.371-.215-1.484.391-1.074-.176-.586.722-1.406,0-2.343.469v-.332a2.129,2.129,0,0,1-.742.2l.508-.41c-.762.351-1.5-.312-2.226-.117,1.543,0,.351.391,1,.625-1.953.41-1.094-.84-3.241-.683.293,0,1.094.2.625.332a3.417,3.417,0,0,1-1.191-.352c-1.406,0,.234.332-.371.527-.488-.391-.7.156-1.308.273v-.312c-1.6-.215-.43.664-1.953.41l.625-.449-.781.117.176-.351a3.5,3.5,0,0,1-1.953,0c.176.215-.117.566-.82.586s.273-.312-.762-.254c.254-.2.488-.469.937-.156,0-.117.234-.215.273-.312a4.1,4.1,0,0,0-1.679,0,1.093,1.093,0,0,1,.391,0l-1.465.449c-.254-.117,0-.215.137-.312a6.775,6.775,0,0,1-.937.215c0-.273,0-.527.683-.664l-.683.156H55.7c0-.117-.683-.332-.508-.43a1.758,1.758,0,0,0-.644,0H53.92a2.949,2.949,0,0,1-1.425,0h-.312a8.826,8.826,0,0,0-2.6-.8l-.351-.664c-.8-.215.508.859-.84.488-.937-.312-.137-.527-.391-.781a4.159,4.159,0,0,1-1.035,0,1.953,1.953,0,0,1-1.035-.722,2.715,2.715,0,0,1,.7.391l-.43-.605c.918,0,1.308.508.976-.137-.254.351-.82,0-1.367-.293s-1.074-.742-1.386-.43l-.117-.215a1.211,1.211,0,0,0,0-.215c0,.1.137,0,.234.137-.351-.9-.937,0-1.679-.82-.215-.332-.312-.625,0-.508l-.391-.234-.371-.254c-.156-.215,0-.273.156,0l-.9-1h0a4.412,4.412,0,0,1-.859-.43c0-.371.176,0,.234,0l-.605-.508c0-.371.566,0,.82.469.176-.547,0-.625-.176-.781a1.445,1.445,0,0,1-.664-1.172l.43.547a1.133,1.133,0,0,0,0-.84,2.7,2.7,0,0,1-.2-.976c-.137.215,0,1.718-.605,1.133a1.465,1.465,0,0,0-.488-.84c.293-.137,0-.488-.176-.976l.41-.117c-.293-.488-.488-.351-.781-.625a.879.879,0,0,1,.449-1.464c-.176-.976-.351.82-.722-.312a3.1,3.1,0,0,0-.254-1.152q-.176-.527-.469-1.23c0-.625.273,0,.371-.176l-.391-.488c0-.117.1,0,.156,0-.156-.43-.43,0-.586-.7-.488-.176.664-1.523.137-2.46.137-.234.254,0,.43,0a9.764,9.764,0,0,0-.722-2.167.983.983,0,0,1,.137-.449c.137-.234,0-.215,0-.312h0a1.6,1.6,0,0,1-.234.215l-.273-.176a4.159,4.159,0,0,1-.449-.976h0l-.176.293a.839.839,0,0,0-.117.176.527.527,0,0,0,0-.176h0a3.282,3.282,0,0,0,0-.391h0v-.234a1.953,1.953,0,0,1,0-.351c0-.156.215,0,.371.2v-.215a.391.391,0,0,1,.215-.215c.137,0,.273.156.41.351L36.7,107c.234.312.488.605.762.566a.312.312,0,0,1,0-.312.1.1,0,0,0,.117,0,.71.71,0,0,0-.137-.371l.488-.234h-.176a1.748,1.748,0,0,1,.215-.762,2.382,2.382,0,0,1,.254-.683,16.769,16.769,0,0,1-.488-1.66,7.672,7.672,0,0,1,0-1.015,3.612,3.612,0,0,1,.137-1.172c.176.527.508.273.879.43-.586.293-.2,1.308-.527,2.089.176-.43.332-.273.371-.156v-1.582c.312.137.351-.215.625-.527-.351,0-.351-.273-.273-.683a2.353,2.353,0,0,1,.2-.625,5.862,5.862,0,0,0,.176-.566c.234,0,.332.273,0,.957.781-.547-.234-1.328.527-1.953,0,.176-.176.273,0,.371,0-.488.742-1.308.762-1l-.117.156c.664-1.054,2.226-3.007,2.05-3.476,0,0,.312.547.351.664a14.61,14.61,0,0,0,0-1.465,5.561,5.561,0,0,1,0-.566l.137-.918a1.327,1.327,0,0,0,.391.43c.41.332.937.723.527,1.328a2.128,2.128,0,0,0,.937-.859c-.2,0-.82-.2-.644-.43a10.269,10.269,0,0,0,1.621-.254c-.312,0-.469-.742,0-1.015,0,.137.43.605.332.781v-.215a1.66,1.66,0,0,1,.215-.41l.312-.644c-.2.273.273.586.605.644a1.275,1.275,0,0,1,.41-.312,4,4,0,0,0,.722-.371h-.508c1.23-.449.742-1.562,2.089-1.953-.117.2,0,1.035.605.879a6.853,6.853,0,0,1,.586-1.328l.1-.117A3.241,3.241,0,0,1,52.671,87.4l.273.176.937-.391a14.526,14.526,0,0,1-1.035,1.133l-.234.234a18.607,18.607,0,0,1-1.328,1.465c.527,0,.215.215.918,0,.293.117-.312.391-.508.469a15.881,15.881,0,0,1,1.64-.254c-.156-.43,1.191-.644,1.113-1l-.918.371-.586.254a.957.957,0,0,0-.273.137c-.2-.449.84-1.445,2.128-1.523.332.156-.156.8-.117.937a2.109,2.109,0,0,1,1.25-.234l-.508.254c.683.156,1.094-.664,1.953-.215.312,0,.9.586.957.312a2.578,2.578,0,0,1-.449-1.582,1.523,1.523,0,0,1,.2-.9,11.364,11.364,0,0,1,1.953.742.273.273,0,0,1,.117.156c0,.391-.8.84-.43,1.152,0-.137.293-.293.391-.332s-.117.391.566.332c.117-.449,1.406,0,.332-.391a6.425,6.425,0,0,1,1.5,0c-.176-.2.2-.566.664-.84a2.246,2.246,0,0,1,.722-.293s0,.215.137.293h0c1.386,0,2.109.234,3.4.234.137.117.742.234.469.449a1.582,1.582,0,0,1,.762-.254c.762.391-.879,0-.293.527,0-.254,1.035-.371,1.582-.527-.156-.391-1.308,0-1.953,0a.8.8,0,0,1,.332-.566,4.218,4.218,0,0,1,1.953-.82c1.074-.156.469.351.664.273,1.953,0,1.7-.976,3.359-.566.664.351,0,.7.176.957-.859.137-1.328-.215-1.953-.215l.722.176a2.167,2.167,0,0,1-1.172.1.86.86,0,0,0,.293,0c.918.176,3.281,0,4.628.273l.566-.273v-.117h-.488c-.449-.273.937-.391.293-.527l.508-.156.605-.137a3.476,3.476,0,0,1,1.269,0l.137.41c0-.117-.586-.254-.859-.156a1.7,1.7,0,0,1,.9.2.848.848,0,0,0,1,0h-.762c.351,0,.762-.156,1.211-.215a2.4,2.4,0,0,1,1.289.117c-.293-.469-.176,0-.722-.586.449.644-2.343-.371-1.5.371a1.66,1.66,0,0,0-.449-.332,1.679,1.679,0,0,0-.41-.137,2.382,2.382,0,0,1-.957-.371c0,.156.273.293-.41.176l-.176.117h0a.8.8,0,0,1,.332.234,1.113,1.113,0,0,1-.371.156h-.586a5.486,5.486,0,0,0-.918.176c-.391,0,.176-.156,0-.293l-.547.234c0-.293-1.074-.488-.117-.664h-.879a2.91,2.91,0,0,0-1.621,0c-.43,0-1.035.312-.683,0l-1.347.176h0a12.615,12.615,0,0,1-4.276,0,5.487,5.487,0,0,1-1.679,0l-.137-.254c-.586,0-1.738-.254-1.953,0-.625-.7-2.812-.176-3.905-.293v.332a16.929,16.929,0,0,0-2.246.215v.312a4.335,4.335,0,0,1-1.445,0,7.127,7.127,0,0,0-1.836,0c0-.137.391-.156.644-.1a3.71,3.71,0,0,0-2.343.254,4.8,4.8,0,0,1-2.148.625,1.23,1.23,0,0,1-.781.254h-.137a7.44,7.44,0,0,0-.957.488l-.293-.215h0c-.41,0-.234.254,0,.391a1.953,1.953,0,0,0-.391.391c-.488-.312-.84.566-1.445.312,0,.351-1.406,1.054-1.445,1.64a2.343,2.343,0,0,0-.957.762l-.41-.215s-.1.234-.2.508l-.156.508c-.586.2-.879.254-.644-.371a8.963,8.963,0,0,0-1.054,2.265l-.176-.215a3.769,3.769,0,0,0-.371.625c-.117.215-.215.43-.391.469a2.792,2.792,0,0,0-.859.762,9.763,9.763,0,0,0-1.035,1.484c-.722,1.133-1.367,2.5-1.953,3.554.449,0,.273.156,0,.43s-.449.664-.176.8c-.215,0-.41.391-.449,0a8.007,8.007,0,0,1-.41,1.465,1.953,1.953,0,0,0,0,1.269c-.215.137-.215-.293-.351-.176s0,.43,0,.547-.117-.2-.176-.41a2.578,2.578,0,0,0,0,.781h0a1.055,1.055,0,0,0,.254.43h0a1.7,1.7,0,0,0,.664.293h0a1.113,1.113,0,0,0,0,1.269h0l-.273.254-.156.039v-.156h0v1.445c0,.312,0,1.133.254,1.152-.117.117,0,.566,0,.683v1.7c.527.371.117.781.215,1.523h0a2.773,2.773,0,0,0,0,1.25,3.007,3.007,0,0,1,0,1.23l.293-.137c.273,0,.312.273.293.7a1.23,1.23,0,0,0,0,.215v.683a1.953,1.953,0,0,0,.176.9v-.41c.156.234,0,.664,0,1.113a3.125,3.125,0,0,0-.234,1.211c0,.137-.156-.156-.254-.293.156,1.543.449,0,.957,1.015-.117.273-.625,0-.351.7a1.211,1.211,0,0,0,.234.449l.605.644a5.859,5.859,0,0,1,.605.762,1.835,1.835,0,0,1,.391.781c0-.293,0-.547.43-.2s.742,2.089,1.6,2.285v.2c.254.156.625.488,1,.762a2.148,2.148,0,0,0,.976.469.879.879,0,0,0,.332.84,4.783,4.783,0,0,0,1.074.664c.742.43,1.484.664,1.211,1.094l.8.469.82.41h0a2.421,2.421,0,0,0,1.953.449c.215.176,0,.2,0,.234a4.433,4.433,0,0,0,1.621.664,4.315,4.315,0,0,0,1.6,0v.351a10.238,10.238,0,0,1,1.562.41,10.5,10.5,0,0,0,1.289.293,8.045,8.045,0,0,0,1.191,0h-.156a4.274,4.274,0,0,1,.7,0h.781l1.465.215c.937.137,1.718.137,1.953-.449l1.172-.293c-1.5,0,.234-.527-.391-.723.605,0,1.543.351.82.43h-.117c-.273.644,1.953.234,1.836.644,3.007,0,5.858.332,8.729.351l-.332-.488h.976c.254,0,.351.371-.351.351.371.273,1.172-.234,1.211-.351,1.347.215-.547.586-.137.605H74.5a1.953,1.953,0,0,1,1.347-.391c.508,0,.254.293.469.352a1.035,1.035,0,0,0,.332,0h1.23l-.488-.391c.527-.176,1.172,0,.586-.41a2.167,2.167,0,0,0,1.133.273h.8l.859-.117a10.877,10.877,0,0,0,1.6-.273,3.9,3.9,0,0,1,.937-.137,5.858,5.858,0,0,1,1.094-.566c.391-.176.82-.273,1.289-.469-.254,0-.547-.332.234-.586,0,.469.41.41.918.273a2.968,2.968,0,0,1,1.543-.312c-.391,0,.156-.332.605-.683s.84-.664.273-.664c.625-.312.215.254.8.137a14.1,14.1,0,0,1,2.148-1.738,13.1,13.1,0,0,0,1.191-.976,7.46,7.46,0,0,0,1.054-1.152s-.43,0-.273-.391l1.152-.508c.2-.371-.332-.7.43-1.094-.137,0-.351,0-.234-.176a14.04,14.04,0,0,0,2.773-5.585s0-.2,0-.293l.293-1.152A15,15,0,0,1,98.93,115.753ZM74.306,86.4h0C73.8,86.306,73.975,86.306,74.306,86.4ZM44.547,90.8v.117S44.411,90.914,44.547,90.8Zm-7.342,14.7a1.7,1.7,0,0,1-.117.683A1.445,1.445,0,0,1,37.205,105.5Zm2.675,15.739c.156.137.527.391.43.605-.527-.02-.449-.254-.527-.605Zm36.574,12.849h-.2c.332-.176.215-.1.1,0Z" transform="translate(695.546 1347.716)" fill="#a8866a"/>
    <path id="Path_12654" data-name="Path 12654" d="M49.492,90.8a4.374,4.374,0,0,1-.371-.254h.547c-.351-.293.176-.332-.156-.586V90.1c-.332-.41-1.035-.449-1.543-.82.371.449-.937-.1-.41.566-.137,0-.137-.156-.293-.2.2.2.2.293,0,.351h0c-.176.391-.508.391-.918.722l.293.117a.351.351,0,0,1-.273,0c.332.332.176-.254.566.117-.625-.215-.41.625-1.074.332-.1.137.332.137.254.273h-.2l.2.176a.923.923,0,0,1-.469-.117h0c-.273,0-.137.371-.234.371h.2c0,.488-.586.82-.43,1.386h.137c0,.43-.273.176-.332.547h0c0,.137.117.273,0,.351a.39.39,0,0,1-.488-.215c0,.469.117.273.508.723h-.254c.176.176.254.234.254.41-.117-.215-.391,0-.566-.332-.664.117.234.762-.547.586.547.43.469-.156.566,0s.41.332.293.43-.879-.176-.976.117h0c-.2,0,.137.293-.176.312.351.234,0,.156.371.371v-.293c0,.215.586.566.137.644l-.273-.605c-.176,0,0,.176-.117.2-.488-.215,0-.351-.293-.664-.234,0,.234.449-.273.156.644.371-.215.234.254.644h-.254v.176l-.215-.391c.273.293-.391.2-.273.43.117-.332.371,0,.644,0,.254.527-.859,0-.9.371h.391a.644.644,0,0,1-.41.156c0,.312.312,0,.449.234-.391,0,.117.215.2.371h-.312c-.312.273.605.273.273.508l-.371-.254v.2l-.293-.059c.215.254.117.273,0,.43.234,0,.566.176.508.332s-.254-.156-.293,0c-.176,0-.391-.215-.176-.273h-.176c-.254,0-.156.352-.156.352h0l.332.43a.391.391,0,0,1-.293,0s.156.137.156.254-.508-.156-.586-.332l.2.391h-.41c-.078,0,.371.527.176.723h0c-.117.2-.469.312-.176.644h-.469c0,.215.605,0,.7.293s-.41,0-.547,0c.215.156.644.449.137.488,0,0,.1,0,0-.117l-.293.117c-.391-.273-.215-.391-.586-.312.879.2,0,.625.84.82H41c-.449.117.625.273.449.508a.273.273,0,0,1-.332,0l.2.254h-.156v.312h0l.41.273h-.2l.2.215a.449.449,0,0,1-.391-.254c-.918,0,.2.176-.391.41v-.176c-.527,0-.371.176-.7.293.156,0,.84-.215,1.035,0s-.117.117,0,.234c-.312,0-.254,0-.254.176h-.41c0,.156.293.176.488.293s-.41.1-.683,0,.547,0,.566.215a.527.527,0,0,0,0,.137h0v.137l.2.234c-.156.117-.254,0-.371,0l.312.176H40.8c-.039,0,.41,0,.508.234.449.1-.722.234-.234.488h-.41a2.148,2.148,0,0,0,.664.566l-.293.176c.332-.117.7.117,1,.293h.351l.215.254a.878.878,0,0,1-.351,0h0a.957.957,0,0,1-.644,0h.273a2.265,2.265,0,0,0-.781-.176h-.019l-.312.332c.469.273,1.152.508,1.328.879a3.047,3.047,0,0,0-.957,0c.43,0-.176-.312,0-.527,0,.117-.254,0-.332,0l.391.371c-.332,0-.254,0-.391.156.664,0,.43.273.644.41-.234,0-.469,0-.41-.2-.508.2.8.254.371.449h0c.215,0,0,.332-.137.273h0c0,.273,0,.879.586.879h-.8a2.953,2.953,0,0,1,.976.2l.957.176c-.488,0-1.64.234-1.953,0a.2.2,0,0,0,0,.293,1.66,1.66,0,0,1,.742,0,2.793,2.793,0,0,0-.722.391h.84a6.192,6.192,0,0,1-.84,0l.781.2a1.953,1.953,0,0,0-.84.137c.137,0,0,.234,0,.312l.156-.137c0,.312,1.074.176,1.074.469-.156,0-.937,0-1.015.2a10.155,10.155,0,0,1,2.187.254h-.215l.293.137a12.594,12.594,0,0,1-2.343-.293c-.156.137-.254,0-.215.234s-.332,0-.332,0v.449c.43-.1.488.215.859.137l-.547-.351c.449,0,1.308,0,1.269.332a3.906,3.906,0,0,1-.937.117c.176,0,.234.273.234.273h-.254c-.137.176.625.137.234.469,0,0-.508.254-.254.215a10.893,10.893,0,0,1,2.4-.566,3.339,3.339,0,0,1-.625.527c-.371.2-.976,0-1.269.234a.859.859,0,0,1,.332,0s-.371,0-.293.176c.449,0,0,.312.391,0,.156,0,0,.156,0,.332a1.953,1.953,0,0,1,1.152,0,1.4,1.4,0,0,0-.293.137c0,.273-.117.488,0,.742s-.176.234-.312.254.176,0,.2,0c-.312.293-.1-.156-.527.117a.865.865,0,0,1,.625.156c.2.156,0-.293-.215-.371a2.363,2.363,0,0,1,1.484,0c.2.156-.215.215-.215.215,0,.43,1.035,0,.762.449s-.644.254-.879.391,0-.469,0-.469l-.117.215c-.117,0-.254,0-.176-.2-.273.215.176.683,0,1.094h.41c.215-.2.43,0,.508-.137s.586,0,.508.273l-.234.137V118.8c.2,0-.391.488.137.332l.2-.234c.234,0,.7,0,.664.176.312-.254,0,0,.312-.332-.488.351-.156-.352-.644,0,.449-.352.137-.293.488-.605-.117,0-.215.137-.2,0h-.273c-.312,0-.391-.137-.566-.137s.156,0,.273-.137h-.254c.254-.137.371-.391.605-.293v-.156c.117-.137.137-.293,0-.312s-.371,0-.137,0l-.273-.176h0c0-.254-.644-.351-.215-.8,0,0-.215-.117-.176-.293h.234c-.117,0,.156-.391-.117-.352.644-.293,0-.566.1-.781H44.63c0-.137-.137-.234-.312-.371l-.488-.215c-.273,0,.137-.41,0-.644s.1,0,0,.117c.605-.391-.605-.488-.137-.82-.137,0,0-.1,0-.156h0l.137-.117h-.156a.449.449,0,0,0-.137-.117h.332c0-.1-.156,0-.391,0h-.2c.488-.117-.215-.176.332-.312-.293,0-.234-.332-.8-.332h.117s.117-.176,0-.254h.41l-.547-.137a.742.742,0,0,1,.683,0c-.488-.215-.2-.2-.683-.391h.254s-.351-.117-.137-.176,0-.879.527-1.328c-.781,0,.351-.2-.254-.234h.449c-.156-.234.312-.312-.2-.508H44a3.391,3.391,0,0,0-1.113-.351c.273,0,.234-.156-.1-.273h.43a.243.243,0,0,0-.137-.449c.1,0,0,0,0-.137a.664.664,0,0,0,0-.391h0c-.488-.137,0-.176-.137-.332h0c.41-.293-.156-.176.312-.449H42.95c-.683-.137.449-.215.215-.449h-.2c-.215-.156,1.074-.254,1.074-.254l.137.1c.449-.215-.41-.1-.469-.332s.547.156.625,0-.644-.547-.2-.664a.728.728,0,0,1-.469-.1c-.117-.1.722-.273.215-.508a.293.293,0,0,1,.137,0c-.117-.137-.156-.43-.43-.547,1.093.117-.391-.82.605-.605V102.4h.1c0-.2-.117-.332-.332-.469a.332.332,0,0,1,.215,0c.273-.273.234-.312-.2-.7h.332c-.176-.117.605-.332.351-.723h0c-.273-.449,1.113-.566,0-1.035l-.215-.312c-.176.273-.469-.176-.7-.117s.43-.215.449,0h0c.566.234.312-.312.722-.156.137-.586.664-1.015.9-1.523l-.469-.137v-.156c.117,0,.371,0,.293.215.293,0-.117-.312-.215-.351.293-.176.488.293.527.234v-.117h0c-.137-.156-.332-.234-.254-.391s.371,0,.371,0h0l.156-.215H45.84c-.137-.176,0-.2-.351-.273.683.117.605-.742.859-.742a.391.391,0,0,1,0-.547s-.488-.176-.351-.293c.742.449.488,0,1.113,0-.43,0,.117-.449-.508-.586.137,0,.312.156.547.176-.156-.469.547-.508.644-.918a.367.367,0,0,1-.391-.254h.625s-.547-.391-.137-.312a.938.938,0,0,1-.234-.156c.9-.371.469-1.621,1.816-1.718C49.414,90.94,49.453,90.862,49.492,90.8Zm-8.26,13.552s-.254-.2,0-.2S41.349,104.355,41.232,104.355Zm.293,3.71c-.117,0,0-.1,0-.156Zm3.554,9.08h0C45.137,117.008,45.1,117.067,45.079,117.145Zm1.054-20.464h0c-.137-.137,0,0,0,0Z" transform="translate(700.639 1351.146)" fill="#a8866a"/>
    <path id="Path_12655" data-name="Path 12655" d="M57.778,89.086c-.1-.527-.762-.82-1.074-1.386.117.605-.879-.43-.879.371v-.254c0,.293,0,.391-.215.41h0a1.191,1.191,0,0,1-.625.351,3.771,3.771,0,0,0-.762.293l.234.215a.566.566,0,0,1-.293,0c.2.449.273-.234.527.234-.566-.332-.683.644-1.289.234-.156.156.312.2.156.351l-.293-.176.137.215a.675.675,0,0,1-.469-.137c-.137-.137,0-.137,0-.137-.293,0-.254.43-.371.43H52.8a3.319,3.319,0,0,1-.527.762,1.445,1.445,0,0,0-.332.879h.137c0,.469-.332.176-.449.625h0a.605.605,0,0,1,0,.391c-.1-.2-.391,0-.488-.215,0,.527,0,.312.41.84h-.234c.137.176.234.254.176.469-.1-.254-.391,0-.547-.371-.683.176.176.879-.605.7.508.488.508-.2.586,0s.371.391.254.488-.9-.156-1.054.2c-.215,0,0,.351-.215.391.332.254-.117.215.351.43v-.351c0,.234.547.644.156.82a.82.82,0,0,1-.215-.312c-.2,0,0,.215-.176.254s0-.43-.215-.781c-.254,0,.176.508-.312.2.625.41-.215.312.2.762l-.273-.137.1.254-.156-.508c.254.312-.43.273-.312.527.117-.41.391,0,.664,0,.234.605-.879,0-.937.488,0,0,.293-.117.391,0a.956.956,0,0,1-.449.2c0,.391.332,0,.449.273-.391,0,0,.215.176.41H49.05c-.332.351.586.312.254.586l-.391-.273v.234l-.351-.273c.2.273,0,.312,0,.508.234,0,.547.176.508.351s-.254-.137-.293.137c-.176-.117-.391-.254-.1-.293a1.347,1.347,0,0,1-.254-.137c-.273,0-.156.332-.176.43h.1l.332.488a.312.312,0,0,1-.293,0s.156.176.156.293-.508-.156-.586-.351l.2.449c-.117,0-.371.1-.449,0s.391.605.137.82l.117.117c-.117.254-.469.41-.176.781h-.508c0,.254.625-.117.722.293s-.41,0-.547.117c.2.176.625.488.215.683V102.5l-.273.156c-.391-.312-.215-.449-.605-.332.879.176,0,.781.859.937h-.215c-.469.2.625.293.449.586s-.234.156-.312,0l.176.293H47.6v.391h0l.43.293h-.2l.176.254c-.234,0-.449-.156-.391-.293-.918,0,.215.2-.371.547v-.215c-.508.1-.351.273-.683.449.176,0,.84-.351,1.035,0s-.117.137,0,.273c-.332,0-.254,0-.254.234h-.41c0,.176.312.176.488.293s-.391.176-.664.2.547-.137.605.2,0,.41.2.722c-.156.137-.254,0-.391,0l.332.176h-.176c.117.137.43,0,.527.234.469,0-.7.351-.312.683a.586.586,0,0,0-.312,0,2.07,2.07,0,0,0,.683.605l-.293.215a.926.926,0,0,1,1,.293l.371-.137.215.312a.586.586,0,0,1-.351,0c-.176.117-.41,0-.644,0h.273a2.266,2.266,0,0,0-.8-.176H47.41l-.312.391c.469.312,1.152.586,1.328,1.035a3.008,3.008,0,0,0-.957,0c.43-.117-.176-.351,0-.586,0,.117-.254,0-.312,0l.371.43c-.332,0-.254,0-.391.176.664,0,.43.332.644.508-.234,0-.469,0-.41-.254-.488.215.781.312.351.469h0s0,.41-.156.332h0c-.1.332,0,1.015.547,1.074h-.8l1.953.586a7.233,7.233,0,0,1-1.953,0s-.137.176,0,.273.644,0,.683,0a2.441,2.441,0,0,0-.742.41c.1,0,.859,0,.84.117s-.742,0-.84,0l.762.312c-.137-.1-.625,0-.84,0,.137,0,0,.273,0,.351l.156-.137c-.1.371,1.074.312,1.054.683-.176,0-.957,0-1.035.117a6.717,6.717,0,0,1,2.148.566h-.215l.273.215a15.876,15.876,0,0,1-2.3-.683c-.156.156-.254,0-.215.273s-.332-.156-.332-.156l-.117.488c.449,0,.488.351.859.293l-.508-.488c.449,0,1.289.234,1.23.566s-.8,0-.937,0,.312.312.215.351l-.273-.137c-.137.215.625.273.234.527,0,0-.566.293-.312.273a9.374,9.374,0,0,1,2.46-.293,3.378,3.378,0,0,1-.683.547,3.68,3.68,0,0,1-1.308,0,.938.938,0,0,1,.351,0s-.391,0-.312.176c.449,0,0,.371.391,0,.137.176,0,.215,0,.41a1.7,1.7,0,0,1,1.152.215,1.211,1.211,0,0,0-.312,0c0,.371-.156.586,0,.918,0,0-.176.254-.391.215,0,0,.254,0,.293.156-.312.312-.117-.234-.527,0,.254,0,.43.2.625.273s0-.351-.234-.469a2.167,2.167,0,0,1,1.523.137c.215.2-.215.234-.215.234,0,.508,1.074,0,.859.547s-.664.273-.879.43c-.215-.156,0-.41,0-.547v.254c-.137,0-.273-.137-.215-.254-.234.254.273.82.2,1.308a1.367,1.367,0,0,0,.391,0l-.1-.1c.215-.215.469,0,.508-.156s.625,0,.586.351l-.351.234c.117,0,.156-.254,0-.254.2,0-.332.566.176.43l.176-.293c.254,0,.742,0,.722.254.312-.273,0,0,.293-.351-.469.371-.215-.469-.664,0,.41-.391,0-.332.41-.7-.117,0-.2.176-.215,0h-.117a.313.313,0,0,1-.156.156c-.312,0-.41-.156-.605-.176s.156,0,.273-.137h-.469c.254-.137.332-.43.586-.312v-.2a.41.41,0,0,0,0-.488h-.176l-.293-.215h0c0-.117-.2-.234-.312-.371s-.117-.215,0-.41c-.117,0-.215-.156-.156-.371h.234V119.1s0-.176-.1-.2c.664-.234,0-.7.176-.957h-.351a.879.879,0,0,0-.254-.527h-.293c-.254-.156.176-.469.117-.781.117,0,0,0,0,.156.625-.391-.547-.7,0-1.054-.117,0,0-.117,0-.176h0l.176-.117h-.176a.371.371,0,0,0-.117-.234h-.1a.293.293,0,0,0-.176-.117c.508,0-.2-.234.351-.352-.254,0-.215-.449-.7-.488h0s.117-.2,0-.293h.41l-.547-.215a.644.644,0,0,1,.7,0c-.488-.312-.2-.254-.664-.527h.293s-.351-.254-.137-.312,0-1.093.566-1.64c-.781,0,.351-.254-.254-.293h.449c-.156-.312.312-.43-.2-.644h.371c.1,0-.137,0,0-.137s.156,0,.234.117c0-.293-.586-.351-1.094-.41.254-.137.215-.215-.137-.332.176,0,.371-.117.43,0,0-.117.273-.625-.137-.664.1,0,0-.156,0-.176a1.953,1.953,0,0,0,0-.469h0c-.508-.137,0-.215-.156-.391h0c.391-.391-.176-.2.293-.586h-.234c-.683-.1.449-.332.215-.586h-.2c-.234-.176.957-.293,1.054-.41h.117c.449-.293-.41,0-.469-.351s.566.117.625,0-.664-.586-.215-.762h-.469c-.117,0,.7-.391.2-.644h.137c-.137-.156-.176-.488-.449-.605,1.094,0-.41-.937.605-.781v-.43h0c.1-.254-.117-.391-.332-.527a.332.332,0,0,1,.215,0c.273-.351.254-.391-.176-.82h.312c-.156-.137.625-.449.391-.9h.1c-.273-.527,1.133-.762,0-1.23l-.215-.371c-.2.351-.469-.176-.722,0s.469-.293.469-.1h0c.586.254.351-.371.742-.234a3.9,3.9,0,0,1,.488-.976c.2-.293.391-.605.547-.9l-.469-.117.117-.215c.117,0,.371.1.293.234.273,0-.2-.391-.2-.391s.469.332.508.254v-.137h0c-.137-.176-.332-.273-.234-.469a.605.605,0,0,1,.371,0h0l.156-.234h-.41c-.1-.2.156-.234-.293-.312.683.117.683-.9.957-.9a.469.469,0,0,1,0-.605s-.488-.2-.332-.332c.722.508.488-.137,1.113.117-.43-.117.234-.508-.391-.683.156,0,.273.2.508.215s.137-.391.351-.508.43-.215.449-.508a.41.41,0,0,1-.254-.254l.605.1s-.449-.41,0-.273c0,0-.215-.117-.2-.176.527-.137.762-.527,1.074-.9a1.5,1.5,0,0,1,.527-.371,1.152,1.152,0,0,1,.781,0c-.234-.117-.156-.176,0-.234s-.156-.254-.234-.371l.586.137c-.156-.41.351-.254.176-.625ZM47.41,105.352s-.254-.2,0-.215S47.507,105.274,47.41,105.352Zm.43,4.413c-.117,0,0-.117,0-.176S47.917,109.765,47.839,109.765Zm3.183,11.15h0c.039-.176.02-.117,0-.02Zm-.351-1.953Zm1.953-23.139h0c-.2-.215-.059-.078-.059-.078Z" transform="translate(706.821 1349.641)" fill="#a8866a"/>
    <path id="Path_12656" data-name="Path 12656" d="M59.948,118.276v.176c-.312-.293-.254-.8-.742-1.015H59.07c-.351-.176,0-.254-.156-.508h0c-.156,0-.254,0-.254-.176s.273-.234.488-.2c-.371-.2-.273,0-.859-.117l.234-.117c-.234,0-.351,0-.469-.117.254,0,.351-.2.644-.137.43-.43-.644-.332,0-.683-.7,0-.312.371-.488.332a.312.312,0,0,1-.488-.234s.82-.273.762-.527h0c.156-.137-.273-.137,0-.293-.41,0,0-.176-.527,0l.156.215c-.156-.1-.762-.1-.527-.391h.351c.137,0-.137,0,0-.2.527,0,.176.273.605.332s-.43-.2.137-.234c-.742,0,0-.273-.527-.351h.312l-.215-.117h.43c-.391,0,.234-.332,0-.43,0,.273-.371.117-.586.293-.469-.312.8-.351.586-.722,0,0-.176.234-.312.176a.625.625,0,0,1,.312-.273c-.117-.254-.312,0-.527,0,.351-.156-.176-.117-.312-.215h.312c.176-.332-.683,0-.469-.312h.469l-.137-.137h.371c-.293-.117-.234-.176-.137-.351h-.605c-.02,0,.293,0,.234-.156s.469,0,.176.156h.312c.215-.117,0-.234,0-.312h0l-.449-.254a.741.741,0,0,1,.293,0,.224.224,0,0,1-.215-.156,1.308,1.308,0,0,1,.664,0l-.2-.273s.176-.117.273,0-.527-.332-.391-.547h0c0-.2.351-.371,0-.566l.449-.156c-.117-.176-.586.2-.762,0s.391-.1.527-.176c-.254,0-.742-.254-.351-.449v.176l.254-.156c.43.156.312.293.664.137-.918,0-.1-.527-1.015-.547h.2c.43-.2-.664-.117-.527-.371a.254.254,0,0,1,.312,0l-.234-.176h.156v-.273h0l-.449-.2h.215l-.215-.176c.234,0,.449,0,.43.176.9-.117-.234-.117.293-.43l.117.137c.508,0,.332-.2.644-.352-.176,0-.8.312-.957,0s0,0-.156-.156c.332,0,.254,0,.234-.2h.43c-.117-.117-.332,0-.527-.176s.371-.156.644-.2-.527.156-.605-.117,0-.293-.254-.527c.156-.137.273,0,.391,0l-.332-.137h.156c-.137-.117-.43,0-.527-.176-.469,0,.683-.293.156-.508h.43a2.206,2.206,0,0,0-.7-.469l.273-.156a1.25,1.25,0,0,1-1-.234l-.351.117-.156-.273h.332a.781.781,0,0,1,.625,0H56.9a2.713,2.713,0,0,0,.781.117h.1a.684.684,0,0,1-.2,0h.293l.312-.273c-.469-.234-1.152-.449-1.347-.82a3.908,3.908,0,0,0,.976,0c-.43.1.176.293,0,.469s.312,0,.312,0l-.371-.332c.332,0,.254,0,.391-.137-.664,0-.43-.254-.625-.391.234,0,.449,0,.391.2.508-.137-.762-.273-.332-.371h0s0-.312.176-.234h0a.625.625,0,0,0-.41-.859l.7.117-.918-.332-.918-.332a10.918,10.918,0,0,1,1.953.273v-.215a2.44,2.44,0,0,1-.762,0,6.5,6.5,0,0,0,.781-.2s-.84-.1-.84-.176l.82.117-.722-.332a2.381,2.381,0,0,0,.859,0c-.156,0,0-.2,0-.273h-.176c.137-.234-1.015-.43-.918-.7.137,0,.918.254,1.035.137A6.913,6.913,0,0,1,56.3,98.32h.215l-.2-.234c.527.234,1.64.8,2.089,1.054.176,0,.254,0,.273-.137a.273.273,0,0,1,.293.2l.176-.293c-.43,0-.371-.351-.742-.43l.371.469c-.43,0-1.191-.469-1.054-.723s.762.234.918.254c-.156,0-.234-.293-.137-.273l.215.156c.2,0-.527-.352,0-.41h.351a11.892,11.892,0,0,1-2.363-.605,3.632,3.632,0,0,1,.781-.176c.41,0,.879.41,1.23.43a1.642,1.642,0,0,1-.391-.02c.117,0,.371.117.351,0-.43-.137.117-.234-.351-.156,0-.176.117-.1.156-.254a2.343,2.343,0,0,1-1-.605h.332c.137-.234.371-.312.488-.527a.586.586,0,0,1,.449,0l-.2-.234c.41,0,0,.176.488.254-.254,0-.273-.312-.391-.469s-.176.2,0,.351a1.953,1.953,0,0,1-1.113-.976c0-.273.371,0,.312,0,.254-.312-.7-.742-.2-.9a3.066,3.066,0,0,1,.879.43c0,.215-.371.254-.371.254h.215s.1.254,0,.254c.332,0,.371-.566.781-.683,0,0-.137-.254-.273-.293v.117c-.293,0-.254-.371-.43-.332s-.293-.527,0-.605l.351.2H58.64c-.117-.176.605,0,.215-.332h-.312c-.1-.215-.332-.625-.117-.7-.391-.156,0,0-.469,0,.547.234-.293.371.332.566-.527-.2-.312,0-.82,0,.117,0,.254,0,.117.176H57.8c.215.215.1.41.176.566s0-.117-.254-.137l.156.234c-.273-.156-.566,0-.605-.312l-.117.215c-.2,0-.332.137-.254.273s.176.371,0,.176v.371h0c-.156.254.215.722-.43.879a.762.762,0,0,1,0,.351h-.254c0,.137-.371.234-.137.371-.722,0-.351.566-.527.781l.312.1a.82.82,0,0,0,0,.527h.273c.2.215-.293.352-.43.566a.332.332,0,0,1,.117,0c-.722.176.332.742-.176.9v.176h0a.254.254,0,0,0,0,.234h-.332a3.406,3.406,0,0,1,.43.117h.137c-.508,0,.137.234-.41.234.254,0,.156.41.7.527h-.117s-.137.156,0,.254h-.41l.527.254a.762.762,0,0,1-.7,0c.449.332.156.234.605.527h-.254s.332.234,0,.254-.117.9-.625,1.328c.8,0-.351.2.234.254h-.43c.176.234-.312.332.176.508h-.332a.41.41,0,0,1-.234,0c0,.234.586.273,1.113.312-.273.117-.215.176.117.293h-.43c-.078,0-.254.488.176.527-.117,0,0,.1,0,.117a1.386,1.386,0,0,0,0,.391h0c.527,0,.117.156.176.293h0c-.371.332.176.156-.254.469h.312c.683,0-.41.273-.156.488h.2c.215.117-.937.273-1.015.391H54.7c-.41.273.41,0,.508.254H54.6c-.039,0,.723.41.293.605h.469c.137,0-.644.41,0,.547h-.137c.137.117.215.371.527.449-1.113.117.547.7-.469.7v.371h-.117c0,.234.2.312.43.371s-.215,0-.215,0c-.176.332-.137.371.391.625h-.332c.2,0-.488.508-.117.82H55.4c.41.312-.84.957.391.976l.312.215c0-.332.527,0,.7-.156s-.332.351-.41.2h0c-.644,0-.2.41-.605.449.117.605-.156,1.269,0,1.953l.469-.176v.215c-.117,0-.371.137-.371,0s.371.176.371.176c-.137.312-.586,0-.566,0v.117h0c.215,0,.43,0,.43.176s-.312.176-.312.176h0v.254l.351-.176c.2,0,0,.215.43,0-.605.352,0,1-.156,1.152a.547.547,0,0,1,.43.352s.391-.156.391,0c-.859.215-.254.41-.82.742.351-.254.273.43.762,0,0,.156-.312.117-.469.293.43.2,0,.781.449,1.093a.449.449,0,0,1,.332-.117l-.43.449s.644-.215.332,0l.254-.137a1.66,1.66,0,0,0,.488,1.191,1.367,1.367,0,0,1,.312,1.386c.117-.215.176-.176.254-.2a1.836,1.836,0,0,0,.332-.2l-.156.508c.391-.215.234.273.586,0h-.117c.488-.2.762-.82,1.289-1.172-.527.215.43-.82-.293-.683a.254.254,0,0,0,.234,0c-.254,0-.332,0-.312-.117h0c-.234-.273-.1-.527-.137-.957l-.254.156a.3.3,0,0,1,.117-.234c-.469.137,0,.234-.41.41.508-.41-.293-.586.312-.976,0-.117-.312.2-.351,0l.156-.117H59.46l.351-.215h0C60.241,118.413,59.948,118.276,59.948,118.276Zm-1.855-11.189s.2,0,0,.117-.176-.1,0-.117Zm-.644-3.359h-.2a.564.564,0,0,0,.2,0Zm-.2-9.763h0c-.137-.039-.078-.059.1-.078Zm-1.23,21.753h0c.2-.078.1-.078,0-.078Z" transform="translate(714.454 1354.018)" fill="#a8866a"/>
  </g>
</svg>
