<svg xmlns="http://www.w3.org/2000/svg" viewBox="0 0 52.32 23.46"><defs><style>.cls-1{fill:#907a56;}.cls-2{fill:#a08c6d;}.cls-3{fill:#826b48;}</style></defs><g id="圖層_2" data-name="圖層 2"><g id="objects"><path class="cls-1" d="M48,17.39c-4.59,1.84-12.92,3.07-22.41,3.07-9.66,0-18.11-1.28-22.65-3.17.71-1,2.29-1.61,2.36-3.06a7.33,7.33,0,0,1,0-1.75c.31-1,1.56-1.09,2.15-1.88S7.8,8.35,8.58,7.67s2.19-.1,3-.79c.66-.54.68-1.62,1.19-2.33a2.45,2.45,0,0,1,3.11-.43c1,.51,1.85,1.39,2.83,2a2.74,2.74,0,0,0,3.18.08c.45-.39.73-1,1.22-1.32,1.36-.92,3.17.9,4.65.26a14.19,14.19,0,0,0,1.29-.9,2.15,2.15,0,0,1,3,1.14c.18.46.25,1,.63,1.3a1.3,1.3,0,0,0,1,.12,17,17,0,0,1,2.82-.38A3,3,0,0,1,39,7.59a11.44,11.44,0,0,0,.63,1c1,1.13,2.87.35,4,1.26.61.48.88,1.33,1.41,1.92.67.74,1.74,1,2.24,1.91s.25,2.14.51,3.2C47.87,17.05,47.92,17.22,48,17.39Z"/><path class="cls-2" d="M48.76,17.52c0,.35.11.29.13.36a.81.81,0,0,0,0-.43C48.78,17.44,48.75,17.52,48.76,17.52Z"/><path class="cls-2" d="M48.12,14.37l.07.05a3.91,3.91,0,0,0-.26-.44C48,14.11,48.06,14.24,48.12,14.37Z"/><path class="cls-2" d="M46.36,12.07c0,.18.23.29.46.43a1.66,1.66,0,0,1,.67.56v.11a1.81,1.81,0,0,1,.31.09,2.75,2.75,0,0,0-.79-.74A4.57,4.57,0,0,1,46.36,12.07Z"/><path class="cls-2" d="M45.83,10.93c0,.12-.18-.06.11.17v0Z"/><path class="cls-2" d="M45.93,11.05c.13.11,0-.14,0,0Z"/><path class="cls-2" d="M45.35,10.32a2.49,2.49,0,0,0,.24.23c0-.07-.13-.35,0-.28C45.33,10,45.32,10.08,45.35,10.32Z"/><path class="cls-2" d="M45,10.13l.13.14A.25.25,0,0,0,45,10.13Z"/><path class="cls-2" d="M45.41,10.56c-.08-.08-.18-.18-.27-.29,0,.08-.07.13.12.15C45.18,10.43,45.29,10.46,45.41,10.56Z"/><path class="cls-2" d="M45.48,10.75c0,.17.13.36-.1.18.17.23.28.24.3.19S45.65,11,45.48,10.75Z"/><path class="cls-2" d="M46.12,12.25l.17.2.24.05C46.41,12.48,46.14,12.16,46.12,12.25Z"/><path class="cls-2" d="M43.24,8.3s.11.2.12.28a2.17,2.17,0,0,1,.35.07C43.55,8.52,43.24,8.4,43.24,8.3Z"/><path class="cls-2" d="M43.36,8.58a2.69,2.69,0,0,0-.48,0C43.28,8.65,43.37,8.66,43.36,8.58Z"/><path class="cls-2" d="M44.74,10.24l.5.45-.58-.56Z"/><path class="cls-2" d="M41.63,8.06l.21-.12-.37.18Z"/><path class="cls-2" d="M40.88,8c.12-.09-.09-.21,0-.26a.62.62,0,0,0-.31.08C40.66,7.8,40.72,7.84,40.88,8Z"/><path class="cls-2" d="M40.43,7.83a.32.32,0,0,0,.16,0Z"/><path class="cls-2" d="M42.17,8.42a.53.53,0,0,0-.3-.2L42,8.4Z"/><path class="cls-2" d="M42,8.41h0l-.32,0Z"/><path class="cls-2" d="M42.2,8.43h0S42.19,8.44,42.2,8.43Z"/><path class="cls-2" d="M44,9.21l-.25-.09-.23,0c-.12,0-.14.06.07.23C43.81,9.33,43.56,9.07,44,9.21Z"/><path class="cls-2" d="M42.38,8.65l.44.1s-.08-.12.06-.13A4.07,4.07,0,0,0,42.38,8.65Z"/><polygon class="cls-2" points="42.17 8.68 42.38 8.65 42.23 8.62 42.17 8.68"/><path class="cls-2" d="M40.6,8.12A.31.31,0,0,1,40.32,8c0,.06.07.09.11.14s.11.08.19.09S40.74,8.17,40.6,8.12Z"/><path class="cls-2" d="M41.18,8.31h0S41.18,8.34,41.18,8.31Z"/><polygon class="cls-2" points="38.94 6.26 38.96 6.31 38.98 6.3 38.94 6.26"/><path class="cls-2" d="M40.64,8.31a.24.24,0,0,0,.27,0,1,1,0,0,1-.29-.06S40.6,8.31,40.64,8.31Z"/><path class="cls-2" d="M40.19,7.6a1.69,1.69,0,0,0,.05.24C40.24,7.77,40.24,7.6,40.19,7.6Z"/><path class="cls-2" d="M41.1,8.26h0C41.08,8.22,41.09,8.24,41.1,8.26Z"/><path class="cls-2" d="M41.1,8.26a1.07,1.07,0,0,0-.19.07.87.87,0,0,0,.23,0Z"/><path class="cls-2" d="M37.86,6.83c0-.06.17-.09.33,0a.82.82,0,0,1,.45.38c.17.1.3,0,.37-.15a1.12,1.12,0,0,0,0-.71c-.06.06-.09.08-.55-.09a4.38,4.38,0,0,1,.39.42c.12.18.17.29,0,.22a1.53,1.53,0,0,1-.4-.3c-.06-.06-.07-.14-.19-.24.08.14-.12.12-.32.12s-.41,0-.39.2a3.62,3.62,0,0,1,.46.06S37.76,6.74,37.86,6.83Z"/><path class="cls-2" d="M39.66,7.08l.13.17c-.11-.22-.17-.42-.34-.76-.33-.23-.43-.22-.47-.19a3.29,3.29,0,0,1,.74.83Z"/><path class="cls-2" d="M40.15,7.88c-.16,0-.42-.28-.44,0s.18.22.24.24a.49.49,0,0,1,.19,0A.44.44,0,0,1,40,8.05a0,0,0,0,1,0,0c.06,0,.14,0,.07-.13l.18.14a.5.5,0,0,1-.08-.2v0h0s0,0,0,0h0c-.08-.15,0,0,0,0h0a6.07,6.07,0,0,1-.45-.61A3.73,3.73,0,0,0,40.15,7.88Z"/><path class="cls-2" d="M43.06,9.48l0-.05S43,9.44,43.06,9.48Z"/><path class="cls-2" d="M42.77,9.3a.32.32,0,0,1,.3,0c.15.1,0,.08,0,.13s.43,0,.1-.17h-.07c-.3-.16-.7-.42-.64-.43A1.56,1.56,0,0,0,42.77,9.3Z"/><path class="cls-2" d="M41,8.77a3.43,3.43,0,0,1-.56,0,1.64,1.64,0,0,0,.24.21V8.85C41,9,41,8.83,41,8.77Z"/><path class="cls-2" d="M38.9,6.13l.18-.07A2.55,2.55,0,0,0,38.54,6,2.6,2.6,0,0,1,38.9,6.13Z"/><path class="cls-2" d="M37.92,5.67,38,5.54h-.29Z"/><path class="cls-2" d="M4.59,17h.18A.59.59,0,0,0,4.59,17Z"/><path class="cls-2" d="M3.36,16.49l0,.05C3.38,16.53,3.41,16.51,3.36,16.49Z"/><path class="cls-2" d="M20,5.63c-.18-.2-.31-.5-.34-.33v.19A.66.66,0,0,1,20,5.63Z"/><path class="cls-2" d="M8.38,7.94l.08,0a2,2,0,0,1,0-.25A1.83,1.83,0,0,0,8.38,7.94Z"/><path class="cls-2" d="M8.83,8.45a2,2,0,0,0-.19.21Z"/><path class="cls-2" d="M11.68,18.38l.23-.13C11.58,18.2,11.72,18.3,11.68,18.38Z"/><path class="cls-2" d="M30.73,3.17a1.75,1.75,0,0,0-.8-.19C30.34,3.06,30.6,3.28,30.73,3.17Z"/><path class="cls-2" d="M3.58,18.46c.13,0,.18,0,.19,0S3.57,18.41,3.58,18.46Z"/><path class="cls-2" d="M29,3.18l.19,0A1.63,1.63,0,0,1,29.93,3,1.17,1.17,0,0,0,29,3.18Z"/><path class="cls-2" d="M38.06,18.72h0S38.11,18.71,38.06,18.72Z"/><path class="cls-2" d="M46,18.83l-.31.1A1.14,1.14,0,0,0,46,18.83Z"/><path class="cls-2" d="M34.21,5.64c.16,0,0,0,0,0Z"/><path class="cls-2" d="M35.16,6.13a.12.12,0,0,0-.06.1A.17.17,0,0,1,35.16,6.13Z"/><path class="cls-2" d="M27.84,5.15h0Z"/><path class="cls-2" d="M34.48,5.66h0Z"/><path class="cls-2" d="M34.43,5.6l.16,0S34.58,5.54,34.43,5.6Z"/><path class="cls-2" d="M34,5.69l.28,0s0,0,0,0Z"/><path class="cls-2" d="M23.9,19.94h0C24.11,19.89,24,19.89,23.9,19.94Z"/><polygon class="cls-2" points="15.58 4.8 15.6 4.8 15.59 4.79 15.58 4.8"/><path class="cls-2" d="M15.08,4.75a.36.36,0,0,1,.5,0c0-.17,0-.35,0-.52A3.33,3.33,0,0,0,15.08,4.75Z"/><path class="cls-2" d="M7.65,17.75l-.39-.24c.56-.13.91,0,.55-.26-.17.51-1.63-.35-1.8.14l-.25-.19c.08,0,.1,0,.17,0-.47-.4-.49.26-1.15,0-.22-.12-.37-.25-.19-.25L4,16.89c-.15-.07-.09-.13.06-.07l-.79-.26v0l-.14,0,.31,1.21a1.29,1.29,0,0,1,.08-.39c.18-.09,0,.11,0,.12a3.37,3.37,0,0,1,.23-.4c.22,0,0,.34-.18.52.59.1.11-.31,1.07-.75l-.33.36c.4,0,.63-.26,1.22-.65l-.26.12a1.9,1.9,0,0,1-.36.12c-.23.05-.37,0-.19-.22A1.18,1.18,0,0,0,5.29,16c.12.12.35-.17.57-.66l.19.14a1,1,0,0,0,.07-.58c0-.12,0-.22-.08-.39a2.28,2.28,0,0,1,.16-.64.62.62,0,0,1,.2-.26c-.05-.77-.23.53-.37-.33a2.8,2.8,0,0,0,0-.49.48.48,0,0,1,.08-.38c.25-.1,0,.14.16.14a1,1,0,0,1,.11-.31c.05,0,.06,0,.07.06.19-.2-.11-.22.26-.51,0-.15.24-.17.57-.29a1.64,1.64,0,0,0,.51-.33,1,1,0,0,0,.3-.59c.15-.14.08.16.18.15a2.77,2.77,0,0,0,.15-.94,3.52,3.52,0,0,0-.06-.7,2.44,2.44,0,0,1,.27-.45c-.25.28-.38-.22-.26-.72A1.24,1.24,0,0,0,8,8.17a1.84,1.84,0,0,1,.39-.76c.12,0,.08.08.05.25a.87.87,0,0,1,.08-.14c.26-.1.2.13.16.33a2.44,2.44,0,0,0-.26.06c0,.24.09.44.22.48a.61.61,0,0,1,0-.19.4.4,0,0,0,0,.09s0-.06,0-.17A1.38,1.38,0,0,1,9,8.26l0-.1a1.34,1.34,0,0,1,.58,0,5.83,5.83,0,0,1,.92-.51,4,4,0,0,0,1.2-.74c-.05.17,0,.25,0,.31s.16.09.22.19a2.69,2.69,0,0,0-.72.31,1.71,1.71,0,0,1-.87.22c.31,0,.25.13.17.17a3.17,3.17,0,0,0,1.14-.51c0,.19.34,0,.67-.24-.23,0-.06-.27.09-.57a3.44,3.44,0,0,0,.3-.89c.11,0,.22.15,0,.69.52-.5-.11-.93.3-1.3,0,.1-.08.15,0,.21A.83.83,0,0,1,13.09,5c.09-.12.19-.15.19-.07l0,.07a1.66,1.66,0,0,1,.88-.58c.38-.13.76-.15.84-.3a2.56,2.56,0,0,1-.18.44,3,3,0,0,1,1.53-.61c-.11.09-.13.35-.21.56a.41.41,0,0,1-.49.3,1.72,1.72,0,0,0,.62.36c-.07-.1,0-.51.1-.45a5.89,5.89,0,0,0,.5.89c-.11-.16.29-.39.52-.19-.07,0-.21.37-.33.33l.85.13c-.2-.06-.23.28-.14.48,0-.12.56.43.8.49a3.31,3.31,0,0,1-.26-.27,1.05,1.05,0,0,0,.93.2,1.78,1.78,0,0,1,.92-.06c-.1.07-.38.5.12.63a5.17,5.17,0,0,0,.66-.64,7.29,7.29,0,0,0,.64-.87l.16,0a3,3,0,0,0,.24-.47,2.09,2.09,0,0,1-.2,1.08,2.12,2.12,0,0,1-1,.93,1.26,1.26,0,0,1,.29.08c.06,0,.14,0,.45-.07.13,0,.06.09-.08.16A1.41,1.41,0,0,1,21,7.7a2.79,2.79,0,0,0,1.53-.56c-.1-.08.13-.34.26-.59s.23-.46.14-.51a4.63,4.63,0,0,1-.38.64,2.57,2.57,0,0,1-.62.61c-.08-.1.08-.36.26-.7a6.3,6.3,0,0,1,.61-1c.2-.09.23.41.3.45a1.28,1.28,0,0,1,.16-.36c.09-.12.18-.19.21-.18a2.41,2.41,0,0,0-.08.25c.14-.07.15-.17.22-.29A.26.26,0,0,1,24,5.34c.13,0,.35.35.39.21-.16-.32-.21-1.24,0-1.43a2.81,2.81,0,0,1,.53.27,3.63,3.63,0,0,1,.56.44c.21.31-.57.39-.38.66,0-.07.2-.1.27-.1s-.13.18.28.27c.13-.22.85.26.25-.15a1.55,1.55,0,0,1,.43.11,1.46,1.46,0,0,0,.52.12c-.08-.09.05-.21.24-.35L27.67,5c0,.07.11.12.17.15.75-.37,1.08-.79,1.76-.94.09,0,.4.08.28.21a.85.85,0,0,1,.14-.1.55.55,0,0,1,.24,0c.18.15.06.13-.05.14s-.25,0-.12.16c0-.08.14-.13.31-.13a1.73,1.73,0,0,1,.51,0c0-.13-.16-.22-.36-.25a1.33,1.33,0,0,0-.59.07c0-.15.12-.34.4-.44A1.47,1.47,0,0,1,31.5,4c.34.2.36.32.33.36s-.12,0-.06.07c.23.25.38.47.52.63s.23.3.32.4a2.16,2.16,0,0,1,.24.31,1.26,1.26,0,0,1,.12.34.44.44,0,0,1-.14.27c-.06.07-.16.09-.18.18A.82.82,0,0,1,32.37,6a2.53,2.53,0,0,0-.09-.55c0,.16,0,.32,0,.48A2.14,2.14,0,0,1,32,5.22a3.16,3.16,0,0,0,.09.5,2.85,2.85,0,0,0,.31.79.93.93,0,0,0,.37.31,1.5,1.5,0,0,0,.46.09c.31,0,.58,0,.82,0s.41-.22.27-.28l-.28.09c-.29-.12.5-.33.13-.34a2.52,2.52,0,0,1,1.36-.44l.12.22c0-.07-.38-.1-.53,0,.22-.15.88.21,1.14-.1l-.42-.14a4.9,4.9,0,0,1,.71-.24,1.51,1.51,0,0,1,.84,0c-.23-.28-.13,0-.52-.33.17.19-.21.14-.54.14s-.63,0-.35.19c-.41-.29-.69-.07-1.2-.25,0,.07.19.12-.23.15a.3.3,0,0,1-.08.08h0l.19,0c-.14.25-.77.36-1,.48s.08-.1,0-.16l-.27.18c0-.09-.15-.15-.18-.22s0-.11.1-.17c-.11,0-.17,0-.17,0a.43.43,0,0,1,0,.11V6h0v0l0,0s.05-.06.12-.12a1.18,1.18,0,0,0-.1-.16c0-.18-.38-.59-.18-.37L32.89,5l-.15-.28a3,3,0,0,0-.37-.49l0,0A2.68,2.68,0,0,0,31,3.3a4.77,4.77,0,0,0-1.8-.14,3.13,3.13,0,0,0-.55.32c-.18.12-.36.27-.55.4l-.15-.06a1.19,1.19,0,0,1-.42.25c-.05,0-.1,0-.13,0l-.06,0C27.17,4,27,4,26.64,3.94a5.84,5.84,0,0,1-1.11-.29l-.08.18a3.31,3.31,0,0,0-.7-.15c-.13,0-.28,0-.42,0a2.35,2.35,0,0,0-.51.06l.05.17a4.88,4.88,0,0,0-1.1.37,2.87,2.87,0,0,0-.95.86c0-.08.1-.22.23-.31a1.83,1.83,0,0,0-.5.43l-.25.35a.61.61,0,0,1-.75.23.33.33,0,0,1-.35,0h0l-.05,0A2,2,0,0,0,20,5.63a.53.53,0,0,0,.15.12l-.47-.06,0-.2,0,0c-.14-.13-.16,0-.13.19h-.27c0-.17-.11-.2-.24-.26s-.27-.12-.28-.32c-.18.07-.92-.56-1.2-.38,0,0,0-.1.08,0A1.27,1.27,0,0,0,17,4.25L17,4c-.21,0-.42,0-.64,0-.24-.3-.36-.44.05-.44l-.81-.14a1.56,1.56,0,0,0-.7,0L15,3.25c-.28,0-.7.17-.87.07a1.27,1.27,0,0,0-.79.1,2.15,2.15,0,0,0-1,.89,7.17,7.17,0,0,0-.57,1.27c-.14.36-.32.6-.48.65.19.11.09.16,0,.16s-.26,0-.25.15c-.08-.09-.21-.13-.09-.25a1.27,1.27,0,0,1-.67.06,1.08,1.08,0,0,0-.72.18c-.11-.09.16-.17.07-.23s-.26.13-.37.09.12-.12.26-.18a1.17,1.17,0,0,0-.86.46.55.55,0,0,0,0,.5A.79.79,0,0,0,7.9,8c-.07.05-.16.13-.2.13s-.06-.09.07-.37a3.57,3.57,0,0,0-.39,1c-.09.4-.13.7,0,.75a.55.55,0,0,0-.1.36,1.55,1.55,0,0,1-.23.4,3.82,3.82,0,0,1-.33.31l.13,0c0,.36-.3.29-.66.55v0a1.32,1.32,0,0,0-.7.39,1.1,1.1,0,0,1-.19.19,2.6,2.6,0,0,0-.45.55H5c.14.14,0,.35-.11.72a2,2,0,0,0,0,1l.07-.21a.5.5,0,0,1-.19.54c-.15.16-.37.2-.41.27s0-.08,0-.14c-.17.15-.15.19-.07.24s.19.1.08.32c-.15,0-.17-.29-.39-.08-.08,0-.18.28-.39.57a2.24,2.24,0,0,1-.8.76c.17,0,.33-.05.14.23-.12.13-.29.26-.47.44l-.54.52.82.54c.33.22.71.5,1,.39a.21.21,0,0,1,0,.07,3.62,3.62,0,0,0,1.34.14c.15.72,2.11.25,2,.81l1,.2,0,.06a1.61,1.61,0,0,0,1.15,0c.15.07,0,.1,0,.1a2.55,2.55,0,0,0,1.86.16l.05.2a11.23,11.23,0,0,0,2.33.41.2.2,0,0,1-.11.07c1.07-.09,2.49.81,2.94.15l.72-.11c-.91-.13.15-.28-.21-.43.35,0,.9.28.46.28l-.06,0c-.19.35,1.11.21,1.07.46,1.79.1,3.53.37,5.21.42L23.33,21l.58,0c.15.06.2.22-.21.2.21.17.7-.12.71-.19.82.12-.32.33-.07.33h.34l-.08,0a1.27,1.27,0,0,1,.81-.21c.31.06.16.17.28.18a.35.35,0,0,0,.2,0l.73,0-.29-.22c.32-.11.69,0,.35-.25.5.4,2.74.09,3.05.19a4,4,0,0,1,1.47-.2c-.15,0-.24-.29.24-.28-.15.52.89.17,1.3.51-.36-.22,1.37-.16.8-.47.4,0,0,.19.35.29.94-.28,2.12-.06,3.29-.26,0-.07-.19-.16,0-.28l.66.25c.23-.06.17-.41.62-.24-.06,0-.16-.12,0-.16A16.35,16.35,0,0,0,42,19.66a18.44,18.44,0,0,1,3.57-.55c-.34,0-.14-.11.1-.18-.16,0,0-.16-.09-.24l1,0c.05-.16.31-.25.56-.33l.22-.08.21-.11c.13-.08.21-.15.2-.21l-.37.22c.2-.24-.08-.29-.31-.38s-.5-.2-.53-.39c-.35.46-1.26-.1-1.88.54-.18,0,.11-.15,0-.21a1,1,0,0,1-.8.33L44,18a16.3,16.3,0,0,1-3,.41l.13.16a1.59,1.59,0,0,1-.5,0c-.28.33.81-.13.56.22-.22-.15-.73-.06-1.22,0s-1,.12-1.12-.07c-.44.07.16.19-.28.26l-.14-.1-.09.16c-.29,0-.45-.11-.47-.21a.92.92,0,0,0,.26-.07c-.38-.09-1.05.19-1.18.15l.43,0c-1.2.26-2.69.26-3.84.57l.09.08c-.89.22-.73,0-1.71.1l0,0a2,2,0,0,1-.72.16c.24-.12-.49-.17-.16-.3-1,.22-.47.15-1.11.5l-.15-.13a1.16,1.16,0,0,1-.73.26c.4-.14-.32-.21.13-.39-1-.28-1.53.36-2-.09-.46.41.91.21.64.29.22.12-.39.31-.72.27s-.56-.5-1.39-.48c.08,0,.08,0,.17,0-.31-.1-.61.13-1,0-.22.24-.5,0-.57.28l.77-.06c-.44.07-.84.43-1.56.24a1.3,1.3,0,0,1,.42-.17c-.21-.09-.4,0-.62-.05.07-.3.93-.05,1.4-.28-.23-.13-.88.21-.65-.12-.34.42-.81-.06-1.38.24l0-.18a1.24,1.24,0,0,1-.44.1l.3-.23c-.45.2-.87-.2-1.31-.11.92,0,.2.23.58.38-1.13.19-.63-.5-1.89-.48.17,0,.63.14.36.22a2,2,0,0,1-.69-.25c-.83,0,.12.2-.24.29-.27-.24-.42.07-.79.11V19.4c-.94-.19-.28.37-1.12.16l.37-.23-.45,0,.11-.2a1.9,1.9,0,0,1-1.11,0c.1.14-.09.33-.52.3-.27-.14.18-.17-.42-.19.15-.11.31-.24.55,0,0-.06.14-.11.18-.16a2.6,2.6,0,0,0-1-.13,1,1,0,0,1,.23.07l-.89.16c-.12-.09,0-.13.1-.17-.18,0-.31.07-.56.06.08-.15.08-.3.44-.33l-.83.07c-.05-.08-.4-.24-.28-.28-.45-.14-1.15.15-1.74-.06a.41.41,0,0,1-.22,0,4.47,4.47,0,0,0-1.72-.31l-.33-.34c-.53,0,.45.44-.43.37-.62,0-.19-.28-.39-.4a1.7,1.7,0,0,1-1.42-.12A3.86,3.86,0,0,1,7.65,17.75ZM4.79,16.61c-.08.12-.23.4-.36.38C4.42,16.72,4.57,16.72,4.79,16.61ZM9.24,7.74c-.06.09-.17.09-.31.09A.48.48,0,0,1,9.24,7.74Zm23.9-1.82h0a.28.28,0,0,0,0-.06Zm0,.09,0-.08-.07,0S33.09,6,33.16,6Zm-7.4,15.18-.11,0C25.9,21.09,25.83,21.14,25.76,21.19Z"/><path class="cls-2" d="M8.77,8.4s-.06,0-.09,0S8.71,8.45,8.77,8.4Z"/><path class="cls-2" d="M11.64,18.41h0l0,0Z"/><path class="cls-2" d="M25.33,5.65a.44.44,0,0,1-.2-.16S25.15,5.58,25.33,5.65Z"/><path class="cls-2" d="M36.12,5.28l-.43.08a.86.86,0,0,1,.39,0C36.07,5.35,36,5.3,36.12,5.28Z"/><path class="cls-2" d="M39.06,7.7c.06,0,.07.1.12.14l.06-.06C39.11,7.56,39,7.46,39.06,7.7Z"/><path class="cls-2" d="M36.52,5.89c0,.16.29.11.58.13h-.05C37.17,5.8,36.83,5.83,36.52,5.89Z"/><path class="cls-2" d="M37.17,6a1.28,1.28,0,0,1,.27.05C37.49,6,37.33,6,37.17,6Z"/><path class="cls-2" d="M33.68,5.87c.12,0,0-.22.12-.16.05-.11-.14,0-.26.07s-.09.09-.08.11S33.52,5.92,33.68,5.87Z"/><path class="cls-2" d="M36.73,6.42l-.09-.2-.15.15Z"/><path class="cls-2" d="M34.63,6.48l.42,0s0-.06.11-.09C34.9,6.41,34.61,6.42,34.63,6.48Z"/><path class="cls-2" d="M35.16,6.37a1.14,1.14,0,0,0,.33-.08A1.73,1.73,0,0,0,35.16,6.37Z"/><path class="cls-2" d="M36.15,6.47l-.13,0h-.3Z"/><path class="cls-2" d="M31.4,4.27a2,2,0,0,0-.45-.2c-.07,0,0,.13.2.19S31.43,4.37,31.4,4.27Z"/><path class="cls-2" d="M31.83,5.72c0-.13,0-.15.06-.24l-.21.07Z"/><path class="cls-2" d="M31.13,4.78c-.07,0-.54-.13-.14.1C31.05,4.84,31.38,5.06,31.13,4.78Z"/><polygon class="cls-2" points="24.81 4.82 24.92 4.85 25 4.46 24.81 4.82"/><path class="cls-2" d="M19.06,7.39c.3.17.37.11.41.07s.07-.09.36,0c.16,0-.46-.21-.29-.25C19.15,7.23,19,7.08,19.06,7.39Z"/><path class="cls-2" d="M19.54,7.25h.21A.6.6,0,0,0,19.54,7.25Z"/><path class="cls-2" d="M47.32,18.62a4,4,0,0,0,.59-.16l-.42.05Z"/><path class="cls-2" d="M48.15,17.91l.29.08a2.12,2.12,0,0,0,.09-.31A.83.83,0,0,1,48.15,17.91Z"/><path class="cls-2" d="M6,16l0-.07c-.1,0-.17.15-.32.33A3.49,3.49,0,0,0,6,16Z"/><polygon class="cls-2" points="5.06 16.85 4.99 16.82 5.07 17.08 5.06 16.85"/><path class="cls-2" d="M8.92,17.53c-.16,0-.35,0-.51-.07C8.76,17.49,8.91,17.82,8.92,17.53Z"/><path class="cls-1" d="M17.2,4.14C17.91,1.91,19.78.51,21.38,1l7.33,2.33c-1.61-.51-3.48.89-4.19,3.12s0,4.45,1.62,5L18.81,9.11C17.21,8.6,16.49,6.37,17.2,4.14Z"/><path class="cls-2" d="M16.09,3.85c0-.07-.16-.1-.19-.12S16.14,3.86,16.09,3.85Z"/><polygon class="cls-2" points="16.29 5 16.21 4.97 16.39 5.15 16.29 5"/><path class="cls-2" d="M16.23,6c.33-.1-.06-.36.08-.53l.07,0-.26-.09C16.14,5.56,16.31,5.84,16.23,6Z"/><path class="cls-2" d="M15.54,6.61c.13-.05.13.11,0-.15l0,0A.41.41,0,0,1,15.54,6.61Z"/><path class="cls-2" d="M15.54,6.49c0-.12-.1.09,0,0Z"/><path class="cls-2" d="M15.69,7l-.14-.13c-.07.05-.07.2-.13.15C15.52,7.2,15.58,7.14,15.69,7Z"/><path class="cls-2" d="M16,7.12l-.06-.07S15.86,7.1,16,7.12Z"/><path class="cls-2" d="M15.76,6.91l.14.14s.15,0-.05-.07C15.94,7,15.85,7,15.76,6.91Z"/><path class="cls-2" d="M15.79,6.8c.06-.09.1-.2.23-.07C15.94,6.45,15.7,6.52,15.79,6.8Z"/><path class="cls-2" d="M16.58,6l.09-.1-.11-.09C16.62,5.88,16.47,6,16.58,6Z"/><path class="cls-2" d="M15.81,8.06c.07,0,.15-.12.24-.17l-.12-.08C15.9,7.88,15.9,8,15.81,8.06Z"/><path class="cls-2" d="M16.05,7.89l.18.12C16.18,7.86,16.12,7.86,16.05,7.89Z"/><path class="cls-2" d="M16.33,7.07,16,6.86l.31.25A.06.06,0,0,0,16.33,7.07Z"/><path class="cls-2" d="M16.12,8.73l-.2,0,.33,0Z"/><path class="cls-2" d="M16.43,9.14c-.16,0-.11.24-.23.21a.75.75,0,0,0,.44.15A.36.36,0,0,1,16.43,9.14Z"/><path class="cls-2" d="M16.88,9.52a.86.86,0,0,0-.24,0A.46.46,0,0,0,16.88,9.52Z"/><path class="cls-2" d="M16.33,8.3a.33.33,0,0,0-.12.23l.15-.17Z"/><path class="cls-2" d="M16.36,8.36h0a1.11,1.11,0,0,0,0,.13Z"/><path class="cls-2" d="M16.32,8.29h0S16.34,8.28,16.32,8.29Z"/><path class="cls-2" d="M16.27,7.52c.13.06.31.2.41,0C16.53,7.47,16.47,7.6,16.27,7.52Z"/><path class="cls-2" d="M16.51,8.1a1.49,1.49,0,0,1,0-.18S16.36,8,16.3,8Z"/><polygon class="cls-2" points="16.6 8.15 16.51 8.1 16.52 8.16 16.6 8.15"/><path class="cls-2" d="M16.78,9.13a.49.49,0,0,1,.27.15A2.29,2.29,0,0,0,16.87,9C16.81,9,16.69,9,16.78,9.13Z"/><path class="cls-2" d="M16.56,8.75h0S16.59,8.73,16.56,8.75Z"/><polygon class="cls-2" points="17.92 9.94 17.93 9.89 17.91 9.92 17.92 9.94"/><path class="cls-2" d="M16.89,8.94c0-.09-.09-.1-.18-.1l.16.13Z"/><path class="cls-2" d="M17.18,9.67a1.21,1.21,0,0,0-.05-.18C17.13,9.57,17.13,9.71,17.18,9.67Z"/><path class="cls-2" d="M16.55,8.82h0S16.53,8.84,16.55,8.82Z"/><path class="cls-2" d="M16.55,8.82a.44.44,0,0,0,.16,0,.35.35,0,0,0-.13-.08Z"/><path class="cls-2" d="M18.72,8.88c-.07.18-.31.27-.34,0a1.36,1.36,0,0,0-.45,1c0-.06.08-.12.3-.14,0-.12-.25-.4,0-.47s.12.14.19.27c0-.24.38-.2.44-.55l-.19.05C18.66,9,18.75,8.94,18.72,8.88Z"/><path class="cls-2" d="M17.6,9.67l-.08,0a1.09,1.09,0,0,1,.11.39c.18,0,.24,0,.28-.11a1.67,1.67,0,0,1-.35-.24Z"/><path class="cls-2" d="M17.23,9.41c.18-.11.38-.06.43-.3-.16-.13-.22,0-.38,0,.3.21-.15,0,0,.28a.68.68,0,0,1-.19-.11,1.31,1.31,0,0,1,.08.21v0h0s0-.05,0,0h0l.07,0c.05.11,0,.05,0,.05h-.06a2.59,2.59,0,0,0,.38.17A1.79,1.79,0,0,0,17.23,9.41Z"/><path class="cls-2" d="M17.15,7.48l0,0S17.15,7.52,17.15,7.48Z"/><path class="cls-2" d="M17.08,7.64s-.12,0-.13-.07.1,0,.15-.06-.18-.09-.23.08h0a1.88,1.88,0,0,1-.19.4C16.84,7.87,16.94,7.79,17.08,7.64Z"/><path class="cls-2" d="M17.07,8.46l.24.16.06-.22-.08.07C17.23,8.33,17.15,8.43,17.07,8.46Z"/><path class="cls-2" d="M17.92,10.05l-.15.16a2.58,2.58,0,0,0,.32-.18A.52.52,0,0,1,17.92,10.05Z"/><polygon class="cls-2" points="18.35 10.2 18.27 10.38 18.42 10.31 18.35 10.2"/><path class="cls-2" d="M25.71,2.92l0-.1A.69.69,0,0,0,25.71,2.92Z"/><path class="cls-2" d="M25.21,3.3l.06.07C25.25,3.32,25.23,3.28,25.21,3.3Z"/><path class="cls-2" d="M25.35,12.41c0,.2.06.49.12.29l0-.2A.14.14,0,0,1,25.35,12.41Z"/><path class="cls-2" d="M24.23,7.65h-.05a.51.51,0,0,0,.18.09Z"/><path class="cls-2" d="M23.39,7.48l.16-.13A.83.83,0,0,0,23.39,7.48Z"/><path class="cls-2" d="M28.15,4.58,28,4.75C28.13,4.79,28.11,4.67,28.15,4.58Z"/><path class="cls-2" d="M21.31,11.08a.33.33,0,0,0,.16.17C21.41,11.11,21.39,10.92,21.31,11.08Z"/><path class="cls-2" d="M26.85,4.77a.21.21,0,0,0,0-.12S26.81,4.74,26.85,4.77Z"/><path class="cls-2" d="M21.71,11.33l0-.06a.31.31,0,0,1-.21,0C21.52,11.36,21.58,11.44,21.71,11.33Z"/><path class="cls-2" d="M19.91,2.33l0,0S19.91,2.33,19.91,2.33Z"/><path class="cls-2" d="M16.69,3a.34.34,0,0,1,0-.12S16.69,2.92,16.69,3Z"/><path class="cls-2" d="M19.49,10.67c-.06,0,0,0,0,0Z"/><path class="cls-2" d="M19.45,9.81l.05-.09Z"/><path class="cls-2" d="M22.69,10.31Z"/><path class="cls-2" d="M19.43,10.55l.06.09Z"/><path class="cls-2" d="M19.42,10.65a.07.07,0,0,1,0,0S19.35,10.66,19.42,10.65Z"/><path class="cls-2" d="M19.58,10.68l-.07,0h.07Z"/><path class="cls-2" d="M24.09,2.53v0C24,2.57,24,2.57,24.09,2.53Z"/><polygon class="cls-2" points="24.46 11.45 24.48 11.45 24.47 11.43 24.46 11.45"/><path class="cls-2" d="M24.14,11.31c.29-.06.3,0,.33.12.13-.16.24-.31.37-.46A5.66,5.66,0,0,1,24.14,11.31Z"/><path class="cls-2" d="M27.11,2.19l-.28-.11c.19-.38.45-.33.16-.52.05.32-.18.39-.39.49s-.4.2-.27.5l-.19,0a.21.21,0,0,1,.07-.07c-.4-.12,0,.5-.28.6-.12,0-.24,0-.22-.11a2.33,2.33,0,0,0-.11.28.06.06,0,0,1-.06-.1c-.09.1-.18.19-.26.29v0a2.08,2.08,0,0,1,.05.4c-.13,0,0-.08-.09-.12l0,.25a.21.21,0,0,1-.05-.37c-.61-.31,0,.23-.57.3l.07-.21c-.36-.14-.38.07-.7.14.13,0,.74,0,.71.26-.07,0-.14.07-.1.24-.19-.13-.22,0-.29.13L24,4.22c0,.19.12.26.18.41-.12.14-.34,0-.53,0-.18.24.42,0,.32.34-.22.16-.18.37-.13.69-.16.1-.16-.09-.26-.07l.17.22s-.08,0-.11,0c0,.15.27.12.29.32.3.14-.58.21-.28.54-.1,0-.17-.07-.29-.08a1.49,1.49,0,0,0,.39.62l-.22.18c.24-.12.48.12.68.3a1.58,1.58,0,0,0,.26-.1l.14.26a.4.4,0,0,1-.27-.06l.06.06c-.11.07-.28,0-.45-.06l.19-.08a1.61,1.61,0,0,0-.54-.17.18.18,0,0,1,.07.1.15.15,0,0,0-.12,0,.49.49,0,0,0,.1.09l-.34,0,.13,0-.23.38c.34.3.84.49,1,.84a2,2,0,0,0-.7.08c.3-.16-.17-.31-.11-.55a.16.16,0,0,1-.22.07l.31.38c-.23,0-.16.12-.24.24.46-.16.36.25.55.36-.15.06-.32.06-.33-.15-.29.31.61.14.38.42,0,0,0-.07-.09-.07.17.06.17.36,0,.35l0,0a1.16,1.16,0,0,0,.3.58.46.46,0,0,0,.54.15,3.87,3.87,0,0,1-.5.27,4,4,0,0,0,1.38-.46c-.14.12-.32.35-.5.55s-.37.37-.55.33a.32.32,0,0,0,.29.26c0-.08.22-.47.3-.44-.08.42,0,.24,0,.68-.05-.12.34-.5.43-.43s-.25.46-.33.48a2.69,2.69,0,0,0,.55-.31.78.78,0,0,0-.18.57c0-.07.16,0,.29.09l.59-1.83s-.08,0-.1,0l.06.12-.51,1.61,0,0h0l.51-1.58c-.27-.11-.51.63-.78.52.07-.1.29-.62.16-.73-.14.24-.68,1.15-1,1.27v-.16l-.24.11a10.55,10.55,0,0,1,1.13-1.33c-.07-.15,0-.18-.14-.22,0-.16.15-.18.21-.18l-.35-.2c-.08.31-.39.21-.45.46l.5-.18c-.07.31-.5.78-.75.64,0-.13.22-.52.25-.62-.07.09-.32.12-.32,0l.16-.13c-.11-.16-.37.33-.46,0,0,0-.06-.45-.12-.27a5.81,5.81,0,0,1-.48,1.68,2.47,2.47,0,0,1-.23-.62c0-.3.35-.6.34-.85a.47.47,0,0,1-.15.18c0-.09.11-.25-.05-.25-.11.3-.27-.12-.14.24-.17,0-.13-.11-.3-.15a1.09,1.09,0,0,1-.52.67.72.72,0,0,0,0-.23c-.27-.12-.38-.31-.64-.39,0-.09-.1-.22,0-.33-.06,0-.12.13-.21.11-.07-.31.19,0,.17-.33-.06.17-.28.17-.44.25,0,.28.25.14.41.06a1.22,1.22,0,0,1-.78.8c-.25,0,0-.28-.07-.24-.39-.19-.56.56-.82.18,0-.28.15-.48.17-.67.21,0,.23.24.35.27l-.11-.16c.09-.06.22-.09.26,0,0-.25-.68-.26-.93-.56-.08.06-.21.11-.19.23H20c0,.23-.28.22-.17.35-.18.09-.4.26-.56.09l.06-.29c0,.08.06.2.15.14-.12.1-.18-.46-.37-.14l.06.24c-.17.09-.44.33-.57.2,0,.29.05,0,.07.33,0-.43.41.16.38-.31,0,.4.17.22.23.59,0-.1,0-.19.12-.1a.22.22,0,0,1,.06-.07h0a.25.25,0,0,1,0-.15c.14-.19.36-.11.47-.2.07.07-.07.09-.05.21l.16-.13c-.05.2.11.4-.12.47l.18.06c.07.14.19.24.31.18s.28-.16.15,0l.33,0,0,.05c.26.12.67-.15.87.31a.35.35,0,0,1,.35.05l0,.19c.14,0,.3.29.41.12,0,.51.54.28.73.43l.07-.22a1,1,0,0,0,.51,0l.06-.21c.2-.11.34.28.59.33,0,.07-.09,0-.12,0,.14.55.71-.13.87.28.09-.05.13,0,.16,0h0s0,.09.05.13a.4.4,0,0,0,0-.13.46.46,0,0,0,.23,0l0,.23h0c.05.1.09-.09.11-.26a.63.63,0,0,0,.13-.11c0,.2,0,.17.11.17l.55-1.73s-.08,0,0-.17c-.1.17-.26,0-.5.36,0,0,0-.08.05-.06s-.05-.15-.16-.1l.16-.24a1.85,1.85,0,0,1-.37.19.51.51,0,0,1,.33-.37.49.49,0,0,1-.25,0,.85.85,0,0,0-.33,0l.16-.11s-.31,0-.2-.12,0-.31,0-.52a.79.79,0,0,1,0-.67c-.53.15.22-.22-.2-.18.13,0,.19-.1.31,0-.16-.19.2-.29-.18-.43.13,0,.2,0,.27,0s-.11-.07,0-.08.11,0,.16.06c0-.19-.41-.23-.78-.27.18-.11.16-.16-.07-.27.12,0,.26-.08.29.06,0-.08.25-.43,0-.49.07,0,0-.11,0-.11,0-.2.06-.2.08-.38l-.05,0c-.34-.18,0-.16,0-.31h0c.35-.21-.07-.19.34-.36L25.19,6c-.44-.24.38-.14.3-.38h-.15c-.09-.19.73.09.82.06s0,.07.05.11c.36,0-.24-.19-.19-.39.15.07.31.28.4.2s-.19-.59.15-.5c-.11-.06-.23-.12-.24-.25s.18,0,.29,0,.19,0,.11-.2a.17.17,0,0,1,.08.06c0-.13.15-.31.1-.52.24.32.3.16.38,0s.18-.28.28.07a1.15,1.15,0,0,1,.23-.1V4.2c.15,0,.19-.14.25-.32,0,.05,0,.12,0,.15.22.16.2.14.47-.12l.36-1.12,0,0,0-.22c-.12.11-.36-.51-.77-.35l0-.06c-.41.12-.65-.92-1-.15l-.3.12c.3.16-.16.34-.08.51-.13,0-.23-.34-.07-.34v0c.2-.4-.33-.27-.24-.55-.62-.18-1.14-.6-1.71-.8l0,.34-.19-.08c0-.09,0-.27.15-.22,0-.2-.29.08-.32.15-.24-.22.24-.35.15-.38l-.12,0V.87c-.14.1-.19.25-.36.17s0-.22,0-.22,0-.06-.1,0L23.66.66l0,.29c-.16.09-.24-.08-.22.24,0-.5-.88-.46-.94-.63a.5.5,0,0,1-.56,0c0,.07,0,.37-.19.28.13-.28.07-.38,0-.46a.39.39,0,0,1-.14-.12A.53.53,0,0,1,21.49,0c.05.17-.12.14-.28.14s-.3.06-.2.29c-.17-.07,0-.24-.12-.4a1.75,1.75,0,0,1-.76.07,1.36,1.36,0,0,0-.82.14c0,.08.15.17.1.32L19,.3c-.08.09.15.47-.17.31.06.05.15.12.11.18a2,2,0,0,0-1.18.9,2.86,2.86,0,0,1-1.13,1c.21,0,.18,0,.13.14s.19.1.29.13c-.16.07-.29.15-.44.23.24.19-.15.42.12.56V3.65c.28.27.81.07,1.22.28-.15-.15,0-.19.18-.24s.31-.09.11-.33c.11,0,.11.11.22.14-.15-.15-.14-.24,0-.31l0,0c.16-.34.42-.36.77-.55l-.18-.13c.09,0,.15,0,.21,0-.16-.31-.18.15-.38-.17.21.12.31,0,.43-.08a.26.26,0,0,1,.41,0c.1-.06-.17-.19-.07-.26l.11.1L19.69,2c.09,0,.2.13.26.23l0,.07c.15.09.2-.17.2-.17H20a.75.75,0,0,1,.4-.19.65.65,0,0,0,.21-.06.75.75,0,0,0,.21-.12V1.68c.13-.09.17-.05.2,0s0,.11.24.13l0,0a.28.28,0,0,1,.3-.07c-.12.09.09.29-.06.38.4-.09.22-.11.56-.41v.19c.13-.13.16-.21.35-.2-.19.1,0,.29-.19.43.24.48.65-.2.64.38.31-.4-.23-.35-.1-.42,0-.17.24-.3.34-.21s0,.65.29.73c0,0,0,0-.06,0,.07.15.26-.09.33.14.17-.25.17.07.3-.28h-.29c.18,0,.45-.42.64-.14a.52.52,0,0,1-.22.17c0,.13.16,0,.2.11-.13.35-.34,0-.59.2,0,.17.39-.16.18.19.28-.45.27.16.59-.15l-.09.21s.14-.11.2-.08l-.2.24c.24-.19.24.31.44.22-.32-.09,0-.28-.08-.48.48-.15.05.64.52.67-.07,0-.18-.2-.06-.27a.62.62,0,0,1,.17.32c.3,0,0-.24.2-.32,0,.28.17-.07.32-.11l-.06.22c.28.24.22-.42.47-.16l-.22.26.18,0-.11.23c.22-.13.26-.06.4.06,0-.17.15-.39.3-.34s-.13.18.09.22c-.08.12-.19.27-.22,0A1.22,1.22,0,0,1,26.6,4c.06.18.26.12.34.14L26.87,4l.4-.21c0,.1,0,.15-.1.21s.15-.1.24-.08c-.07.16-.13.35-.28.39l.34-.11c0,.09.09.26,0,.31.13.16.5-.21.67,0a.17.17,0,0,1,.1-.07l.07,0,.74-2.34c-.23-.13-.49-.34-.84-.14A4,4,0,0,0,28,1.7c-.16,0-.08.15,0,.26s.06.22-.17.29-.14-.27-.27-.35a2.92,2.92,0,0,1-.29.34.34.34,0,0,1-.41.06C26.94,2.21,27,2.24,27.11,2.19ZM24.67,4c0-.08,0-.26.09-.2C24.92,4,24.8,4,24.67,4Zm-.9,4c-.07,0,0-.1.06-.16A.17.17,0,0,1,23.77,8ZM20.21,10.7h0C20.29,10.81,20.26,10.77,20.21,10.7ZM20,10.55a.09.09,0,0,0,0,.08c0-.05.08,0,.13,0S20.11,10.51,20,10.55ZM23.92.87l0,.07C23.83,1,23.87.93,23.92.87Z"/><path class="cls-2" d="M23.49,7.51h.13A.11.11,0,0,0,23.49,7.51Z"/><path class="cls-2" d="M28.17,4.55h0l0,0Z"/><path class="cls-2" d="M23.77,9.71a.14.14,0,0,1,0,.09A.07.07,0,0,0,23.77,9.71Z"/><path class="cls-2" d="M18.84,10.57l.15,0c-.07,0-.07-.06-.09-.1S18.88,10.58,18.84,10.57Z"/><path class="cls-2" d="M18.19,8.76s0,0,0,0l-.09.1C18.14,8.89,18.24,8.85,18.19,8.76Z"/><path class="cls-2" d="M19,9.81c.05-.18-.05-.15-.16-.14h0C18.7,9.92,18.83,9.87,19,9.81Z"/><path class="cls-2" d="M18.77,9.67l-.09,0C18.64,9.74,18.71,9.67,18.77,9.67Z"/><path class="cls-2" d="M19.74,10.58c0-.05-.1.23-.1.15C19.51,11,20,10.53,19.74,10.58Z"/><polygon class="cls-2" points="19.07 9.19 19.03 9.42 19.14 9.26 19.07 9.19"/><path class="cls-2" d="M19.73,9.58l-.12-.11s0,0-.06.07S19.72,9.65,19.73,9.58Z"/><path class="cls-2" d="M19.55,9.54s-.1,0-.13,0Z"/><polygon class="cls-2" points="19.29 9.18 19.32 9.24 19.41 9.29 19.29 9.18"/><path class="cls-2" d="M21.29,10.12h.18c0-.07,0-.13-.06-.13S21.29,10,21.29,10.12Z"/><path class="cls-2" d="M21,9.35a.57.57,0,0,1,0,.19l.09-.27Z"/><path class="cls-2" d="M21.49,9.43c0-.07.3-.15.09-.19C21.55,9.31,21.36,9.32,21.49,9.43Z"/><polygon class="cls-2" points="23.78 10.55 23.74 10.54 23.59 11 23.78 10.55"/><path class="cls-2" d="M26.24,10.13c-.15-.17-.13.27-.26.07-.08.1.11.16,0,.24C26.16,10.36,26.2,10.44,26.24,10.13Z"/><path class="cls-2" d="M26,10.44l-.07.05S26,10.46,26,10.44Z"/><polygon class="cls-2" points="16.24 3.4 16.09 3.51 16.27 3.47 16.24 3.4"/><path class="cls-2" d="M16.48,3.79l-.3-.07.23.17A.07.07,0,0,1,16.48,3.79Z"/><path class="cls-2" d="M23.91,4l.05.06c.09,0,.11,0,.17-.06Z"/><polygon class="cls-2" points="25.72 2.55 25.68 2.57 25.89 2.76 25.72 2.55"/><path class="cls-2" d="M27.7,1.49c-.11,0-.21.08-.32.08C27.6,1.48,27.75,1.83,27.7,1.49Z"/><path class="cls-3" d="M24.52,6.47c.71-2.23,2.58-3.63,4.19-3.12s2.33,2.73,1.62,5-2.58,3.62-4.19,3.11S23.81,8.7,24.52,6.47Z"/><path class="cls-2" d="M23.42,6.15s-.17-.08-.17-.08S23.47,6.17,23.42,6.15Z"/><polygon class="cls-2" points="23.69 6.89 23.61 6.87 23.79 7 23.69 6.89"/><path class="cls-2" d="M23.59,7.48c.34,0,0-.22.11-.31h.08l-.26-.1C23.53,7.21,23.7,7.4,23.59,7.48Z"/><path class="cls-2" d="M22.83,7.75c.14,0,.11.08.05-.09l0,0A.17.17,0,0,1,22.83,7.75Z"/><path class="cls-2" d="M22.85,7.68c0-.07-.11,0,0,0Z"/><path class="cls-2" d="M22.91,8l-.12-.1c-.08,0-.1.11-.15.07C22.69,8.08,22.78,8.05,22.91,8Z"/><path class="cls-2" d="M23.15,8.09l0,0S23.06,8.06,23.15,8.09Z"/><path class="cls-2" d="M23,7.94l.1.11s.16,0,0-.05C23.16,8,23.07,8,23,7.94Z"/><path class="cls-2" d="M23.05,7.89c.08,0,.13-.1.24,0C23.25,7.71,23,7.72,23.05,7.89Z"/><path class="cls-2" d="M23.93,7.55l.11,0-.11-.06C24,7.46,23.83,7.53,23.93,7.55Z"/><path class="cls-2" d="M22.74,8.58c.07,0,.19,0,.28-.05l-.09-.06A.24.24,0,0,1,22.74,8.58Z"/><path class="cls-2" d="M23,8.53l.13.09C23.15,8.54,23.1,8.52,23,8.53Z"/><path class="cls-2" d="M23.52,8.11,23.27,8l.25.19Z"/><polygon class="cls-2" points="22.77 8.99 22.6 8.95 22.86 9.02 22.77 8.99"/><path class="cls-2" d="M22.84,9.26c-.15,0-.22.1-.31.06s.16.12.28.16C22.74,9.43,22.74,9.35,22.84,9.26Z"/><path class="cls-2" d="M23,9.53l-.17,0A.49.49,0,0,0,23,9.53Z"/><path class="cls-2" d="M23.13,8.8a.29.29,0,0,0-.2.1l.2-.07Z"/><polygon class="cls-2" points="23.14 8.83 23.13 8.83 23.13 8.92 23.14 8.83"/><path class="cls-2" d="M23.13,8.78v0Z"/><path class="cls-2" d="M23.35,8.36c.11.05.23.15.4,0C23.61,8.37,23.52,8.44,23.35,8.36Z"/><path class="cls-2" d="M23.37,8.71l0-.1c-.05,0-.13,0-.19,0Z"/><polygon class="cls-2" points="23.44 8.76 23.37 8.71 23.36 8.76 23.44 8.76"/><path class="cls-2" d="M23.13,9.31a.19.19,0,0,1,.13.13.34.34,0,0,0,0-.19C23.22,9.25,23.11,9.24,23.13,9.31Z"/><path class="cls-2" d="M23.14,9.07h0Z"/><path class="cls-2" d="M23.42,10h0Z"/><path class="cls-2" d="M23.33,9.23a.14.14,0,0,0-.09-.08.23.23,0,0,1,.05.1S23.34,9.24,23.33,9.23Z"/><path class="cls-2" d="M23.11,9.67a.81.81,0,0,0,.09-.1C23.14,9.61,23.06,9.67,23.11,9.67Z"/><path class="cls-2" d="M23.11,9.11h0Z"/><path class="cls-2" d="M23.11,9.11s.08,0,.08,0a.06.06,0,0,0,0-.05Z"/><path class="cls-2" d="M24.69,9.7c-.18.06-.38,0-.22-.12a2.27,2.27,0,0,0-1,.39.36.36,0,0,1,.29,0c.08-.06.15-.28.33-.26s0,.12-.09.22c.2-.13.37,0,.68-.13l-.15-.05S24.65,9.74,24.69,9.7Z"/><path class="cls-2" d="M23.41,9.77l0,0a.81.81,0,0,1-.2.22.45.45,0,0,0,.25,0,1.74,1.74,0,0,1-.05-.22Z"/><path class="cls-2" d="M23.32,9.54c.2,0,.31.06.51,0,0-.11-.19,0-.28-.09.09.18-.13,0-.21.14a.58.58,0,0,1-.08-.1.27.27,0,0,1,0,.08v0h.08c0,.07,0,0-.05,0h0l.16.18C23.39,9.68,23.37,9.63,23.32,9.54Z"/><path class="cls-2" d="M24.19,8.47h-.05S24.18,8.49,24.19,8.47Z"/><path class="cls-2" d="M24.07,8.55H24c.08-.09.11,0,.18-.06a.2.2,0,0,0-.24,0h0a.76.76,0,0,1-.33.19A3.76,3.76,0,0,0,24.07,8.55Z"/><path class="cls-2" d="M23.72,9l.13.13L24,9l-.11,0C23.93,9,23.81,9,23.72,9Z"/><polygon class="cls-2" points="23.33 10.05 23.11 10.09 23.44 10.09 23.33 10.05"/><polygon class="cls-2" points="23.44 10.26 23.26 10.31 23.38 10.33 23.44 10.26"/><path class="cls-2" d="M29.48,6.43l-.06,0Z"/><path class="cls-2" d="M29.46,6.66h0Z"/><path class="cls-2" d="M28.66,12.24c.15.11.37.3.25.12l-.13-.16S28.71,12.26,28.66,12.24Z"/><path class="cls-2" d="M30,9H30l.11.08A.21.21,0,0,0,30,9Z"/><path class="cls-2" d="M29.27,8.58h0Z"/><path class="cls-2" d="M29,5.38l-.2.06S28.94,5.42,29,5.38Z"/><path class="cls-2" d="M25.09,12.17a.27.27,0,0,0,.11.2C25.17,12.22,25.2,12,25.09,12.17Z"/><path class="cls-2" d="M31.65,6.48a.16.16,0,0,0-.13,0A.39.39,0,0,0,31.65,6.48Z"/><path class="cls-2" d="M25.4,12.48a.19.19,0,0,0,0-.07.18.18,0,0,1-.18,0C25.21,12.49,25.27,12.58,25.4,12.48Z"/><path class="cls-2" d="M26.45,5.33h0S26.45,5.34,26.45,5.33Z"/><path class="cls-2" d="M23.86,5.67s0,0,0-.08S23.85,5.62,23.86,5.67Z"/><path class="cls-2" d="M23.81,11.17s0,0,0,0Z"/><path class="cls-2" d="M24.37,10.53l.1,0Z"/><path class="cls-2" d="M26.27,11.43h0S26.28,11.4,26.27,11.43Z"/><path class="cls-2" d="M23.85,11.05l0,.09Z"/><path class="cls-2" d="M23.77,11.11v0S23.72,11.09,23.77,11.11Z"/><path class="cls-2" d="M23.86,11.23a.3.3,0,0,1,0-.09v0Z"/><path class="cls-2" d="M28.18,3.88h0C28.14,3.94,28.15,3.93,28.18,3.88Z"/><polygon class="cls-2" points="28.26 9.92 28.26 9.94 28.27 9.94 28.26 9.92"/><path class="cls-2" d="M28.23,9.74c.14.22.1.21.1.21l.37.39Z"/><path class="cls-2" d="M29.35,5.91,29.19,6c-.32,0-.22-.09-.47,0,.64-.11.11.21.74.15l-.13.06,0,0c-.31.12.46,0,.38.17a.2.2,0,0,1-.21,0l.16.09h-.11l0,.15h0a2,2,0,0,1,.32.1c-.1,0-.07,0-.15,0l.15.09c-.17,0-.33,0-.3-.11-.64,0,.16.09-.22.22l-.08-.08c-.36,0-.23.09-.47.14.12,0,.59-.11.74,0-.06,0-.09.05,0,.11-.23,0-.18,0-.17.09l-.3,0a1.77,1.77,0,0,0,.36.15c0,.07-.27,0-.48,0-.06.1.39,0,.42.13-.13.08,0,.16.12.32-.12,0-.18,0-.27,0l.22.12s-.08,0-.08,0,.25.07.31.18c.31.12-.51,0-.19.23a2.75,2.75,0,0,1-.29-.11,2.53,2.53,0,0,0,.4.41l-.22,0A1,1,0,0,1,30,9l.26,0,.08.21a.81.81,0,0,1-.24-.14l0,0c-.1,0-.25-.08-.39-.19L30,9a2,2,0,0,0-.49-.29.2.2,0,0,1,.05.05l-.1,0a.38.38,0,0,0,.09.08l-.32-.12.12.07L29,8.78c.25.25.63.6.62.87a2.84,2.84,0,0,0-.57-.39c.29.11,0-.2.07-.25C29.1,9,29,9,29,8.93l.15.28c-.2-.12-.17-.06-.27-.07.41.23.19.29.26.43-.13-.09-.26-.2-.17-.25-.35-.13.37.42.07.33,0,0,0,0,0-.07.08.12-.09.16-.18.05l0,0c-.14.08-.29.32,0,.61l-.37-.41A10.65,10.65,0,0,1,29.14,11c-.22-.28-.83-.83-.88-1.05,0,0-.11,0-.08.09a3.26,3.26,0,0,1,.36.39c-.32-.24-.19-.11-.47-.31.07,0,.38.49.32.51s-.33-.42-.35-.48a5.49,5.49,0,0,1,.21.51,2.07,2.07,0,0,0-.36-.48c.06.08-.09.05-.09.12l.11.06c-.16,0,.26.72.09.79,0-.11-.27-.63-.36-.65A3.49,3.49,0,0,1,27.91,12l-.09-.14-.09.21a10.29,10.29,0,0,0-.18-1.64c-.1-.09-.09-.16-.15-.12a.35.35,0,0,1,0-.22l-.14,0c.11.3,0,.33.07.58a2.08,2.08,0,0,0,.06-.36c.13.29.2.89,0,.88a6.15,6.15,0,0,1-.15-.66c0,.11-.06.23-.07.16v-.17c-.07-.11,0,.42-.14.13,0,0-.11-.4-.09-.21a14.39,14.39,0,0,1,.16,1.75,2.11,2.11,0,0,1-.31-.51c-.05-.29.1-.68.05-.92a.87.87,0,0,1,0,.22c0-.07,0-.26,0-.23,0,.32-.12,0,0,.27-.08.09-.07-.07-.15-.07a1.33,1.33,0,0,1-.31.75,1.52,1.52,0,0,0,0-.19c-.16-.11-.19-.3-.33-.35a.62.62,0,0,1,.1-.3s-.11.12-.15.11c.07-.28.09,0,.2-.32-.09.17-.21.18-.33.25-.14.25.11.12.21.05a1.14,1.14,0,0,1-.78.68c-.2,0,.09-.25,0-.22-.18-.22-.66.34-.67-.06.11-.24.37-.34.49-.48.15,0,0,.24.08.29V11c.09,0,.19,0,.17.06,0-.11,0-.19-.11-.28a.46.46,0,0,1-.12-.35.47.47,0,0,0-.27.1l.07,0c-.13.17-.3.06-.33.18s-.43,0-.4-.16l.24-.17c-.08,0-.11.17,0,.15-.15,0,.24-.36-.12-.24l-.13.18c-.18,0-.52,0-.49-.18-.24.17,0,0-.22.24.33-.25.14.34.47,0-.3.27-.07.23-.27.52.07-.06.13-.14.16,0l.08,0h0a1,1,0,0,1,.09-.13c.22-.06.31.09.44.07s-.11,0-.16.13l.19,0c-.16.13-.16.37-.36.3l.09.14c0,.15,0,.28.16.28s.3,0,.14,0l.28.07,0,0c.2.2.6,0,.69.46a.35.35,0,0,1,.33.07l0,.19c.13,0,.31.27.4.09,0,.53.58.2.77.29v-.24a.73.73,0,0,0,.42-.18l0-.22c.11-.19.37.11.57,0,0,.08-.05.07-.1,0,.18.2.3.08.38-.07s.15-.29.32-.18c0-.09.06-.09.12-.06v0h0l.07.05s0-.05,0-.05a.76.76,0,0,0,.09-.16l.12.19,0,0c.09,0,0-.12-.13-.25a.38.38,0,0,0,0-.15c.24.28.06-.19.33.11-.07-.19.17-.29-.06-.64a.13.13,0,0,0,.06.06c.05,0,.13,0,.1-.11l.21.21c0-.14-.1-.26-.15-.38a.53.53,0,0,1,.35.35c-.09-.39,0-.21-.09-.57l.13.14s-.09-.29.05-.2c.36.13.46-.45.9-.56-.5-.24.3,0-.06-.24.12.05.21.05.28.16,0-.22.31-.15.06-.42.12.05.15.12.22.14s-.07-.1,0-.08.08.08.12.12c.07-.17-.29-.37-.62-.54.2,0,.19-.05,0-.21.13,0,.26,0,.26.14s.32-.26,0-.38c.07,0,0-.07,0-.07a1.21,1.21,0,0,0,.08-.28l-.05,0c-.33-.16-.05-.13-.07-.24h0c.31-.16-.09-.12.26-.28l-.23,0c-.46-.13.33-.14.17-.31l-.13,0c-.15-.09.69-.09.76-.17s.06,0,.09.07c.31-.17-.29-.07-.34-.24.16,0,.4.09.44,0s-.49-.36-.18-.48a.35.35,0,0,1-.33,0c0-.1.47-.29.08-.39l.09,0c-.1-.09-.17-.27-.39-.3.39-.07.28-.2.16-.3s-.25-.2.11-.26l-.09-.25.07,0c0-.17-.18-.19-.36-.19a.64.64,0,0,1,.15,0c.07-.28,0-.32-.39-.37L31,4.59c-.15,0,.18-.5-.21-.6a.3.3,0,0,1,.11,0c-.2-.06-.15-.29-.2-.48s-.12-.31-.47,0h-.28c.12.21-.28.25-.31.42-.08,0,0-.34.12-.3v0c.33-.31-.13-.3.05-.54a3.73,3.73,0,0,0-1.35-.79l0,.35-.17,0c0-.08,0-.27.09-.25-.06-.19-.23.15-.23.22-.23-.14.11-.39,0-.41l-.11,0,0,0c-.09.15-.09.3-.24.29s-.06-.22-.09-.22a0,0,0,0,0-.07,0h-.22l.12.26c-.07.14-.18,0-.05.3-.22-.46-.75,0-.86-.07a.33.33,0,0,1-.27.31c.05,0,.22.3.1.32-.27-.58-.33-.13-.66-.45.25.19-.26.26.11.53-.11,0-.14-.18-.29-.25,0,.33-.53.23-.7.52.07.06.19.11.24.24l-.41-.16c0,.08.32.35,0,.25.06,0,.16.08.16.13-.35.09-.45.39-.57.66a1,1,0,0,1-.72.64c.18,0,.18,0,.18,0a1.49,1.49,0,0,0,.27.18l-.38.1c.28.16-.07.25.21.38l0-.09c.3.2.78.13,1.2.31-.34-.24.63,0,.17-.35.09,0,.12.09.22.11-.16-.11-.18-.17-.06-.2l0,0c.07-.22.28-.22.52-.35l-.2-.1s.12,0,.17,0c-.24-.24-.09.11-.37-.14.41.19.23-.32.66,0,.05-.07-.21-.15-.16-.21l.12.08-.12-.13a1.12,1.12,0,0,1,.29.15.35.35,0,0,1,0,.06c.16.06.07-.17.12-.15h-.11c.05-.25.35-.27.33-.61l-.07-.08c0-.24.17,0,.26-.14v0a.55.55,0,0,1,0-.17c.07.12.23.16.25.31,0-.26,0-.19-.08-.59l.1.15c0-.16-.06-.24,0-.31,0,.16.13.23.13.44s.16,0,.19,0,.06-.15.14.13c0-.5-.19-.24-.17-.35s0-.37.05-.33.21.59.31.57l0,0c.05.12.07-.17.13,0,0-.3.06,0,.09-.36A.87.87,0,0,0,28,4c.06-.11.16-.54.28-.31a1.12,1.12,0,0,1-.1.22c0,.12.07-.07.09.05-.06.37-.15.07-.22.35s.13-.26.07.14c.09-.51.07.06.21-.3l0,.21.08-.11c0,.09-.07.18-.1.27.11-.23,0,.22.1.11-.08,0,.07-.26.07-.43.25-.22-.12.57,0,.52,0,0,0-.14.07-.23a.77.77,0,0,1-.05.26c.09,0,.1-.21.2-.31-.11.25.1-.08.2-.11l-.13.18c0,.2.31-.35.31-.14l-.25.22.1,0-.18.19c.17-.11.15,0,.14,0,.1-.13.3-.28.36-.23s-.18.12-.1.17c-.12.07-.27.18-.14,0l-.17.14c-.09.12,0,.09,0,.09l.05,0a3,3,0,0,1,.32-.11.51.51,0,0,1-.18.13s.12,0,.16,0a2.47,2.47,0,0,1-.41.22.78.78,0,0,1,.22,0,1.16,1.16,0,0,1-.22.18c-.07.09.38,0,.29.09a.34.34,0,0,1,.1,0c0,.1-.2.23.07.24l-.3.15c.09.06.38-.19.54-.09s-.27.11-.34.16c.17,0,.52,0,.27.17C29.34,6,29.38,5.94,29.35,5.91Zm.2,1.1s-.19-.08-.06-.08S29.63,7,29.55,7Zm0,2c-.05-.05,0-.05.08-.05S29.61,9,29.54,9Zm-5.22,2.56h0C24.33,11.64,24.34,11.59,24.32,11.52Zm0-.2a.19.19,0,0,0-.08,0c.05,0,.08,0,.09.05S24.36,11.33,24.28,11.32Zm3.47-9,.05.06C27.73,2.48,27.74,2.42,27.75,2.35Z"/><path class="cls-2" d="M29.35,8.63l.12,0A.31.31,0,0,0,29.35,8.63Z"/><polygon class="cls-2" points="29.07 5.37 29.07 5.36 29.02 5.38 29.07 5.37"/><path class="cls-2" d="M26.79,10.61a.14.14,0,0,1,0,.07A.07.07,0,0,0,26.79,10.61Z"/><path class="cls-2" d="M23.44,10.74l.11.07a.06.06,0,0,1,0-.08S23.46,10.77,23.44,10.74Z"/><path class="cls-2" d="M24.45,9.44s0,0-.05,0l-.1,0S24.41,9.5,24.45,9.44Z"/><path class="cls-2" d="M24.07,10.31c.18-.09.09-.11,0-.15h0C23.85,10.26,24,10.29,24.07,10.31Z"/><path class="cls-2" d="M24.09,10.15l0,0C24,10.12,24.05,10.12,24.09,10.15Z"/><path class="cls-2" d="M24,11.22s-.21.12-.16.06C23.66,11.4,24.27,11.32,24,11.22Z"/><polygon class="cls-2" points="24.62 10.01 24.42 10.12 24.61 10.07 24.62 10.01"/><path class="cls-2" d="M24.7,10.49v-.11a.13.13,0,0,1-.08,0S24.64,10.53,24.7,10.49Z"/><path class="cls-2" d="M24.62,10.4a.11.11,0,0,0-.08-.05Z"/><polygon class="cls-2" points="24.75 10.08 24.71 10.13 24.73 10.2 24.75 10.08"/><path class="cls-2" d="M25.39,11.3h.08c.1-.07.1-.11.05-.11A.22.22,0,0,0,25.39,11.3Z"/><path class="cls-2" d="M25.57,10.61a1.46,1.46,0,0,1-.09.16l.19-.22Z"/><path class="cls-2" d="M25.8,10.7c.05-.06.21-.12.14-.16S25.78,10.61,25.8,10.7Z"/><polygon class="cls-2" points="26.92 11.4 26.9 11.41 26.91 11.89 26.92 11.4"/><path class="cls-2" d="M27.56,10c-.12-.06.13.27,0,.18,0,.11.1.07.13.17C27.68,10.26,27.73,10.31,27.56,10Z"/><path class="cls-2" d="M27.69,10.39v0Z"/><polygon class="cls-2" points="23.51 5.88 23.38 5.94 23.55 5.93 23.51 5.88"/><path class="cls-2" d="M23.79,6.16l-.31-.08.25.14S23.71,6.15,23.79,6.16Z"/><path class="cls-2" d="M28.92,7.1H29c.09,0,.09,0,.11,0Z"/><polygon class="cls-2" points="29.18 6.38 29.17 6.39 29.44 6.34 29.18 6.38"/><path class="cls-2" d="M28.74,5.88l.05,0C28.73,5.9,29.07,5.79,28.74,5.88Z"/><path class="cls-1" d="M38,18.91c-.95-2.13-.49-4.43,1.05-5.12l7-3.13c-1.54.69-2,3-1,5.11s3,3.32,4.51,2.63l-7,3.14C41,22.23,39,21.05,38,18.91Z"/><path class="cls-2" d="M37,19.43c0-.07-.18,0-.18,0S37.06,19.41,37,19.43Z"/><polygon class="cls-2" points="37.93 20.15 37.86 20.19 38.11 20.2 37.93 20.15"/><path class="cls-2" d="M38.54,20.94c.19-.3-.28-.24-.29-.46l0-.07-.27.11C38.2,20.67,38.5,20.76,38.54,20.94Z"/><path class="cls-2" d="M38.44,21.85c.06-.12.17,0-.08-.12v0A.29.29,0,0,1,38.44,21.85Z"/><path class="cls-2" d="M38.36,21.77c-.09-.08,0,.13,0,0Z"/><path class="cls-2" d="M38.83,22.06h-.2c0,.08.08.18,0,.19C38.82,22.31,38.83,22.22,38.83,22.06Z"/><path class="cls-2" d="M39.1,22H39S39,22,39.1,22Z"/><path class="cls-2" d="M38.8,21.93l.2,0c0-.06.08-.15-.08,0C39,21.86,38.91,21.92,38.8,21.93Z"/><path class="cls-2" d="M38.76,21.83c0-.11-.07-.21.12-.21C38.64,21.47,38.51,21.68,38.76,21.83Z"/><path class="cls-2" d="M38.83,20.73v-.14l-.15,0C38.76,20.6,38.76,20.81,38.83,20.73Z"/><path class="cls-2" d="M39.61,22.76a1.57,1.57,0,0,1,.07-.29l-.15,0C39.56,22.56,39.65,22.66,39.61,22.76Z"/><path class="cls-2" d="M39.68,22.47l.21,0C39.76,22.36,39.7,22.4,39.68,22.47Z"/><path class="cls-2" d="M39.33,21.67a3.6,3.6,0,0,1-.36,0h.41Z"/><path class="cls-2" d="M40.29,23.05l-.16.12L40.4,23Z"/><path class="cls-2" d="M40.79,23.15c-.11.12.08.25,0,.31a.67.67,0,0,0,.42-.18C41.06,23.33,40.93,23.29,40.79,23.15Z"/><path class="cls-2" d="M41.39,23.14a.85.85,0,0,0-.21.14A.43.43,0,0,0,41.39,23.14Z"/><path class="cls-2" d="M40.16,22.6a.27.27,0,0,0,.06.24v-.21A.09.09,0,0,0,40.16,22.6Z"/><path class="cls-2" d="M40.22,22.62h0a1.13,1.13,0,0,1,.14.06Z"/><path class="cls-2" d="M40.14,22.58l0,0S40.16,22.56,40.14,22.58Z"/><path class="cls-2" d="M39.59,22.05c.14,0,.37-.06.29-.3C39.75,21.84,39.8,22,39.59,22.05Z"/><path class="cls-2" d="M40.16,22.32,40,22.21c0,.05,0,.13-.08.16Z"/><polygon class="cls-2" points="40.26 22.3 40.16 22.32 40.21 22.36 40.26 22.3"/><path class="cls-2" d="M41,22.91a.63.63,0,0,1,.3-.07,2.07,2.07,0,0,0-.33-.1C41,22.8,40.91,22.9,41,22.91Z"/><path class="cls-2" d="M40.63,22.77h0S40.64,22.74,40.63,22.77Z"/><path class="cls-2" d="M42.44,22.76l0,0v0Z"/><path class="cls-2" d="M41,22.69c-.07,0-.13,0-.19,0H41S41,22.69,41,22.69Z"/><path class="cls-2" d="M41.71,23.05l-.16-.11C41.59,23,41.69,23.11,41.71,23.05Z"/><path class="cls-2" d="M40.66,22.82h0S40.67,22.86,40.66,22.82Z"/><path class="cls-2" d="M40.66,22.82a.39.39,0,0,0,.14-.08l-.15,0Z"/><path class="cls-2" d="M42.33,21.44c.06.17-.06.4-.24.22-.11.17.06.77.32,1.06,0-.08,0-.15.13-.31-.1-.07-.45-.14-.34-.33s.19,0,.33.08c-.16-.19.15-.42,0-.72l-.11.18C42.36,21.56,42.39,21.46,42.33,21.44Z"/><path class="cls-2" d="M42,22.77l-.09,0c.11,0,.18.1.35.21.13-.12.14-.19.14-.25a3.29,3.29,0,0,1-.42,0Z"/><path class="cls-2" d="M41.57,22.82c.06-.19.24-.3.12-.51-.21,0-.15.16-.28.25.36,0-.12.11.15.24l-.22,0,.21.1h0s0,0,0,0h0a.26.26,0,0,1,0-.07c.1.05,0,.05,0,.05l0,.06h0a2.55,2.55,0,0,0,.39-.13A1.2,1.2,0,0,0,41.57,22.82Z"/><path class="cls-2" d="M40.22,21.44a.09.09,0,0,1,0,0S40.25,21.46,40.22,21.44Z"/><path class="cls-2" d="M40.27,21.6s-.08.08-.13,0,0-.08.07-.14-.2.06-.12.21l0,0a.83.83,0,0,1,.09.43A2.1,2.1,0,0,0,40.27,21.6Z"/><path class="cls-2" d="M40.82,22.22l.28,0L41,22v.1C40.85,22,40.86,22.14,40.82,22.22Z"/><path class="cls-2" d="M42.5,22.84v.22a1.81,1.81,0,0,0,.13-.35A.8.8,0,0,1,42.5,22.84Z"/><polygon class="cls-2" points="42.93 22.67 42.98 22.85 43.05 22.7 42.93 22.67"/><path class="cls-2" d="M43.58,12.33l0-.09S43.56,12.31,43.58,12.33Z"/><path class="cls-2" d="M43.46,12.94l.09,0S43.47,12.92,43.46,12.94Z"/><path class="cls-2" d="M49.63,19.66c.16.12.37.32.28.14l-.11-.18A.12.12,0,0,1,49.63,19.66Z"/><path class="cls-2" d="M45.62,16.85a.07.07,0,0,1,0,0l.19-.05Z"/><path class="cls-2" d="M44.89,17.28l0-.2A.62.62,0,0,0,44.89,17.28Z"/><path class="cls-2" d="M46.5,12v.22C46.62,12.12,46.54,12.05,46.5,12Z"/><path class="cls-2" d="M45.72,21.35a.47.47,0,0,0,.25,0C45.82,21.31,45.68,21.18,45.72,21.35Z"/><path class="cls-2" d="M45.67,13a.16.16,0,0,0-.12-.06A.14.14,0,0,0,45.67,13Z"/><path class="cls-2" d="M46.18,21.27l-.06,0a.27.27,0,0,1-.15.13C46.07,21.42,46.17,21.44,46.18,21.27Z"/><path class="cls-2" d="M38.86,15.75h0S38.86,15.76,38.86,15.75Z"/><path class="cls-2" d="M36.9,18.39s0-.08,0-.12A.21.21,0,0,0,36.9,18.39Z"/><path class="cls-2" d="M44.1,22.25c-.06.05,0,0,0,0Z"/><path class="cls-2" d="M43.49,21.64l0-.1Z"/><path class="cls-2" d="M46.24,19.86h0Z"/><path class="cls-2" d="M44,22.21l.1,0A.19.19,0,0,0,44,22.21Z"/><path class="cls-2" d="M44,22.29H44S44,22.35,44,22.29Z"/><path class="cls-2" d="M44.17,22.21a.12.12,0,0,1-.06,0v0Z"/><path class="cls-2" d="M42.12,13.12h0C42.08,13.22,42.1,13.19,42.12,13.12Z"/><polygon class="cls-2" points="48.32 19.53 48.33 19.52 48.32 19.52 48.32 19.53"/><path class="cls-2" d="M48,19.64c.17-.23.23-.18.32-.13,0-.19,0-.39,0-.59C48.2,19.16,48.11,19.41,48,19.64Z"/><path class="cls-2" d="M44.14,10.86l-.28.1c-.11-.41.11-.54-.23-.49.25.2.13.41,0,.62s-.17.43.13.56l-.17.08a.06.06,0,0,0,0-.06c-.36.13.37.32.21.6-.08.1-.19.16-.24.06a1.72,1.72,0,0,0,.11.29.06.06,0,1,1-.11,0c0,.13,0,.27,0,.39h0a2.83,2.83,0,0,1,.31.26c-.11.08-.07-.05-.15,0l.14.2c-.16.09-.32-.09-.29-.24-.65.17.15.18-.22.61l-.09-.21c-.35.14-.23.31-.43.56.11-.07.54-.5.71-.27,0,.06-.06.15.08.26-.22,0-.16.14-.12.28l-.31,0c.11.15.27.11.42.18s-.22.27-.41.35c0,.3.32-.27.46,0-.06.26.11.4.36.6,0,.19-.17,0-.24.12l.28,0-.1.06c.13.08.28-.1.42,0,.32-.09-.29.55.16.59-.05.1-.18.06-.27.13a1.43,1.43,0,0,0,.7.21c0,.09,0,.19-.05.28.11-.25.44-.23.71-.23a1.84,1.84,0,0,0,.14-.25l.27.11a.5.5,0,0,1-.24.13h.08c0,.13-.19.21-.37.26a1.63,1.63,0,0,1,.09-.19,1.46,1.46,0,0,0-.52.24.14.14,0,0,1,.11,0s-.09,0-.11.06h.14l-.23.24.12-.06.08.43c.45,0,1-.2,1.33-.06-.24.13-.28.3-.46.52.11-.31-.35-.12-.46-.33,0,.1-.06.18-.12.2l.5.07c-.17.17-.06.19,0,.34.24-.42.43-.06.66-.1-.08.14-.21.26-.36.1,0,.44.56-.29.57.07a.09.09,0,0,0-.12,0c.17-.05.37.17.24.26l0,0a1.21,1.21,0,0,0,.61.24c.24,0,.44-.05.5-.24a3.69,3.69,0,0,1-.18.53,4.32,4.32,0,0,0,.72-1.26,5.77,5.77,0,0,0,0,.74c0,.27,0,.53-.2.61a.31.31,0,0,0,.4,0c-.07,0-.15-.5-.07-.53.22.37.13.2.46.5-.11-.06-.07-.61,0-.62a3.15,3.15,0,0,1,.07.59,2.68,2.68,0,0,0,.21-.6.75.75,0,0,0,.25.55c0-.06.13-.08.27-.13l-.78-1.76-.07,0,.11.08.69,1.55,0,0h0l-.67-1.51c-.27.08,0,.8-.24.89,0-.11-.19-.65-.35-.65a4.63,4.63,0,0,1,.09,1.62l-.11-.12-.11.24a10.19,10.19,0,0,1,0-1.74c-.16-.06-.1-.15-.25-.07a.18.18,0,0,1,0-.27l-.4.08c.15.28-.14.42,0,.65l.26-.48c.14.29.14.93-.14,1-.12-.09-.18-.54-.23-.63,0,.11-.16.3-.22.24l0-.21c-.19,0-.06.49-.35.29-.06,0-.34-.29-.28-.12a6,6,0,0,1,.77,1.58,2.85,2.85,0,0,1-.59-.31c-.21-.22-.13-.69-.31-.87a.54.54,0,0,1,0,.25c-.09,0-.08-.26-.2-.17.1.31-.29.1,0,.28-.09.14-.16,0-.31.09a1.1,1.1,0,0,1,0,.85.46.46,0,0,0-.13-.2c-.28.09-.49,0-.74.14-.06-.07-.21-.1-.22-.25,0,.07,0,.18-.08.22-.26-.18.16-.11-.09-.37.07.18-.1.33-.16.48.15.25.28-.06.34-.21a1.2,1.2,0,0,1,0,1.11c-.17.18-.19-.19-.21-.13-.42.11-.05.79-.49.67-.24-.17-.21-.45-.32-.61.14-.17.33,0,.44,0l-.18-.05c0-.1.1-.21.19-.17-.2-.16-.68.26-1.07.2,0,.1-.08.23,0,.3l.08-.07c.17.14-.06.33.1.37-.08.18-.13.46-.35.43l-.16-.25c0,.08.19.11.21,0,0,.15-.44-.23-.37.15l.21.13c-.07.19-.1.54-.3.53.19.23,0,0,.27.21-.27-.34.42-.17.08-.49.28.29.27,0,.56.28,0-.08-.13-.13,0-.15a.31.31,0,0,1,0-.09h0a.38.38,0,0,1-.12-.1c0-.23.19-.32.22-.46s0,.12.1.19l0-.2c.09.19.35.23.22.42l.17-.06c.14.06.3,0,.35-.08s.11-.3.11-.12l.21-.24,0,.05c.28-.09.4-.57.85-.35a.38.38,0,0,1,.31-.2l.11.15c.08-.11.41,0,.38-.17.32.39.59-.16.83-.16l-.09-.22a1,1,0,0,0,.38-.34l-.1-.18c.08-.23.44,0,.66-.16,0,.08-.05.09-.11.06.48.31.45-.58.84-.37,0-.1.09-.1.09-.1l0,0h0l.13.06-.09-.06a1.77,1.77,0,0,0,.13-.17l.13.19h0c.1,0,0-.12-.1-.27a.38.38,0,0,0,0-.16c.11.16.13.09.17.05l-.73-1.65s-.05.05-.13-.11c0,.2-.17.2-.15.6a.1.1,0,0,0,0-.07s-.11-.09-.16,0l0-.28a3,3,0,0,1-.14.39.49.49,0,0,1,0-.5c-.1.17-.15.19-.2.21a1,1,0,0,0-.2.21l.05-.19c-.06,0-.24.2-.24,0s-.18-.25-.37-.37a.83.83,0,0,1-.44-.51c-.29.48,0-.31-.26,0,.06-.11.08-.2.2-.24-.24,0-.05-.35-.42-.2.08-.11.17-.1.22-.16s-.13,0-.08,0,.1-.05.16-.06c-.13-.14-.46.09-.76.31.06-.19,0-.22-.24-.15.08-.1.15-.23.26-.14,0-.08-.1-.49-.36-.35.05-.06,0-.1,0-.1a2.17,2.17,0,0,0-.19-.34l0,.06c-.36.09-.14-.11-.23-.22h0c.12-.4-.18-.09,0-.49l-.22.08c-.48.1.2-.36,0-.49l-.11.1c-.2-.08.6-.41.65-.5a.29.29,0,0,1,.1.05c.26-.27-.3,0-.38-.16.15-.05.4,0,.42-.12s-.53-.32-.22-.47c-.13,0-.25.06-.34,0s.11-.15.19-.22.13-.14,0-.23h.09c-.08-.11-.09-.34-.27-.46.4.08.34-.08.31-.24s-.06-.33.24-.14a1.51,1.51,0,0,1,.11-.22l.05.05c.13-.09.06-.22,0-.4.06,0,.08.07.11.11.26,0,.24,0,.27-.4l.42-4.91-.9,3.84v0L45.73,10c0,.16-.6-.13-.8.26v-.11c-.24.41-1.1-.21-.88.62l-.15.29c.32-.07.1.36.29.43-.1.1-.41-.09-.28-.2l0,0c-.12-.43-.43,0-.55-.26-.57.28-1.25.32-1.8.54l.2.29-.2.07c-.08,0-.17-.22,0-.27-.15-.14-.15.26-.13.33-.33,0-.06-.42-.15-.39l-.09.08,0,0c0,.17,0,.31-.15.37s-.15-.17-.19-.17,0,0-.07,0l-.25.09.2.2c0,.17-.23.08,0,.32-.36-.36-1,.25-1.13.16a.51.51,0,0,1-.41.37c.06,0,.22.3,0,.33-.1-.3-.2-.33-.31-.33h-.19a.5.5,0,0,1-.27-.11c.15.09,0,.19-.11.3s-.19.23,0,.34c-.18.06-.15-.19-.36-.22a1.57,1.57,0,0,1-.53.56,1.36,1.36,0,0,0-.51.65c.07,0,.22,0,.28.17a3.88,3.88,0,0,0-.49.11c0,.11.41.24.08.34.07,0,.19,0,.19,0a2,2,0,0,0-.27,1.46,3,3,0,0,1-.15,1.54c.12-.17.16-.09.19,0,0-.08.2-.05.31-.09a2.43,2.43,0,0,0-.19.47c.31,0,.17.4.46.32l-.1-.09c.4,0,.65-.48,1.1-.61-.22,0-.11-.15,0-.29s.17-.27-.14-.33c.08-.06.16,0,.24,0-.2,0-.25-.09-.19-.23h0c-.1-.36.08-.55.22-.92l-.23,0c0-.09.12-.1.17-.13-.33-.13,0,.23-.4.12.23-.05.23-.2.28-.34s.07-.27.33-.24c0-.11-.26,0-.23-.15h.15l-.17-.08c.06-.07.24,0,.35,0l0,.08c.18,0,0-.25.1-.26l-.12.06a.67.67,0,0,1,.18-.42l.12-.18a1.68,1.68,0,0,0,.07-.24l-.08-.07c0-.15.09-.15.15-.13s.1.05.26-.07v0a.33.33,0,0,1,.18-.25c0,.15.26.15.2.32.24-.33.1-.22.15-.67l.12.14c0-.18,0-.26.13-.37-.07.2.22.2.15.44.49.2.35-.57.73-.13,0-.52-.41-.12-.36-.25a.25.25,0,0,1,.11-.4c.11,0,.44.49.71.36,0,0,0,0,0,0s.1-.23.31-.1c-.05-.31.17-.07,0-.42l-.22.2c.11-.15.06-.62.38-.53a.61.61,0,0,1,0,.27c.12.07.1-.12.22,0,.14.35-.28.21-.31.54.14.11.18-.38.27,0-.1-.52.3-.06.32-.51l.08.21s0-.17.09-.18l0,.31c0-.3.38.06.47-.13-.3.15-.18-.21-.37-.31.25-.44.45.44.83.16-.05.05-.27,0-.23-.16a.51.51,0,0,1,.34.12c.26-.17-.14-.19-.07-.37.2.2.09-.17.17-.3l.1.21c.38,0-.11-.47.25-.44v.34l.12-.13.08.24c.08-.24.15-.22.34-.22-.1-.13-.15-.39,0-.46.15.08,0,.22.22.1,0,.15,0,.34-.14.18a2.07,2.07,0,0,1,0,.22c.16.1.27-.08.34-.11l-.1,0,.16-.41c.08.06.07.13.07.22s0-.17.12-.22c.05.17.14.35.05.48l.19-.31c0,.07.23.13.23.22.19,0,.22-.5.48-.46l0-.12h.08l-1-2.24c-.27.06-.6.07-.73.46l-.38-.11c-.09.14,0,.16.15.21s.2.12.07.32-.29-.1-.44-.07a3,3,0,0,1,0,.43.33.33,0,0,1-.27.32C44,11,44.11,11,44.14,10.86Zm-.61,3c0-.05-.19-.16-.06-.21S43.61,13.74,43.53,13.84Zm2,3.57c-.09,0-.09-.05-.07-.15S45.51,17.32,45.51,17.41Zm-.85,4.39h0C44.78,21.83,44.74,21.82,44.66,21.8Zm-.24,0a.09.09,0,0,0,0,.09.07.07,0,0,1,0-.08C44.5,21.75,44.45,21.73,44.42,21.8ZM40.88,12l.06,0C40.88,12.13,40.88,12.07,40.88,12Z"/><path class="cls-2" d="M45,17.24a.3.3,0,0,1,.05-.07S45,17.17,45,17.24Z"/><path class="cls-2" d="M46.5,11.91h0a0,0,0,0,0,0,0Z"/><path class="cls-2" d="M46.65,18.69a.17.17,0,0,1,.09,0S46.72,18.68,46.65,18.69Z"/><path class="cls-2" d="M43.54,22.62l.1-.12a.37.37,0,0,1-.14,0C43.53,22.54,43.58,22.59,43.54,22.62Z"/><path class="cls-2" d="M41.85,21.7s0,0-.05,0v.11C41.9,21.82,42,21.73,41.85,21.7Z"/><path class="cls-2" d="M43.12,22c-.09-.16-.14-.07-.21,0h0C43,22.22,43.06,22.1,43.12,22Z"/><path class="cls-2" d="M42.89,22l-.08,0C42.84,22.13,42.85,22,42.89,22Z"/><path class="cls-2" d="M44.22,22c-.06,0,.08.23,0,.17C44.3,22.45,44.4,21.81,44.22,22Z"/><polygon class="cls-2" points="42.79 21.43 42.92 21.64 42.89 21.44 42.79 21.43"/><path class="cls-2" d="M43.56,21.28h-.18v.09C43.47,21.34,43.58,21.34,43.56,21.28Z"/><path class="cls-2" d="M43.38,21.38s-.09,0-.09.08S43.36,21.42,43.38,21.38Z"/><polygon class="cls-2" points="42.95 21.28 43.01 21.31 43.12 21.28 42.95 21.28"/><path class="cls-2" d="M45.07,20.65l.13-.13c0-.08-.08-.11-.13-.05S45,20.59,45.07,20.65Z"/><path class="cls-2" d="M44.35,20.26c.06,0,.08.08.14.14l-.12-.27Z"/><path class="cls-2" d="M44.76,20c0-.07.13-.31-.06-.2C44.72,19.88,44.6,20,44.76,20Z"/><polygon class="cls-2" points="47.22 19.32 47.17 19.34 47.38 19.78 47.22 19.32"/><path class="cls-2" d="M48.78,17.36c-.24,0,.07.29-.15.23,0,.13.18.05.18.16C48.86,17.59,49,17.63,48.78,17.36Z"/><path class="cls-2" d="M48.81,17.75a.32.32,0,0,0,0,.09A.92.92,0,0,0,48.81,17.75Z"/><polygon class="cls-2" points="36.83 18.99 36.79 19.17 36.91 19.02 36.83 18.99"/><path class="cls-2" d="M37.27,19.12l-.27.15.29,0S37.21,19.17,37.27,19.12Z"/><path class="cls-2" d="M43,14.34H43c.08,0,.09-.07.09-.15Z"/><polygon class="cls-2" points="43.34 12.05 43.32 12.09 43.61 12.09 43.34 12.05"/><path class="cls-2" d="M44.11,9.94c-.08.07-.1.2-.18.27C44,10,44.38,10.16,44.11,9.94Z"/><path class="cls-3" d="M45.06,15.77c-1-2.13-.49-4.42,1-5.11s3.56.49,4.51,2.63.49,4.43-1,5.11S46,17.91,45.06,15.77Z"/><path class="cls-2" d="M44,16.27s-.18.05-.18.05S44.06,16.25,44,16.27Z"/><polygon class="cls-2" points="44.72 16.64 44.64 16.68 44.86 16.66 44.72 16.64"/><path class="cls-2" d="M45,17.15c.25-.24-.17-.15-.12-.31l.05-.05-.25.1C44.81,17,45.06,17,45,17.15Z"/><path class="cls-2" d="M44.65,17.85c.09-.1.13,0,0-.09l0,0Z"/><path class="cls-2" d="M44.61,17.79c0-.05-.06.1,0,0Z"/><path class="cls-2" d="M44.87,18h-.15c0,.06,0,.13-.07.15C44.76,18.18,44.8,18.12,44.87,18Z"/><path class="cls-2" d="M45.11,17.9H45S45,17.94,45.11,17.9Z"/><path class="cls-2" d="M44.9,17.89H45s.11-.12-.06,0C45.07,17.83,45,17.87,44.9,17.89Z"/><path class="cls-2" d="M44.91,17.81c0-.08,0-.16.16-.16C44.94,17.54,44.76,17.71,44.91,17.81Z"/><path class="cls-2" d="M45.33,17l.05-.11-.12,0C45.32,16.88,45.24,17,45.33,17Z"/><path class="cls-2" d="M45.14,18.54a2.21,2.21,0,0,1,.17-.23H45.2A.41.41,0,0,1,45.14,18.54Z"/><path class="cls-2" d="M45.31,18.31l.15,0C45.41,18.22,45.36,18.25,45.31,18.31Z"/><path class="cls-2" d="M45.4,17.67l-.29,0,.31,0Z"/><polygon class="cls-2" points="45.42 18.82 45.27 18.9 45.51 18.79 45.42 18.82"/><path class="cls-2" d="M45.65,19c-.12.08-.1.22-.19.26a.48.48,0,0,0,.31-.07C45.69,19.16,45.65,19.11,45.65,19Z"/><path class="cls-2" d="M45.94,19.09a.68.68,0,0,0-.17.07A.56.56,0,0,0,45.94,19.09Z"/><path class="cls-2" d="M45.56,18.44a.37.37,0,0,0-.08.2l.11-.18Z"/><path class="cls-2" d="M45.59,18.46h0l.06.07Z"/><path class="cls-2" d="M45.55,18.43h0S45.57,18.41,45.55,18.43Z"/><path class="cls-2" d="M45.43,18c.12,0,.28,0,.34-.24C45.64,17.8,45.62,17.91,45.43,18Z"/><path class="cls-2" d="M45.69,18.21l0-.1a.35.35,0,0,1-.14.13Z"/><polygon class="cls-2" points="45.77 18.2 45.69 18.21 45.71 18.25 45.77 18.2"/><path class="cls-2" d="M45.9,18.82a.23.23,0,0,1,.2,0,.41.41,0,0,0-.11-.16C45.94,18.71,45.85,18.79,45.9,18.82Z"/><path class="cls-2" d="M45.76,18.64h0Z"/><polygon class="cls-2" points="46.57 19.14 46.58 19.1 46.56 19.13 46.57 19.14"/><path class="cls-2" d="M46,18.63a.11.11,0,0,0-.12,0l.11,0S46,18.64,46,18.63Z"/><path class="cls-2" d="M46.14,19.1s0-.09,0-.13S46.1,19.14,46.14,19.1Z"/><path class="cls-2" d="M45.75,18.68h0S45.73,18.71,45.75,18.68Z"/><path class="cls-2" d="M45.75,18.68a.43.43,0,0,0,.13-.05.14.14,0,0,0-.11,0Z"/><path class="cls-2" d="M47.32,18.07c-.08.17-.26.27-.23.06a2.34,2.34,0,0,0-.51,1,.37.37,0,0,1,.23-.18c0-.11-.08-.31.08-.41s.06.1.06.22c.07-.24.3-.24.42-.55l-.13.06S47.33,18.13,47.32,18.07Z"/><path class="cls-2" d="M46.42,19h-.05a.94.94,0,0,1,0,.3.27.27,0,0,0,.19-.14L46.39,19Z"/><path class="cls-2" d="M46.21,18.87c.14-.14.27-.17.34-.39-.1,0-.17.1-.28.13.2.07-.11.06-.06.24a.17.17,0,0,1-.11,0l0,.14v0h0s0,0,0,0h0l.05-.05c0,.07,0,.05,0,.05l0,0h0l.24,0A.63.63,0,0,0,46.21,18.87Z"/><path class="cls-2" d="M46.14,17.49l0,0S46.15,17.51,46.14,17.49Z"/><path class="cls-2" d="M46.1,17.63s-.09.06-.11,0,.08-.07.12-.12-.17,0-.18.17h0a.94.94,0,0,1-.13.36C45.94,17.89,46,17.78,46.1,17.63Z"/><path class="cls-2" d="M46.15,18.2l.18,0,.05-.19-.06.09C46.27,18,46.21,18.15,46.15,18.2Z"/><polygon class="cls-2" points="46.54 19.24 46.41 19.41 46.65 19.2 46.54 19.24"/><polygon class="cls-2" points="46.76 19.32 46.67 19.49 46.77 19.42 46.76 19.32"/><path class="cls-2" d="M48.73,12.45h0Z"/><path class="cls-2" d="M48.88,12.63l.07-.06C48.9,12.59,48.87,12.61,48.88,12.63Z"/><path class="cls-2" d="M52,17.33c.2,0,.48,0,.29-.07l-.21-.05C52.07,17.28,52,17.31,52,17.33Z"/><path class="cls-2" d="M50.83,14l-.06,0h.06Z"/><path class="cls-2" d="M50,14.2l.1-.1A.32.32,0,0,0,50,14.2Z"/><path class="cls-2" d="M47.7,12l-.11.18Z"/><path class="cls-2" d="M49.27,19.66a.31.31,0,0,0,.22.07C49.36,19.65,49.27,19.49,49.27,19.66Z"/><path class="cls-2" d="M50.38,11a.18.18,0,0,0-.12.05S50.35,11.08,50.38,11Z"/><path class="cls-2" d="M49.71,19.67l0,0a.33.33,0,0,1-.18.08C49.58,19.8,49.68,19.84,49.71,19.67Z"/><path class="cls-2" d="M45.73,13.64h0Z"/><path class="cls-2" d="M44,15.61l0-.06S44,15.59,44,15.61Z"/><path class="cls-2" d="M47.65,19.76s0,0,0,0Z"/><path class="cls-2" d="M47.65,18.91a.44.44,0,0,0,.05-.09A.31.31,0,0,1,47.65,18.91Z"/><path class="cls-2" d="M49.67,18.31Z"/><path class="cls-2" d="M47.6,19.65l0,.07A.31.31,0,0,0,47.6,19.65Z"/><path class="cls-2" d="M47.59,19.74l-.05,0S47.53,19.76,47.59,19.74Z"/><path class="cls-2" d="M47.72,19.76a.13.13,0,0,1-.07,0v0Z"/><path class="cls-2" d="M46.06,11.41h0C46.08,11.48,46.08,11.46,46.06,11.41Z"/><polygon class="cls-2" points="50.15 15.87 50.15 15.87 50.16 15.87 50.15 15.87"/><path class="cls-2" d="M50,15.75c.25.06.22.09.16.12h.59Z"/><path class="cls-2" d="M48.29,12.15l0,.18c-.26.19-.23.08-.34.32.4-.5.22.09.65-.38l-.06.14s0,0,0,0c-.15.28.36-.3.4-.15a.26.26,0,0,1-.13.19l.18,0-.09.07.15.08h0a1.89,1.89,0,0,1,.31-.13c0,.09-.07,0-.12.08l.17,0c-.1.13-.28.18-.3.11-.44.46.18,0,0,.31h-.11c-.26.25-.12.22-.26.41.09-.07.37-.47.55-.49,0,.05,0,.09.1.06-.18.13-.1.13-.1.13l-.22.21a1.27,1.27,0,0,0,.37-.13c0,.08-.18.22-.34.33,0,.12.28-.26.4-.17-.05.14.09.13.3.15-.06.11-.17.08-.23.14l.24-.05-.11.06c.11,0,.28-.13.39-.09.32-.12-.37.36,0,.3-.07.06-.17.06-.28.11a2.38,2.38,0,0,0,.57,0l-.16.17a1,1,0,0,1,.72-.11l.18-.12.24.07A.73.73,0,0,1,51,14H51c-.07.09-.24.11-.42.12a.76.76,0,0,0,.16-.11,4.46,4.46,0,0,0-.55.11h.07l-.1,0s0,0,.11,0L50,14.3l.14,0-.17.22c.36,0,.88,0,1,.24a2.91,2.91,0,0,0-.69.09c.29-.1-.15-.13-.12-.23,0,.06-.16.08-.2.07a2.68,2.68,0,0,1,.3.12c-.24,0-.17.07-.26.13.46-.11.34.08.48.14-.15,0-.31,0-.28-.07-.35.13.56.06.26.2,0,0,0,0-.06,0,.15,0,.05.18-.09.15v0c-.05.15,0,.43.4.48l-.57-.06a11.92,11.92,0,0,1,1.33.38,5.58,5.58,0,0,1-1.35-.2s-.11.06,0,.14a2.24,2.24,0,0,1,.53,0c-.39,0-.21,0-.55.09.08,0,.6.11.58.17s-.53-.1-.58-.13a4.44,4.44,0,0,1,.49.24A1.92,1.92,0,0,0,50,16.3c.1,0,0,.1,0,.14l.13,0c-.11.11.67.37.58.53a1.83,1.83,0,0,0-.7-.24c.25.11,1.13.66,1.22.95l-.15-.05.08.22A11.13,11.13,0,0,0,50,16.73c-.13,0-.17-.06-.18,0a.38.38,0,0,1-.19-.13l-.14.06c.29.15.22.24.44.39a1.27,1.27,0,0,0-.2-.31c.3.13.75.52.61.63a4,4,0,0,1-.54-.39c.08.07.11.21,0,.17L49.69,17c-.13,0,.26.34,0,.21,0,0-.34-.24-.21-.1a12.62,12.62,0,0,1,1.29,1.19,1.69,1.69,0,0,1-.57-.18c-.22-.18-.38-.57-.58-.72a1.57,1.57,0,0,1,.13.2c-.07,0-.17-.21-.19-.15.2.26-.11.05.15.23,0,.12-.1,0-.15,0a1.41,1.41,0,0,1,.26.77l-.13-.2c-.17.07-.32-.06-.45,0a.6.6,0,0,1-.14-.29c0,.06,0,.17,0,.18-.13-.25.07-.06-.06-.37a.63.63,0,0,1-.08.4c.06.29.16,0,.19-.1a1.17,1.17,0,0,1-.13,1c-.17.12-.1-.24-.13-.19-.29,0-.27.7-.54.41a2.13,2.13,0,0,1,.05-.69c.12-.09.17.17.25.17l-.09-.13c0-.08.11-.14.15-.07,0-.11-.14-.13-.26-.14a.47.47,0,0,1-.33-.17c0,.07-.13.13-.12.24l.07,0c0,.22-.19.24-.13.36-.13.12-.31.3-.41.15l.07-.29c0,.09,0,.2.1.13-.11.1-.06-.44-.26-.11l0,.22c-.14.1-.39.33-.48.2-.07.28,0,0,0,.32.08-.41.33.16.36-.3,0,.4.1.22.14.57,0-.1,0-.19.11-.11l.05-.07h0v0h0s0-.1,0-.1c.13-.25.29-.18.37-.29.06.06,0,.1,0,.21l.12-.15c0,.2.13.38-.06.47l.16,0a.21.21,0,0,0,.31.1c.07.05.2-.23.13-.06l.25-.14v.06c.27,0,.44-.41.82-.11a.34.34,0,0,1,.29-.18l.1.16c.08-.09.41,0,.36-.18.37.37.57-.24.76-.31L51,19a.55.55,0,0,0,.19-.41L51,18.41c-.06-.21.34-.17.43-.36.06.05,0,.08,0,.09.27,0,.28-.15.24-.31s-.09-.31.12-.35c-.05-.07,0-.1,0-.11h0v0a.53.53,0,0,0,.13,0l-.12,0a.3.3,0,0,0,0-.18l.22,0h0c.1,0-.09-.08-.26-.11a.9.9,0,0,0-.1-.12c.36.07-.09-.17.31-.13-.18-.09-.07-.33-.46-.43a.17.17,0,0,0,.08,0,.08.08,0,0,0,0-.15l.29,0c-.12-.07-.24-.12-.36-.18a.53.53,0,0,1,.5,0c-.33-.23-.12-.18-.45-.36h.19s-.25-.16-.1-.18c.37-.14,0-.64.31-1-.53.15.21-.2-.2-.15.12,0,.18-.1.3-.07-.15-.15.14-.3-.23-.34.12,0,.19,0,.26,0s-.12,0-.05-.06.11,0,.18,0c-.07-.19-.46-.09-.83,0,.15-.14.11-.17-.14-.16.1-.06.21-.15.29-.06,0-.06.05-.42-.24-.31.06,0,0-.09,0-.09a1.58,1.58,0,0,0-.13-.26l0,.06c-.35.09-.12-.06-.2-.14h0c.13-.33-.16,0,0-.39l-.19.12c-.44.22.14-.31-.09-.34l-.08.11c-.18,0,.46-.53.45-.64h.12c.11-.34-.27.14-.41.06.11-.12.35-.2.32-.31s-.61,0-.45-.24c-.08.1-.16.2-.27.2s.16-.53-.2-.35a.35.35,0,0,1,0-.08c-.13,0-.31-.08-.49,0,.24-.31.07-.33-.08-.34s-.31,0-.09-.26l-.24-.13,0-.05c-.12-.13-.27,0-.4.09,0-.06.05-.11.07-.13-.13-.26-.2-.24-.53,0l.08-.22c-.1.11-.2-.5-.55-.31a.43.43,0,0,1,.06-.09c-.18.09-.31-.12-.46-.23s-.31-.16-.4.27l-.2.2c.24.08,0,.37.05.51-.07,0-.21-.26-.11-.3l0,0c0-.45-.29-.13-.31-.44a3.72,3.72,0,0,0-1.54.31l.24.26-.14.07c-.09,0-.22-.18-.11-.24-.17-.12-.07.26,0,.32-.27.05-.18-.37-.24-.34l-.05.06,0,.05c0,.17.13.28,0,.36s-.19-.11-.22-.1,0,0,0,0a1.22,1.22,0,0,0-.17.15l.27.11c0,.15-.13.13.16.26-.48-.2-.55.51-.69.51a.34.34,0,0,1,0,.42c.07,0,.36.08.29.17-.59-.24-.33.12-.79.1.31,0,0,.38.44.32-.07.09-.24,0-.4,0,.2.28-.24.53-.16.85a.79.79,0,0,1,.33,0l-.41.16c0,.06.48,0,.19.15l.17,0a1.1,1.1,0,0,0,.05.91.94.94,0,0,1-.12,1c.13-.13.17-.08.17-.08a.86.86,0,0,0,.32-.05l-.22.33c.31-.07.12.24.41.14l-.08-.05c.36,0,.67-.42,1.11-.56-.42,0,.47-.42-.11-.37.07-.06.14,0,.24-.06-.2,0-.25,0-.2-.11h.06c-.1-.21,0-.35.15-.6l-.22,0s.09-.07.14-.1c-.35,0,0,.14-.37.14.42-.13-.05-.39.47-.46,0-.08-.26,0-.26,0l.14,0-.18,0s.2-.08.32-.08l0,0c.17-.06,0-.17,0-.2l-.09.07c-.13-.22.08-.43-.16-.68h-.11c-.15-.2.15-.1.1-.28h0a.49.49,0,0,1-.13-.12c.14,0,.28,0,.39.06-.14-.22-.13-.12-.44-.39l.17.06c-.12-.11-.2-.15-.2-.26.11.14.26.09.4.25.21,0,.15-.07.12-.16s-.06-.15.18,0c-.34-.35-.29-.05-.35-.14s-.27-.27-.18-.28.54.3.61.22v0c.11.06-.06-.18.11-.07-.17-.24.06,0-.17-.32l0,.14c0-.12-.24-.5,0-.41a1.19,1.19,0,0,1,.07.23c.1.07,0-.1.11,0,.2.32-.07.15.06.41.12.1-.08-.27.15.06-.27-.44.09,0,0-.36l.1.19v-.14a1.48,1.48,0,0,0,.1.27c-.07-.24.17.15.15,0-.08,0-.12-.25-.23-.37,0-.34.29.51.35.38,0,0-.09-.12-.09-.23a.88.88,0,0,1,.13.23c.06-.06-.06-.22-.06-.37.08.27,0-.12.08-.21l0,.23c.12.14,0-.48.13-.31,0,.11,0,.21-.05.32l.06-.09v.26c.06-.19.08-.13.13-.06,0-.16.05-.41.11-.41s0,.21.05.19c-.05.14-.08.31-.1.1a1.55,1.55,0,0,1,0,.21c0,.16.09.06.09.06a.24.24,0,0,0,0-.07l.17-.28a.65.65,0,0,1,0,.21.53.53,0,0,1,.11-.13,1.83,1.83,0,0,1-.17.44l.15-.17c0,.08,0,.23,0,.23,0,.17.23-.23.26-.06a.17.17,0,0,1,.06-.08c.06.08,0,.3.22.14l-.13.31c.11,0,.16-.39.35-.43s-.13.26-.15.35c.13-.11.4-.32.31-.05C48.32,12.2,48.33,12.15,48.29,12.15Zm.88.68c-.05,0-.2.07-.1,0S49.21,12.76,49.17,12.83Zm1.29,1.47c-.07,0-.05,0,0-.09Zm-2.19,5.38h0C48.35,19.76,48.32,19.73,48.27,19.68Zm-.17-.12,0,.09c0-.06.06,0,.1,0S48.16,19.51,48.1,19.56Zm-3.37-9h.07C44.79,10.66,44.76,10.61,44.73,10.55Z"/><path class="cls-2" d="M50.1,14.17l.07,0Z"/><polygon class="cls-2" points="47.72 11.93 47.72 11.93 47.7 11.96 47.72 11.93"/><path class="cls-2" d="M49.5,17.35l.1.07A.15.15,0,0,0,49.5,17.35Z"/><path class="cls-2" d="M47.09,19.68h.13a.42.42,0,0,1-.07-.11C47.13,19.61,47.13,19.69,47.09,19.68Z"/><path class="cls-2" d="M47,18.05a0,0,0,0,0,0,0l-.06.09C46.92,18.17,47,18.11,47,18.05Z"/><path class="cls-2" d="M47.28,18.94c.07-.17,0-.14-.08-.13h0C47.08,19.05,47.18,19,47.28,18.94Z"/><path class="cls-2" d="M47.17,18.81l-.05,0C47.07,18.88,47.13,18.81,47.17,18.81Z"/><path class="cls-2" d="M47.86,19.65c0-.06-.08.23-.08.15C47.69,20,48.09,19.56,47.86,19.65Z"/><polygon class="cls-2" points="47.48 18.34 47.41 18.57 47.51 18.4 47.48 18.34"/><path class="cls-2" d="M47.87,18.66l-.08-.09a.14.14,0,0,1,0,.06S47.85,18.73,47.87,18.66Z"/><path class="cls-2" d="M47.75,18.64s-.07,0-.1,0A.27.27,0,0,0,47.75,18.64Z"/><polygon class="cls-2" points="47.63 18.33 47.63 18.38 47.68 18.42 47.63 18.33"/><path class="cls-2" d="M48.91,18.8l.1-.07a.19.19,0,0,0,0-.13C48.92,18.69,48.88,18.73,48.91,18.8Z"/><path class="cls-2" d="M48.6,18.17a.74.74,0,0,1,0,.18v-.29Z"/><path class="cls-2" d="M48.83,18.09c0-.09.07-.24,0-.22S48.75,18,48.83,18.09Z"/><polygon class="cls-2" points="50.13 17.87 50.11 17.89 50.45 18.23 50.13 17.87"/><path class="cls-2" d="M49.7,16.42c-.14,0,.28.11.11.14.1.06.13,0,.22,0C49.93,16.5,50,16.5,49.7,16.42Z"/><path class="cls-2" d="M50,16.59a.07.07,0,0,0,0,0Z"/><polygon class="cls-2" points="43.91 16.01 43.85 16.14 43.97 16.02 43.91 16.01"/><path class="cls-2" d="M44.3,16l-.28.15.28-.06S44.24,16.07,44.3,16Z"/><path class="cls-2" d="M48.76,13.33l.06,0c.06,0,.06-.07.06-.1Z"/><polygon class="cls-2" points="48.47 12.61 48.47 12.62 48.65 12.41 48.47 12.61"/><path class="cls-2" d="M47.81,12.52s.06,0,.06,0S48,12.24,47.81,12.52Z"/><path class="cls-1" d="M15.1,18.49c-.84,2.19-2.79,3.48-4.36,2.87L3.56,18.62c1.57.6,3.53-.68,4.36-2.87s.24-4.45-1.33-5.05l7.18,2.74C15.34,14.05,15.93,16.31,15.1,18.49Z"/><path class="cls-2" d="M16.18,18.86c0,.05.16.1.16.1S16.14,18.84,16.18,18.86Z"/><polygon class="cls-2" points="16.05 17.69 16.13 17.72 15.96 17.53 16.05 17.69"/><path class="cls-2" d="M16.17,16.71c-.34.07,0,.35-.1.53H16l.26.12C16.23,17.14,16.08,16.85,16.17,16.71Z"/><path class="cls-2" d="M16.89,16.13c-.13.05-.11-.12,0,.14l0,0A.41.41,0,0,0,16.89,16.13Z"/><path class="cls-2" d="M16.89,16.25c0,.11.1-.09,0,0Z"/><path class="cls-2" d="M16.77,15.7l.14.15c.06,0,.06-.19.13-.15C17,15.55,16.89,15.59,16.77,15.7Z"/><path class="cls-2" d="M16.51,15.59l0,.07S16.6,15.62,16.51,15.59Z"/><path class="cls-2" d="M16.69,15.81l-.13-.15s-.16.05.05.07C16.51,15.73,16.61,15.75,16.69,15.81Z"/><path class="cls-2" d="M16.65,15.92c-.06.09-.1.2-.23.07C16.48,16.26,16.72,16.21,16.65,15.92Z"/><path class="cls-2" d="M15.83,16.64l-.11.1.11.09C15.78,16.78,15.93,16.64,15.83,16.64Z"/><path class="cls-2" d="M16.71,14.66c-.07,0-.17.12-.25.16l.12.09C16.6,14.83,16.61,14.71,16.71,14.66Z"/><path class="cls-2" d="M16.46,14.82l-.17-.13C16.32,14.84,16.39,14.85,16.46,14.82Z"/><path class="cls-2" d="M16.14,15.63l.28.22a2.52,2.52,0,0,0-.3-.27Z"/><path class="cls-2" d="M16.43,14l.2,0-.31-.06Z"/><path class="cls-2" d="M16.15,13.55c.17,0,.12-.24.25-.2a.75.75,0,0,0-.44-.17A.36.36,0,0,1,16.15,13.55Z"/><path class="cls-2" d="M15.72,13.14l.24,0A.55.55,0,0,0,15.72,13.14Z"/><path class="cls-2" d="M16.21,14.39a.31.31,0,0,0,.13-.22l-.16.15Z"/><path class="cls-2" d="M16.18,14.33h0l0-.12A.93.93,0,0,0,16.18,14.33Z"/><path class="cls-2" d="M16.21,14.41v0Z"/><path class="cls-2" d="M16.23,15.18c-.14-.07-.31-.22-.42,0C16,15.21,16,15.08,16.23,15.18Z"/><path class="cls-2" d="M16,14.58a1.48,1.48,0,0,1,0,.19c.05,0,.11-.08.18,0S16.08,14.63,16,14.58Z"/><polygon class="cls-2" points="15.92 14.53 16.01 14.59 16.01 14.52 15.92 14.53"/><path class="cls-2" d="M15.81,13.54a.53.53,0,0,1-.27-.16,2.25,2.25,0,0,0,.16.31S15.89,13.64,15.81,13.54Z"/><path class="cls-2" d="M16,13.93h0S16,14,16,13.93Z"/><path class="cls-2" d="M14.7,12.67v0l0,0Z"/><path class="cls-2" d="M15.68,13.73c0,.09.09.1.17.11l-.15-.15S15.66,13.71,15.68,13.73Z"/><path class="cls-2" d="M15.44,13a.63.63,0,0,0,0,.19C15.48,13.08,15.48,12.94,15.44,13Z"/><path class="cls-2" d="M16,13.86h0S16,13.84,16,13.86Z"/><path class="cls-2" d="M16,13.86a.41.41,0,0,0-.16,0,.91.91,0,0,0,.13.08Z"/><path class="cls-2" d="M13.85,13.68c.08-.17.33-.25.34,0,.19,0,.49-.59.51-1,0,.07-.09.12-.31.12,0,.12.22.42,0,.48s-.11-.15-.17-.28c0,.24-.4.18-.47.52l.19,0S13.83,13.62,13.85,13.68Z"/><path class="cls-2" d="M15,13l.07,0A1.4,1.4,0,0,1,15,12.6c-.17,0-.24,0-.28.08a1.72,1.72,0,0,1,.33.26Z"/><path class="cls-2" d="M15.37,13.24c-.19.09-.38,0-.45.27.16.13.22,0,.38,0-.28-.24.16,0,0-.27a.44.44,0,0,1,.19.12.81.81,0,0,1-.07-.22v0h0s0,.05,0,0h0l0,0c-.07-.11,0,0,0,0l0,0h0a3.22,3.22,0,0,0-.37-.2C15.13,13.06,15.23,13.12,15.37,13.24Z"/><path class="cls-2" d="M15.34,15.16l0,0S15.33,15.13,15.34,15.16Z"/><path class="cls-2" d="M15.42,15s.12,0,.12.08-.1,0-.16,0,.19.1.24-.06h0a1.51,1.51,0,0,1,.2-.38C15.67,14.8,15.57,14.87,15.42,15Z"/><path class="cls-2" d="M15.47,14.19a2,2,0,0,0-.23-.17l-.07.21.09-.06C15.31,14.31,15.4,14.21,15.47,14.19Z"/><path class="cls-2" d="M14.72,12.56l.15-.16-.33.16Z"/><polygon class="cls-2" points="14.3 12.37 14.39 12.21 14.24 12.26 14.3 12.37"/><path class="cls-2" d="M6.53,19.23l0,.09A.44.44,0,0,0,6.53,19.23Z"/><path class="cls-2" d="M7.05,18.88l0-.09C7,18.86,7,18.89,7.05,18.88Z"/><path class="cls-2" d="M7.43,9.76c0-.19,0-.48-.1-.28l0,.19A.15.15,0,0,1,7.43,9.76Z"/><path class="cls-2" d="M8.28,14.59h0a.64.64,0,0,0-.16-.11Z"/><path class="cls-2" d="M9.1,14.8l-.16.12A.36.36,0,0,0,9.1,14.8Z"/><path class="cls-2" d="M4.2,17.43l.14-.17C4.22,17.22,4.24,17.34,4.2,17.43Z"/><path class="cls-2" d="M11.39,11.34a.49.49,0,0,0-.15-.2C11.29,11.3,11.31,11.49,11.39,11.34Z"/><path class="cls-2" d="M5.5,17.3a.18.18,0,0,0,0,.13A.17.17,0,0,0,5.5,17.3Z"/><path class="cls-2" d="M11,11.06a.2.2,0,0,1,0,.06h.14C11.2,11,11.14,11,11,11.06Z"/><path class="cls-2" d="M12.28,20.15h0S12.29,20.14,12.28,20.15Z"/><path class="cls-2" d="M15.54,19.67a.27.27,0,0,1-.06.12S15.53,19.74,15.54,19.67Z"/><path class="cls-2" d="M13.18,11.84c.07,0,0,0,0,0Z"/><path class="cls-2" d="M13.18,12.71l0,0Z"/><path class="cls-2" d="M10,12h0S10,12.06,10,12Z"/><path class="cls-2" d="M13.23,12a.32.32,0,0,0,0-.06A.15.15,0,0,0,13.23,12Z"/><path class="cls-2" d="M13.26,11.87l0,0S13.32,11.86,13.26,11.87Z"/><path class="cls-2" d="M13.09,11.82a.15.15,0,0,1,.09.06s0,0,0,0Z"/><path class="cls-2" d="M8.12,19.7v0C8.22,19.67,8.18,19.67,8.12,19.7Z"/><polygon class="cls-2" points="8.27 10.78 8.25 10.78 8.25 10.79 8.27 10.78"/><path class="cls-2" d="M8.58,10.94c-.29,0-.3,0-.33-.15-.13.16-.26.3-.39.44A7.72,7.72,0,0,1,8.58,10.94Z"/><path class="cls-2" d="M5.09,19.87l.27.13c-.21.36-.47.3-.18.51,0-.32.19-.38.41-.47s.42-.18.3-.48l.18.06a.14.14,0,0,1-.07.06c.39.15,0-.49.32-.58.11,0,.24,0,.21.13A2.39,2.39,0,0,0,6.66,19c.06,0,.12.07.12.07A1.65,1.65,0,0,1,7,18.78H7a2.88,2.88,0,0,1,0-.39c.13,0,0,.08.08.13a1.17,1.17,0,0,0,0-.26.22.22,0,0,1,0,.38c.58.34,0-.23.58-.27l-.08.21c.35.16.38-.06.71-.1-.13,0-.75,0-.7-.3.07,0,.15-.07.12-.24.18.14.22,0,.3-.12l.23.19c0-.18-.11-.26-.16-.41.13-.13.34,0,.53,0,.2-.23-.42,0-.29-.35.23-.14.2-.36.16-.69.17-.09.16.11.26.1a1.88,1.88,0,0,0-.16-.23s.08,0,.08,0-.24-.11-.24-.31c-.29-.15.59-.17.31-.52.1,0,.17.08.28.1a1.43,1.43,0,0,0-.35-.65l.23-.17c-.25.11-.47-.14-.66-.33L8,14.67c0-.09-.07-.18-.12-.27s.15,0,.27.07l0,0c.09-.09.26,0,.42.07l-.2.07a1.42,1.42,0,0,0,.54.2l-.06-.1s.09.05.11,0a.38.38,0,0,0-.09-.1l.34,0-.13,0,.25-.37c-.33-.31-.81-.53-1-.9.25.08.4,0,.69,0-.3.14.16.32.09.56,0-.12.18-.09.22-.07a3.68,3.68,0,0,0-.3-.39c.24,0,.18-.11.26-.22-.46.13-.34-.27-.53-.4.16,0,.34,0,.33.18.31-.31-.61-.18-.35-.45a.07.07,0,0,0,.07.08c-.15-.08-.13-.38,0-.35l0,0a1.3,1.3,0,0,0-.27-.59c-.16-.18-.34-.29-.53-.19a3.61,3.61,0,0,1,.52-.25,4.32,4.32,0,0,0-1.41.38,5.92,5.92,0,0,0,.53-.51c.2-.2.39-.35.57-.3A.32.32,0,0,0,8,10.5c0,.08-.25.46-.32.42.1-.41,0-.24,0-.67,0,.11-.38.48-.47.41s.28-.46.37-.47a3.43,3.43,0,0,0-.58.27c.12-.05.23-.39.22-.56,0,.08-.16,0-.29-.09L6.24,11.6l.1,0-.06-.13.61-1.58,0,0h0l-.59,1.54c.26.13.54-.59.8-.46-.07.09-.33.59-.2.71.16-.23.75-1.11,1.08-1.21v.16l.25-.09A11.17,11.17,0,0,1,7,11.84c.07.15,0,.18.13.22a.19.19,0,0,1-.17.18l.29.22c.1-.31.4-.19.48-.44l-.52.15c.1-.3.55-.75.8-.6,0,.14-.26.51-.29.61.07-.09.32-.1.32,0l-.17.12c.1.17.38-.3.45.05.06,0,0,.45.11.28A6,6,0,0,1,9,11a2.93,2.93,0,0,1,.2.63c0,.31-.39.58-.39.84A.47.47,0,0,1,9,12.24c0,.09-.11.24,0,.26.14-.3.27.13.16-.24.17,0,.12.12.29.17a1.08,1.08,0,0,1,.56-.64A.6.6,0,0,0,10,12c.26.14.36.33.62.44,0,.07.08.21,0,.32.06,0,.14-.13.22-.1.05.31-.2,0-.2.33.08-.18.29-.17.45-.23.07-.29-.24-.15-.4-.09a1.27,1.27,0,0,1,.83-.76c.25,0,0,.28.06.24.38.22.59-.52.82-.12,0,.29-.17.47-.21.65-.21,0-.21-.24-.33-.29l.1.18c-.09.05-.22.07-.26,0,0,.25.66.3.9.61.08-.06.21-.11.2-.22h-.11c0-.22.28-.2.19-.33.19-.08.42-.24.56-.06l-.07.28c0-.08-.06-.2-.14-.14.12-.09.14.47.36.15l0-.24c.18-.08.45-.31.59-.16,0-.29-.06,0-.05-.34,0,.43-.41-.17-.41.29,0-.4-.15-.23-.19-.6,0,.1,0,.19-.13.1l0,.05h0a.54.54,0,0,1,0,.17c-.15.18-.36.09-.48.16s.07-.09.07-.2l-.17.11c.06-.2-.1-.41.14-.45l-.17-.08c-.06-.15-.19-.24-.3-.19s-.29.14-.16,0l-.32,0,0,0c-.26-.13-.68.12-.86-.36a.36.36,0,0,1-.35-.07l0-.19c-.14,0-.28-.3-.4-.14.06-.51-.52-.32-.7-.48l-.09.22a1,1,0,0,0-.5,0L9,10.64c-.21.1-.33-.29-.57-.37,0-.07.09,0,.12,0-.12-.55-.73.1-.86-.33-.09,0-.13,0-.16-.06h0l0,0-.05-.14a.78.78,0,0,0,0,.14.4.4,0,0,0-.22,0l0-.23h0c0-.1-.09.09-.12.26A.6.6,0,0,0,7,10c0-.19,0-.17-.09-.17l-.65,1.69s.08,0,0,.17c.11-.16.26,0,.52-.32a.13.13,0,0,0,0,.07c0,.06,0,.14.14.1l-.18.22a2.59,2.59,0,0,1,.38-.17.54.54,0,0,1-.35.37c.19-.06.24,0,.24,0a.66.66,0,0,0,.34,0l-.16.09s.3,0,.19.14-.06.31,0,.52a.81.81,0,0,1,0,.68c.54-.13-.23.2.19.19-.13,0-.2.08-.31,0,.13.19-.22.28.14.44-.13,0-.18-.06-.26,0s.11.07,0,.08S7,14,7,14c0,.19.39.26.77.32-.19.1-.18.14,0,.28-.13,0-.26.05-.29-.09,0,.08-.26.41,0,.5-.08,0,0,.1,0,.13a.89.89,0,0,0-.14.35l.06,0c.33.2,0,.18,0,.33l0,0C7,16,7.44,16,7,16.11l.2.09c.42.27-.39.12-.33.36h.15c.08.19-.72-.14-.81-.11s0-.06,0-.1c-.35,0,.23.2.17.38-.15-.07-.29-.28-.39-.22s.16.61-.17.5c.11.06.22.13.22.26l-.29,0c-.11,0-.19,0-.13.2a.43.43,0,0,1-.07-.07c0,.13-.17.31-.13.52-.22-.34-.29-.18-.38-.05s-.19.28-.27-.07a1.09,1.09,0,0,1-.24.07v-.07c-.15,0-.2.13-.27.3a.1.1,0,0,1,0-.11c-.2-.21-.18-.19-.47.05L0,21.25l3.35-2.09,0,0-.06.22c.13-.09.34.53.76.4a.15.15,0,0,1-.08.08c.47-.13.63.93,1.07.18l.31-.1c-.28-.18.18-.33.1-.51.14,0,.22.36.06.35v-.05c-.21.39.32.29.2.57.62.2,1.11.66,1.67.89l0-.34.19.09c0,.09,0,.28-.16.21,0,.21.29-.06.33-.13.22.23-.25.33-.17.38l.12,0v0c.14-.1.2-.24.37-.16s0,.22,0,.25a0,0,0,0,0,0,0l.3.12v-.29c.16-.09.22.09.22-.24,0,.51.86.52.91.7a.51.51,0,0,1,.56,0c0-.06,0-.37.2-.27-.14.29-.09.38,0,.46a.89.89,0,0,1,.13.14.49.49,0,0,1,.11.26c0-.17.14-.14.29-.13s.31,0,.22-.26c.17.07,0,.23.09.4a1.67,1.67,0,0,1,.77,0,1.32,1.32,0,0,0,.83-.09c0-.08-.15-.17-.08-.32a4.38,4.38,0,0,0,.42.28c.08-.09-.12-.48.18-.3,0,0-.14-.13-.09-.18a2,2,0,0,0,1.23-.83,2.92,2.92,0,0,1,1.18-1c-.21,0-.17-.05-.13-.14s-.17-.1-.28-.15c.17-.06.31-.13.47-.2-.24-.21.16-.41-.1-.56V19c-.26-.28-.79-.11-1.2-.34.15.15,0,.18-.19.22s-.32.07-.13.33c-.11,0-.1-.12-.21-.15.14.16.13.24,0,.3l0,0c-.19.33-.45.34-.81.5l.18.14c-.09,0-.15,0-.22,0,.15.33.2-.14.37.2-.19-.13-.3,0-.43,0s-.25.14-.41-.06c-.1.05.16.2,0,.26l-.08-.11.05.18c-.09,0-.2-.13-.25-.24l0-.07c-.15-.11-.2.15-.26.11l.13,0a.75.75,0,0,1-.42.18.71.71,0,0,0-.21,0,1,1,0,0,0-.22.12v.1c-.13.09-.17.05-.21,0s0-.11-.23-.14l0,0a.25.25,0,0,1-.29,0c.12-.08-.08-.28.08-.37-.41.07-.22.1-.59.38l0-.19c-.13.13-.17.2-.35.18.19-.09,0-.29.21-.42-.21-.49-.66.16-.62-.42-.33.39.21.37.08.43,0,.18-.26.29-.35.2s0-.65-.26-.75a0,0,0,0,0,0,0c0-.14-.24.09-.29-.15-.18.25-.17-.08-.32.26l.29,0c-.18,0-.48.39-.64.1a.6.6,0,0,1,.22-.16c0-.13-.16,0-.2-.12.16-.34.35,0,.61-.16,0-.17-.39.14-.17-.21-.3.44-.26-.17-.59.13l.09-.2s-.14.09-.19.07l.2-.24c-.24.17-.22-.31-.42-.24.32.11,0,.27,0,.48-.49.13,0-.64-.48-.7.07,0,.17.21.05.27a.57.57,0,0,1-.16-.32c-.3-.07,0,.23-.21.31,0-.29-.18.05-.33.09l.08-.22c-.27-.26-.26.41-.48.13l.23-.24-.18,0,.13-.24c-.24.12-.27.06-.41-.07,0,.16-.17.38-.32.33s.14-.19-.08-.23c.1-.12.22-.27.23,0,0-.07.1-.12.13-.19S5.45,18,5.37,18a.18.18,0,0,1,.06.09l-.4.17c0-.09,0-.14.1-.2s-.14.09-.24.07c.09-.16.15-.34.31-.37l-.36.08c0-.08-.06-.26,0-.31-.12-.16-.51.18-.67,0a.11.11,0,0,1-.11.06l-.06,0-.88,2.28c.23.15.48.38.84.19.06.13.13.24.19.35s.09-.13,0-.25-.06-.23.17-.28.13.27.26.36a2.16,2.16,0,0,1,.3-.31.32.32,0,0,1,.41,0C5.26,19.86,5.18,19.83,5.09,19.87Zm2.54-1.68c0,.08,0,.25-.1.19C7.38,18.16,7.51,18.21,7.63,18.19Zm1.12-3.91c.08,0,0,.1-.06.15A.14.14,0,0,1,8.75,14.28Zm3.72-2.51h0C12.39,11.66,12.41,11.71,12.47,11.77Zm.16.17,0-.09h-.13C12.55,11.91,12.55,12,12.63,11.94ZM8.21,21.37l0-.07C8.29,21.27,8.25,21.32,8.21,21.37Z"/><path class="cls-2" d="M9,14.77H8.88A.1.1,0,0,0,9,14.77Z"/><polygon class="cls-2" points="4.17 17.46 4.17 17.46 4.2 17.43 4.17 17.46"/><path class="cls-2" d="M8.85,12.56a.24.24,0,0,1,0-.14A.1.1,0,0,0,8.85,12.56Z"/><path class="cls-2" d="M13.83,12h-.15a.09.09,0,0,1,.07.07S13.79,12,13.83,12Z"/><path class="cls-2" d="M14.37,13.82s0,0,0,0l.09-.1C14.43,13.71,14.33,13.73,14.37,13.82Z"/><path class="cls-2" d="M13.67,12.73c-.05.19.05.16.15.16h0C13.93,12.64,13.8,12.69,13.67,12.73Z"/><path class="cls-2" d="M13.84,12.89a.14.14,0,0,1,.09,0C14,12.82,13.9,12.88,13.84,12.89Z"/><path class="cls-2" d="M12.93,11.92s.12-.22.11-.14C13.17,11.57,12.65,12,12.93,11.92Z"/><polygon class="cls-2" points="13.52 13.35 13.57 13.12 13.45 13.27 13.52 13.35"/><path class="cls-2" d="M12.87,12.92,13,13a.14.14,0,0,1,0,0C13,12.93,12.9,12.85,12.87,12.92Z"/><path class="cls-2" d="M13.06,13s.1,0,.13,0A.38.38,0,0,0,13.06,13Z"/><polygon class="cls-2" points="13.3 13.34 13.28 13.28 13.18 13.22 13.3 13.34"/><path class="cls-2" d="M11.36,12.28h-.19c0,.07,0,.13.06.12S11.35,12.37,11.36,12.28Z"/><path class="cls-2" d="M11.6,13.07a.3.3,0,0,1,0-.19l-.11.27Z"/><path class="cls-2" d="M11.12,13c0,.07-.31.13-.11.19S11.23,13.08,11.12,13Z"/><polygon class="cls-2" points="8.9 11.71 8.94 11.73 9.11 11.28 8.9 11.71"/><path class="cls-2" d="M6.41,12c.15.17.15-.27.27-.07.08-.09-.09-.15,0-.23C6.51,11.77,6.48,11.69,6.41,12Z"/><path class="cls-2" d="M6.67,11.7l.08,0A.21.21,0,0,0,6.67,11.7Z"/><polygon class="cls-2" points="16.01 19.3 16.16 19.19 15.98 19.22 16.01 19.3"/><path class="cls-2" d="M15.8,18.89l.3.08-.23-.18S15.87,18.89,15.8,18.89Z"/><path class="cls-2" d="M8.38,18.24l0,0c-.09,0-.11,0-.17,0Z"/><polygon class="cls-2" points="6.5 19.6 6.54 19.58 6.34 19.38 6.5 19.6"/><path class="cls-2" d="M4.46,20.54c.11,0,.22-.06.32-.06C4.57,20.55,4.43,20.19,4.46,20.54Z"/><path class="cls-3" d="M7.92,15.75c-.83,2.19-2.79,3.47-4.36,2.87S1.4,15.76,2.22,13.57,5,10.1,6.59,10.7,8.75,13.56,7.92,15.75Z"/><path class="cls-2" d="M9,16.13l.19.1C9.17,16.16,9,16.11,9,16.13Z"/><polygon class="cls-2" points="8.78 15.37 8.85 15.4 8.69 15.26 8.78 15.37"/><path class="cls-2" d="M8.91,14.8c-.35,0,0,.22-.13.3H8.71L9,15.2C9,15.07,8.8,14.87,8.91,14.8Z"/><path class="cls-2" d="M9.68,14.57c-.14,0-.11-.09,0,.08h0A.17.17,0,0,1,9.68,14.57Z"/><path class="cls-2" d="M9.66,14.64c0,.07.12,0,0,0Z"/><path class="cls-2" d="M9.62,14.31l.11.1c.08,0,.1-.09.16-.05S9.76,14.27,9.62,14.31Z"/><path class="cls-2" d="M9.39,14.21l0,0S9.48,14.24,9.39,14.21Z"/><path class="cls-2" d="M9.52,14.36l-.09-.1c-.06,0-.17,0,0,0C9.37,14.29,9.46,14.32,9.52,14.36Z"/><path class="cls-2" d="M9.47,14.41c-.08,0-.13.11-.24,0C9.26,14.58,9.5,14.59,9.47,14.41Z"/><path class="cls-2" d="M8.57,14.71l-.11,0,.1.07C8.51,14.78,8.67,14.72,8.57,14.71Z"/><path class="cls-2" d="M9.82,13.74c-.07,0-.19,0-.28,0l.08.07A.42.42,0,0,1,9.82,13.74Z"/><path class="cls-2" d="M9.54,13.77l-.13-.09C9.41,13.77,9.46,13.78,9.54,13.77Z"/><path class="cls-2" d="M9,14.17l.24.17L9,14.14Z"/><polygon class="cls-2" points="9.81 13.34 9.98 13.38 9.73 13.29 9.81 13.34"/><path class="cls-2" d="M9.76,13.07c.14,0,.22-.09.31-.06s-.15-.12-.27-.16C9.87,12.9,9.86,13,9.76,13.07Z"/><path class="cls-2" d="M9.64,12.78a.59.59,0,0,0,.16.07A.4.4,0,0,0,9.64,12.78Z"/><path class="cls-2" d="M9.44,13.51s.16,0,.2-.09l-.2.05Z"/><path class="cls-2" d="M9.43,13.47h0v-.09A.27.27,0,0,1,9.43,13.47Z"/><path class="cls-2" d="M9.44,13.52h0Z"/><path class="cls-2" d="M9.2,13.93c-.11-.06-.23-.17-.4-.07C8.94,13.9,9,13.84,9.2,13.93Z"/><path class="cls-2" d="M9.19,13.58l0,.1a.41.41,0,0,1,.19,0Z"/><polygon class="cls-2" points="9.13 13.53 9.19 13.57 9.21 13.53 9.13 13.53"/><path class="cls-2" d="M9.48,13a.17.17,0,0,1-.13-.14.36.36,0,0,0,0,.2C9.37,13.05,9.49,13.06,9.48,13Z"/><path class="cls-2" d="M9.45,13.23h0Z"/><polygon class="cls-2" points="9.23 12.3 9.19 12.32 9.23 12.31 9.23 12.3"/><path class="cls-2" d="M9.28,13.06s0,.07.08.09a.19.19,0,0,1,0-.1Z"/><path class="cls-2" d="M9.51,12.63l-.09.11C9.48,12.7,9.57,12.63,9.51,12.63Z"/><path class="cls-2" d="M9.49,13.2h0Z"/><path class="cls-2" d="M9.49,13.2l-.13,0,.07.07Z"/><path class="cls-2" d="M7.94,12.52c.18-.06.38,0,.2.13a2.43,2.43,0,0,0,1-.33.37.37,0,0,1-.28,0c-.09.07-.18.28-.36.24s0-.11.12-.2c-.22.12-.38-.05-.69.09l.14.05S8,12.48,7.94,12.52Z"/><path class="cls-2" d="M9.22,12.52l0,0c0-.06.08-.11.21-.21a.32.32,0,0,0-.24,0,1.33,1.33,0,0,0,0,.21Z"/><path class="cls-2" d="M9.3,12.75c-.21,0-.32-.07-.52,0,0,.12.19.06.28.11-.08-.18.13,0,.22-.12a.14.14,0,0,1,.05.07l.09-.09h0l0,0v0H9.3c0-.07,0,0,.07,0h0l-.15-.18S9.26,12.66,9.3,12.75Z"/><path class="cls-2" d="M8.36,13.77h0S8.37,13.75,8.36,13.77Z"/><path class="cls-2" d="M8.49,13.7l.12,0c-.1.07-.13,0-.2,0a.21.21,0,0,0,.25,0h0A.91.91,0,0,1,9,13.6,2.94,2.94,0,0,0,8.49,13.7Z"/><path class="cls-2" d="M8.86,13.26l-.12-.14-.16.1.11,0C8.65,13.29,8.78,13.26,8.86,13.26Z"/><polygon class="cls-2" points="9.32 12.25 9.53 12.22 9.21 12.2 9.32 12.25"/><polygon class="cls-2" points="9.22 12.03 9.41 11.98 9.28 11.96 9.22 12.03"/><path class="cls-2" d="M3,15.5l0,0Z"/><path class="cls-2" d="M3,15.27H2.91S3,15.29,3,15.27Z"/><path class="cls-2" d="M4.13,9.76c-.15-.13-.35-.33-.25-.15L4,9.78S4.07,9.73,4.13,9.76Z"/><path class="cls-2" d="M2.57,12.94h.07l-.16-.13Z"/><path class="cls-2" d="M3.3,13.36h0Z"/><path class="cls-2" d="M3.36,16.58l.2,0S3.46,16.55,3.36,16.58Z"/><path class="cls-2" d="M7.68,10a.41.41,0,0,0-.09-.21C7.61,10,7.57,10.15,7.68,10Z"/><path class="cls-2" d="M.8,15.33l.08,0S.85,15.33.8,15.33Z"/><path class="cls-2" d="M7.39,9.7a.1.1,0,0,0,0,0,.44.44,0,0,1,.19.07C7.58,9.7,7.53,9.61,7.39,9.7Z"/><path class="cls-2" d="M5.93,16.78H6S5.93,16.77,5.93,16.78Z"/><path class="cls-2" d="M8.54,16.59l0,.08Z"/><path class="cls-2" d="M8.9,11.1s0,0,0,0Z"/><path class="cls-2" d="M8.31,11.7l-.1,0Z"/><path class="cls-2" d="M8.86,11.21l0-.09Z"/><path class="cls-2" d="M8.93,11.16v0S9,11.18,8.93,11.16Z"/><path class="cls-2" d="M8.85,11l0,.08,0,0Z"/><path class="cls-2" d="M4.12,18.12v0C4.16,18.07,4.15,18.07,4.12,18.12Z"/><polygon class="cls-2" points="4.39 12.09 4.38 12.07 4.37 12.07 4.39 12.09"/><path class="cls-2" d="M4.41,12.27c-.14-.22-.1-.22,0-.2L4,11.65Z"/><path class="cls-2" d="M3.06,16l.17-.09c.32,0,.22.09.47,0-.64.08-.1-.22-.73-.19l.13-.05,0,0c.3-.09-.47,0-.38-.17A.22.22,0,0,1,3,15.5l-.15-.1s.12,0,.11,0l-.05-.15h0a1.66,1.66,0,0,1-.32-.12c.09,0,.07,0,.15,0l-.14-.1c.16,0,.31.07.28.12.65,0-.15-.08.24-.2l.07.09c.37,0,.24-.08.48-.11-.11,0-.59.06-.73-.05s.08,0,0-.11c.22,0,.18,0,.18-.08l.29.06A2.3,2.3,0,0,0,3,14.61c0-.06.28,0,.48,0s-.39,0-.41-.16c.14-.07,0-.16-.1-.33.12,0,.17.07.26.07L3,14.08l.12,0c-.08-.07-.29-.09-.34-.2-.31-.15.52,0,.21-.23a2.86,2.86,0,0,1,.27.12,3.07,3.07,0,0,0-.37-.43h.23a1,1,0,0,1-.59-.42l-.21,0-.11-.22s.13.07.23.15l0,0c.11,0,.25.09.38.21l-.18,0a2.72,2.72,0,0,0,.46.32l0-.08a.18.18,0,0,0,.1.06l-.08-.09.31.14-.11-.07.26,0c-.23-.27-.59-.64-.57-.91a3.6,3.6,0,0,0,.55.42c-.28-.13,0,.2-.08.24.06,0,.16.07.2.11-.05-.11-.09-.2-.13-.31.19.14.16.07.27.09-.4-.24-.18-.29-.24-.44.13.1.24.22.15.26.34.15-.35-.45,0-.33,0,0,0,0,0,.07-.07-.13.1-.16.18,0l0,0c.14-.07.3-.31.06-.62,0,0,.3.38.36.44A9.46,9.46,0,0,1,3.58,11c.2.28.77.87.8,1.09,0,0,.12,0,.11-.09s-.36-.36-.36-.36a3.31,3.31,0,0,1,.46.29,3.61,3.61,0,0,1-.35-.51,1.59,1.59,0,0,1,.37.48c-.06-.18-.12-.34-.17-.52a2.52,2.52,0,0,0,.33.5c-.06-.08.1,0,.1-.1l-.1-.09c.15,0-.22-.72,0-.78a2.09,2.09,0,0,0,.32.67A3.54,3.54,0,0,1,4.85,10l.08.14L5,10a10.76,10.76,0,0,0,.1,1.65c.09.09.07.16.07.16s.1.19.1.19l.15.06c-.1-.3,0-.33,0-.59a2.09,2.09,0,0,0-.07.36c-.12-.3-.16-.9,0-.88a5.83,5.83,0,0,1,.11.67c0-.11.08-.23.1-.15l0,.17c.07.12,0-.42.15-.13,0,0,.08.41.08.21a13.39,13.39,0,0,1-.07-1.75,1.41,1.41,0,0,1,.28.53c0,.28-.13.67-.1.92a1.7,1.7,0,0,1,0-.23.58.58,0,0,1,0,.27c.12-.35.19,0,.13-.3.08-.08.06.08.14.08a1.29,1.29,0,0,1,.35-.73c0,.07,0,.18,0,.23.17.08.18.27.32.32a.69.69,0,0,1-.11.3s.12-.12.16-.1c-.09.27-.1,0-.23.3.1-.16.22-.17.34-.22.16-.25-.1-.13-.2-.06a1.12,1.12,0,0,1,.82-.64c.2,0-.11.24,0,.22.17.23.67-.3.66.09-.13.24-.39.33-.51.46s0-.24-.07-.3l0,.16c-.09,0-.18,0-.16-.07-.06.11,0,.2.08.3a.38.38,0,0,1,.11.35c.09,0,.19,0,.27-.09l-.06,0c.14-.16.3,0,.34-.16s.43,0,.39.19l-.25.15c.08,0,.11-.16,0-.15.15,0-.27.35.1.25l.15-.17c.17,0,.51,0,.47.2.25-.16,0,0,.23-.22-.35.23-.12-.35-.46,0,.31-.25.08-.22.3-.5-.08,0-.14.13-.16,0l-.08,0v0h0a.38.38,0,0,1-.1.13c-.22.05-.3-.11-.43-.1s.11,0,.17-.12l-.19,0c.17-.13.17-.36.38-.29l-.09-.14c.05-.15,0-.28-.14-.29s-.31,0-.14,0A1.52,1.52,0,0,0,8,10.31l0,0c-.19-.21-.61,0-.67-.51a.32.32,0,0,1-.32-.09l0-.17c-.12,0-.28-.29-.38-.13,0-.53-.57-.23-.76-.31l0,.23a.61.61,0,0,0-.43.16l0,.2c-.11.19-.36-.12-.57,0,0-.09.06-.07.1,0-.17-.21-.3-.1-.39,0s-.15.29-.33.16c0,.09-.06.09-.12.05h0l-.08-.05,0,.05a1.1,1.1,0,0,1-.09.15L4,9.78v0c-.09-.05,0,.12.11.25a.86.86,0,0,0,0,.16c-.21-.3-.07.19-.32-.12.06.18-.18.27,0,.62a.1.1,0,0,0,0-.05c-.06,0-.13,0-.11.1l-.19-.21c0,.13.08.25.13.38a.55.55,0,0,1-.34-.37c.06.4-.05.21.06.57L3.16,11s.06.28-.07.2c-.35-.16-.47.42-.93.5.49.26-.29,0,0,.24-.12-.06-.2-.06-.27-.17,0,.22-.32.12-.08.41-.12,0-.14-.13-.22-.15s.07.11,0,.08S1.55,12,1.52,12c-.08.18.26.38.59.58-.2,0-.2,0,0,.21-.12,0-.26,0-.25-.16,0,0-.33.25-.05.38-.08,0-.06.07,0,.1s-.1.12-.12.25l.06,0c.32.18,0,.13,0,.24l0,0c-.32.15.09.14-.28.27l.23.06c.46.15-.33.11-.19.3l.14,0c.14.11-.7,0-.77.13l-.09-.08c-.32.16.28.09.32.26-.15,0-.39-.11-.43,0s.46.38.14.49c.13,0,.25,0,.34.05s-.49.26-.11.38a.15.15,0,0,1-.09,0c.09.09.15.29.37.33-.39.05-.28.18-.17.29s.23.21-.13.25l.08.26H1c0,.18.17.2.35.22,0,.05-.11,0-.14,0-.09.27,0,.31.36.38l-.21.11c.14,0-.21.49.17.61l-.11,0c.19.07.14.3.17.49s.11.32.46.08h.29c-.11-.22.29-.23.33-.39.08,0,0,.33-.14.28l0,0c-.35.3.11.31-.09.54a3.83,3.83,0,0,0,1.3.86l0-.35.16.05c0,.08,0,.28-.11.24,0,.21.24-.13.24-.2.22.16-.13.39-.07.41l.12,0,0,0c.11-.14.11-.29.26-.27s0,.22,0,.22l.1,0h.23l-.11-.27c.08-.13.19,0,.07-.3.19.48.74,0,.85.13a.34.34,0,0,1,.29-.3c-.06,0-.2-.31-.09-.32.24.59.33.15.64.49-.23-.22.27-.25-.09-.54.11,0,.14.19.29.27.06-.33.54-.2.72-.48-.06-.06-.18-.12-.22-.26l.4.19c0-.08-.3-.38,0-.26-.06,0-.15-.08-.14-.13.34-.08.47-.37.6-.63a.92.92,0,0,1,.75-.59c-.18,0-.17-.06-.15-.11s-.18-.1-.28-.14l.38-.08c-.27-.17.08-.25-.18-.39l0,.09c-.29-.22-.77-.18-1.19-.38.33.26-.63,0-.18.34C7,16.1,7,16,6.87,16c.15.11.17.17,0,.2l0,0c-.09.22-.3.21-.54.33l.2.11c-.06,0-.12,0-.18,0,.23.26.1-.11.37.16-.4-.21-.26.3-.68,0,0,.06.22.15.16.21l-.12-.08.12.14a1.5,1.5,0,0,1-.29-.17v-.06c-.16-.07-.08.16-.13.14h.11c-.07.25-.37.25-.37.59l.07.09c0,.24-.16,0-.27.13v0c0,.11,0,.18,0,.18s-.17-.18-.18-.33c-.06.26,0,.18,0,.59L5.06,18c0,.17,0,.25,0,.32,0-.17-.13-.24-.12-.45s-.15-.06-.19,0-.06.15-.13-.12c0,.48.18.24.15.35s0,.37-.07.33-.18-.6-.28-.59l0,0c0-.12-.09.17-.14,0,0,.29-.06,0-.11.35l.14-.08c-.07.1-.2.52-.3.29,0-.07.08-.16.11-.22S4,18.18,4,18.07c.08-.37.15-.06.24-.33s-.14.24,0-.15c-.13.5-.09-.07-.24.29L4,17.66s-.06.13-.08.12.08-.18.11-.27c-.12.22,0-.23-.09-.12.09,0-.08.26-.09.43-.26.21.15-.57,0-.52a.37.37,0,0,1-.09.22.68.68,0,0,1,.07-.25c-.09,0-.12.2-.22.29.12-.24-.11.08-.2.11l.14-.18c0-.19-.33.34-.32.12l.26-.2-.1,0,.19-.17c-.17.09-.16,0-.14-.05-.11.11-.32.27-.37.21s.18-.11.11-.16c.13-.07.28-.17.13,0l.18-.13c.1-.12,0-.09,0-.09s0,0,0,0l-.33.08a.4.4,0,0,1,.2-.11.43.43,0,0,1-.17,0,1.41,1.41,0,0,1,.42-.19H3.36a1,1,0,0,1,.24-.16c.07-.09-.38,0-.28-.12H3.21c0-.11.22-.22,0-.26l.31-.13c-.09-.06-.39.17-.54.06s.26-.09.35-.14c-.18,0-.52-.06-.27-.19C3.08,16,3,16,3.06,16Zm-.13-1.11S3.12,15,3,15,2.85,14.94,2.93,14.92ZM3.05,13c.05.06,0,.06-.08,0S3,13,3.05,13Zm5.36-2.25h0C8.41,10.6,8.4,10.64,8.41,10.72Zm0,.2a.19.19,0,0,0,.08-.05.06.06,0,0,1-.08,0S8.37,10.91,8.44,10.92Zm-4,8.75,0-.05C4.49,19.55,4.47,19.61,4.45,19.67Z"/><path class="cls-2" d="M3.22,13.31l-.12,0A.21.21,0,0,0,3.22,13.31Z"/><polygon class="cls-2" points="3.32 16.59 3.32 16.59 3.36 16.58 3.32 16.59"/><path class="cls-2" d="M5.89,11.49l0-.08S5.87,11.47,5.89,11.49Z"/><path class="cls-2" d="M9.24,11.55l-.09-.08s0,.08,0,.12S9.22,11.52,9.24,11.55Z"/><path class="cls-2" d="M8.17,12.79l0,0,.1,0S8.21,12.72,8.17,12.79Z"/><path class="cls-2" d="M8.58,11.93c-.17.09-.09.11,0,.16h0C8.81,12,8.69,12,8.58,11.93Z"/><path class="cls-2" d="M8.56,12.11a.07.07,0,0,1,0,0C8.69,12.13,8.61,12.13,8.56,12.11Z"/><path class="cls-2" d="M8.67,11c0,.06.22-.11.17,0C9.07,10.88,8.45,10.92,8.67,11Z"/><polygon class="cls-2" points="8.02 12.22 8.23 12.11 8.04 12.15 8.02 12.22"/><path class="cls-2" d="M8,11.72v.12l.08,0C8,11.77,8,11.69,8,11.72Z"/><path class="cls-2" d="M8.05,11.82s0,.06.07,0A.15.15,0,0,0,8.05,11.82Z"/><polygon class="cls-2" points="7.9 12.13 7.94 12.09 7.93 12.02 7.9 12.13"/><path class="cls-2" d="M7.33,10.88H7.25c-.09.05-.1.12,0,.12A.22.22,0,0,0,7.33,10.88Z"/><path class="cls-2" d="M7.11,11.56a1.84,1.84,0,0,1,.1-.16L7,11.6Z"/><path class="cls-2" d="M6.89,11.45c-.06.05-.22.11-.15.15S6.9,11.54,6.89,11.45Z"/><polygon class="cls-2" points="5.81 10.68 5.84 10.68 5.84 10.2 5.81 10.68"/><path class="cls-2" d="M5.09,12c.12.08-.1-.28,0-.18,0-.11-.1-.08-.12-.18C5,11.78,4.94,11.73,5.09,12Z"/><path class="cls-2" d="M5,11.65a.1.1,0,0,0,0,0A.1.1,0,0,0,5,11.65Z"/><polygon class="cls-2" points="8.91 16.39 9.03 16.35 8.86 16.34 8.91 16.39"/><path class="cls-2" d="M8.64,16.1l.29.09-.24-.14S8.71,16.11,8.64,16.1Z"/><path class="cls-2" d="M3.57,14.87l-.07,0c-.08,0-.09,0-.11,0Z"/><polygon class="cls-2" points="3.27 15.57 3.27 15.56 3 15.59 3.27 15.57"/><path class="cls-2" d="M3.67,16.1s0,0,0-.06S3.34,16.17,3.67,16.1Z"/></g></g></svg>