<svg xmlns="http://www.w3.org/2000/svg" viewBox="0 0 76.6 30.61"><defs><style>.cls-1{fill:#f0f1f1;}.cls-2{fill:#f2f3f3;}.cls-3{fill:#997151;}.cls-4{fill:#a8866a;}</style></defs><g id="圖層_2" data-name="圖層 2"><g id="objects"><path class="cls-1" d="M55.21,18.75l3.88.13a11.6,11.6,0,0,1,4.51.75c2.76,1.27,2.21,4.66,5.21,5.88,2.27.92,5.28-.16,6.07-2.35a3.89,3.89,0,0,0-3.55-4.94,6.65,6.65,0,0,0,3.22-5.58,5.34,5.34,0,0,0-4-4.93c-2.29-.54-5,.87-5.41,3-.13.63-.12,1.36-.61,1.81a2.56,2.56,0,0,1-1.61.45q-3.31.12-6.63.05C56,15,55.63,16.86,55.21,18.75Z"/><path class="cls-2" d="M56.2,18.89c0,.09.14.09.17.11C56.36,18.83,56.16,18.88,56.2,18.89Z"/><polygon class="cls-2" points="56.13 17.18 56.19 17.23 56.06 16.95 56.13 17.18"/><path class="cls-2" d="M56.41,15.67c-.31.09,0,.55-.21.81l-.07,0,.21.17A3.07,3.07,0,0,1,56.41,15.67Z"/><path class="cls-2" d="M57.19,15c-.12,0-.06-.19-.07.18l0,0Z"/><path class="cls-2" d="M57.15,15.12c0,.17.12-.09,0,0Z"/><path class="cls-2" d="M57.23,14.37l.06.23c.07,0,.13-.22.16-.15C57.44,14.23,57.36,14.26,57.23,14.37Z"/><path class="cls-2" d="M57.06,14.13l0,.12S57.13,14.21,57.06,14.13Z"/><path class="cls-2" d="M57.12,14.49l0-.24s-.15,0,0,.11C57,14.33,57.08,14.38,57.12,14.49Z"/><path class="cls-2" d="M57.06,14.62c-.09.11-.16.25-.21,0C56.81,15.06,57,15,57.06,14.62Z"/><path class="cls-2" d="M56.14,15.53l-.12.15.07.15C56.06,15.75,56.22,15.54,56.14,15.53Z"/><path class="cls-2" d="M56.44,14.38a1.28,1.28,0,0,1-.08-.24l-.1,0,1.14-.95v.06l0,0-1.19,1C56.34,14.27,56.43,14.31,56.44,14.38Z"/><path class="cls-2" d="M56.36,14.14l.24-.1C56.39,14,56.35,14.07,56.36,14.14Z"/><polygon class="cls-2" points="56.74 14.04 56.89 14.46 56.76 13.97 56.74 14.04"/><polygon class="cls-2" points="57.35 14.41 57.21 14.55 57.45 14.34 57.35 14.41"/><path class="cls-2" d="M58,14.39c-.1.12.14.2,0,.28a.93.93,0,0,0,.43-.22A.53.53,0,0,1,58,14.39Z"/><path class="cls-2" d="M58.62,14.32l-.21.13A.8.8,0,0,0,58.62,14.32Z"/><path class="cls-2" d="M57,14.07a.35.35,0,0,0,.18.19l-.09-.18Z"/><path class="cls-2" d="M57.09,14.07h.17Z"/><path class="cls-2" d="M57,14.07h0S57,14.05,57,14.07Z"/><path class="cls-2" d="M57,13.45c-.08-.14-.12-.45-.33-.19C56.79,13.37,56.91,13.23,57,13.45Z"/><path class="cls-2" d="M56.87,13.85l-.25,0s.05.11,0,.16Z"/><polygon class="cls-2" points="56.99 13.8 56.87 13.85 56.96 13.87 56.99 13.8"/><path class="cls-2" d="M58.19,14.15a.64.64,0,0,1,.36-.09,2.12,2.12,0,0,0-.43-.06C58.1,14.06,58,14.16,58.19,14.15Z"/><path class="cls-2" d="M57.66,14.1h0Z"/><polygon class="cls-2" points="59.88 14.06 59.85 14.02 59.85 14.05 59.88 14.06"/><path class="cls-2" d="M58.1,14a.24.24,0,0,0-.24.06,2.06,2.06,0,0,1,.26,0Z"/><path class="cls-2" d="M59,14.24l-.19-.1C58.86,14.2,59,14.28,59,14.24Z"/><path class="cls-2" d="M57.72,14.14h0S57.73,14.16,57.72,14.14Z"/><path class="cls-2" d="M57.72,14.14l.14-.11a1,1,0,0,0-.18.06Z"/><path class="cls-2" d="M60.26,12.92c0,.17-.3.32-.54.15-.24.12-.08.66.13.95,0-.07,0-.13.26-.23-.09-.09-.56-.2-.35-.36s.27.06.43.15c-.14-.2.41-.3.34-.6l-.28.11C60.24,13,60.34,13,60.26,12.92Z"/><path class="cls-2" d="M59.38,14l-.1,0a1,1,0,0,1,.36.22c.16-.08.2-.14.21-.2l-.5,0Z"/><path class="cls-2" d="M58.82,14c.08-.17.32-.25.17-.44-.3,0-.21.15-.38.22.48,0-.14.1.2.2a1.32,1.32,0,0,1-.26.05l.25.08h0s0,0,0,0h0v0c.15,0,0,0,0,0l-.05,0h0l.49-.1A1.36,1.36,0,0,0,58.82,14Z"/><path class="cls-2" d="M56.4,13.12l0,0Z"/><path class="cls-2" d="M56.6,13.23s-.06.1-.18.07,0-.08,0-.14-.25.13,0,.21l0,0a1.43,1.43,0,0,1,.44.29A3.4,3.4,0,0,0,56.6,13.23Z"/><path class="cls-2" d="M57.72,13.59l.4-.08-.2-.16v.1C57.7,13.41,57.75,13.52,57.72,13.59Z"/><polygon class="cls-2" points="59.92 14.14 59.87 14.33 60.1 14.06 59.92 14.14"/><polygon class="cls-2" points="60.45 14.11 60.43 14.28 60.57 14.18 60.45 14.11"/><path class="cls-2" d="M74.56,18.66l.13.07Z"/><path class="cls-2" d="M73.75,18l-.07.05C73.75,18,73.78,18,73.75,18Z"/><path class="cls-2" d="M70.17,8.68a.76.76,0,0,0,.11.14l0,.08h0v0c0,.06.06.09.08,0V8.75h-.08Z"/><path class="cls-2" d="M74.36,14.38l.07,0-.14-.15Z"/><path class="cls-2" d="M75,14.73a.66.66,0,0,1-.09.09l-.1.11A.93.93,0,0,0,75,14.73Z"/><path class="cls-2" d="M75.7,24.17l.06.25C75.91,24.16,75.77,24.23,75.7,24.17Z"/><path class="cls-2" d="M66,11.73a1.27,1.27,0,0,0,.17-.38C66,11.51,65.83,11.64,66,11.73Z"/><path class="cls-2" d="M73,19.82a.15.15,0,0,0,.14,0C73.1,19.78,73.05,19.78,73,19.82Z"/><path class="cls-2" d="M66.2,11a.2.2,0,0,0-.06.07.59.59,0,0,1,0,.13v.1s.07,0,.09-.11a.2.2,0,0,0,0-.08A.76.76,0,0,0,66.2,11Z"/><path class="cls-2" d="M61.4,20.06l0,0S61.38,20.06,61.4,20.06Z"/><path class="cls-2" d="M56.67,18h.2A.77.77,0,0,0,56.67,18Z"/><path class="cls-2" d="M62.57,14.13c-.11,0,0,0,0,0Z"/><path class="cls-2" d="M62,13.45a.19.19,0,0,0,0-.09C62,13.41,62,13.43,62,13.45Z"/><path class="cls-2" d="M65.51,9.73h0S65.48,9.73,65.51,9.73Z"/><path class="cls-2" d="M62.4,14.06l.14,0Z"/><path class="cls-2" d="M62.42,14.14h-.1S62.32,14.18,62.42,14.14Z"/><path class="cls-2" d="M62.73,14.12h-.19l0,0Z"/><path class="cls-2" d="M67.5,25.37l0,0C67.34,25.32,67.39,25.35,67.5,25.37Z"/><polygon class="cls-2" points="73.43 8.38 73.42 8.38 73.42 8.39 73.43 8.38"/><path class="cls-2" d="M73.85,8.62c-.3,0-.35-.09-.42-.22l-.13.23-.13.24.34-.13Z"/><path class="cls-2" d="M75.9,20.79l0-.2v-.2c.41.32.39.71.52.29-.27,0-.4-.29-.55-.61a1.94,1.94,0,0,0-.27-.41.27.27,0,0,0-.34-.07l0-.26c0,.06.07.05.1.11,0-.27-.15-.28-.31-.28a.52.52,0,0,1-.49-.23c-.1-.16-.14-.32,0-.27l-.2-.1-.21-.09c-.1-.09,0-.15.08,0l-.27-.2-.29-.17h0c-.13,0-.37,0-.49,0-.11-.15.1,0,.1-.1l-.39,0c-.07-.2.25-.2.48-.06,0-.32-.12-.34-.26-.33a.84.84,0,0,1-.68-.25l.38.05c-.13-.39-.46-.36-.89-.62a2.51,2.51,0,0,1,.37.37c.12.16.16.31-.06.33a.51.51,0,0,0-.49,0c0-.18-.17-.17-.42-.17l.53,1.83,0,0,.13.23c.18-.21.09-.31.15-.49a.49.49,0,0,1,.58,0c.4-.27-.46,0,0-.44.36-.17.5-.45.69-.89.25-.14.08.14.21.12v-.32s.08,0,.08,0c.08-.18-.18-.15,0-.43-.08-.12.09-.18.29-.29s.4-.26.36-.5c.11-.05.12.11.22.14a2,2,0,0,0,0-1l.3-.28c-.28.18-.37-.23-.47-.55l-.22.1-.07-.41a.51.51,0,0,1,.22.12.41.41,0,0,0-.05-.09c.14-.13.27,0,.38.13a.93.93,0,0,1-.19.11c.11.16.24.32.4.34a.49.49,0,0,1,0-.17c0,.05.06.08.1.07s0-.08,0-.17l.3,0-.1-.06.16-.3.15-.31a12.12,12.12,0,0,1-.83-1.57c.24.16.36,0,.61,0-.12.11-.08.22,0,.38a1,1,0,0,1,.11.55c0-.2.16-.15.2-.09l-.12-.35v0h0v-.05l0,0,0-.1,0-.09c.21,0,.15-.12.21-.35-.2.1-.28,0-.35-.21a1.77,1.77,0,0,0-.23-.5c.14-.06.29,0,.34.32.21-.47-.59-.34-.45-.76,0,.08,0,.13.1.14-.18-.14-.28-.6-.12-.55l0,.07a3.15,3.15,0,0,0-.54-.91c-.24-.26-.5-.43-.66-.34A1.81,1.81,0,0,1,74,9a4.61,4.61,0,0,0-.75,0l-.5.07-.22,0c.26-.16.48-.92.94-.74A.76.76,0,0,0,73,8c0,.09-.11.48-.21.42-.06-.46-.06-.28-.25-.75.08.13-.31.44-.46.33.06,0,.21-.41.31-.41L72,7.67l-.33.09c.15,0,.2-.34.14-.51,0,.09-.44-.2-.6-.2l.18.18c-.55-.27-.76.43-1.25.32.07-.08.29-.56,0-.65-.09.11-.3.37-.48.64a2.35,2.35,0,0,1-.58.67L69,8.08l-.15.1-.14.11a2.85,2.85,0,0,1,.41-.79,3,3,0,0,1,.7-.69c-.25-.11-.07-.16-.43-.15-.13-.12.2-.19.31-.2l-.43,0a3.54,3.54,0,0,0-.43,0c.06.26-.6.38-.51.6l.4-.22.43-.18a.73.73,0,0,1-.26.51,1.19,1.19,0,0,1-.65.37c-.16-.06,0-.5-.06-.59a.84.84,0,0,1-.53.28L67.84,7c-.18,0-.27.13-.37.25A.44.44,0,0,1,67,7.4c-.13,0-.53-.13-.47,0a2.4,2.4,0,0,1,.84,1.28h-.34a3.34,3.34,0,0,1-.47,0c-.31-.08-.12-.65-.38-.72a.38.38,0,0,1,0,.26c-.14,0-.1-.22-.3,0,.14.24-.46.38,0,.27-.16.24-.26.17-.47.42.2,0,.29.61.25.85a.31.31,0,0,0-.22,0,3.05,3.05,0,0,0-.59,1.18c-.07,0-.19.25-.29.13a.45.45,0,0,1,.1.3c-.28.24,0-.32-.3-.15.16,0,.17.39.21.59.27,0,.15-.43.07-.66a.78.78,0,0,1,.47.33,1.08,1.08,0,0,1,.18.76c-.15.52-.3.1-.29.21s-.23.33-.3.47l0,.08a.31.31,0,0,0,0,.1l-.1.17a.63.63,0,0,1-.69.36c-.34-.17-.09-.43-.19-.58.3-.14.55,0,.78-.14l-.32.06a.85.85,0,0,1,.37-.31c-.14,0-.4.16-.76.22a2.47,2.47,0,0,1-1.05,0c-.1.07-.28.16-.19.24l.19,0c.17.17-.34.25-.11.32a1.14,1.14,0,0,1-.87.26l-.06-.25c0,.07.23.14.32.06-.14.12-.54-.32-.69,0l.25.17c-.25.13-.55.41-.87.33.15.24.08,0,.3.26-.2-.36.8,0,.48-.38.23.33.4.13.7.41,0-.08-.11-.15.15-.12l.06-.08h0a.26.26,0,0,1-.14-.13c.12-.19.54-.2.67-.31.16,0-.06.11,0,.19l.21-.15c0,.18.49.26.08.4h.38a1.15,1.15,0,0,0,.88-.14c.26-.05.5-.49.36-.24l.13-.09.13-.13.07-.08h0l0,0h0l0,0,0-.07.06-.08.1-.15h0a2.08,2.08,0,0,0,.36-1.12,1.15,1.15,0,0,1,.27-.81v-.22a.34.34,0,0,1,.09-.23l.16,0a.34.34,0,0,1,.15-.23c.07-.08.13-.14.08-.21a.32.32,0,0,0,.26,0,.54.54,0,0,0,.19-.18c.12-.15.25-.34.38-.39l-.11-.17a3.2,3.2,0,0,0,.5-.45l-.09-.15c.15-.25.62-.13,1-.22a.09.09,0,0,1-.09.08c.18.13.37,0,.58-.1a.88.88,0,0,1,.33-.12.26.26,0,0,1,.28.07.17.17,0,0,1,.22,0h0l.1.08s0-.06-.07-.08h.33v.2h0c.08.1.11-.06.09-.22l.19-.07c0,.31.33,0,.31.36.08-.06.21,0,.37,0a.47.47,0,0,0,.44-.1s0,.08-.06,0c.1.09.18.21.34.21L72,9.2l.22,0,.22,0c0,.24,0,.35-.22.37.5.09.32.15.78.24l-.14.1c.1.08.39.13.34.28s.14.51.31.9a3.19,3.19,0,0,1,.19.62c0,.1,0,.21,0,.31a1,1,0,0,1,0,.26c.22-.08.19,0,.13.11s-.13.29.06.29l-.08.05,0,0h0v0h-.08v0h0l0,0v0h0v0h0v.16a1,1,0,0,1,0,.23.34.34,0,0,0,.11.37c-.13,0-.16-.1-.23-.07s.08.12,0,.15-.09-.07-.13-.13c0,.35.28.46.6.57-.2.16-.21.25,0,.47-.13,0-.26.1-.23-.14,0,.14-.45.72-.23.85-.07,0-.11.16-.1.21-.17.28-.21.28-.36.56l.08-.05c.19.28-.09.26-.22.49l0,0c-.28.16-.3.22-.3.22s-.07.2-.38.3l.17.12c.12.17,0,.22-.2.27s-.42.07-.51.24h.17c0,.12-.23.08-.43,0a1.39,1.39,0,0,0-.49-.12c-.06,0,0-.09,0-.14l-.14,0-2.56,1.32,3.13.79c.14,0,0-.33.22-.36,0,.14-.1.34.07.39s.17,0,.35-.08.39,0,.45.14c0-.13,0-.26.15-.26s.2.19.28.33.17.25.36.18a.24.24,0,0,1,0,.07c.08,0,.2.12.33.18a.62.62,0,0,0,.36.12.32.32,0,0,0-.06.34,1.61,1.61,0,0,0,.25.29c.21.18.37.39.07.49l.17.49h-.07a.61.61,0,0,0,.29.56c0,.08-.1,0-.14,0a1.83,1.83,0,0,0-.12.44.78.78,0,0,0,0,.26v0h0v0h0l0,.08,0,.17-.19-.05c0,.08-.14.2-.3.35a1.49,1.49,0,0,0-.27.23.8.8,0,0,0-.22.32l0-.11a1,1,0,0,1-.76.42,1,1,0,0,0-.35.14.42.42,0,0,0-.12.38L72,25l-.16.14c.51-.1,0,.34.25.39-.2.11-.6-.08-.35-.18l0,0c0-.2-.16-.19-.33-.17s-.35,0-.36-.11a2.93,2.93,0,0,1-1.4-.16,4.66,4.66,0,0,1-1.15-.62,1.34,1.34,0,0,1-.05.14.63.63,0,0,1,0,.15l-.25-.18c0-.11.06-.24.22-.12,0-.19-.35-.11-.41-.07-.12-.19,0-.22.08-.22s.23,0,.19,0l-.14-.1V24c-.18,0-.28.06-.46-.15s.1-.18.07-.24,0,0-.06-.09l-.1-.16-.09-.18-.12.27c-.2-.1-.2-.35-.33,0,.1-.23-.06-.59-.25-1a4,4,0,0,1-.39-.84,1.41,1.41,0,0,1-.35-.34c-.09-.12-.18-.28-.28-.44,0,.11-.18.3-.33,0,.52-.23-.15-.63-.11-1.09,0,.19-.18,0-.39-.12s-.43-.23-.36.05c-.22-.22.11-.19,0-.44a1.7,1.7,0,0,1-.46-.18L64,19l-.16-.08-.26-.15a3.49,3.49,0,0,0-1.14-.43c0,.07.08.21-.11.28l-.17-.22-.18-.22c-.16,0-.2.39-.45.1,0,.07.08.16,0,.17a6.25,6.25,0,0,0-2.27-.22A5,5,0,0,1,57,17.86c.19.14.06.15-.09.15.1,0,0,.17,0,.28l-.62-.3c-.11.27-.66,0-.73.25l.2,0c-.28.3.34.7.28,1.09.32-.34.76.54,1.26.06.1.08-.1.12-.05.21.14-.16.28-.19.55-.1l0,0a8.11,8.11,0,0,1,1.93.3l-.05-.2a.64.64,0,0,1,.3.15c.22-.29-.51,0-.31-.36.23.4,1.28.08,1.38.55.27,0-.05-.23.21-.2l.06.13.08-.14a.29.29,0,0,1,.22.31.27.27,0,0,0-.11,0c.15.17.56.05.62.12l-.22-.12a3.68,3.68,0,0,1,1.07.24l.25.1.06,0h0l-.07,0h.05l0,0,.14.06.29.1.2.07,0-.1a.41.41,0,0,1,.33.24,1.28,1.28,0,0,0,.29.39h0a.49.49,0,0,1,.35.25c-.17-.05,0,.34-.24.25.46.37.27.14.76.32l-.09.15a.56.56,0,0,1,.43.29c-.23-.17-.11.28-.4.11,0,.73.75.72.48,1.24.52.07-.09-.64.07-.53.06-.19.41.07.47.28s-.29.6.09,1.09a.34.34,0,0,1-.1-.08c0,.25.39.26.46.58.28-.05.27.27.51.06L67.05,25l-.21-.17a1.61,1.61,0,0,0,.51.16.92.92,0,0,1,.5.34.69.69,0,0,1-.35,0c.06.17.27.11.34.28-.1.13-.26,0-.44-.07a1.33,1.33,0,0,0-.58-.32c0,.22.67.26.31.42a.43.43,0,0,1,.49.12.84.84,0,0,0,.23.18.57.57,0,0,0,.33,0l-.12.15a.9.9,0,0,1,.35.05l-.15.06-.16.06a.53.53,0,0,1,.26.06l.06,0v0h.07l0,0,0,0a1.2,1.2,0,0,0,.2.17l.09,0,.15,0-.13,0-.07,0-.09-.06a.11.11,0,0,1,0-.11c0-.07.11-.14,0-.24a.56.56,0,0,1,.59.32.73.73,0,0,0,.75.38c-.14,0-.49-.18-.27-.24a2.18,2.18,0,0,1,.53.26c.65,0-.1-.2.18-.31.22.24.31-.11.56-.2l0,.2c.72,0,.13-.41.76-.38l-.11.16a1.23,1.23,0,0,1-.1.16l.16-.07.15-.07v.24a1.29,1.29,0,0,1,.79-.31c-.13-.1-.08-.35.19-.47s0,.23.35,0c0,.15-.06.35-.32.26,0,.06,0,.15,0,.21a.68.68,0,0,0,.41-.1c.12-.07.22-.16.3-.2a.42.42,0,0,1-.18,0l.22-.28.2-.29c.13,0,.09.1,0,.19.11-.1.14-.21.27-.35.07.15.19.29,0,.52a2.58,2.58,0,0,0,.22-.28c.1-.13.19-.27.19-.27s.39-.11.37,0a1.15,1.15,0,0,0,.37-.58,2.21,2.21,0,0,1,.36-.7.46.46,0,0,1,0-.2,2,2,0,0,1,.19-.31l0-.07h0l0-.07h0v-.05l.06-.12a.72.72,0,0,0,.08-.29,1.31,1.31,0,0,0,0-.48l.17-.17.14-.17c0-.23-.13-.11-.22,0s-.2.1-.25-.25.22-.21.28-.4c-.09-.13-.22-.28-.33-.46a.91.91,0,0,1-.16-.62A1.3,1.3,0,0,1,75.9,20.79Zm-3.65-3.34c.11,0,.35-.1.38,0C72.46,17.67,72.41,17.54,72.25,17.45Zm2.62-3.6c.06.08,0,.18-.1.26A.66.66,0,0,1,74.87,13.85Zm-11,0h0C64.19,13.87,64.09,13.86,63.92,13.86Zm-.48,0s0,.06,0,.09.12-.07.24-.07C63.63,13.81,63.57,13.78,63.44,13.84Zm4.2,9.78v.08C67.51,23.62,67.56,23.62,67.64,23.62Z"/><path class="cls-2" d="M74.94,14.68h-.11C74.85,14.73,74.88,14.74,74.94,14.68Z"/><polygon class="cls-2" points="75.69 24.12 75.68 24.13 75.7 24.17 75.69 24.12"/><path class="cls-2" d="M66,8a.37.37,0,0,1,.2,0S66.14,7.93,66,8Z"/><path class="cls-2" d="M61.41,14.26l.25-.06a.27.27,0,0,1-.22-.06S61.49,14.25,61.41,14.26Z"/><path class="cls-2" d="M59.3,13.06s-.07,0-.1,0v.1C59.36,13.18,59.46,13.1,59.3,13.06Z"/><path class="cls-2" d="M61.18,13.61c0-.17-.18-.11-.34-.07h0C60.82,13.77,61,13.69,61.18,13.61Z"/><path class="cls-2" d="M60.8,13.54l-.11,0C60.62,13.64,60.71,13.57,60.8,13.54Z"/><path class="cls-2" d="M62.93,14c-.08,0,0,.22-.09.15C62.75,14.35,63.38,13.86,62.93,14Z"/><polygon class="cls-2" points="61.03 13.06 61.09 13.27 61.18 13.1 61.03 13.06"/><path class="cls-2" d="M62.36,13.18l-.27,0a.08.08,0,0,1-.07.07C62.18,13.2,62.37,13.24,62.36,13.18Z"/><path class="cls-2" d="M62,13.2a.36.36,0,0,0-.22,0A.64.64,0,0,0,62,13.2Z"/><polygon class="cls-2" points="61.39 12.99 61.47 13.04 61.66 13.04 61.39 12.99"/><path class="cls-2" d="M65,12.14s0-.09,0-.17a1.24,1.24,0,0,0,0-.15c-.06-.05-.12,0-.13.13S65,12.15,65,12.14Z"/><path class="cls-2" d="M64.11,12.4a.34.34,0,0,1,.17.08l-.14-.21Z"/><path class="cls-2" d="M64.46,11.92c-.06-.05-.09-.35-.16-.1C64.36,11.86,64.32,12.07,64.46,11.92Z"/><polygon class="cls-2" points="66.83 8.28 66.77 8.33 67 8.67 66.83 8.28"/><path class="cls-2" d="M70.88,6.65l0,0-.13,0h0a.1.1,0,0,0-.07.07c0,.06,0,.12-.19,0-.1.09.23.15.13.22l.14,0h.16C70.89,6.86,70.9,6.81,70.88,6.65Z"/><path class="cls-2" d="M70.53,6.91l-.07,0S70.51,6.92,70.53,6.91Z"/><polygon class="cls-2" points="55.86 17.77 55.64 17.67 55.78 17.81 55.86 17.77"/><path class="cls-2" d="M55.42,18.06l0-.27-.14.24S55.38,18,55.42,18.06Z"/><path class="cls-2" d="M71.5,16.8l0,.06c0,.08.12.08.27.11Z"/><path class="cls-2" d="M75,18.74l0,0,0,.12-.06.13Z"/><path class="cls-2" d="M76.6,21.72c0-.15-.08-.31-.09-.46C76.59,21.58,76.3,21.78,76.6,21.72Z"/><path class="cls-1" d="M4.94,11.23C2.5,12,.63,14.46,1.15,16.84s3.81,4,5.94,2.62a27,27,0,0,0,2.32-2.22c1.71-1.39,4.21-1.39,6.48-1.31l4.8.15c.12-.54.25-1.08.37-1.62,0,0,.06-.3.09-.43s.12-.59.12-.59c.09-.44.18-.9.26-1.37s.22-1.23.31-1.84c-3.37-.31-6.72-.77-10-1.4A7.3,7.3,0,0,0,8.68,4.11c-1.71-1-4.23-1-5.54.47C1.37,6.53,2.73,9.71,4.94,11.23Z"/><path class="cls-2" d="M5.45,10.37c.06.07.13-.1.16-.12C5.49,10.21,5.43,10.41,5.45,10.37Z"/><polygon class="cls-2" points="4.18 9.72 4.24 9.69 3.98 9.64 4.18 9.72"/><path class="cls-2" d="M3.43,8.6c-.1.12,0,.23.07.33a.79.79,0,0,1,.25.33l0,.06.25,0C3.78,9.07,3.46,8.82,3.43,8.6Z"/><path class="cls-2" d="M3.76,7.75c-.1.07-.14-.1,0,.14v0Z"/><path class="cls-2" d="M3.79,7.86c.06.1.07-.11,0,0Z"/><path class="cls-2" d="M3.57,7.35l.14.13c.06-.05,0-.18.1-.14C3.72,7.21,3.67,7.24,3.57,7.35Z"/><path class="cls-2" d="M3.34,7.25l.05.07S3.43,7.27,3.34,7.25Z"/><path class="cls-2" d="M3.52,7.48a.5.5,0,0,0-.06-.08l-.07-.08s-.13,0,0,.07C3.35,7.4,3.44,7.42,3.52,7.48Z"/><path class="cls-2" d="M3.5,7.58c0,.1,0,.24-.19.1a.4.4,0,0,0,.15.19C3.56,7.82,3.56,7.72,3.5,7.58Z"/><path class="cls-2" d="M3.13,8.67v.17l.15.07C3.19,8.88,3.21,8.62,3.13,8.67Z"/><path class="cls-2" d="M3.68,6.47l-.25,0,.06.11C3.53,6.56,3.58,6.47,3.68,6.47Z"/><path class="cls-2" d="M3.43,6.5l-.09-.17C3.31,6.47,3.36,6.5,3.43,6.5Z"/><path class="cls-2" d="M3,7.27l.13.13a1,1,0,0,0,.14.13l-.15-.16L3,7.21Z"/><path class="cls-2" d="M3.81,6l.11.11L3.84,6l-.08-.1Z"/><path class="cls-2" d="M3.88,5.76A.31.31,0,0,0,4,5.85c.06,0,.11,0,.11.06a.86.86,0,0,0,.08-.45A.48.48,0,0,1,3.88,5.76Z"/><path class="cls-2" d="M4.12,5.34v.12h0l.06-.08h0v0h0l-.06.08h0v0A.44.44,0,0,0,4.12,5.34Z"/><path class="cls-2" d="M3.43,6.07A.31.31,0,0,0,3.63,6H3.44Z"/><path class="cls-2" d="M3.44,6h0l.06-.1Z"/><path class="cls-2" d="M3.42,6.09v0S3.4,6.08,3.42,6.09Z"/><path class="cls-2" d="M3.12,6.76c-.1-.1-.17-.34-.34-.12C2.89,6.73,3,6.6,3.12,6.76Z"/><path class="cls-2" d="M3.19,6.11l-.08.18.12,0Z"/><polygon class="cls-2" points="3.16 6.01 3.19 6.11 3.22 6.05 3.16 6.01"/><path class="cls-2" d="M3.82,5.44a.53.53,0,0,1,.05-.18.18.18,0,0,1,0-.07h0l0,.05h0v0l0,0h0l0,0h0l0-.06h0l-.07.08c-.06,0-.1.1-.15.15S3.74,5.56,3.82,5.44Z"/><path class="cls-2" d="M3.59,5.72v0S3.57,5.7,3.59,5.72Z"/><polygon class="cls-2" points="4.65 4.68 4.62 4.65 4.63 4.68 4.65 4.68"/><path class="cls-2" d="M3.63,5.4a.18.18,0,0,0-.08.1.29.29,0,0,0,0,.09.37.37,0,0,1,0-.08l.05-.07C3.65,5.38,3.64,5.37,3.63,5.4Z"/><path class="cls-2" d="M4.23,5.14a.26.26,0,0,0-.15,0C4.14,5.14,4.25,5.18,4.23,5.14Z"/><path class="cls-2" d="M3.63,5.71h0S3.67,5.72,3.63,5.71Z"/><path class="cls-2" d="M3.63,5.71a.38.38,0,0,0,0-.12V5.7Z"/><path class="cls-2" d="M4.55,3.5a.36.36,0,0,1-.45.34c-.15.22.26.61.52.81,0-.06-.07-.13.08-.28-.1-.08-.48,0-.4-.21s.24,0,.4,0c-.09-.08,0-.18,0-.29s.16-.24.09-.37l-.24.19S4.64,3.51,4.55,3.5Z"/><path class="cls-2" d="M4.31,4.8l0,0a.54.54,0,0,1,.32.07.3.3,0,0,0,0-.24l-.17.07-.15.08Z"/><path class="cls-2" d="M4,5.05c-.08-.17,0-.35-.18-.43-.19.16,0,.23-.07.38.22-.28,0,.13.24,0a.58.58,0,0,1-.06.11s.08,0,.14,0h0l0,0h0a.15.15,0,0,1,0-.05c.09,0,0,0,0,.05v0h0L4.16,5l.1-.14A.62.62,0,0,0,4,5.05Z"/><path class="cls-2" d="M2.42,6.39s0,0,0,0S2.43,6.33,2.42,6.39Z"/><path class="cls-2" d="M2.54,6.22a.18.18,0,0,1,.06.17c-.06.08-.08,0-.14,0s.11.22.21,0l0,0c.07-.18.35-.32.35-.32A1.83,1.83,0,0,0,2.54,6.22Z"/><path class="cls-2" d="M3.16,5.43l0-.16a.66.66,0,0,1,.08-.17L3,5.16l.08,0C3,5.35,3.12,5.38,3.16,5.43Z"/><path class="cls-2" d="M4.71,4.74l0,.19a1.47,1.47,0,0,1,0-.16,1.16,1.16,0,0,0,0-.15Z"/><polygon class="cls-2" points="5.05 4.59 5.08 4.76 5.15 4.63 5.05 4.59"/><path class="cls-2" d="M18.12,17,18,17A.27.27,0,0,0,18.12,17Z"/><path class="cls-2" d="M19,17l0-.08S18.92,17,19,17Z"/><path class="cls-2" d="M14.12,10.28c.15.18.3.44.31.26l0-.19A.42.42,0,0,1,14.12,10.28Z"/><path class="cls-2" d="M21.73,11.12l.06,0-.15-.14A1.5,1.5,0,0,1,21.73,11.12Z"/><path class="cls-2" d="M22.44,11.36l-.15.2A.86.86,0,0,0,22.44,11.36Z"/><path class="cls-2" d="M13.69,17.09l-.11.18C13.77,17.26,13.68,17.18,13.69,17.09Z"/><path class="cls-2" d="M8.91,5.5A.81.81,0,0,0,9,5.78C9,5.61,9,5.41,8.91,5.5Z"/><path class="cls-2" d="M18.5,15.09a.15.15,0,0,0-.1.11C18.48,15.17,18.52,15.14,18.5,15.09Z"/><path class="cls-2" d="M9.28,6a.19.19,0,0,0,0-.08A.76.76,0,0,1,9,5.78C9.06,5.91,9.11,6,9.28,6Z"/><path class="cls-2" d="M.08,15.52l0,0S.07,15.49.08,15.52Z"/><path class="cls-2" d="M4.09,12.48,4,12.55S4,12.55,4.09,12.48Z"/><path class="cls-2" d="M6.62,4.57c-.09,0,0,0,0,0Z"/><path class="cls-2" d="M6.23,3.83l0-.05Z"/><path class="cls-2" d="M10.75,6.18h0C10.77,6.14,10.77,6.15,10.75,6.18Z"/><path class="cls-2" d="M6.5,4.47a.36.36,0,0,0,.1.06Z"/><path class="cls-2" d="M6.51,4.55l-.07,0S6.43,4.57,6.51,4.55Z"/><path class="cls-2" d="M6.73,4.57H6.64s0,0,0,0A.36.36,0,0,1,6.73,4.57Z"/><path class="cls-2" d="M7.49,19.84h0C7.41,20,7.44,19.93,7.49,19.84Z"/><polygon class="cls-2" points="17.16 8.87 17.15 8.87 17.16 8.88 17.16 8.87"/><path class="cls-2" d="M17.56,8.79c-.19.2-.28.15-.4.09l.06.53Z"/><path class="cls-2" d="M16.14,17l.26.17c-.33.25-.57.16-.32.39.06-.56,1.05,0,1.11-.58l.17.12a0,0,0,0,0-.05,0c.28.27.21-.41.66-.31.15,0,.26.13.15.19l.35-.13c.1,0,.07.12,0,.1l.53,0h0a2.88,2.88,0,0,1,.34-.27c.13.08-.07.06,0,.13l.3-.13c.11.15-.14.28-.34.26.26.56.25-.13.83.21l-.28.06c.17.32.39.21.69.42-.07-.11-.61-.51-.28-.64a.39.39,0,0,0,.38,0,.16.16,0,0,0,0,.13l.52.17.53-.92a.91.91,0,0,0,.06-.29l.25.08c0-.24-.16-.25-.24-.41.09-.25.3-.25.47-.27.14-.39-.38.2-.31-.28.17-.31.11-.55.05-1,.14-.21.15.08.24,0L22,13.9c0-.05.07,0,.1,0s-.08-.11-.13-.14l-.06,0-.05-.07v0h0v0c.24.21-2.19-.36-1.16-.24v0h0l1.16.23a.1.1,0,0,0,0,0c-.27-.12.52-.48.27-.88.09-.07.15.07.25.07a3.93,3.93,0,0,0-.11-.46,2.2,2.2,0,0,0-.18-.42l.22-.28c-.24.19-.41-.14-.56-.44l-.25.17-.06-.45s.13,0,.22.1l0-.09c.12-.13.26,0,.38.1l-.19.13a.83.83,0,0,0,.46.26.41.41,0,0,1-.05-.15l.1.05s0-.07-.07-.14l.3,0-.11,0,.27-.54-.06-.11-.55-1-.17.11a2.79,2.79,0,0,1-1.35.64c.18-.2.07-.35.1-.6.15.28.5-.06.83,0-.17,0-.12-.16-.12-.16l-.56.15c0-.2-.11-.17-.26-.27.08.42-.46.23-.71.33,0-.14.07-.27.35-.21-.28-.35-.46.43-.75.14.08,0,.11,0,.15,0-.18.1-.58,0-.47-.15h.08c-.47-.1-1.43-.18-1.55.16A3.29,3.29,0,0,1,17.8,9l-1,1c.11-.29-.07-1,.34-1.15a.61.61,0,0,0-.49,0c.08,0,.13.46,0,.47-.24-.37-.18-.21-.49-.53.11.07-.09.52-.27.48,0-.07.05-.47.13-.5l-.52.38c.13-.06.08-.38,0-.52,0,.09-.39-.07-.51,0l.17.13c-.49-.14-.6.56-1.1.46.08-.08.25-.56,0-.65-.16.21-.71,1-1.19,1.13l-.06-.15-.37.09A9.09,9.09,0,0,1,13.85,8.4c-.17-.14,0-.17-.3-.2-.08-.15.18-.17.26-.16l-.63-.19c0,.27-.56.18-.57.41l.76-.15a.89.89,0,0,1-1,.56c-.09-.13.18-.47.19-.56-.08.08-.47.1-.51,0L12.27,8a.35.35,0,0,0-.33,0l.62.6a.37.37,0,0,1-.13-.44c0-.12.25-.45.08-.42a2.45,2.45,0,0,1-1.42.54,5,5,0,0,1,.2-.78c.17-.27.65,0,.79-.18a.38.38,0,0,1-.24-.07c0-.14.24,0,.1-.28-.27.07-.2-.5-.26,0-.18-.2-.06-.28-.21-.55-.12.17-.67,0-.86-.1a.32.32,0,0,0,.14-.17,5.93,5.93,0,0,0-.63-1.1c0-.08-.08-.31.08-.32-.09,0-.2,0-.32-.09,0-.39.27.21.31-.16-.12.1-.44-.12-.68-.18-.11.24.34.36.57.45a1.29,1.29,0,0,1-1.2.1c-.33-.15,0-.28-.07-.28a.53.53,0,0,0-.35-.15.94.94,0,0,0-.3,0c-.21,0-.3.11-.49-.1s.15-.42.16-.58A.48.48,0,0,1,8.16,4a.69.69,0,0,0,.23.22L8.21,4a.44.44,0,0,1,.41.15A1.18,1.18,0,0,0,8,3.71c-.33-.15-.72-.25-1-.39-.12.06-.31.12-.23.21h.18c.12.19-.36.19-.16.31C6.54,3.93,6.3,4.1,6,4l-.07-.25c0,.07.2.14.29.07-.12.11-.49-.34-.61,0L5.84,4c-.21.14-.41.44-.65.41.16.22,0,0,.27.22-.21-.35.59-.06.32-.41.2.33.32.13.53.43,0-.08-.07-.16.13-.11l0-.07h0a.38.38,0,0,1-.1-.13c.12-.18.46-.14.6-.2s-.07.08,0,.18l.1,0a.26.26,0,0,1,.1,0c0,.18.24.38-.07.41l.25.07a.47.47,0,0,0,.19.18c.07,0,.12.06.18,0a.11.11,0,0,0,.08,0h.12c.07,0,.1,0,0,0L8.18,5h0l.07,0,.06,0,0,0a5,5,0,0,0,.57.29A.77.77,0,0,1,9.27,6a.76.76,0,0,1,.36.37l-.1.13c.15.11.15.53.34.51-.14.19-.06.38.06.59a1.87,1.87,0,0,1,.28.57l.2-.07a3.05,3.05,0,0,0,.35.66l.17-.07A.47.47,0,0,1,11,9v.33l.59.25a3.34,3.34,0,0,0,.71.26c0,.07-.14,0-.21,0,.43.5,1.13-.1,1.54.27a.29.29,0,0,1,.29.06h0l.11.09s0-.06-.06-.08a1.58,1.58,0,0,0,.37,0l0,.2h0c.12.09.12-.07.08-.23a.72.72,0,0,0,.2-.09c0,.33.36,0,.45.31.12-.15.69,0,.82-.36,0,0,0,.07-.05.06a.47.47,0,0,0,.44.05l0,.26.37-.29c.18.17.25.27,0,.44.52-.23.4-.06.84-.3l0,.16c.14,0,.39-.17.46,0,.29.35,1.6.24,2.39.6-.11-.49.37.25.44-.11,0,.12.15.19,0,.27.4-.06.59.2.87,0l-.8-1,.06.08c-.12,0-.15-.11-.23-.08s.08.15,0,.18-.09-.08-.13-.15c-.05.42.29.53.61.62-.19.19-.19.29,0,.48-.12.06-.25.17-.25-.1,0,.14-.3.89-.05.93-.07,0-.05.2,0,.25a3.93,3.93,0,0,0-.15.68l.06-.08c.27.17.06.27,0,.49l.78.15h0l-.78-.17v0h0v0h0c-.35.56.06.27-.33.81h.2c.4.15-.36.47-.28.85l.14-.1c.1.22-.69.39-.78.56s0-.07-.06-.14c-.34.43.22.14.22.48l.76-.58h0c-.07-.15.1-.36-.15-.39s-.75.43-1.09.15c.07.11.14.22,0,.29s-.71-.42-1-.09a.17.17,0,0,1,0-.06c-.21,0-.68.09-.8.27-.17-.69-1.29.29-1.27-.34l-.63,0,0-.06a.7.7,0,0,0-.71.24c-.09,0,0-.1,0-.14a1.09,1.09,0,0,0-1.17.23l-.06-.2c-.13.12-.92-.28-1.51.05a.21.21,0,0,1,.05-.1,3.11,3.11,0,0,1-1.15.14c-.4,0-.73.13-.71.52l-.18.18a1.82,1.82,0,0,0-.18.19c.57-.21.06.32.33.33-.17.13-.62.06-.38-.1l0,0c0-.2-.23-.15-.42-.05a2.1,2.1,0,0,1-.26.13c-.07,0-.13,0-.17,0-.49.35-.94.78-1.34,1.13a9.13,9.13,0,0,1-1.07.9l.12.11.14.08L7,18.83a.56.56,0,0,1-.14.08c-.12,0-.23-.12,0-.25l-.12,0a.07.07,0,0,0,0,0l0,.05h0s0,0,0,0v0a.74.74,0,0,0,0,.2c-.2.07-.19,0-.17-.13a1.09,1.09,0,0,1,.08-.19l-.16.11h0c-.05.18,0,.29-.25.36S6,19,6,19s0,0-.09,0l-.17,0a.74.74,0,0,1-.16,0l.07.11.09.12c-.15.12-.35,0-.16.27-.15-.2-.48-.23-.82-.3S4.05,19.11,4,19a.9.9,0,0,1-.76-.22c0,.08-.06.34-.28.15.38-.39-.27-.48-.14-.91,0,.15-.15.05-.29-.05s-.26-.2-.31,0c-.1-.19.15-.13.15-.33a.76.76,0,0,1-.25-.28A1.35,1.35,0,0,1,2,17.09l0-.24,0-.13v-.1H2s0-.06,0,.05H2a3,3,0,0,0-.05-.42c-.07,0-.18.11-.29,0a3.37,3.37,0,0,1,.36-.3c0-.11-.41-.14-.14-.33-.06,0-.17.05-.17,0a16,16,0,0,1,.76-1.71A2.1,2.1,0,0,1,4,12.76c-.22,0-.13-.1,0-.17-.09,0-.1-.16-.17-.23l.31,0h.29c0-.29.47-.25.46-.51l-.16.11c.06-.18-.08-.32-.24-.44S4,11.25,4,11.07c-.08.22-.29.2-.56.22s-.53.1-.58.46c-.14,0,0-.16-.11-.2,0,.22-.1.34-.36.47v0c-.29.29-.52.49-.76.7a4.57,4.57,0,0,0-.76.83l.2,0a1,1,0,0,1-.28.24c.15.34.28-.51.46-.16-.23,0-.41.34-.54.67s-.23.65-.47.7c-.06.33.24-.05.17.27l-.13.07.14.11a.35.35,0,0,1-.3.3,2,2,0,0,0,0-.22c-.19.29,0,.84,0,.94l.07-.34c0,.12,0,.24,0,.36s0,.25.07.37l0,.09V17h0l0,.06,0,.15.1.31a2.5,2.5,0,0,0,.88,1.23l0-.11a1.25,1.25,0,0,1,.41.41,1.11,1.11,0,0,0,.44.45h0a1,1,0,0,1,.49.19c-.2,0,.17.36-.08.33.35.1.45.1.52.08a2.7,2.7,0,0,1,.4-.15l0,.17a.76.76,0,0,1,.55-.07c-.31.05.14.28-.21.36a1,1,0,0,0,.84.21c.24,0,.41-.09.58.17.35-.4-.63-.26-.43-.35-.14-.15.28-.3.5-.25s.41.55,1,.4c-.07,0-.06,0-.12.05.26.06.39-.27.74-.21,0-.3.35-.17.23-.47L7,20.15a1.77,1.77,0,0,1-.24.15c.14-.08.22-.27.33-.43a.58.58,0,0,1,.09-.1.28.28,0,0,1,.06-.06l0,0a.78.78,0,0,1,.29-.15.82.82,0,0,1-.11.32c.14,0,.2-.22.36-.23a.16.16,0,0,1,0,.2,1,1,0,0,1-.2.2l-.11.08-.16.1a.92.92,0,0,0-.23.25c.23,0,.49-.54.53-.16a.31.31,0,0,1,0-.25.61.61,0,0,1,.22-.15.55.55,0,0,0,.34-.45l.12.16a.7.7,0,0,1,.13-.3l0,.17,0,.16c.07-.38.55-.31.65-.6-.39.45-.27-.06-.53,0,.15-.36.3-.34.49-.32a.54.54,0,0,0,.58-.24c0,.08-.32.18-.29,0a.76.76,0,0,1,.43-.12c.27-.32-.19-.1-.14-.32.14,0,.15,0,.16-.09v-.09h0l0,0h0v0a.6.6,0,0,1,0-.11l.15.1c.29-.13.22-.19.19-.3s-.07-.18.16-.23a1.54,1.54,0,0,0,0,.17v.16l.15-.17.07.22c.13-.26.23-.26.47-.29a.28.28,0,0,1,.13-.44c.18.07,0,.21.27.08,0,.14-.06.31-.24.19a1.23,1.23,0,0,0,0,.2c.19.07.39-.1.5-.12a.27.27,0,0,1-.13,0l.19-.19.2-.19c.09.05,0,.13,0,.2s.13-.15.28-.19c0,.16,0,.32-.15.44a1.67,1.67,0,0,1,.2-.13l.21-.12c0,.06.25.15.2.22.25.06.59-.38.95-.27a.26.26,0,0,1,.12-.09c.34,0,.63.21,1,0l.22.29c.32-.06-.31-.37.23-.47.38-.08.13.25.27.33.19-.14.53-.42.88-.18C16.34,17,16.25,16.94,16.14,17Zm4,0c-.08,0-.24.17-.29.05S20.05,16.89,20.18,17Zm2-6.37c.05.07,0,.15-.09.25A.39.39,0,0,1,22.21,10.59ZM7.57,4.64h0C7.68,4.75,7.64,4.71,7.57,4.64Zm-.26-.18,0,0a.32.32,0,0,1,.17,0S7.42,4.44,7.31,4.46ZM6,19.09l.07,0C5.91,19.21,5.93,19.15,6,19.09Z"/><path class="cls-2" d="M22.36,11.33h-.07S22.31,11.38,22.36,11.33Z"/><polygon class="cls-2" points="13.71 17.05 13.7 17.05 13.69 17.09 13.71 17.05"/><path class="cls-2" d="M12.13,7.19a.28.28,0,0,1-.05.18C12.13,7.36,12.15,7.31,12.13,7.19Z"/><path class="cls-2" d="M5.76,4.63l.17-.06a.15.15,0,0,1-.12,0S5.81,4.62,5.76,4.63Z"/><path class="cls-2" d="M3.75,4a.05.05,0,0,1,0,0l0,.11C3.86,4.11,3.9,4,3.75,4Z"/><path class="cls-2" d="M5.51,4c0-.17-.16-.09-.29,0h0C5.25,4.2,5.38,4.09,5.51,4Z"/><path class="cls-2" d="M5.19,4a.7.7,0,0,1-.14,0C5.06,4.11,5.11,4,5.19,4Z"/><path class="cls-2" d="M6.92,4.47c-.06,0-.08.21-.1.13C6.71,4.8,7.28,4.44,6.92,4.47Z"/><polygon class="cls-2" points="5.31 3.47 5.4 3.66 5.47 3.49 5.31 3.47"/><path class="cls-2" d="M6.58,3.59l-.25-.08-.07.07C6.42,3.59,6.58,3.65,6.58,3.59Z"/><path class="cls-2" d="M6.26,3.58a.3.3,0,0,0-.2,0A2,2,0,0,0,6.26,3.58Z"/><polygon class="cls-2" points="5.66 3.37 5.74 3.4 5.93 3.41 5.66 3.37"/><path class="cls-2" d="M9.05,4.6l.12.06.13.07c.07,0,0-.13-.06-.17S9.05,4.52,9.05,4.6Z"/><path class="cls-2" d="M8.62,3.66c.05.07,0,.12,0,.2l.14-.23Z"/><path class="cls-2" d="M9.39,4.08c.08,0,.49.12.17-.11C9.48,4,9.2,3.87,9.39,4.08Z"/><polygon class="cls-2" points="11.63 7.86 11.6 7.8 11.21 7.94 11.63 7.86"/><path class="cls-2" d="M14.72,8.22c-.31-.15-.11.25-.39.07-.1.09.22.14.13.21C14.67,8.43,14.77,8.51,14.72,8.22Z"/><path class="cls-2" d="M14.46,8.5l-.11.05A.28.28,0,0,0,14.46,8.5Z"/><path class="cls-2" d="M4.76,12.38H5l-.17-.08Z"/><path class="cls-2" d="M5,12l.14.23,0-.27S5.07,12,5,12Z"/><path class="cls-2" d="M22.1,16.29l-.05,0c-.07,0-.08.06-.11.13l-.41,1.13-.89-.14h0l0,.05,1.33-1Z"/><polygon class="cls-2" points="17.83 17.22 17.89 17.23 17.8 16.99 17.83 17.22"/><path class="cls-2" d="M15.38,17.45a3,3,0,0,1,.31,0C15.47,17.46,15.36,17.15,15.38,17.45Z"/><path class="cls-3" d="M32.34,1.18l13.29,1A12.42,12.42,0,0,1,57,15.57l-.22,2.85a12.42,12.42,0,0,1-13.35,11.4l-13.28-1A12.41,12.41,0,0,1,18.77,15.44L19,12.58A12.4,12.4,0,0,1,32.34,1.18Z"/><path class="cls-4" d="M32.28.18c.17,0,.13-.15.15-.18C32.13,0,32.29.23,32.28.18Z"/><polygon class="cls-4" points="29.44 0.69 29.48 0.61 29.1 0.85 29.44 0.69"/><path class="cls-4" d="M26.89,1.34c.32.16.89-.34,1.38-.37l.08,0,.08-.14.08-.14c-.28.09-.58.23-.87.34l-.41.16A2.19,2.19,0,0,1,26.89,1.34Z"/><path class="cls-4" d="M25.31,1.33c.14.06-.24.23.33-.13h-.07Z"/><path class="cls-4" d="M25.57,1.21c.26-.14-.21,0,0,0Z"/><path class="cls-4" d="M24.42,1.89l.28-.28c-.11,0-.41.15-.32,0C24.07,1.9,24.17,1.92,24.42,1.89Z"/><path class="cls-4" d="M24.23,2.27l.14-.15C24.32,2.12,24.28,2.14,24.23,2.27Z"/><path class="cls-4" d="M24.67,1.83l-.3.29c.07,0,.12.1.15-.12C24.53,2.09,24.56,2,24.67,1.83Z"/><path class="cls-4" d="M24.9,1.75c.22,0,.48-.12.2.14C25.71,1.53,25.53,1.39,24.9,1.75Z"/><path class="cls-4" d="M26.87,1.67l.28,0,.18-.18C27.25,1.56,26.82,1.59,26.87,1.67Z"/><path class="cls-4" d="M22.39,3.16a1.18,1.18,0,0,1,.28.09L22.85,3C22.7,3.07,22.46,3.21,22.39,3.16Z"/><path class="cls-4" d="M22.67,3.25l-.24.36C22.71,3.36,22.74,3.29,22.67,3.25Z"/><polygon class="cls-4" points="24.35 2.58 24.79 2.02 24.24 2.65 24.35 2.58"/><polygon class="cls-4" points="21.23 4.3 21.28 4.02 21.15 4.49 21.23 4.3"/><path class="cls-4" d="M20.54,5.14c0-.22-.3.08-.25-.13a2.63,2.63,0,0,0-.28.76A1.6,1.6,0,0,1,20.54,5.14Z"/><path class="cls-4" d="M19.91,6.15a3,3,0,0,0,.1-.38A1.18,1.18,0,0,0,19.91,6.15Z"/><path class="cls-4" d="M21.9,4.07a.48.48,0,0,0-.37.11h.24Z"/><path class="cls-4" d="M21.78,4.18h0c-.13.13-.2.22-.25.26S21.63,4.32,21.78,4.18Z"/><path class="cls-4" d="M21.92,4.05l0,0A0,0,0,0,0,21.92,4.05Z"/><path class="cls-4" d="M23.38,3.06c-.14.22-.45.61,0,.43C23.46,3.29,23.19,3.4,23.38,3.06Z"/><path class="cls-4" d="M22.22,4.06l.35-.27s-.15,0-.09-.14Z"/><polygon class="cls-4" points="22.1 4.25 22.22 4.06 22.1 4.16 22.1 4.25"/><path class="cls-4" d="M20.49,5.62a2.09,2.09,0,0,1-.3.57,4.43,4.43,0,0,0,.49-.58C20.66,5.55,20.64,5.4,20.49,5.62Z"/><path class="cls-4" d="M21.1,4.91l0,0S21.13,4.93,21.1,4.91Z"/><polygon class="cls-4" points="19.1 8.24 19.14 8.22 19.11 8.2 19.1 8.24"/><path class="cls-4" d="M20.73,5.6a.68.68,0,0,0,.19-.38,4.11,4.11,0,0,1-.24.39S20.7,5.65,20.73,5.6Z"/><path class="cls-4" d="M19.64,6.77a1.88,1.88,0,0,0,.25-.24C19.8,6.58,19.62,6.71,19.64,6.77Z"/><path class="cls-4" d="M21,5l0,0C21,5,21,5,21,5Z"/><path class="cls-4" d="M21,5a1.44,1.44,0,0,0-.08.25A1.28,1.28,0,0,0,21.08,5Z"/><path class="cls-4" d="M19.89,9.28a.66.66,0,0,1-.09-.36,1,1,0,0,1,.3-.51c0-.4-.53-.41-1-.19.06,0,.11.07,0,.49.14-.11.58-.77.57-.39-.15.54-.25.39-.42.61.26-.14.05.76.37.74l0-.47S19.8,9.39,19.89,9.28Z"/><path class="cls-4" d="M19.5,7.47l.07-.17a3,3,0,0,1-.47.46c-.06.32,0,.4,0,.44l.39-.8Z"/><path class="cls-4" d="M20,6.61c.08.22-.07.61.23.48.25-.44.05-.38.14-.69-.38.75,0-.26-.35.21a2.33,2.33,0,0,1,.2-.42c-.11.12-.19.24-.3.34h0s0,0,0,0v0l0,.07c-.16.19-.06,0,0-.07v0h0l-.34.78A5.62,5.62,0,0,0,20,6.61Z"/><path class="cls-4" d="M23.3,4.05h0S23.22,4.11,23.3,4.05Z"/><path class="cls-4" d="M23,4.19a.38.38,0,0,1,.16-.26c.17-.06.06.07.1.1s.24-.34-.11-.19l0,.06c-.28.17-.74.31-.72.25A1.39,1.39,0,0,0,23,4.19Z"/><path class="cls-4" d="M21.42,5.32s-.09.13-.18.28l-.16.3.32-.18-.08,0C21.58,5.4,21.45,5.39,21.42,5.32Z"/><polygon class="cls-4" points="18.98 8.28 18.85 8.11 18.92 8.6 18.98 8.28"/><polygon class="cls-4" points="18.67 9.15 18.53 9.06 18.54 9.33 18.67 9.15"/><path class="cls-4" d="M51.6,26.35l.11-.15A.55.55,0,0,0,51.6,26.35Z"/><path class="cls-4" d="M50.55,27.09v.08C50.59,27.1,50.59,27.07,50.55,27.09Z"/><path class="cls-4" d="M25.39,28.53c.21.27.44.63.48.45l0-.21A1.06,1.06,0,0,1,25.39,28.53Z"/><path class="cls-4" d="M40,29.51l-.07-.06-.21.16Z"/><path class="cls-4" d="M40.25,28.8l.37.14A1.51,1.51,0,0,0,40.25,28.8Z"/><path class="cls-4" d="M55.25,20.53l-.13-.24C55.06,20.58,55.17,20.48,55.25,20.53Z"/><path class="cls-4" d="M17.9,18.29a2.89,2.89,0,0,0,0,.66C18,18.62,18.06,18.35,17.9,18.29Z"/><path class="cls-4" d="M52.32,28.18a.73.73,0,0,0,.1-.17C52.31,28.09,52.27,28.16,52.32,28.18Z"/><path class="cls-4" d="M18.07,19.7v-.09A3.05,3.05,0,0,1,17.9,19,.9.9,0,0,0,18.07,19.7Z"/><path class="cls-4" d="M42.65,3h0S42.61,3,42.65,3Z"/><path class="cls-4" d="M34.74.58l.33,0A.89.89,0,0,0,34.74.58Z"/><path class="cls-4" d="M17.86,12.77c0-.19,0,0,0,0Z"/><path class="cls-4" d="M18.66,11.92l.08.08Z"/><path class="cls-4" d="M19.71,21.14h0C19.73,21.09,19.72,21.1,19.71,21.14Z"/><path class="cls-4" d="M18,12.45h0v.06h0v0l0,.06s0,.07,0,.12l0-.08,0-.07v-.06h0v-.06Z"/><path class="cls-4" d="M17.88,12.53v0h0v-.06h0v0s0-.05,0-.08,0,0,0,0v.09h0v.09Z"/><path class="cls-4" d="M17.85,13a1.27,1.27,0,0,1,0-.29l0,0S17.85,12.89,17.85,13Z"/><path class="cls-4" d="M54.9,8.6v0C54.73,8.45,54.78,8.51,54.9,8.6Z"/><path class="cls-4" d="M30.43,28h0Z"/><path class="cls-4" d="M31.09,27.89a.64.64,0,0,1-.66.1l.17.53Z"/><path class="cls-4" d="M53.67,24.08l-.37.24c.08-.56.36-.79,0-.61.2.18,0,.53-.25.84s-.5.61-.32.82l-.28.12c.06,0,.05-.08.11-.13-.58.16,0,.57-.59,1-.23.12-.41.16-.32,0l-.34.44c-.14.09-.16,0,0-.1l-.1.08a2.13,2.13,0,0,1-.22.18l-.34.24v0a2.7,2.7,0,0,1-.3.52c-.22,0,.07-.1,0-.14l-.35.33c-.25,0,0-.32.33-.47-.32-.12-.39-.07-.5.07a1,1,0,0,1-.74.36l.34-.25c-.36-.15-.62.06-1.13.05.13.06,1.08.11.67.42a.79.79,0,0,0-.53.27c-.07-.19-.3,0-.61.05l0-.26c-.31.17-.26.29-.42.46a.54.54,0,0,1-.64-.27c-.61.06.49.25-.23.42a4.59,4.59,0,0,0-1.51.33c-.37-.06.07-.16-.07-.23l-.16.12-.16.09c-.09,0-.06-.07-.05-.1-.28.07,0,.26-.46.32-.07.14-.29,0-.57-.08a1.2,1.2,0,0,0-.94-.11c-.13-.08.08-.15,0-.26a5.52,5.52,0,0,0-1.36.34l-.53-.21c.39.22-.16.42-.63.57a2.78,2.78,0,0,0,.34.25l-.74.08c-.08-.05,0-.13.12-.23l-.13.05c-.25-.12-.11-.26.09-.39l.25.18c.19-.14.37-.3.35-.46A1.09,1.09,0,0,1,40,29s.09-.08.07-.11l-.23.08-.14-.3,0,.12-.94-.26a7,7,0,0,1-2.42.66c.29-.2.09-.34.13-.6.27.29.84-.05,1.39.05-.29-.05-.21-.16-.14-.2l-1,.17c0-.21-.2-.18-.45-.29.16.43-.77.22-1.19.32,0-.14.1-.28.59-.2-.52-.36-.74.42-1.26.12.12,0,.19,0,.24,0-.29.11-1,0-.8-.15h.12c-.81-.11-2.44-.19-2.59.15a2.08,2.08,0,0,1,.19-.48l-.76.53-.52.36-.26.16c.08-.14,0-.41,0-.64a.55.55,0,0,1,.09-.32.39.39,0,0,1,.13-.11h0l.05,0,.12,0-.16,0h0l-.09,0a1.66,1.66,0,0,0-.5,0c.12.06.26.47.08.48a1.39,1.39,0,0,0-.39-.3l-.17-.1a1.16,1.16,0,0,1-.29-.2c.16.1-.1.52-.39.44.06-.06.06-.46.17-.49l-.39.15-.41.14c.2-.05.13-.36,0-.54,0,.11-.58-.21-.78-.22l.25.19a1.19,1.19,0,0,0-.87,0,1.1,1.1,0,0,1-.9,0c.14-.06.47-.42.14-.66a4.93,4.93,0,0,1-.85.29,3.19,3.19,0,0,1-.63.09A2.07,2.07,0,0,1,23.6,27l-.05-.2-.28-.12-.21-.08-.09,0c.26,0,.73,0,1.18,0s.91,0,1.21,0c-.21-.24,0-.18-.39-.4-.07-.18.31,0,.43,0a4.33,4.33,0,0,1-.42-.31l-.4-.33c0,.13-.26.07-.46,0s-.38-.17-.45-.07a4.24,4.24,0,0,0,.55.25l.54.22c-.06.13-.3.19-.61.16a2,2,0,0,1-.51-.13,1.82,1.82,0,0,1-.46-.34c-.08-.2.43-.27.48-.35-.13,0-.67-.33-.67-.43l.34.1a1.28,1.28,0,0,0-.47-.31.67.67,0,0,1-.43-.46c-.12-.13-.05-.63-.2-.54-.08.41-.77,1.1-1.09,1.08a5,5,0,0,1-.36-1.25c0-.39.73.05.76-.29-.07,0-.23-.05-.29-.08,0-.2.24-.07,0-.39-.27.09-.41-.71-.3,0-.29-.3-.17-.39-.39-.8-.08.22-.76-.09-1-.47.07,0,.12-.13.15-.18a5.1,5.1,0,0,1-.29-1,7.06,7.06,0,0,0-.21-1c.06-.1.07-.48.22-.35a.85.85,0,0,1-.23-.41c.16-.49.13.51.36.12-.15,0-.35-.56-.45-.89-.12.06-.14.27-.06.48a4.1,4.1,0,0,0,.27.62c-.17,0-.37-.08-.57-.31a1.6,1.6,0,0,1-.28-.43,3.56,3.56,0,0,1-.2-.58c-.13-.68.2-.3.15-.42a2.23,2.23,0,0,0-.25-1.16,1.45,1.45,0,0,1-.13-.4,1.22,1.22,0,0,1,.09-.58c.25-.39.43,0,.6-.07,0,.54-.2.82-.2,1.19l.12-.45a1.3,1.3,0,0,1,0,.73c.19-.33.17-2.08.42-3-.06-.18-.11-.47-.21-.34v.3c-.2.26-.2-.58-.32-.21,0-.1-.05-.21-.08-.32s0-.24-.05-.37a2,2,0,0,1,.08-.78l.26-.07c-.07,0-.19.35-.14.52,0-.13.07-.33.16-.54s.19-.44.05-.6l-.26.38c0-.22-.06-.47-.07-.75a1.46,1.46,0,0,1,.13-.8c-.31.17,0,.11-.39.43.42-.26-.35,1.42.15.94a.92.92,0,0,0-.33.5,1.38,1.38,0,0,1-.27.57c.09,0,.18-.15.09.26l.06.11v0h0a.48.48,0,0,1,.16-.2,1,1,0,0,1,.08.24v0h0v0h0v.12c0,.05,0,.11,0,.16a3.57,3.57,0,0,0,.06.58c0,.24-.08-.12-.18,0l.12.35c-.18,0-.36.65-.42.05l0,.53a1.9,1.9,0,0,0-.14,1c-.05.27.18.7,0,.45l.09.91h0a9.24,9.24,0,0,0,.2,1.37,4.41,4.41,0,0,1,.14,1.47,3.71,3.71,0,0,1,.35,1.07l-.12.14c.2.34.27,1.16.5,1.24-.1.27.1.72.35,1.17s.63.86.79,1.16l.19-.1a5.83,5.83,0,0,0,.46.55,5.08,5.08,0,0,0,.58.53l.12-.14a2.4,2.4,0,0,1,.62.67,5,5,0,0,0,.77.83c-.09,0-.23-.13-.31-.25a1.65,1.65,0,0,0,.47.57,4.13,4.13,0,0,0,.65.36,3.72,3.72,0,0,1,1.2.7.85.85,0,0,1,.44.25l0,0,.06,0a2.29,2.29,0,0,0,.23.21l-.18-.19a3.41,3.41,0,0,0,.62.21v.22l.06,0c.19.17.21,0,.15-.19a1,1,0,0,0,.34,0c.07.36.63.1.77.51.18-.08,1.24.19,1.42-.12,0,0,.06.08-.06.05a1.9,1.9,0,0,0,.38.13.88.88,0,0,0,.36,0l.07.26.6-.26.1.07,0,0,0,0h0a.31.31,0,0,1,.1.1.26.26,0,0,1,0,.07l-.1.09h-.09l-.06,0h.11l.08,0,.12,0,.19-.05.27,0a3.58,3.58,0,0,0,.64-.15l-.05.16c.24,0,.64-.18.78,0,.53.35,2.69.25,4.07.65-.24-.5.63.26.72-.11.07.12.26.2,0,.28.73-.05,1.06.26,1.58,0,.07.12-.16.15-.1.22s.24-.08.31,0-.12.09-.23.13c.72,0,.83-.31.9-.63a.69.69,0,0,0,.84,0c.11.12.32.24-.14.24.26,0,1.54.28,1.59,0,.08.08.36.05.43,0,.57,0,.62.09,1.18.1l-.16-.05c.25-.3.48,0,1-.07v0c.53.13.65.11.76.07a1.6,1.6,0,0,1,.77,0l-.07-.19c0-.21.26-.15.57-.11a1.72,1.72,0,0,0,1,0L46.88,30c.29-.17,1,.34,1.41.3.08,0-.1.09-.2.14,1,0,.06-.26.67-.53.17.08,0,.39.42.24.13,0,.4-.21.72-.44a2,2,0,0,1,1-.54c-.17,0-.35-.07-.11-.28a5.24,5.24,0,0,1,.83-.34,2.06,2.06,0,0,0,.42-.21.6.6,0,0,0,.23-.34c.07,0,.11,0,.12,0,.12-.14.33-.36.52-.56a1.48,1.48,0,0,0,.34-.59.54.54,0,0,0,.53-.17,2.5,2.5,0,0,0,.46-.62c.14-.22.28-.44.39-.58s.22-.21.35-.11l.61-1,0,.05A1.56,1.56,0,0,0,56,23.26c.1-.13.11,0,.11,0a3.78,3.78,0,0,0,.53-.93,4,4,0,0,0,.05-1l.22,0a6.07,6.07,0,0,1,.34-.94,3.63,3.63,0,0,0,.22-.76,3.23,3.23,0,0,0,0-.76.15.15,0,0,1,.07.12,3.1,3.1,0,0,1,0-.43,2.28,2.28,0,0,1,0-.27l0-.23c.05-.3.13-.6.19-.88.12-.56.18-1.05-.18-1.28a3.29,3.29,0,0,0-.07-.37c0-.19-.07-.39-.07-.39-.09,1-.32-.15-.45.24,0-.37.25-1,.27-.5l0,.07c.19.09.24-.21.26-.53s0-.66.12-.66a14,14,0,0,0-1.37-5.51l-.18.34L56,8.28a1.65,1.65,0,0,0-.1-.19l0-.08c0-.18.08-.31.31.08,0-.29-.53-.58-.59-.55-.38-.82.48.11.34-.13L55.7,7.1l0,.09c-.27-.19-.39-.13-.71-.57-.17-.3,0-.25,0-.37s0,0-.12-.17l-.53-.62,0,.4c-.34-.19-.51-.56-.46-.11a1.27,1.27,0,0,0-.34-.63c-.21-.23-.48-.48-.74-.72-.58-.43-1.16-.81-1.29-.94a6.21,6.21,0,0,1-1.47-.61c.12.11.08.38-.37.14.2-.21,0-.37-.26-.52a1.9,1.9,0,0,1-.8-.55c.14.2-.21.06-.57,0s-.68-.08-.42.17c-.42-.14,0-.2-.3-.41a2.71,2.71,0,0,1-.4,0,2.69,2.69,0,0,1-.4,0c-.27,0-.54-.09-.82-.16l-.91-.15a9,9,0,0,0-.91-.08c0,.07.18.2-.1.29l-.62-.42c-.24,0-.25.41-.67.12.06.06.15.16,0,.17C40.14.85,37.6,1.3,35.23.45c.31.16.1.16-.16.15.16,0,0,.17,0,.27l-1-.35C33.88.78,33,.46,32.87.71l.33,0c-.45.28.54.73.45,1.12.51-.31,1.22.61,2.05.17.16.1-.17.12-.08.22.21-.16.46-.17.89-.06l0,0a23.41,23.41,0,0,1,3.18.48l-.09-.2a1.43,1.43,0,0,1,.5.18c.37-.27-.85-.08-.51-.39.37.43,2.13.18,2.37.65.46,0-.12-.24.34-.2l.12.13.12-.15c.31.05.45.22.46.32s-.22,0-.3,0c.38.18,1.12,0,1.25.1L43.46,3c.64,0,1.34.06,2,.11l.48,0,.51.05c.36,0,.62.06.91.06l-.06-.11c.88,0,.65.28,1.59.51h0a1.29,1.29,0,0,1,.72.17c-.27,0,.33.38,0,.36a2.74,2.74,0,0,0,.68.13,1.44,1.44,0,0,1,.53,0l0,.2a.9.9,0,0,1,.76.2c-.41-.14.12.37-.34.24a2.5,2.5,0,0,0,.93.74c.28.16.49.29.5.61.3,0,.2-.19,0-.35s-.4-.34-.27-.29c-.08-.25.51,0,.72.29a1.13,1.13,0,0,1,.16.56,1.92,1.92,0,0,0,.38.83c-.05-.07-.08,0-.12-.12.09.31.48.38.56.78.32,0,.24.42.55.3l-.48-.59.57.42a1.26,1.26,0,0,1,.49.74,1.33,1.33,0,0,1-.37-.26c0,.22.24.33.26.56-.17.05-.27-.15-.42-.39a2.08,2.08,0,0,0-.55-.62c0,.25.65.6.23.58.29,0,.38.21.45.42a1.08,1.08,0,0,0,.43.63l-.19.06a.88.88,0,0,1,.27.34L55.05,10c.35.33.14.85.37,1.2-.29-.82.16-.26.16-.66.34.47.23.68.14.89a1.38,1.38,0,0,0-.12.36,2.53,2.53,0,0,0,.08.63.79.79,0,0,1,0-.34c0-.1.05-.17.13-.05a1.86,1.86,0,0,1-.09.7c.17.78.18-.15.36.17-.18.3.14.38.24.73l-.19,0c0,.47.08.53.18.57s.2.09.11.52l-.26-.36.06.43L56,14.74a1.45,1.45,0,0,1,.09.54,2.19,2.19,0,0,1-.08.55c.15-.1.35.09.32.53s-.17-.17-.19.45c-.11-.15-.26-.32,0-.58a.32.32,0,0,1-.12-.14c-.22.27-.16.78-.17,1a.56.56,0,0,1,.07-.24l.2.92c-.08.14-.14,0-.19-.09a5,5,0,0,1,.09.59c-.16-.09-.33-.08-.37-.47l.06.44v.08h0s0,.05,0-.06h0v.2c0,.09,0,.14,0,.14s-.25.41-.29.3c-.14.5.11,1.12-.14,1.63a.27.27,0,0,1,0,.23c-.1.25-.24.48-.35.72a2.38,2.38,0,0,0-.27.83l-.4.2c-.2.47.57-.26.24.53-.23.57-.33.07-.5.2a1.41,1.41,0,0,1-.6,1.24A3.35,3.35,0,0,1,53.67,24.08Zm-4.78,4a1.06,1.06,0,0,1,.19-.16c.06-.06.14-.1.2-.07C49.25,28.1,49.11,28.05,48.89,28.06Zm-9.87,1a.52.52,0,0,1,.42.07A.81.81,0,0,1,39,29.05ZM17.86,14.76l0,0C17.77,15.07,17.82,15,17.86,14.76Zm.14-.6c0-.07-.05-.07-.08,0a.5.5,0,0,1,0,.34A.39.39,0,0,0,18,14.16ZM54.86,6.24l0,.13C54.69,6.19,54.78,6.21,54.86,6.24Z"/><path class="cls-4" d="M40.22,28.87a.21.21,0,0,1,.05.12S40.33,28.92,40.22,28.87Z"/><polygon class="cls-4" points="55.28 20.57 55.28 20.55 55.25 20.53 55.28 20.57"/><path class="cls-4" d="M21.5,22.85a.42.42,0,0,1,0,.25S21.59,23,21.5,22.85Z"/><path class="cls-4" d="M18.05,10.79l-.05.44a.93.93,0,0,1,.15-.37S18,10.93,18.05,10.79Z"/><path class="cls-4" d="M20.39,7.8a.18.18,0,0,1,.06-.1l-.08-.1C20.25,7.82,20.24,8,20.39,7.8Z"/><path class="cls-4" d="M18.78,10.53c.17,0,.17-.26.21-.56A.18.18,0,0,1,19,10C18.78,9.87,18.78,10.21,18.78,10.53Z"/><path class="cls-4" d="M19,9.91a1.83,1.83,0,0,1,.08-.25C19,9.6,19,9.75,19,9.91Z"/><path class="cls-4" d="M18,13.37c.06-.13-.2-.1-.13-.17C17.61,13,18,14.09,18,13.37Z"/><polygon class="cls-4" points="19.36 10.42 19.14 10.48 19.27 10.66 19.36 10.42"/><path class="cls-4" d="M18.84,12.54l.12-.43s-.05,0-.06-.12C18.87,12.26,18.79,12.55,18.84,12.54Z"/><path class="cls-4" d="M18.9,12a.87.87,0,0,0,0-.35A1.83,1.83,0,0,0,18.9,12Z"/><path class="cls-4" d="M19.29,11l-.07.12,0,.15,0,.15A3.45,3.45,0,0,1,19.29,11Z"/><path class="cls-4" d="M18.59,17.29l.09.48c.08,0,.11-.09.07-.27S18.65,17.21,18.59,17.29Z"/><path class="cls-4" d="M19.13,15.85a.47.47,0,0,1-.16.2l.26,0Z"/><path class="cls-4" d="M19.2,17.2c.08.05.25.65.19.07C19.32,17.23,19.23,16.77,19.2,17.2Z"/><polygon class="cls-4" points="21.36 23.84 21.28 23.74 20.95 24.01 21.36 23.84"/><path class="cls-4" d="M26.66,26.77c-.42-.3-.22.19-.59-.12-.16,0,.3.25.15.28C26.56,27,26.69,27.09,26.66,26.77Z"/><path class="cls-4" d="M26.22,26.93h0Z"/><polygon class="cls-4" points="33.42 0.26 33.06 0.14 33.29 0.3 33.42 0.26"/><path class="cls-4" d="M32.7.51,32.63.24,32.4.46C32.48.45,32.64.44,32.7.51Z"/><path class="cls-4" d="M47.84,27.89V28c.07.05.15,0,.3,0Z"/><polygon class="cls-4" points="51.76 25.88 51.7 25.93 51.96 26.02 51.76 25.88"/><path class="cls-4" d="M53.86,22.84c-.09.13-.13.3-.22.43C53.77,23,54.14,23,53.86,22.84Z"/><path class="cls-4" d="M46.82,6.58s-.12.1-.12.1S46.86,6.55,46.82,6.58Z"/><polygon class="cls-4" points="47.45 6.7 47.39 6.73 47.57 6.67 47.45 6.7"/><path class="cls-4" d="M47.75,7.08c.21-.22-.14-.12-.12-.25l0,0-.21.11C47.57,7,47.77,7,47.75,7.08Z"/><path class="cls-4" d="M47.39,7.65c.08-.08.11,0,0-.06h0Z"/><path class="cls-4" d="M47.37,7.61Z"/><path class="cls-4" d="M47.54,7.76h-.11s0,.1-.09.11S47.47,7.85,47.54,7.76Z"/><path class="cls-4" d="M47.75,7.69h0S47.68,7.72,47.75,7.69Z"/><path class="cls-4" d="M47.59,7.67l.11,0s.11-.1,0,0C47.73,7.63,47.66,7.66,47.59,7.67Z"/><path class="cls-4" d="M47.6,7.61c0-.06,0-.12.16-.13C47.65,7.4,47.5,7.54,47.6,7.61Z"/><path class="cls-4" d="M48,6.92l0-.1-.11,0S47.94,7,48,6.92Z"/><path class="cls-4" d="M47.62,8.16a.81.81,0,0,0,.2-.14h-.08A.35.35,0,0,1,47.62,8.16Z"/><path class="cls-4" d="M47.82,8H48C47.93,8,47.88,8,47.82,8Z"/><polygon class="cls-4" points="48.03 7.52 47.78 7.54 48.05 7.54 48.03 7.52"/><polygon class="cls-4" points="47.75 8.4 47.61 8.43 47.83 8.39 47.75 8.4"/><path class="cls-4" d="M47.85,8.54c-.11,0-.16.13-.24.14a.53.53,0,0,0,.26,0C47.8,8.68,47.79,8.63,47.85,8.54Z"/><path class="cls-4" d="M48,8.68h-.09S47.94,8.7,48,8.68Z"/><path class="cls-4" d="M48,8.15a.4.4,0,0,0-.13.13L48,8.17Z"/><path class="cls-4" d="M48,8.17h0a.18.18,0,0,1,0,.05A.18.18,0,0,0,48,8.17Z"/><path class="cls-4" d="M48,8.14h0Z"/><path class="cls-4" d="M48,7.77c.11,0,.25,0,.33-.15C48.21,7.66,48.16,7.75,48,7.77Z"/><path class="cls-4" d="M48.16,8V7.91A.51.51,0,0,1,48,8Z"/><polygon class="cls-4" points="48.23 8 48.16 8 48.16 8.03 48.23 8"/><path class="cls-4" d="M48.1,8.5a.13.13,0,0,1,.11,0s0-.07,0-.11S48.07,8.46,48.1,8.5Z"/><path class="cls-4" d="M48.07,8.33h0S48.09,8.31,48.07,8.33Z"/><polygon class="cls-4" points="48.41 8.92 48.43 8.9 48.4 8.91 48.41 8.92"/><path class="cls-4" d="M48.25,8.39c0-.05,0-.05-.1,0l.05,0Z"/><path class="cls-4" d="M48.14,8.75l0-.07S48.09,8.76,48.14,8.75Z"/><path class="cls-4" d="M48,8.37h0S48,8.38,48,8.37Z"/><path class="cls-4" d="M48,8.37h.11a.15.15,0,0,0-.07,0Z"/><path class="cls-4" d="M49.49,8.59c-.16.06-.33,0-.2-.12a2.28,2.28,0,0,0-.86.43.36.36,0,0,1,.24,0c.08-.06.12-.25.28-.24s0,.1-.07.18c.17-.12.32,0,.59-.12l-.14,0C49.38,8.63,49.46,8.63,49.49,8.59Z"/><path class="cls-4" d="M48.39,8.76l0,0a1.4,1.4,0,0,1-.16.19.31.31,0,0,0,.2,0l0-.15Z"/><path class="cls-4" d="M48.3,8.61c.16-.06.27,0,.42-.14-.06-.08-.17,0-.26,0,.11.11-.11,0-.15.14a.16.16,0,0,1-.08,0,.21.21,0,0,1,0,.1h0l.07,0c0,.06,0,0,0,0h0l.07,0,.08.05C48.37,8.69,48.34,8.67,48.3,8.61Z"/><path class="cls-4" d="M48.7,7.5l0,0S48.71,7.52,48.7,7.5Z"/><path class="cls-4" d="M48.64,7.61s-.09,0-.1,0,.08,0,.12-.07a.16.16,0,0,0-.18.1h0a1.15,1.15,0,0,1-.17.26A3.71,3.71,0,0,0,48.64,7.61Z"/><path class="cls-4" d="M48.52,8.1l.14.08.1-.13-.08,0C48.68,8,48.59,8.08,48.52,8.1Z"/><polygon class="cls-4" points="48.33 8.97 48.15 9.03 48.42 8.99 48.33 8.97"/><polygon class="cls-4" points="48.41 9.11 48.26 9.16 48.37 9.17 48.41 9.11"/><path class="cls-4" d="M50.48,18.84l0,.05Z"/><path class="cls-4" d="M50.56,18.55l-.07,0S50.55,18.56,50.56,18.55Z"/><path class="cls-4" d="M49.29,13c-.15.06-.39.13-.2.12l.18,0S49.25,13,49.29,13Z"/><path class="cls-4" d="M50.19,16h0a.59.59,0,0,0-.14-.06A.34.34,0,0,1,50.19,16Z"/><path class="cls-4" d="M50.91,16.14l-.13.06Z"/><path class="cls-4" d="M50.19,20.47l.16.1C50.37,20.5,50.27,20.5,50.19,20.47Z"/><path class="cls-4" d="M49,10.67a.29.29,0,0,0-.09.14C49,10.73,49.15,10.65,49,10.67Z"/><path class="cls-4" d="M48.68,18.23a.36.36,0,0,0,.1.06S48.73,18.24,48.68,18.23Z"/><path class="cls-4" d="M49,10.94l0,0-.07-.1C48.86,10.87,48.82,10.92,49,10.94Z"/><path class="cls-4" d="M47.28,25.84h0S47.29,25.85,47.28,25.84Z"/><path class="cls-4" d="M44.83,26.11l0-.06S44.83,26.07,44.83,26.11Z"/><path class="cls-4" d="M49.18,9.34a.23.23,0,0,0,.09,0Z"/><path class="cls-4" d="M50.11,11.07Z"/><path class="cls-4" d="M48.63,9.67l0,.05Z"/><path class="cls-4" d="M48.56,9.7v0S48.52,9.68,48.56,9.7Z"/><path class="cls-4" d="M48.6,9.78a.11.11,0,0,1,0-.06l0,0Z"/><path class="cls-4" d="M48.57,22.85h0C48.61,22.92,48.6,22.9,48.57,22.85Z"/><polygon class="cls-4" points="51.15 13.97 51.14 13.96 51.13 13.97 51.15 13.97"/><path class="cls-4" d="M51.28,14.11c-.22-.07-.19-.1-.15-.14l-.51,0Z"/><path class="cls-4" d="M50.33,19.54l.18-.05c.22.19.11.24.35.22-.53-.17.06-.39-.47-.55l.12,0s0,0,0,0c.29-.05-.36-.19-.24-.33a.15.15,0,0,1,.2,0l-.1-.16.09,0v-.19h0l-.19-.14c0-.07,0,0,.07,0l-.1-.13c.15,0,.26.11.22.17.56,0-.11-.12.26-.23l0,.11c.32,0,.23-.09.45-.15-.11,0-.54.1-.64,0s.08-.06,0-.15c.19.05.16,0,.17-.09l.25.07c-.06-.1-.18-.12-.29-.2.06-.08.25-.05.42,0s-.33,0-.34-.16l.05-.05a.18.18,0,0,0,0,0v0h0v0h0v0a1.12,1.12,0,0,0-.13-.22c.1-.06.14.05.23,0l-.19-.12s.07,0,.07,0-.22-.06-.27-.17c-.28-.08.45-.1.16-.29.08,0,.15.05.25.06a1.27,1.27,0,0,0-.38-.39l.19-.08c-.21.05-.42-.11-.59-.23L50,16l-.11-.17a.44.44,0,0,1,.23.07l-.06,0a.52.52,0,0,1,.39.07l-.17,0a1.77,1.77,0,0,0,.48.15L50.66,16l.09,0L50.67,16H51l-.11,0,.22-.2c-.28-.18-.69-.37-.79-.6a2.23,2.23,0,0,0,.6.08c-.28,0,.09.19,0,.31,0-.06.15,0,.19,0l-.22-.25c.21,0,.16,0,.26-.08-.42,0-.26-.18-.37-.29.13,0,.27,0,.23.15.32-.09-.47-.2-.21-.29,0,0,0,0,.05.06-.11-.07,0-.22.11-.17v0a.41.41,0,0,0-.31-.57l.49.05L50.54,14,50,13.88c.3,0,1-.07,1.18.08,0,0,.09-.09,0-.18s-.44.07-.46,0a1.77,1.77,0,0,0,.46-.2c-.06.05-.53,0-.52-.07a4.27,4.27,0,0,1,.52,0l-.47-.16a1.24,1.24,0,0,0,.53,0c-.1,0,0-.15,0-.19l-.1.07c.06-.2-.66-.16-.64-.34.09,0,.58,0,.64-.07a6.49,6.49,0,0,1-1.34-.26l.13,0-.17-.11a8.6,8.6,0,0,1,1.43.3c.1-.08.16,0,.14-.14a.17.17,0,0,1,.21.08l.06-.26c-.28,0-.3-.17-.53-.14l.31.25c-.27,0-.79-.1-.76-.27a3.82,3.82,0,0,1,.58,0c-.09,0-.19-.15-.13-.17l.15.06c.1-.11-.37-.12-.13-.26,0-.05.34-.17.17-.16a6.93,6.93,0,0,1-1.5.23,2.78,2.78,0,0,1,.42-.3c.23-.1.59,0,.79-.07l-.17,0c0-.06.2,0,.15-.12-.27,0,0-.18-.24,0-.09-.08,0-.1,0-.21a1.3,1.3,0,0,1-.72,0,.68.68,0,0,0,.2-.06c0-.18.1-.3.06-.47s.12-.12.25-.12c-.06,0-.15,0-.17-.06.21-.16.06.1.33,0-.16,0-.25-.08-.37-.13s0,.18.11.23a1.35,1.35,0,0,1-.91-.08c-.12-.11.2-.11.14-.12,0-.26-.64,0-.45-.31a1.9,1.9,0,0,1,.57-.19c.11.08-.09.2-.07.27l.08-.11c.08,0,.16.07.1.12.18-.13-.07-.43,0-.68-.09,0-.18,0-.25,0l0,0c-.15.11-.27,0-.32.07s-.37-.06-.31-.2l.23-.1c-.07,0-.11.11,0,.12-.12,0,.25-.29-.07-.22L49,9.26c-.15,0-.43,0-.4-.14-.21.14,0,0-.21.18.32-.19.08.23.4,0-.29.18-.1.17-.33.35.07,0,.14-.09.13,0s0,0,.06,0h0v0h0l.11-.08c.19,0,.23.1.34.12s-.1,0-.18.06h.17c-.17.07-.25.22-.39.15l0,.1c-.07.08-.09.17,0,.2s.23.06.08.06l.16.12h0c0,.16.39.25.1.51,0,0,.12.08.09.18l-.16.05c.07,0-.11.22.06.22-.41.15,0,.34-.1.47l.21,0c0,.08.07.15.17.25l.18,0c.16.08-.11.25-.08.39s0,0,0,0c-.36.17.38.3.08.48.07,0,0,.06,0,.09h0l-.09.06.08,0a.83.83,0,0,0,.09.11l-.19,0h0c-.07,0,.09,0,.24,0l.12.06c-.31,0,.12.11-.22.17.17,0,.13.22.48.24,0,0-.07,0-.08,0s-.08.1,0,.14l-.26,0,.34.11a.48.48,0,0,1-.44,0c.3.16.11.12.41.28l-.17,0s.23.14.09.16c-.33.1-.07.55-.39.79.48,0-.23.11.14.16-.12,0-.19,0-.28,0,.09.16-.2.19.1.32-.11,0-.16-.05-.23,0s.09.05,0,.05-.09,0-.13-.06c0,.14.34.2.66.27-.17.05-.15.09,0,.17-.11,0-.23,0-.25-.06s-.2.27,0,.32v.09a.67.67,0,0,0-.07.24l.05,0c.3.12,0,.12.07.22h0c-.27.16.08.11-.22.26l.2,0c.41.12-.29.11-.16.28l.12,0c.12.1-.6,0-.67.1s-.05,0-.08-.07c-.28.11.24.09.27.23-.14,0-.33-.12-.38,0s.37.37.09.42A.32.32,0,0,1,49,18c0,.1-.46.14-.15.31h-.06c0,.09,0,.26.21.35-.67-.12.2.52-.4.35l0,.22-.06,0c-.08.12,0,.21.18.3-.05,0-.1,0-.13,0-.18.16-.16.18.08.45l-.19,0c.1.08-.4.18-.24.44l0,0c.13.28-.73.28-.06.62l.12.2c.11-.16.29.14.43.11s-.28.1-.28,0h0c-.35-.17-.22.17-.46.07-.13.36-.47.59-.63.89l.29.1-.08.1c-.07,0-.22-.07-.17-.14-.17,0,.06.19.12.22-.19.1-.28-.21-.31-.17v.07h0c.08.1.19.17.13.25s-.18-.06-.2,0,0,0,0,0l-.1.12.23.06c.07.12-.08.12.19.19-.41-.11-.4.42-.55.41a.25.25,0,0,1,0,.34c.05,0,.29.13.2.2-.44-.33-.3,0-.67-.12.25.08-.11.28.27.39-.08,0-.18-.12-.32-.13.07.28-.37.28-.45.53.06,0,.18.07.23.18l-.37-.11c0,.06.31.28.06.21,0,0,.14.06.14.1-.57.19-.37,1-1.2,1,.15,0,.13.08.1.12s.14.11.23.16h-.35c.19.2-.13.19.06.37V26.5c.19.26.61.32.91.57-.21-.29.57.11.28-.33.09,0,.08.11.17.15-.11-.14-.11-.2,0-.22l0,0c.14-.24.34-.23.61-.4l-.17-.1c.06,0,.11,0,.17,0-.19-.23-.12.14-.34-.11.37.17.28-.36.67-.15.06-.07-.2-.11-.13-.18l.11.05L47,25.69c.06,0,.21,0,.29.07v.08c.17,0,.11-.22.16-.22l-.11,0c.06-.29.38-.47.33-.84l-.09,0c0-.27.17-.09.23-.32v0c-.05-.08-.06-.16,0-.2s.24,0,.29.14c0-.28-.06-.17-.27-.47L48,24c-.1-.11-.16-.15-.13-.27.06.15.23.06.33.24.41,0-.12-.47.36-.33-.32-.3-.31.07-.36,0s-.23-.23-.15-.28.53.15.62,0v.05c.13,0-.06-.19.13-.19-.2-.16.07-.09-.22-.26v.2c0-.14-.33-.38-.1-.44a.55.55,0,0,1,.14.17c.11,0,0-.11.1-.11.29.15,0,.22.14.42.14,0-.12-.28.17-.08-.36-.26.14-.14-.12-.41l.18.09s-.09-.1-.07-.14l.2.17c-.15-.19.26-.11.19-.25-.08.2-.23-.05-.39,0-.14-.34.52.07.55-.24,0,.05-.16.1-.22,0a.51.51,0,0,1,.27-.06c0-.2-.2-.05-.28-.18.25,0-.06-.12-.09-.23l.18.08c.2-.16-.36-.21-.14-.34l.22.19,0-.12.2.09c-.11-.16-.06-.18,0-.26-.14,0-.33-.14-.3-.23s.16.1.18,0c.11.07.24.16.05.15l.16.1c.15,0,.09-.16.11-.2l0,0L49.62,21a.25.25,0,0,1,.17.08s-.08-.09-.08-.16.31.12.35.22L50,20.88c.08,0,.21,0,.26,0s-.21-.34-.05-.44l-.07-.07c.08-.12.3-.17.13-.38h.31c0-.13-.38,0-.43-.21s.25,0,.34,0c-.12-.1-.37-.3-.11-.36C50.37,19.48,50.32,19.49,50.33,19.54Zm.27-1.44s.13.13,0,.12S50.52,18.13,50.6,18.1Zm0-2.28s0,0-.06.08S50.54,15.84,50.6,15.82Zm-1.75-5.77h0C48.8,10.12,48.82,10.09,48.85,10.05Zm0-.14h-.06l0,.07C48.92,10,49,9.93,48.9,9.91ZM47.21,22.6h.06C47.29,22.67,47.25,22.64,47.21,22.6Z"/><path class="cls-4" d="M50.82,16.12h-.1A.11.11,0,0,0,50.82,16.12Z"/><polygon class="cls-4" points="50.16 20.45 50.16 20.45 50.18 20.46 50.16 20.45"/><path class="cls-4" d="M51,11.46a.22.22,0,0,1-.09.07C50.92,11.52,51,11.5,51,11.46Z"/><path class="cls-4" d="M48.37,9.44l.08.05a.2.2,0,0,1,0-.09C48.44,9.42,48.38,9.46,48.37,9.44Z"/><path class="cls-4" d="M49.24,8.34l0,0-.09,0A.08.08,0,0,0,49.24,8.34Z"/><path class="cls-4" d="M49,9.13C49.11,9.07,49,9,49,9h0C48.77,9.09,48.86,9.11,49,9.13Z"/><path class="cls-4" d="M49,9S49,9,49,9,49,9,49,9Z"/><path class="cls-4" d="M48.74,9.8s-.2,0-.15,0C48.39,9.86,48.89,9.89,48.74,9.8Z"/><polygon class="cls-4" points="49.45 8.89 49.27 8.98 49.44 8.95 49.45 8.89"/><path class="cls-4" d="M49.46,9.36l0-.1h-.07C49.43,9.32,49.41,9.39,49.46,9.36Z"/><path class="cls-4" d="M49.42,9.27l-.06-.06Z"/><polygon class="cls-4" points="49.55 8.98 49.52 9.02 49.53 9.09 49.55 8.98"/><path class="cls-4" d="M49.72,10.31l.08.08c.07,0,.1,0,.06-.07S49.78,10.27,49.72,10.31Z"/><path class="cls-4" d="M50.17,9.87s-.07.05-.14.08l.25-.06Z"/><path class="cls-4" d="M50.31,10.14c.07,0,.24.1.19,0S50.35,10,50.31,10.14Z"/><polygon class="cls-4" points="50.3 11.71 50.29 11.69 49.88 11.75 50.3 11.71"/><path class="cls-4" d="M51.42,13c.09-.14-.26,0-.14-.14-.1,0-.1.1-.19.07C51.2,13,51.14,13.05,51.42,13Z"/><path class="cls-4" d="M51.09,12.94l0,0Z"/><polygon class="cls-4" points="44.48 26.19 44.37 26.2 44.51 26.25 44.48 26.19"/><path class="cls-4" d="M44.64,26.5l-.23-.15.16.18A0,0,0,0,1,44.64,26.5Z"/><path class="cls-4" d="M51.17,18l-.07,0c-.07,0-.08,0-.1.05Z"/><polygon class="cls-4" points="50.7 19 50.71 18.99 50.47 18.95 50.7 19"/><path class="cls-4" d="M50.75,20v-.13C50.77,19.92,50.46,19.87,50.75,20Z"/><path class="cls-4" d="M39.1,4.11l0,0v0a.29.29,0,0,1,0,.09l0-.06S39.11,4.09,39.1,4.11Z"/><polygon class="cls-4" points="39.63 4.04 39.58 4.09 39.76 4.02 39.63 4.04"/><path class="cls-4" d="M40,4.46c.2-.22-.16-.13-.15-.28l0,0-.2.13C39.78,4.31,40,4.35,40,4.46Z"/><path class="cls-4" d="M39.67,5.08c.08-.08.11,0,0-.07V5Z"/><path class="cls-4" d="M39.64,5s-.06.09,0,0Z"/><path class="cls-4" d="M39.85,5.21h-.13s0,.11-.08.11S39.78,5.31,39.85,5.21Z"/><path class="cls-4" d="M40.06,5.16l-.05,0S40,5.18,40.06,5.16Z"/><path class="cls-4" d="M39.88,5.12l.13,0s.11-.09,0,0C40,5.09,40,5.12,39.88,5.12Z"/><path class="cls-4" d="M39.89,5.06c0-.07,0-.14.16-.13C39.92,4.82,39.78,5,39.89,5.06Z"/><path class="cls-4" d="M40.26,4.3l0-.1h-.11S40.18,4.36,40.26,4.3Z"/><path class="cls-4" d="M40,5.71a1.35,1.35,0,0,0,.19-.16h-.09S40.06,5.66,40,5.71Z"/><path class="cls-4" d="M40.17,5.55l.14,0C40.28,5.5,40.23,5.51,40.17,5.55Z"/><polygon class="cls-4" points="40.35 4.99 40.08 4.99 40.36 5.01 40.35 4.99"/><polygon class="cls-4" points="40.14 6 39.99 6.03 40.23 6 40.14 6"/><path class="cls-4" d="M40.27,6.19c-.12,0-.15.14-.24.14a.53.53,0,0,0,.27,0Q40.19,6.34,40.27,6.19Z"/><path class="cls-4" d="M40.46,6.38h0Z"/><path class="cls-4" d="M40.36,5.73a.34.34,0,0,0-.12.14l.14-.11Z"/><path class="cls-4" d="M40.38,5.75h0l0,0Z"/><path class="cls-4" d="M40.35,5.71v0S40.38,5.71,40.35,5.71Z"/><path class="cls-4" d="M40.34,5.28c.11,0,.27,0,.33-.14C40.55,5.17,40.51,5.27,40.34,5.28Z"/><path class="cls-4" d="M40.53,5.57l0-.11s-.09.08-.14.08Z"/><polygon class="cls-4" points="40.6 5.58 40.53 5.57 40.53 5.61 40.6 5.58"/><path class="cls-4" d="M40.52,6.16a.18.18,0,0,1,.15.07.41.41,0,0,0,0-.12C40.59,6.08,40.49,6.1,40.52,6.16Z"/><path class="cls-4" d="M40.47,6h0S40.5,5.93,40.47,6Z"/><polygon class="cls-4" points="40.9 6.69 40.92 6.67 40.9 6.68 40.9 6.69"/><path class="cls-4" d="M40.66,6a.11.11,0,0,0-.09,0l.07.07S40.68,6,40.66,6Z"/><path class="cls-4" d="M40.59,6.46a.22.22,0,0,0,0-.11C40.61,6.4,40.55,6.48,40.59,6.46Z"/><path class="cls-4" d="M40.45,6h0S40.43,6,40.45,6Z"/><path class="cls-4" d="M40.45,6h.12l-.09,0Z"/><path class="cls-4" d="M42,6.36c-.15.06-.34,0-.22-.15-.16,0-.61.26-.85.46a.37.37,0,0,1,.26,0c.07-.07.09-.29.26-.27s0,.12,0,.21c.15-.13.33,0,.59-.11l-.14-.07S42,6.41,42,6.36Z"/><path class="cls-4" d="M40.86,6.5l0,0c0,.06,0,.11-.13.22a.28.28,0,0,0,.21,0l-.07-.18Z"/><path class="cls-4" d="M40.75,6.31c.17,0,.27,0,.42-.13-.07-.11-.17,0-.27,0,.13.14-.11,0-.14.16a.31.31,0,0,1-.09-.07.27.27,0,0,1,0,.12h0l0,0h0s0,0,0,0h0l.16.12S40.8,6.38,40.75,6.31Z"/><path class="cls-4" d="M41.05,5l0,0S41.06,5.06,41.05,5Z"/><path class="cls-4" d="M41,5.16s-.1,0-.1,0,.07,0,.12-.08-.16,0-.19.1h0a.59.59,0,0,1-.18.3A3,3,0,0,0,41,5.16Z"/><path class="cls-4" d="M40.92,5.72l.16.11.09-.15-.08.05C41.08,5.63,41,5.7,40.92,5.72Z"/><polygon class="cls-4" points="40.83 6.75 40.65 6.81 40.93 6.78 40.83 6.75"/><polygon class="cls-4" points="40.93 6.92 40.78 6.98 40.9 6.99 40.93 6.92"/><path class="cls-4" d="M42.86,18.72l0,.06Z"/><path class="cls-4" d="M43,18.37l-.08,0S43,18.38,43,18.37Z"/><path class="cls-4" d="M41.75,11.63c-.16.07-.39.14-.21.13h.18A.08.08,0,0,1,41.75,11.63Z"/><path class="cls-4" d="M42.5,15.3h.06l-.16-.07Z"/><path class="cls-4" d="M43.23,15.45l-.13.08Z"/><path class="cls-4" d="M42.54,20.73l.16.1C42.72,20.74,42.63,20.75,42.54,20.73Z"/><path class="cls-4" d="M41.69,8.8l-.07.09C41.7,8.86,41.84,8.78,41.69,8.8Z"/><path class="cls-4" d="M41.05,18.19a.18.18,0,0,0,.06,0S41.09,18.19,41.05,18.19Z"/><path class="cls-4" d="M41.64,9l0,0s0-.05,0-.08S41.5,9,41.64,9Z"/><path class="cls-4" d="M38.74,27.2h0S38.74,27.21,38.74,27.2Z"/><path class="cls-4" d="M36,27l.07-.05Z"/><path class="cls-4" d="M41.18,7.7s0,0,0,0Z"/><path class="cls-4" d="M41.76,7.24a.17.17,0,0,0,.08,0Z"/><path class="cls-4" d="M41.23,7.61l0,.07S41.22,7.64,41.23,7.61Z"/><path class="cls-4" d="M41.16,7.65v0S41.11,7.62,41.16,7.65Z"/><path class="cls-4" d="M41.21,7.75a.13.13,0,0,1,0,0h0Z"/><path class="cls-4" d="M40.73,23.67h0C40.75,23.75,40.75,23.72,40.73,23.67Z"/><polygon class="cls-4" points="43.54 12.91 43.53 12.91 43.52 12.91 43.54 12.91"/><path class="cls-4" d="M43.66,13.09c-.22-.08-.19-.12-.19-.12l-.47,0Z"/><path class="cls-4" d="M42.71,19.59l.18-.08c.22.21.11.29.36.23-.54-.15.06-.47-.48-.61l.13-.06v.05c.29-.08-.37-.2-.25-.37s.15-.09.2,0l-.1-.17.09,0v-.23h0a1.69,1.69,0,0,1-.24-.2c.09,0,0,0,.12,0L42.64,18c.16,0,.27.11.24.19.56,0-.12-.13.25-.32l0,.13c.33,0,.23-.13.45-.23-.1,0-.54.18-.65,0,.05,0,.09-.07,0-.17.19,0,.16,0,.17-.14l.25.06c-.06-.12-.19-.13-.3-.21.05-.11.25-.1.43-.09.07-.17-.34.07-.36-.15.13-.14,0-.25-.09-.45.1-.09.15,0,.23,0l-.19-.13s.07,0,.1,0-.25,0-.3-.17c-.29-.08.45-.18.14-.38.08,0,.16,0,.26,0a1.24,1.24,0,0,0-.39-.4l.19-.12c-.21.08-.42-.09-.6-.23l-.18,0-.16-.19a.47.47,0,0,1,.24.06l-.06,0a.52.52,0,0,1,.39.06l-.17,0a2.14,2.14,0,0,0,.47.15.11.11,0,0,1,0,0h.06c.05,0,0,0-.06-.07h.29l-.11,0,.21-.22c-.27-.21-.68-.41-.77-.7a2.11,2.11,0,0,0,.6.09c-.28,0,.09.22,0,.36.05-.07.16,0,.16,0l-.17-.26c.2,0,.16,0,.25-.09-.41,0-.25-.23-.36-.34.13,0,.27,0,.22.17.33-.11-.46-.24-.18-.35a.05.05,0,0,0,0,.07.11.11,0,0,1,.12-.19v0c.06-.2.05-.63-.29-.69l.49.08-1.15-.44c.3.05,1,0,1.18.15,0,0,.09-.11,0-.22a2.59,2.59,0,0,1-.43.06c.31-.15.16-.12.46-.26-.08,0-.54,0-.53-.12a3.92,3.92,0,0,1,.52.06l-.45-.23a1,1,0,0,0,.52,0c-.09,0,0-.17,0-.23l-.1.08c.07-.22-.65-.25-.61-.46.09,0,.58.08.64,0a4.62,4.62,0,0,1-1.31-.45l.14,0-.16-.14a9.11,9.11,0,0,1,1.39.52c.11-.08.16,0,.15-.15a.16.16,0,0,1,.2.11l.08-.3c-.27,0-.27-.23-.5-.22l.28.32c-.27,0-.78-.19-.72-.39s.48,0,.58,0c-.1,0-.18-.2-.12-.21l.15.08c.1-.11-.36-.18-.1-.33,0,0,.35-.15.19-.15a6.18,6.18,0,0,1-1.53.06,2.46,2.46,0,0,1,.46-.31c.24-.08.59.11.79,0a.37.37,0,0,1-.17,0c0-.07.21,0,.17-.11-.28,0,0-.22-.24,0-.08-.1.06-.11,0-.24a1.05,1.05,0,0,1-.7-.18.54.54,0,0,0,.2,0c0-.22.13-.34.09-.55.06,0,.13-.15.26-.13-.06,0-.16,0-.18-.1.21-.19.07.14.33,0-.16,0-.26-.14-.38-.2-.24.09,0,.21.13.3a1.47,1.47,0,0,1-.94-.15c-.12-.13.2-.13.14-.15,0-.31-.65-.06-.48-.36s.41-.16.55-.23c.12.11-.07.25,0,.33L42.34,8c.08,0,.16.09.11.15.17-.14-.13-.51,0-.8-.09,0-.19,0-.26,0l.06.06c-.14.13-.28,0-.33.07-.15,0-.37-.07-.33-.24l.22-.12c-.07,0-.1.14,0,.15-.12,0,.23-.33-.09-.27l-.13.16c-.15,0-.45,0-.42-.18-.21.15,0,0-.2.21.31-.21.11.28.41,0-.27.21-.06.19-.29.4.08,0,.13-.09.13,0h.08a.28.28,0,0,1,.1-.09c.2,0,.25.12.36.14s-.09,0-.17.07l.17,0c-.17.08-.24.26-.38.17l0,.12c-.08.1-.09.21,0,.24s.24.07.09.07l.17.15h0c0,.09.11.16.17.25s.07.15-.07.25a.18.18,0,0,1,.08.23l-.16,0,0,0v0h0V9.28h0a.85.85,0,0,0,0,.09c0,.06,0,.11,0,.12-.42.12-.08.42-.15.58h.21a.58.58,0,0,0,.13.34H42c.15.11-.13.3-.11.47-.07,0-.06-.05,0-.09-.42.21.29.46,0,.65.07.05,0,.09,0,.12h0l-.1.07.08,0s.05.08.09.14l-.2,0h0c-.07.05.09.05.25,0l.11.07c-.32,0,.1.15-.24.2.17,0,.11.28.46.34h-.07s-.09.09,0,.15l-.25,0,.33.15a.41.41,0,0,1-.44,0c.29.22.11.17.39.36l-.16,0c0,.07.21.18.07.2-.32.11-.1.68-.43,1,.49,0-.23.14.14.19-.11,0-.19,0-.27,0,.09.18-.21.24.08.4-.12,0-.16-.06-.23,0s.1.06,0,.07-.09,0-.14-.06c0,.18.34.24.66.29-.16.08-.15.12.06.22-.11,0-.23.06-.26-.06,0,.06-.2.36,0,.41-.07,0,0,.08,0,.1a.59.59,0,0,0,0,.29l0,0c.31.1,0,.13.07.25h0c-.26.22.09.13-.21.34l.2,0c.41.09-.28.18-.15.36l.12,0c.13.11-.6.13-.67.2s0,0-.08-.07c-.28.17.25.08.28.24-.14,0-.34-.1-.39,0s.4.38.1.47c.11,0,.22,0,.29.07s-.45.22-.15.39h-.08c.06.1.08.3.24.39-.67-.08.2.6-.41.45l0,.27-.06,0c-.09.15,0,.25.18.35,0,0-.1,0-.13,0-.2.2-.17.23.07.52l-.21,0c.1.09-.4.25-.25.55l-.08-.06c.14.33-.73.42-.07.76l.11.23c.14-.19.28.15.44.1,0,.1-.3.14-.29,0h0c-.35-.18-.24.22-.48.12a2.11,2.11,0,0,1-.34.58,5.71,5.71,0,0,0-.38.52l.3.09-.09.12c-.08,0-.23-.06-.17-.14-.18,0,0,.22.1.25-.2.13-.27-.23-.3-.18l0,.08h0c.07.12.19.19.11.29s-.17-.05-.2,0,0,0,0,0l-.11.14.24.05c.06.13-.1.15.17.21-.42-.11-.47.52-.63.5a.31.31,0,0,1-.09.39c.06,0,.29.13.2.21-.43-.36-.32.05-.7-.12.26.09-.16.29.21.42-.09.05-.16-.12-.31-.15,0,.16-.1.24-.22.31s-.28.1-.35.23.16.1.19.21l-.36-.15c0,.07.25.35,0,.23,0,0,.13.09.12.14a1.28,1.28,0,0,0-.71.49,1.05,1.05,0,0,1-.34.2.66.66,0,0,1-.49,0c.14.09.09.12,0,.16s.08.16.13.24L35.89,27c.07.27-.25.14-.15.39l0-.08c0,.32.45.54.61.89,0-.36.52.32.47-.21.08,0,0,.13.09.2,0-.18,0-.25.15-.25v0a.81.81,0,0,1,.41-.19,1.79,1.79,0,0,0,.48-.14l-.14-.13c.08,0,.13,0,.2,0-.11-.29-.2.14-.33-.17.33.24.45-.36.81-.08.1-.08-.18-.14-.08-.22l.1.07L38.49,27c.08,0,.21,0,.28.11s0,.06,0,.06c.17.05.18-.23.24-.23l-.14,0a2.21,2.21,0,0,1,.37-.45,1,1,0,0,0,.24-.52l-.09,0c0-.3.22-.09.32-.36v0a.2.2,0,0,1,0-.24c0,.12.25,0,.29.16,0-.33,0-.2-.22-.54l.15.05c-.07-.12-.13-.17-.09-.3,0,.17.24.05.32.25.44-.07-.07-.54.42-.41-.3-.32-.33.1-.37,0s-.21-.26-.13-.31.54.14.65-.07c0,0,0,0,0,.06s-.05-.22.15-.23c-.2-.18.07-.13-.2-.29l0,.22c0-.14-.3-.41,0-.5a.64.64,0,0,1,.13.19c.11,0,0-.13.1-.14.29.16,0,.26.11.49.15,0-.1-.32.19-.1-.36-.29.16-.19-.08-.48l.17.1s-.08-.13-.06-.17l.2.19c-.14-.21.27-.15.22-.31-.11.24-.25-.05-.42,0-.11-.39.54.05.6-.32,0,0-.18.12-.23,0a.47.47,0,0,1,.28-.1c0-.24-.2-.05-.27-.18.25,0,0-.14-.08-.26l.18.06c.21-.2-.36-.21-.13-.37l.22.19,0-.15.2.11c-.11-.18,0-.21.05-.31-.14,0-.32-.14-.3-.25s.17.1.19-.06c.11.08.24.17,0,.17l.16.11c.15,0,.1-.2.11-.26l-.06.05-.18-.32a.19.19,0,0,1,.17.09c0-.05-.07-.12-.07-.19s.31.12.34.24l-.09-.28c.07,0,.22-.05.27,0s-.21-.39,0-.51a.12.12,0,0,1-.06-.09c.07-.14.3-.22.14-.46l.31,0c0-.15-.38,0-.43-.22s.25,0,.35,0c-.12-.13-.37-.34-.11-.44C42.76,19.51,42.7,19.53,42.71,19.59ZM43,17.82s.15.13,0,.13S42.9,17.86,43,17.82Zm-.06-2.72s0,.06-.06.1S42.86,15.13,42.91,15.1Zm-1.41-7h0C41.46,8.16,41.48,8.14,41.5,8.08Zm0-.17-.08,0s.06,0,.06,0S41.59,7.94,41.53,7.91Zm-2.2,15.57h.06C39.4,23.56,39.37,23.53,39.33,23.48Z"/><path class="cls-4" d="M43.14,15.43H43A.23.23,0,0,0,43.14,15.43Z"/><polygon class="cls-4" points="42.51 20.7 42.51 20.71 42.54 20.73 42.51 20.7"/><path class="cls-4" d="M43.58,10a.13.13,0,0,1-.1.06C43.54,10,43.57,10,43.58,10Z"/><path class="cls-4" d="M40.93,7.32l.09.07s0-.07,0-.1S41,7.35,40.93,7.32Z"/><path class="cls-4" d="M41.7,6.06s0,0,0,0l-.11,0A.07.07,0,0,0,41.7,6.06Z"/><path class="cls-4" d="M41.5,7c.15-.08.07-.11,0-.16h0C41.3,6.92,41.4,7,41.5,7Z"/><path class="cls-4" d="M41.51,6.82a.16.16,0,0,1,0-.06C41.39,6.79,41.47,6.79,41.51,6.82Z"/><path class="cls-4" d="M41.36,7.78s-.21.06-.15,0C41,7.84,41.52,7.89,41.36,7.78Z"/><polygon class="cls-4" points="41.98 6.71 41.8 6.82 41.97 6.79 41.98 6.71"/><path class="cls-4" d="M42.05,7.28V7.16a.08.08,0,0,1-.07,0C42,7.22,42,7.3,42.05,7.28Z"/><path class="cls-4" d="M42,7.15l-.07-.07Z"/><polygon class="cls-4" points="42.1 6.83 42.07 6.88 42.09 6.95 42.1 6.83"/><path class="cls-4" d="M42.4,8.41l.09.1c.07,0,.1,0,.06-.09S42.46,8.37,42.4,8.41Z"/><path class="cls-4" d="M42.83,7.89a.49.49,0,0,1-.13.1l.24-.07Z"/><path class="cls-4" d="M43,8.23c.08,0,.25.13.19,0C43.11,8.21,43,8.1,43,8.23Z"/><polygon class="cls-4" points="42.89 10.16 42.89 10.13 42.47 10.14 42.89 10.16"/><path class="cls-4" d="M43.88,11.81c.1-.14-.27,0-.14-.17-.09,0-.1.11-.19.07C43.66,11.8,43.6,11.85,43.88,11.81Z"/><path class="cls-4" d="M43.55,11.71a.23.23,0,0,0,0-.05Z"/><polygon class="cls-4" points="35.64 26.91 35.51 26.88 35.63 26.97 35.64 26.91"/><path class="cls-4" d="M35.62,27.27,35.48,27l.05.24S35.58,27.22,35.62,27.27Z"/><path class="cls-4" d="M43.55,17.65l-.06,0c-.08,0-.08,0-.1.07Z"/><polygon class="cls-4" points="43.09 18.9 43.1 18.88 42.85 18.86 43.09 18.9"/><path class="cls-4" d="M43.13,20.05a.14.14,0,0,0,0-.11C43.15,20,42.83,20,43.13,20.05Z"/><path class="cls-4" d="M28,24.41s0,.16,0,.19S28,24.37,28,24.41Z"/><polygon class="cls-4" points="28.49 23.84 28.51 23.9 28.53 23.71 28.49 23.84"/><path class="cls-4" d="M29,23.61c-.18-.24-.16.13-.29.08l-.05-.06.06.24C28.82,23.78,28.89,23.57,29,23.61Z"/><path class="cls-4" d="M29.59,24c-.08-.08,0-.12-.09,0s0,0,0,0Z"/><path class="cls-4" d="M29.52,24c-.05,0,.09.06,0,0Z"/><path class="cls-4" d="M29.75,23.82l0,.13s.12,0,.13.07S29.85,23.88,29.75,23.82Z"/><path class="cls-4" d="M29.7,23.59l0,.06S29.72,23.67,29.7,23.59Z"/><path class="cls-4" d="M29.65,23.78l0-.13s-.08-.11,0,.05C29.63,23.63,29.66,23.7,29.65,23.78Z"/><path class="cls-4" d="M29.59,23.77c-.07,0-.15,0-.12-.16C29.35,23.72,29.48,23.89,29.59,23.77Z"/><path class="cls-4" d="M28.88,23.32l-.09-.05v.11S28.93,23.4,28.88,23.32Z"/><path class="cls-4" d="M30.27,23.63c0-.05-.12-.11-.18-.17v.09A.39.39,0,0,1,30.27,23.63Z"/><path class="cls-4" d="M30.09,23.46v-.14C30,23.36,30.05,23.41,30.09,23.46Z"/><polygon class="cls-4" points="29.53 23.31 29.53 23.58 29.55 23.3 29.53 23.31"/><polygon class="cls-4" points="30.55 23.42 30.61 23.57 30.54 23.33 30.55 23.42"/><path class="cls-4" d="M30.72,23.24c.05.12.17.12.19.2s0-.17,0-.27C30.88,23.23,30.84,23.27,30.72,23.24Z"/><path class="cls-4" d="M30.86,23a.36.36,0,0,0,0,.16A.55.55,0,0,0,30.86,23Z"/><path class="cls-4" d="M30.24,23.25a.29.29,0,0,0,.17.1l-.14-.12Z"/><polygon class="cls-4" points="30.26 23.23 30.27 23.23 30.34 23.19 30.26 23.23"/><path class="cls-4" d="M30.23,23.25h0Z"/><path class="cls-4" d="M29.81,23.32c0-.12,0-.26-.16-.32C29.69,23.12,29.78,23.15,29.81,23.32Z"/><path class="cls-4" d="M30.06,23.11l-.1,0a.26.26,0,0,1,.1.13Z"/><polygon class="cls-4" points="30.07 23.04 30.06 23.11 30.09 23.11 30.07 23.04"/><path class="cls-4" d="M30.62,23a.18.18,0,0,1,0-.17.31.31,0,0,0-.15.08S30.59,23.05,30.62,23Z"/><path class="cls-4" d="M30.44,23.1h0S30.42,23.08,30.44,23.1Z"/><polygon class="cls-4" points="31 22.5 30.97 22.48 31 22.5 31 22.5"/><path class="cls-4" d="M30.47,22.9s0,0,0,.1l0-.06S30.48,22.88,30.47,22.9Z"/><path class="cls-4" d="M30.9,22.85l-.12,0C30.84,22.86,30.93,22.89,30.9,22.85Z"/><path class="cls-4" d="M30.49,23.11v0Z"/><path class="cls-4" d="M30.49,23.11s0-.07,0-.11v.09Z"/><path class="cls-4" d="M30.26,21.63c.12.11.17.29,0,.23,0,.14.45.47.72.62a.31.31,0,0,1-.1-.23c-.09,0-.29,0-.34-.15s.1,0,.2,0c-.18-.11-.12-.31-.37-.48l0,.13A.44.44,0,0,0,30.26,21.63Z"/><path class="cls-4" d="M30.85,22.59l0,0a.58.58,0,0,1,.26.06.37.37,0,0,0-.06-.15l-.17.08Z"/><path class="cls-4" d="M30.71,22.75c-.1-.15-.09-.26-.27-.36-.06.08.06.16.06.26.1-.15,0,.1.2.09l0,.1h.09l0,0c.06,0,0,0,0,0l0,0h0l.06-.2A.59.59,0,0,0,30.71,22.75Z"/><path class="cls-4" d="M29.49,22.64l0,0Z"/><path class="cls-4" d="M29.61,22.69v.09c-.06,0-.05-.07-.09-.11s0,.15.13.17v0a1.39,1.39,0,0,1,.3.12Z"/><path class="cls-4" d="M30.12,22.7l.05-.15L30,22.48l.06.07C30,22.57,30.09,22.64,30.12,22.7Z"/><polygon class="cls-4" points="31.08 22.54 31.21 22.68 31.07 22.43 31.08 22.54"/><polygon class="cls-4" points="31.19 22.38 31.31 22.49 31.27 22.39 31.19 22.38"/><path class="cls-4" d="M32,12.52l0,0Z"/><path class="cls-4" d="M32,12.8h.07S32,12.78,32,12.8Z"/><path class="cls-4" d="M33.24,18.22c.16,0,.4,0,.22-.06l-.17,0C33.31,18.18,33.28,18.2,33.24,18.22Z"/><path class="cls-4" d="M32.69,15.15h0l.11,0Z"/><path class="cls-4" d="M32,15l.11-.06A.24.24,0,0,0,32,15Z"/><path class="cls-4" d="M31.89,11.05l-.18,0C31.71,11.07,31.8,11,31.89,11.05Z"/><path class="cls-4" d="M32.26,20.71c.08,0,.13,0,.15-.07S32.13,20.63,32.26,20.71Z"/><path class="cls-4" d="M33.88,12.77l-.1,0A.25.25,0,0,0,33.88,12.77Z"/><path class="cls-4" d="M32.49,20.48h-.05a.58.58,0,0,1,0,.1S32.58,20.58,32.49,20.48Z"/><path class="cls-4" d="M31.31,6h0Z"/><path class="cls-4" d="M32.22,3.77l0,0Z"/><path class="cls-4" d="M31.74,21.8c0,.05,0,0,0,0Z"/><path class="cls-4" d="M31.06,21.55,31,21.48Z"/><path class="cls-4" d="M31.64,19.68Z"/><path class="cls-4" d="M31.64,21.81h0Z"/><path class="cls-4" d="M31.72,21.85l0,0S31.72,21.9,31.72,21.85Z"/><path class="cls-4" d="M31.77,21.76l-.05,0h0Z"/><path class="cls-4" d="M32.4,8.57h0C32.34,8.53,32.35,8.55,32.4,8.57Z"/><polygon class="cls-4" points="31.64 16.9 31.65 16.9 31.65 16.9 31.64 16.9"/><path class="cls-4" d="M31.53,16.75c.21.1.18.12.12.15l.52.05Z"/><path class="cls-4" d="M32,11.87l-.17.08c-.26-.12-.16-.19-.39-.11.56,0,0,.33.6.38l-.12,0,0,0c-.27.08.4.09.31.23a.16.16,0,0,1-.19,0l.13.13s-.11,0-.1,0l0,.18h0a1.22,1.22,0,0,1,.28.13c-.08,0-.06,0-.13,0l.13.11c-.15,0-.29-.06-.26-.12-.56,0,.13.09-.21.25l-.06-.09c-.32,0-.21.11-.41.19.1,0,.51-.16.64,0-.05,0-.07.06,0,.12-.2,0-.16.05-.15.12l-.26,0c.06.08.2.09.31.14s-.24.08-.41.08.33-.06.37.11,0,.18.12.34c-.09.07-.15,0-.23,0l.2.1h-.1c.08.06.26,0,.32.13.29.06-.44.15-.13.29-.07,0-.15,0-.25,0a1.38,1.38,0,0,0,.41.31l-.19.09a.79.79,0,0,1,.61.19l.18,0,.17.15a.68.68,0,0,1-.24,0l0,0a.58.58,0,0,1-.37-.05.47.47,0,0,1,.17,0,2.29,2.29,0,0,0-.48-.13l.06.06-.1,0,.09,0h-.3l.12,0-.2.15c.27.17.69.34.77.57a2.09,2.09,0,0,0-.59-.09c.27,0-.09-.18,0-.28,0,.05-.15,0-.19,0l.22.22c-.2,0-.17,0-.25.06.41,0,.25.18.36.28-.14,0-.28-.06-.23-.15-.32.06.46.21.18.27,0,0,0,0,0-.05.12.07,0,.19-.11.14v0a.37.37,0,0,0,.26.55s-.42-.09-.49-.11l.56.24.55.25c-.29-.08-1-.13-1.15-.29,0,0-.11.07,0,.16s.44,0,.44,0c-.33.06-.17.07-.47.12.07,0,.52.12.49.17l-.45-.09.37.21a1.5,1.5,0,0,0-.51-.09c.09,0,0,.13,0,.17l.13,0c-.11.14.59.31.52.47-.09,0-.55-.19-.63-.13a4.35,4.35,0,0,1,1.19.67h-.15l.12.16c-.32-.18-1-.58-1.23-.76-.12,0-.17,0-.18.07a.18.18,0,0,1-.17-.1l-.14.15c.27.07.23.23.45.29l-.21-.3c.27.07.71.35.62.48a3,3,0,0,1-.55-.19c.09,0,.13.19.06.18l-.12-.11c-.12,0,.3.25,0,.26,0,0-.37,0-.21,0a9.86,9.86,0,0,1,1.45.48,2.57,2.57,0,0,1-.52.08c-.25,0-.52-.29-.74-.32a.58.58,0,0,1,.15.09s-.18-.07-.18,0c.26.1-.08.14.21.11,0,.11-.09.06-.11.15a1.17,1.17,0,0,1,.57.43l-.2-.07c-.09.15-.24.18-.32.31s-.17,0-.26-.06a.74.74,0,0,0,.11.1c-.27,0,0-.07-.29-.14.14.08.15.21.2.31.23.1.12-.11.05-.21a1.14,1.14,0,0,1,.63.66c0,.16-.22-.06-.19,0-.17.2.41.51.07.57s-.36-.24-.51-.31.21-.06.24-.13l-.13,0c0-.07-.06-.16,0-.16-.2,0-.25.34-.51.39,0,.07.07.16.16.19v-.07c.18.05.13.24.24.23.06.14.15.33,0,.37l-.21-.14c.06.05.16,0,.12,0,.06.11-.38-.06-.15.18l.19,0c0,.15.17.4,0,.44.23.12,0,0,.27.09-.32-.18.2-.22-.16-.37.31.14.19,0,.49.06-.06,0-.15-.07-.06-.12a.21.21,0,0,1,0-.06h0l-.13,0c-.13-.15,0-.27-.09-.36s.07.07.16.1l-.09-.15c.16.1.34.05.36.22l.07-.1c.13,0,.21-.06.18-.15s-.1-.23,0-.11V21l0,0c.11-.16-.09-.47.31-.53a.19.19,0,0,1,.05-.22l.15.05c0-.09.24-.13.1-.23.44,0,.24-.34.36-.45l-.19-.08a.48.48,0,0,0,0-.33l-.18-.05c-.11-.14.21-.2.23-.35,0,0,0,.06,0,.07.45-.06-.17-.46.15-.54,0-.06,0-.08,0-.1v0l.11,0-.09,0a.27.27,0,0,1,0-.08l.17,0h0c.09,0-.08-.06-.22-.07L33,18c.27,0-.12-.17.22-.15-.15-.07-.07-.26-.41-.36h.07s.1-.06,0-.12l.25,0-.31-.18a.5.5,0,0,1,.44.05c-.26-.22-.09-.15-.35-.35l.16,0c0-.05-.2-.17-.06-.17.32-.06.13-.54.45-.78-.49,0,.22-.11-.14-.16.12,0,.19,0,.27,0-.08-.16.21-.2-.09-.34.12,0,.17.06.23.05s-.09-.06,0-.07.09,0,.13.06c0-.15-.34-.2-.66-.25.16-.06.14-.09-.06-.17.1,0,.22-.05.25,0s.19-.3-.07-.33c.07,0,0-.07,0-.09s0-.12,0-.23l0,0c-.32-.08-.07-.1-.09-.19h0c.25-.18-.11-.1.18-.27h-.2c-.42-.06.27-.16.12-.3l-.12,0c-.14-.08.59-.13.65-.19l.09,0c.26-.15-.26,0-.31-.18.15,0,.35.06.39,0s-.43-.3-.16-.39a.36.36,0,0,1-.29,0c0-.09.43-.21.09-.32h.09c-.08-.08-.13-.24-.31-.3.69,0-.3-.45.32-.42l0-.21h.07c0-.14-.1-.2-.25-.26h.13c.13-.2.1-.23-.2-.4l.2,0c-.11-.05.33-.29.09-.49h.09c-.24-.21.56-.55-.18-.62l-.19-.14c-.06.19-.33,0-.45.06,0-.07.22-.2.26-.1h0c.38,0,.12-.24.39-.25-.05-.38.14-.77.12-1.13l-.3.07V8.43c.07,0,.23-.06.23,0,.16-.06-.16-.13-.22-.12.1-.19.35,0,.35,0l0-.12,0,0c-.13,0-.25,0-.26-.14s.18-.06.18-.06V7.81l-.22.1c-.13,0,0-.14-.27,0,.4-.17.05-.61.16-.7-.19-.06-.21-.15-.21-.28,0,0-.3.12-.29,0,.54-.09.19-.23.54-.42-.23.14-.14-.27-.47-.06,0-.09.2-.06.31-.16-.25-.14,0-.48-.16-.71-.07,0-.16.1-.28.07l.3-.24c-.06,0-.41.09-.2-.08-.06,0-.14.08-.17.06a1,1,0,0,0-.24-.74.84.84,0,0,1-.13-.87c-.08.13-.12.1-.15.06s-.15.1-.23.15l.13-.32c-.25.12-.14-.17-.37,0l.07,0c-.3.09-.51.46-.85.66.34-.11-.3.48.2.36,0,.07-.12,0-.19.1.17-.06.21,0,.19.07l0,0c.13.18,0,.33,0,.6l.17-.09a.34.34,0,0,1-.09.14c.29-.06-.05-.15.27-.24-.33.24.15.38-.25.59,0,.08.2-.1.23,0l-.1.06.16,0c0,.07-.14.15-.24.18l-.06,0c-.1.12.12.17.08.21l0-.1c.19.18.13.49.42.65l.09,0c.2.12-.07.16.06.33h0a.3.3,0,0,1,.15,0c-.11,0-.18.19-.31.16.22.14.16.06.52.11l-.14.06c.14,0,.22,0,.27.1-.14-.06-.21.1-.4.05-.28.25.39.24-.08.41.43,0,.21-.21.3-.18s.33,0,.29.1-.51.2-.48.36l0,0c-.1.08.16.1,0,.2.26,0,0,.09.32.07l-.1-.15c.1.08.49.12.32.28a.47.47,0,0,1-.21-.06c-.09,0,.08.08,0,.13-.33,0-.1-.18-.36-.24s.26.14-.1.14c.45,0,0,.17.31.24h-.19l.13.05h-.26c.23.07-.17.19,0,.27,0-.19.22-.07.36-.15.27.2-.5.16-.39.4,0,0,.11-.13.2-.08a.64.64,0,0,1-.21.15c.06.16.2,0,.33,0-.23.06.1.07.19.14h-.21c-.11.2.42,0,.27.21l-.28-.06.08.09H32c.17.08.13.12.07.21.14,0,.36,0,.37.09s-.19,0-.16.09c-.12,0-.28,0-.1-.11l-.19,0c-.13.06,0,.15,0,.15h0l.28.17a.3.3,0,0,1-.19,0s.11,0,.13.1c-.17,0-.33,0-.41-.08l.18.16c-.06,0-.19.09-.25.07s.32.22.18.34l.06,0c0,.13-.21.23,0,.37l-.3.06c.07.11.37-.08.47.1s-.24,0-.33.07c.14.07.43.19.2.3C32,11.94,32,11.91,32,11.87Zm0,1.34s-.16-.1,0-.1S32.1,13.17,32,13.21Zm.26,2.08c-.06,0,0,0,.05-.07S32.35,15.27,32.29,15.29Zm-.43,6.06v0C32,21.32,31.92,21.33,31.86,21.35Zm-.14.06a.07.07,0,0,0,0,0l0-.07S31.7,21.35,31.72,21.41Zm2-13.4,0,0C33.56,8,33.61,8,33.67,8Z"/><path class="cls-4" d="M32.05,15h.11A.11.11,0,0,0,32.05,15Z"/><polygon class="cls-4" points="31.92 11.06 31.93 11.05 31.89 11.05 31.92 11.06"/><path class="cls-4" d="M31.1,19h.1S31.12,18.93,31.1,19Z"/><path class="cls-4" d="M31.55,22.21l0-.1s-.06,0-.1,0S31.57,22.19,31.55,22.21Z"/><path class="cls-4" d="M30.15,22s0,0,0,.05l.07.06A.07.07,0,0,0,30.15,22Z"/><path class="cls-4" d="M31,21.86c-.14-.1-.13,0-.14,0h0C31,22.06,31,22,31,21.86Z"/><path class="cls-4" d="M30.85,21.92s0,0,0,0S30.85,22,30.85,21.92Z"/><path class="cls-4" d="M31.71,21.62c-.05,0,.17.13.1.11C32,21.88,31.71,21.42,31.71,21.62Z"/><polygon class="cls-4" points="30.54 21.55 30.71 21.66 30.6 21.53 30.54 21.55"/><path class="cls-4" d="M30.93,21.29l-.11,0a.12.12,0,0,1,0,0S31,21.32,30.93,21.29Z"/><path class="cls-4" d="M30.87,21.39s0,0,0,.08Z"/><polygon class="cls-4" points="30.57 21.42 30.62 21.42 30.67 21.38 30.57 21.42"/><path class="cls-4" d="M31.48,20.5v-.12s-.1,0-.1,0S31.41,20.48,31.48,20.5Z"/><path class="cls-4" d="M30.85,20.47s.09,0,.15,0l-.21-.13Z"/><path class="cls-4" d="M30.93,20.2c-.06,0-.12-.2-.15-.1S30.84,20.25,30.93,20.2Z"/><polygon class="cls-4" points="31.8 19.07 31.79 19.09 32.19 19.23 31.8 19.07"/><path class="cls-4" d="M31.19,17.62c-.12.08.25.09.1.15.09.05.12-.05.2,0C31.4,17.68,31.47,17.66,31.19,17.62Z"/><path class="cls-4" d="M31.49,17.77l.05,0Z"/><polygon class="cls-4" points="32.28 3.42 32.31 3.32 32.21 3.43 32.28 3.42"/><path class="cls-4" d="M31.94,3.47l.22-.16-.23.1A0,0,0,0,1,31.94,3.47Z"/><path class="cls-4" d="M31.47,13.35h0Z"/><polygon class="cls-4" points="31.76 12.42 31.75 12.43 31.99 12.42 31.76 12.42"/><path class="cls-4" d="M31.49,11.61s0,.07,0,.07S31.79,11.61,31.49,11.61Z"/></g></g></svg>